<?xml version="1.0" standalone="no"?><!DOCTYPE svg PUBLIC "-//W3C//DTD SVG 1.1//EN" "http://www.w3.org/Graphics/SVG/1.1/DTD/svg11.dtd"><svg t="1644376471762" class="icon" viewBox="0 0 1024 1024" version="1.1" xmlns="http://www.w3.org/2000/svg" p-id="2095" xmlns:xlink="http://www.w3.org/1999/xlink" width="64" height="64"><defs><style type="text/css"></style></defs><path d="M229.155131 52.12245a30.101439 30.101439 0 1 0 42.569121-42.570607 30.101439 30.101439 0 1 0-42.569121 42.570607Z" fill="#DECAF2" p-id="2096"></path><path d="M131.245254 151.471366a30.101439 30.101439 0 1 0 42.569121-42.570607 30.101439 30.101439 0 1 0-42.569121 42.570607Z" fill="#DECAF2" p-id="2097"></path><path d="M16.317883 264.789415a30.101439 30.101439 0 1 0 42.569121-42.570607 30.101439 30.101439 0 1 0-42.569121 42.570607Z" fill="#DECAF2" p-id="2098"></path><path d="M581.961164 141.024441c-70.236692 0-136.459859 16.054101-196.662738 46.155541-6.020288-10.033813-12.040576-18.060864-20.067627-26.087914l-80.270505-80.270506 14.047338 120.405758-126.426046-20.067626 22.074389 128.432809-120.405758-14.047339 80.270506 80.270505c8.027051 8.027051 18.060864 16.054101 30.101439 22.074389C156.527485 452.07265 140.473384 514.282291 140.473384 582.512221c0 242.818279 198.669501 441.487779 441.48778 441.487779s441.487779-198.669501 441.487779-441.487779S824.779442 141.024441 581.961164 141.024441z m0 842.840306C361.217274 983.864747 180.608637 803.25611 180.608637 582.512221c0-62.209642 14.047338-122.412521 40.135253-176.595112 34.114965 4.013525 70.236692-6.020288 96.324606-32.108202l48.162303-48.162303c28.094677-28.094677 38.12849-64.216404 32.108202-100.338132C453.528355 197.213795 515.737997 181.159694 581.961164 181.159694c220.74389 0 401.352527 180.608637 401.352526 401.352527s-180.608637 401.352527-401.352526 401.352526z" fill="#DECAF2" p-id="2099"></path><path d="M581.961164 582.512221m-401.352527 0a401.352527 401.352527 0 1 0 802.705053 0 401.352527 401.352527 0 1 0-802.705053 0Z" fill="#DECAF2" p-id="2100"></path></svg>