<?xml version="1.0" encoding="UTF-8"?>
<!-- Generator: Adobe Illustrator 25.2.3, SVG Export Plug-In . SVG Version: 6.00 Build 0)  -->
<svg xmlns="http://www.w3.org/2000/svg" xmlns:xlink="http://www.w3.org/1999/xlink" version="1.1" id="Capa_1" x="0px" y="0px" viewBox="0 0 512 512" style="enable-background:new 0 0 512 512;" xml:space="preserve" width="512" height="512">
<g>
	<g>
		<path style="fill:#9CF0E7;" d="M138.683,276.834H0c0,0,16.018-16.32,36.252-8.16c0,0,4.184-31.219,32.443-34.978    c28.259-3.759,39.632,34.978,39.632,34.978S128.986,253.757,138.683,276.834z"/>
		<path style="fill:#9CF0E7;" d="M277.843,153.297h152.175c0,0-8.537-16.403-29.104-10.727c0,0,2.328-37.184-22.507-38.649    c-24.835-1.465-31.044,28.076-31.044,28.076s-23.557-16.658-49.313-1.655C277.228,142.472,277.843,153.297,277.843,153.297z"/>
		<ellipse style="fill:#FFC893;" cx="271.732" cy="366.559" rx="240.268" ry="65.837"/>
		<path style="fill:#FF5555;" d="M357.667,390.325c1.386,1.212,1.954,3.525,0.747,4.916c-1.048,1.209-2.858,1.255-4.441,1.486    c-2.659,0.389-5.197,1.57-7.206,3.355c-1.379,1.225-2.504,2.718-3.903,3.92c-2.205,1.896-4.988,2.985-7.789,3.766    c-8.615,2.403-17.953,2.145-26.422-0.73c-3.759-1.276-7.811-3.652-8.372-7.582c-0.372-2.604,1.001-5.231,2.995-6.946    c1.995-1.715,4.536-2.655,7.07-3.359c8.706-2.419,18.092-2.588,27.053-1.874c2.929,0.233,5.778,1.006,8.711,1.158    C349.746,388.623,354.661,387.698,357.667,390.325z"/>
		<ellipse style="fill:#FFC893;" cx="297.784" cy="434.774" rx="73.401" ry="24.274"/>
		<path style="fill:#FFC893;" d="M104.901,401.85c0,5.247-12.863,9.501-28.729,9.501c-15.867,0-28.729-4.254-28.729-9.501    c0-5.247,12.863-9.501,28.729-9.501C92.038,392.349,104.901,396.602,104.901,401.85z"/>
		<path style="fill:#FFC893;" d="M103.81,421.839c0,2.521-6.18,4.565-13.803,4.565c-7.623,0-13.803-2.044-13.803-4.565    c0-2.521,6.18-4.565,13.803-4.565C97.631,417.274,103.81,419.318,103.81,421.839z"/>
		<path style="fill:#FFC893;" d="M445.65,309.168c0,1.785-4.375,3.232-9.772,3.232c-5.397,0-9.772-1.447-9.772-3.232    c0-1.785,4.375-3.232,9.772-3.232C441.275,305.937,445.65,307.384,445.65,309.168z"/>
		<ellipse style="fill:#FFC893;" cx="349.314" cy="309.168" rx="73.401" ry="24.274"/>
		<path style="fill:#FF9D3D;" d="M360.942,381.515c-8.398,6.619-17.084,11.92-25.839,16.113c-7.531,3.604-15.132,6.399-22.674,8.524    c-5.371,1.513-10.719,2.691-15.986,3.581c-10.892,1.814-21.461,2.402-31.337,2.206c-10.361-0.208-19.948-1.27-28.322-2.668    c-10.165-1.698-18.551-3.892-24.337-5.637c-5.637-1.71-8.825-2.992-8.825-2.992l-1.813-11.019l21.715-1.109l23.46-1.19    l26.185-1.34l16.772-0.855l23.54-1.201l14.889-0.751L360.942,381.515z"/>
		<g>
			<g>
				<path style="fill:#FF9D3D;" d="M290.682,252.878c0,0,39.111-19.9,71.114,5.392c32.003,25.292,41.568,55.466,52.576,77.304      c22.799,0,35.787-3.6,43.621,1.622c1.987,1.325,7.298,5.081,0.402,8.035c-15.372,6.586-47.216,11.567-79.81,6.511      c-47.217-7.324-53.513-35.766-53.513-35.766L290.682,252.878z"/>
				<path style="opacity:0.2;fill:#AE312F;" d="M290.682,252.878c0,0,39.111-19.9,71.114,5.392      c32.003,25.292,41.568,55.466,52.576,77.304c22.799,0,35.787-3.6,43.621,1.622c1.987,1.325,7.298,5.081,0.402,8.035      c-15.372,6.586-47.216,11.567-79.81,6.511c-47.217-7.324-53.513-35.766-53.513-35.766L290.682,252.878z"/>
			</g>
			<path style="fill:#AE312F;" d="M446.683,350.563c-0.208-2.545-1.457-4.67-3.229-6.229c-0.855-0.827-1.908-1.431-2.942-2.079     l-1.641-0.859c-0.565-0.261-1.135-0.521-1.7-0.835c0.633,0.061,1.261,0.176,1.895,0.289c0.617,0.165,1.232,0.359,1.841,0.573     c1.184,0.513,2.359,1.126,3.336,2.034c0.974,0.891,1.806,1.99,2.253,3.251C446.948,347.951,447.078,349.334,446.683,350.563z"/>
		</g>
		<g>
			<g>
				<path style="fill:#FF9D3D;" d="M132.713,374.512c-41.294,9.876-74.444,0.358-83.154-28.461      c-1.12-3.662-1.825-7.624-2.114-11.909c-0.254-3.708-0.161-7.266,0.208-10.684c3.454-31.718,31.395-51.689,43.893-64.915      c0.139-0.15,0.277-0.301,0.404-0.45c3.8-4.239,5.429-9.495,5.244-14.935c-0.312-10.407-7.196-21.53-17.961-27.721      c-3.142-1.79-6.607-3.176-10.349-3.997c-23.46-5.151-24.441-20.191-18.1-25.596c6.33-5.406,18.1-3.304,18.1-3.304      c0.092,0.011,0.173,0.023,0.266,0.035c14.866,1.629,27.895,9.483,36.35,21.831c0.173,0.266,0.346,0.52,0.519,0.774      c0.797,1.224,1.583,2.483,2.322,3.8c3.35,5.845,6.134,12.533,7.935,19.486v0.012c2.853,11.019,3.223,22.697-0.635,32.723      c-5.579,14.473-20.202,21.993-30.91,32.157c-0.693,0.647-1.363,1.305-2.021,1.987c-3.05,3.165-5.718,6.549-7.866,10.141      c0,0,0,0,0,0.012c-5.475,9.183-7.45,19.625-3.084,30.621c3.511,8.859,10.061,13.514,17.28,15.778      c5.359,1.675,11.077,2.045,16.194,1.825c8.94-0.381,16.021-2.553,16.021-2.553L132.713,374.512z"/>
				<path style="opacity:0.2;fill:#AE312F;" d="M132.713,374.512c-41.294,9.876-74.444,0.358-83.154-28.461      c-1.12-3.662-1.825-7.624-2.114-11.909c-0.254-3.708-0.161-7.266,0.208-10.684c3.454-31.718,31.395-51.689,43.893-64.915      c0.139-0.15,0.277-0.301,0.404-0.45c3.8-4.239,5.429-9.495,5.244-14.935c-0.312-10.407-7.196-21.53-17.961-27.721      c-3.142-1.79-6.607-3.176-10.349-3.997c-23.46-5.151-24.441-20.191-18.1-25.596c6.33-5.406,18.1-3.304,18.1-3.304      c0.092,0.011,0.173,0.023,0.266,0.035c14.866,1.629,27.895,9.483,36.35,21.831c0.173,0.266,0.346,0.52,0.519,0.774      c0.797,1.224,1.583,2.483,2.322,3.8c3.35,5.845,6.134,12.533,7.935,19.486v0.012c2.853,11.019,3.223,22.697-0.635,32.723      c-5.579,14.473-20.202,21.993-30.91,32.157c-0.693,0.647-1.363,1.305-2.021,1.987c-3.05,3.165-5.718,6.549-7.866,10.141      c0,0,0,0,0,0.012c-5.475,9.183-7.45,19.625-3.084,30.621c3.511,8.859,10.061,13.514,17.28,15.778      c5.359,1.675,11.077,2.045,16.194,1.825c8.94-0.381,16.021-2.553,16.021-2.553L132.713,374.512z"/>
			</g>
			<path style="fill:#AE312F;" d="M79.234,215.436c-3.142-1.79-6.607-3.176-10.349-3.997c-23.46-5.151-24.441-20.191-18.1-25.596     c6.33-5.406,18.1-3.304,18.1-3.304c0.092,0.011,0.173,0.023,0.266,0.035c0.427,1.918-1.756,3.269-1.756,3.269     C88.566,192.6,82.953,208.482,79.234,215.436z"/>
			<path style="fill:#AE312F;" d="M116.276,228.465v0.012c-4.84,2.345-11.366,4.262-14.149-0.589     c-3.28-5.752,2.356-14.173,6.214-18.908C111.691,214.824,114.475,221.512,116.276,228.465z"/>
			<path style="fill:#AE312F;" d="M108.191,263.787c-5.371,3.407-12.105-1.64-16.24-5.694c3.8-4.239,5.429-9.495,5.244-14.935     C103.27,248.748,115.156,259.386,108.191,263.787z"/>
			<path style="fill:#AE312F;" d="M84.732,293.357c-0.693,0.647-1.363,1.305-2.021,1.987c-3.05,3.165-5.718,6.549-7.866,10.141     c-3.973-5.29-5.764-12.706-1.859-16.275C75.976,286.473,80.931,289.846,84.732,293.357z"/>
			<path style="fill:#AE312F;" d="M49.56,346.051c-1.12-3.662-1.825-7.624-2.114-11.909c-0.254-3.708-0.161-7.266,0.208-10.684     c4.355,0.069,12.844,0.277,15.778,4.921C66.851,333.807,61.076,344.434,49.56,346.051z"/>
			<path style="fill:#AE312F;" d="M105.234,353.721c-2.091,5.036-7.646,16.529-14.057,13.595c-5.117-2.333-3.824-10.015-2.137-15.42     C94.399,353.571,100.117,353.94,105.234,353.721z"/>
		</g>
		<path style="fill:#FF9D3D;" d="M316.287,401.197c-54.184,5.163-111.868-2.611-111.868-2.611    c-3.777,11.759-14.658,8.963-14.658,8.963c-7.092,6.064-15.282,1.34-15.282,1.34c-29.004,5.198-41.767-14.866-41.767-14.866    c-20.855-30.028-32.557-67.001-34.986-110.956c-0.661-20.384,3.827-43.056,11.665-61.126    c6.289-15.035,20.847-33.408,28.854-38.822c14.11-3.277,124.876-29.477,181.218,13.688c11.694,7.915,21.872,18.354,28.172,29.65    h0.012c12.392,20.36,10.071,46.867,7.115,54.658c0,0,18.308,14.15,24.406,35.888C385.268,338.743,368.323,396.231,316.287,401.197    z"/>
		<path style="fill:#FF9D3D;" d="M285.649,192.521c0,0-68.559,26.965-126.215,5.563c-30.136-11.145-46.628-34.709-45.388-64.576    c4.38-62.875,64.65-67.941,116.62-63.695c30.249,2.584,67.178,11.611,80.98,38.306    C330.293,140.229,313.966,187.147,285.649,192.521z"/>
		<g>
			<g>
				<path style="fill:#FFFFFF;" d="M277.347,150.695c-7.098,3.884-17.668,4.358-24.916,0.673c-1.548-0.789-2.961-1.794-4.193-3.044      c-5.331-5.46-7.764-14.358-7.039-21.896c0.003-0.175,0.021-0.35,0.039-0.525c0.873-7.594,5.916-14.043,12.91-17.023      c8.186-3.483,19.892-3.775,26.469,3.037c2.593,2.692,4.498,6.263,5.622,10.184l0.015,0      C289.285,132.544,286.852,145.483,277.347,150.695z"/>
				<path style="fill:#AE312F;" d="M277.347,150.695c-8.033,4.144-18.403,4.614-26.44,0.212c-8-5.118-11.175-15.43-10.694-24.574      l-0.005,0.076c0.907-17.646,23.621-26.378,37.758-17.672c4.628,2.986,7.339,8.077,8.724,13.233l-0.438-0.341      c0.01,0.001,0.355,0.019,0.367,0.02C289.399,131.848,287.277,145.178,277.347,150.695z M277.347,150.695      c9.763-5.448,11.621-18.587,8.454-28.462l0.437,0.339c-0.014,0-0.331-0.003-0.346-0.003c-1.503-4.903-4.309-9.8-8.812-12.405      c-10.848-5.767-26.965-1.886-32.747,9.259c-4.108,8.18-2.604,18.612,2.295,26.168      C253.124,155.304,267.699,155.615,277.347,150.695z"/>
			</g>
			<path style="fill:#AE312F;" d="M261.883,147.493c6.017,0.996,12.799-1.181,16.522-6.161c5.933-7.935,3.707-20.547-4.685-25.733     c-4.505-2.785-10.719-3.484-15.677-1.541c-13.25,5.194-12.587,25.266-0.88,31.819     C258.605,146.683,260.209,147.215,261.883,147.493z"/>
			<path style="opacity:0.21;fill:#AE312F;" d="M286.238,122.102c-26.324-13.084-43.015,2.305-45.04,4.327     c0.003-0.175,0.021-0.35,0.039-0.525c0.873-7.594,5.916-14.043,12.91-17.023c8.186-3.483,19.892-3.775,26.469,3.037     C283.209,114.61,285.114,118.18,286.238,122.102z"/>
		</g>
		<g>
			<g>
				<path style="fill:#FFFFFF;" d="M183.582,156.264c-7.098,3.884-17.668,4.358-24.916,0.673c-1.548-0.789-2.961-1.794-4.194-3.044      c-5.331-5.46-7.765-14.357-7.039-21.895c0.003-0.175,0.021-0.35,0.039-0.525c0.873-7.594,5.916-14.043,12.91-17.023      c8.187-3.484,19.892-3.776,26.469,3.037c2.593,2.692,4.498,6.263,5.622,10.184h0.015      C195.519,138.113,193.086,151.052,183.582,156.264z"/>
				<path style="fill:#AE312F;" d="M183.582,156.264c-8.033,4.143-18.404,4.614-26.44,0.212c-8-5.118-11.175-15.431-10.694-24.574      l-0.005,0.076c0.908-17.645,23.622-26.377,37.758-17.671c4.629,2.987,7.339,8.077,8.723,13.233l-0.448-0.341      c0.013,0.001,0.362,0.011,0.376,0.012C195.634,137.411,193.514,150.745,183.582,156.264z M183.582,156.264      c9.763-5.448,11.621-18.587,8.453-28.462l0.448,0.339c-0.012,0-0.341,0.005-0.354,0.005c-1.503-4.906-4.308-9.807-8.814-12.413      c-10.849-5.767-26.965-1.886-32.747,9.26c-4.108,8.18-2.604,18.612,2.295,26.167      C159.358,160.874,173.933,161.184,183.582,156.264z"/>
			</g>
			<path style="fill:#AE312F;" d="M168.117,153.061c6.017,0.996,12.799-1.181,16.522-6.161c5.933-7.936,3.706-20.547-4.685-25.734     c-4.505-2.785-10.72-3.484-15.677-1.541c-13.25,5.195-12.587,25.266-0.881,31.819     C164.839,152.252,166.443,152.784,168.117,153.061z"/>
			<path style="opacity:0.21;fill:#AE312F;" d="M192.472,127.671c-26.324-13.084-43.015,2.305-45.04,4.327     c0.003-0.175,0.021-0.35,0.039-0.525c0.873-7.594,5.916-14.043,12.91-17.023c8.187-3.484,19.892-3.776,26.469,3.037     C189.443,120.179,191.348,123.749,192.472,127.671z"/>
		</g>
		<path style="fill:#AE312F;" d="M220.968,128.154c0,0-5.315-4.736-7.85-3.335c-2.535,1.402,2.965,6.97,8.384,7.656    c0,0,8.003-5.651,5.388-9.132C224.275,119.862,220.968,128.154,220.968,128.154z"/>
		<path style="fill:#AE312F;" d="M168.894,100.871c-0.211,0.376-0.402,0.797-0.338,1.223c0.079,0.531,0.526,0.923,0.966,1.231    c2.075,1.449,4.688,2.106,7.201,1.811c0.612-0.072,1.233-0.204,1.752-0.537c0.633-0.407,1.05-1.072,1.394-1.741    c0.543-1.057,0.961-2.201,1.023-3.388C181.275,92.163,170.824,97.424,168.894,100.871z"/>
		<path style="fill:#AE312F;" d="M259.694,99.064c0.191,0.387,0.359,0.816,0.274,1.239c-0.106,0.526-0.573,0.895-1.029,1.179    c-2.147,1.339-4.791,1.859-7.285,1.434c-0.607-0.104-1.221-0.268-1.721-0.628c-0.611-0.439-0.993-1.125-1.302-1.811    c-0.488-1.084-0.845-2.248-0.845-3.437C247.783,89.723,257.946,95.521,259.694,99.064z"/>
		<path style="fill:#FF9D3D;" d="M148.676,109.344c-0.344-0.04-0.689-0.081-1.023-0.144c-24.549-3.71-31.284-35.074-25.94-39.829    c0.089-0.082,0.194-0.171,0.294-0.249c5.49-4.505,16.189-2.909,27.276,1.999c11.296,4.984,24.933,0.312,24.933,0.312    S174.047,112.322,148.676,109.344z"/>
		<path style="fill:#FF9D3D;" d="M303.245,91.052c0,0-0.002,0.012-0.016,0.023c-0.942,1.423-1.975,2.784-3.134,4.065    c-0.002,0.012-0.014,0.01-0.028,0.021c-2.305,2.564-5.09,4.826-8.396,6.631c-22.428,12.236-34.219-26.732-34.219-26.732    s14.382-0.759,23.008-9.596c7.821-8.04,16.394-13.342,22.999-12.405c0.671,0.092,1.307,0.255,1.934,0.478    C310.686,55.449,313.015,76.186,303.245,91.052z"/>
		<path style="fill:#AE312F;" d="M303.247,91.057c0,0-0.005,0.011-0.021,0.018c-0.117,0.244-1.192,2.208-3.129,4.06    c-0.005,0.011-0.021,0.018-0.026,0.029c-1.083,1.038-2.814,2.027-4.835,2.694c-3.483-0.105-5.634,0.224-8.998-2.087    c-8.274-5.708,9.611-12.156,15.856-29.61c2.281-4.3,3.21-8.72,1.366-13.101c0.668,0.097,1.307,0.261,1.938,0.476    C310.684,55.446,313.013,76.188,303.247,91.057z"/>
		<path style="fill:#AE312F;" d="M147.655,109.202c-24.553-3.716-31.292-35.078-25.944-39.827c0.089-0.083,0.193-0.172,0.293-0.25    c0.538,1.913,1.697,4.599,4.228,7.52c2.565,2.935,5.124,7.703,11.239,10.528c11.253,5.181,11.338,9.449,12.193,17.801    C149.187,106.697,148.445,108.16,147.655,109.202z"/>
		<path style="fill:#FFFFFF;" d="M295.516,87.344c0,0,2.053,5.526-0.28,10.513c-3.566,1.187-8.017,1.369-11.381-0.943    c-8.274-5.708,11.277-17.637,18.24-30.755c0.043,3.897-0.722,9.603-4.598,14.697c0,0,5.163-1.953,5.954-0.921    c0.747,1.012-5.343,4.203-5.685,4.379c0.267-0.061,3.35-0.77,3.769,0.572C301.97,86.288,295.516,87.344,295.516,87.344z"/>
		<path style="fill:#FFFFFF;" d="M149.665,104.974c-14.951,1.165-14.984-13.146-14.984-13.146s-1.921,2.728-3.524,1.432    c-1.528-1.251,1.243-3.337,1.48-3.517c-0.165,0.01-3.555,0.309-4.437-0.668c-0.912-1.003,2.632-1.945,2.632-1.945    c-4.239-3.245-4.678-8.099-4.599-10.486c2.565,2.935,6.517,6.098,12.632,8.923C150.117,90.75,151.291,99.259,149.665,104.974z"/>
		<path style="fill:#AE312F;" d="M229.653,100.343c-1.351,2.141-3.775,3.786-6.298,3.556c-3.416-0.301-5.652-3.631-7.07-6.748    c-2.466-5.434-3.973-11.236-6.056-16.816c-1.454-3.881-3.22-7.72-5.694-11.058c-0.145-0.195-0.296-0.406-0.447-0.618    c8.894-0.127,17.877,0.292,26.578,1.153c1.725,7.62,2.122,15.532,1.152,23.292C231.5,95.618,231.02,98.196,229.653,100.343z"/>
		<path style="fill:#AE312F;" d="M245.747,83.896c-1.464,1.21-3.738,1.622-5.28,0.498c-1.554-1.128-1.842-3.283-2.103-5.186    c-0.369-2.751-0.94-5.468-1.712-8.123c-0.057-0.212-0.142-0.421-0.222-0.642c4.695,0.563,9.272,1.25,13.679,2.052    c-0.264,2.228-0.746,4.431-1.463,6.56C248.04,80.858,247.227,82.679,245.747,83.896z"/>
		<path style="fill:#AE312F;" d="M196.58,82.777c-0.859,1.454-2.641,2.502-4.249,2.006c-0.793-0.243-1.446-0.815-2.044-1.39    c-3.479-3.27-8.091-8.091-10.255-13.009c5.6-0.777,11.392-1.286,17.262-1.534c0.318,2.997,0.439,6.018,0.339,9.024    C197.572,79.56,197.427,81.318,196.58,82.777z"/>
		<path style="fill:#AE312F;" d="M319.257,145.548c-2.879,0.89-5.859,1.483-8.826,2.015c-4.245,0.737-9.052,1.223-12.479-1.383    c-1.156-0.866-2.075-2.072-2.465-3.454c-0.819-2.889,0.829-6.013,3.185-7.875c2.349-1.878,5.292-2.794,8.113-3.829    c3.064-1.106,6.14-2.46,8.734-4.474c0.974-0.75,1.666-1.686,2.308-2.631C319.471,130.847,319.945,138.136,319.257,145.548z"/>
		<path style="fill:#AE312F;" d="M317.045,120.91c-2.195,0.98-4.527,1.621-7.013,1.648c-2.883,0.019-6.891-0.212-7.796-3.592    c-0.248-0.895-0.103-1.836,0.268-2.708c1.49-3.54,5.456-4.596,8.085-7.037c0.36-0.342,0.706-0.717,1.057-1.103    C313.95,112.173,315.743,116.452,317.045,120.91z"/>
		<path style="fill:#AE312F;" d="M314.761,165.075c-2.53-0.593-4.95-1.634-7.118-3.077c-1.443-0.947-2.826-2.163-3.379-3.789    c-0.56-1.642,0.02-3.763,1.612-4.424c0.78-0.324,1.666-0.269,2.516-0.255c3.108,0.05,6.222-0.607,9.043-1.896    c0.381-0.173,0.758-0.4,1.125-0.632c-0.217,1.298-0.462,2.598-0.746,3.896C316.998,158.643,315.961,162.028,314.761,165.075z"/>
		<path style="fill:#FF5555;" d="M211.801,136.956c-3.107,1.444-5.855,4.334-7.147,8.319c-1.874,5.776-1.358,12.527,2.839,16.749    c2.605,2.62,5.872,3.725,9.055,4.187c6.099,0.885,12.196,1.264,17.845-1.703c2.049-1.076,4.008-2.536,5.482-4.666    c2.259-3.264,3.206-8.055,2.484-12.558c-0.723-4.504-3.099-8.615-6.229-10.777c-3.85-2.66-9.014-2.822-13.1-2.057    C219.387,135.132,215.216,135.369,211.801,136.956z"/>
		<path style="opacity:0.48;fill:#EB4949;" d="M268.877,158.621c-3.416,2.363-3.923,7.203,0.003,9.629    c5.257,3.249,15.167,2.624,19.822-1.535c3.93-3.51,1.491-9.874-2.804-11c-3.63-0.952-7.478-0.613-11.027,0.388    C273.222,156.569,270.792,157.296,268.877,158.621z"/>
		<path style="opacity:0.48;fill:#EB4949;" d="M155.934,159.361c-3.925,0.96-6.067,5.181-3.344,8.75    c3.647,4.779,12.868,7.655,18.543,5.495c4.791-1.824,4.786-8.453,1.275-10.968c-2.967-2.126-6.581-3.156-10.153-3.48    C160.595,159.007,158.134,158.823,155.934,159.361z"/>
		<path style="fill:#AE312F;" d="M135.605,151.894c-2.158,1.491-4.846,1.9-7.451,2.145c-3.977,0.357-8.006,0.397-11.965-0.041    c-1.83-6.742-2.497-13.672-2.142-20.489c0.133,0.096,0.259,0.177,0.397,0.262c5.621,3.484,12.219,4.923,18.356,7.222    c2.185,0.808,4.533,1.952,5.39,4.122C139.152,147.543,137.747,150.409,135.605,151.894z"/>
		<path style="fill:#AE312F;" d="M132.374,165.86c-1.67,3.011-4.71,5.115-7.984,6.209c-0.079,0.032-0.152,0.052-0.237,0.068    c-2.855-4.244-5.053-8.716-6.658-13.327c2.433,0.305,4.858,0.477,7.424,0.162c1.389-0.178,2.785-0.43,4.187-0.302    c1.392,0.123,2.829,0.72,3.594,1.891C133.714,162.123,133.265,164.222,132.374,165.86z"/>
		<path style="fill:#AE312F;" d="M124.204,133.115c-1.31,0.125-2.611-0.307-3.804-0.867c-2.171-1.029-4.102-2.465-5.895-4.068    c0.725-5.737,2.149-11.324,4.178-16.574c0.213,0.505,0.383,1.019,0.551,1.505c1.62,4.781,3.828,9.342,6.583,13.562    c0.835,1.278,1.753,2.737,1.358,4.201C126.824,132.142,125.519,132.979,124.204,133.115z"/>
		<path style="opacity:0.48;fill:#AE312F;" d="M234.913,198.759c3.944-0.024,7.924-0.026,11.834-0.488    c-0.975,1.199-2.931,3.736-1.106,4.866c2.368-1.078,3.478-4.353,4.742-6.548c0.58,1.977,1.108,4.948,2.912,6.047    c0.767-1.392,0.488-3.361,0.509-4.944c6.243-0.017,12.919-1.009,18.108-4.694c-0.618,1.566-1.627,3.512-1.125,5.134    c3.182-0.868,5.844-3.535,8.577-5.408c-2.958,2.539-12.062,11.37-8.729,1.186l0.622,0.504c-4.907,3.382-11.025,4.236-16.863,4.436    l0.585-0.612c0.536,8.271-3.874,6.268-5.264-0.045l0.985,0.111c-1.335,2.076-2.384,5.246-5.142,5.723    c-2.629-0.835-1.141-4.222,0.172-5.557l0.288,0.56C242.303,199.277,238.612,199.036,234.913,198.759z"/>
		<path style="opacity:0.48;fill:#AE312F;" d="M138.239,183.117c0.119,6.592,3.516,13.157,6.448,3.029    c0.779,3,1.656,6.397,3.79,8.704c2.814,2.727,4.61-0.496,4.807-3.323c9.188,5.376,20.095,8.34,30.764,7.221    c-10.466,2.058-21.392-0.699-30.627-5.775l0.89-0.426c-0.323,3.565-3.762,6.115-6.594,3.056c-1.994-2.198-2.844-4.973-3.504-7.771    l0.849,0.034c-0.6,2.376-3.636,6.281-5.652,2.82C138.278,188.304,138.23,185.682,138.239,183.117z"/>
		<path style="opacity:0.48;fill:#AE312F;" d="M313.317,245.613c-0.88-1.102-1.315-2.41-1.585-3.727    c-0.235-1.325-0.287-2.704,0.122-4.048c0.527,1.299,0.779,2.556,1.037,3.83C313.114,242.949,313.321,244.217,313.317,245.613z"/>
		<path style="fill:#AE312F;" d="M174.221,407.549c0.484-1.683,0.709-3.394,0.746-5.079c0.015-1.686-0.224-3.359-0.792-4.915    c-0.102-0.404-0.285-0.776-0.46-1.152c-0.177-0.375-0.326-0.765-0.565-1.108l-0.646-1.073l-0.775-0.993l-0.387-0.503l-0.445-0.454    l-0.89-0.924c-0.61-0.606-1.311-1.112-1.948-1.73c0.779,0.391,1.558,0.811,2.311,1.28c0.681,0.559,1.468,1.024,2.045,1.717    c1.321,1.229,2.239,2.861,2.875,4.555c0.602,1.719,0.804,3.572,0.593,5.357C175.685,404.309,175.126,406.043,174.221,407.549z"/>
		<path style="fill:#AE312F;" d="M189.1,406.361c1.049-1.45,1.894-3.003,2.584-4.586c0.663-1.594,1.114-3.262,1.174-4.942    c0.082-0.844-0.056-1.674-0.156-2.509c-0.217-0.812-0.398-1.641-0.784-2.409c-0.286-0.813-0.797-1.514-1.234-2.273    c-0.456-0.75-1.076-1.381-1.584-2.133c0.691,0.557,1.408,1.122,2.037,1.775c0.569,0.705,1.214,1.377,1.606,2.224    c0.516,0.782,0.75,1.693,1.051,2.581c0.154,0.923,0.308,1.855,0.242,2.794c-0.091,1.872-0.649,3.688-1.526,5.291    C191.638,403.779,190.487,405.219,189.1,406.361z"/>
		<path style="fill:#AE312F;" d="M214.146,170.112c1.982-13.311,4.536-27.74,7.034-40.959c6.529,11.527,12.324,23.693,15.174,36.69    c-3.567-12.196-9.16-23.74-15.404-34.761l1.065-0.187C219.653,143.58,216.968,157.518,214.146,170.112z"/>
		<path style="fill:#FF5555;" d="M242.596,164.811c-1.261,0.945-2.066,2.636-1.584,4.136c0.33,1.029,1.211,1.82,2.209,2.233    c0.999,0.414,2.107,0.49,3.186,0.436c1.379-0.069,2.827-0.383,3.83-1.332c0.817-0.773,1.247-1.912,1.244-3.037    c-0.001-0.321-0.037-0.65-0.183-0.936c-0.138-0.271-0.365-0.486-0.596-0.684C248.248,163.511,245.392,162.715,242.596,164.811z"/>
		<path style="fill:#FF5555;" d="M200.485,142.437c0.371,0.111,0.762,0.143,1.149,0.13c0.772-0.025,1.551-0.229,2.182-0.675    c2.478-1.751,0.803-5.772-2.126-5.481C198.731,136.705,197.102,141.424,200.485,142.437z"/>
		<path style="fill:#FFC893;" d="M188.976,264.911c0.127-34.264,34.132-61.325,64.912-53.754    c19.87,4.887,38.268-2.882,53.531,32.312c0,0-36.008-4.035-46.76,9.425c-10.752,13.459,15.254,41.941,15.254,41.941l-10.92,14.333    l-19.545,10.679c0,0,7.711-4.658,6.628-8.619c-1.083-3.961-11.587,6.568-11.587,6.568s3.419-10.363-1.004-11.533    c-1.997-0.528-5.048,2.905-11.507,13.554c-2.577,4.248-7.021,8.515-11.333,14.923    C201.806,314.096,188.976,287.754,188.976,264.911z"/>
		<path style="fill:#FF9D3D;" d="M269.075,322.313c0,0,43.778-50.133,86.895-40.199c57.988,13.361,60.066,80.953,60.066,80.953    s39.428-4.289,46.597,7.947c7.169,12.235-31.748,6.09-59.911,13.771c-28.163,7.681-41.775-3.274-41.775-3.274    s-32.202,34.449-125.02,20.91C143.108,388.881,269.075,322.313,269.075,322.313z"/>
		<path style="fill:#AE312F;" d="M457.345,378.329c-1.203-2.322-2.738-4.347-4.75-5.78c-0.994-0.716-2.074-1.338-3.253-1.759    c-0.573-0.263-1.192-0.391-1.801-0.595c-0.615-0.18-1.251-0.274-1.892-0.468c0.649-0.068,1.316-0.128,1.98-0.104    c0.657,0.075,1.34,0.086,1.984,0.288c1.327,0.27,2.565,0.909,3.678,1.688c1.103,0.803,2.043,1.825,2.733,2.985    C456.723,375.73,457.212,377.012,457.345,378.329z"/>
		<path style="fill:#AE312F;" d="M246.983,387.325c-1.305,3.454-2.922,6.78-4.181,9.703c-1.802,4.181-3.719,8.328-6.018,12.244    c-10.165-1.698-18.551-3.892-24.337-5.637c2.021-2.414,3.962-4.886,5.821-7.415c1.836-2.507,3.604-5.083,5.255-7.704    c1.144-1.756,2.229-3.535,3.28-5.336c2.056-3.558,4.02-7.254,6.965-10.13c3.95-3.858,13.364-7.427,15.12,0.324    C249.894,377.807,248.716,382.681,246.983,387.325z"/>
		<path style="fill:#AE312F;" d="M296.443,409.733c-10.892,1.814-21.461,2.402-31.337,2.206c0.705-1.189,1.363-2.391,1.825-3.603    c0.774-2.068,1.259-4.378,1.675-6.758c0.959-5.44,1.56-11.273,4.562-15.593c0.532-0.762,1.132-1.467,1.825-2.125    c5.464-5.175,11.147-3.154,14.947,1.271c1.779,2.091,3.142,4.701,3.87,7.346c1.305,4.771,2.091,9.899,2.46,14.82    C296.328,408.105,296.386,408.913,296.443,409.733z"/>
		<path style="fill:#AE312F;" d="M335.103,397.628c-7.531,3.604-15.132,6.399-22.674,8.524c0.058-1.328,0.173-2.668,0.22-3.95    c0.15-5.787,0.081-11.551,0.716-17.314c0.035-0.324,0.069-0.647,0.115-0.959c0.231-1.79,0.601-3.58,1.49-5.14    c1.051-1.825,2.991-3.292,5.105-3.2c2.322,0.116,4.146,1.975,5.579,3.812c0.959,1.213,1.871,2.472,2.715,3.777    C331.315,387.625,333.579,392.511,335.103,397.628z"/>
		<path style="opacity:0.48;fill:#AE312F;" d="M290.067,298.137c-17.809,4.19-31.612,16.805-48.147,23.864    c1.473-1.116,12.605-9.674,8.941-11.075c-4.588,1.376-8.079,5.712-11.575,8.855c1.003-3.239,3.782-12.11-0.917-13.237    c-4.915,2.5-7.027,8.915-9.605,13.573c-8.71,9.295-16.24,19.94-21.073,31.778c4.367-12.082,11.762-22.884,20.341-32.377    l-0.093,0.137c2.464-4.672,5.058-12.086,10.27-14.181c5.575,0.564,3.865,8.843,2.831,12.502l-0.964-0.591    c3.27-2.907,6.292-6.539,10.741-7.581c5.762,1.326-2.979,8.934-5.052,10.456l-0.529-0.893    C260.105,312.186,273.5,301.401,290.067,298.137z"/>
		<path style="opacity:0.48;fill:#AE312F;" d="M178.433,372.831c-0.364-1.182-8.024-13.336-7.258-7.352    c1.052,3.76,3.292,7.409,5.166,10.829c-1.932-1.841-4.219-4.079-6.282-5.735c-1.448-1.061-3.086-2.642-4.747-2.815    c0.59,2.809,3.104,5.31,4.845,7.638c-7.478-0.768-15.472-0.552-22.319,2.891c6.269-3.861,13.965-4.533,21.187-4.05l-0.456,0.85    c-1.052-1.415-7.215-8.268-2.88-8.488c3.65,1.139,6.108,4.12,8.86,6.542l-0.83,0.633    C165.791,359.171,173.559,360.366,178.433,372.831z"/>
		<path style="opacity:0.48;fill:#AE312F;" d="M313.317,288.209c13.709,4.063,31.832,5.726,41.444-7.093    C346.352,295.278,326.594,293.999,313.317,288.209z"/>
		<g>
			<g>
				<path style="fill:#FFC893;" d="M259.745,264.26c0,0-1.261,1.102-0.371,4.659c1.109,4.435,6.907,5.856,6.907,5.856      c-0.566,3.488-0.762,4.331,1.941,6.341c2.715,2.01,17.164,3.465,17.164,3.465c1.086,2.772,3.8,4.482,5.752,5.394      c-2.253,12.821-5.891,23.194-11.77,23.494c-15.651,0.797-41.559-60.572-41.559-60.572      c19.393-22.143,56.945-12.301,56.945-12.301s0,1.028-0.023,2.841c-14.034,0.081-26.913,3.361-32.249,7.635      C256.07,256.237,259.745,264.26,259.745,264.26z"/>
				<path style="fill:#FFFFFF;" d="M259.745,264.26c0,0-1.261,1.102-0.371,4.659c1.109,4.435,6.907,5.856,6.907,5.856      c-0.566,3.488-0.762,4.331,1.941,6.341c2.715,2.01,17.164,3.465,17.164,3.465c1.086,2.772,3.8,4.482,5.752,5.394      c-2.253,12.821-5.891,23.194-11.77,23.494c-15.651,0.797-41.559-60.572-41.559-60.572      c19.393-22.143,56.945-12.301,56.945-12.301s0,1.028-0.023,2.841c-14.034,0.081-26.913,3.361-32.249,7.635      C256.07,256.237,259.745,264.26,259.745,264.26z"/>
			</g>
			<path style="fill:#FF5555;" d="M279.365,213.951c0,0-6.174-9.171-16.757-7.609c-10.583,1.562-12.862,13.052-12.862,13.052     s-7.761-5.278-16.53,1.374c-8.769,6.652-3.292,16.177-3.292,16.177s-3.28,1.15-4.043,4.266     c-1.199,4.903,1.852,10.688,9.031,10.707c0,0-2.424,10.73,2.895,21.926c5.977,12.583-1.758,25.367,3.147,26.879     s5.027-17.929,2.786-25.562c-2.675-9.114-4.227-16.28-1.147-22.265c0,0,9.639,5.459,18.064,0c0,0,9.206-10.748,37.326-9.425     c0,0,7.302-8.051,6.07-18.634C302.823,214.253,288.562,206.392,279.365,213.951z"/>
			<path style="fill:#FFFFFF;" d="M236.452,226.698c-0.378,0.197-0.742,0.438-1.005,0.773c-0.533,0.68-0.561,1.615-0.565,2.478     c-0.002,0.355-0.002,0.719,0.125,1.05c0.196,0.513,0.677,0.875,1.194,1.058c0.517,0.183,1.074,0.213,1.623,0.237     c0.897,0.039,1.806,0.068,2.68-0.134c0.874-0.202,1.724-0.661,2.214-1.413c0.718-1.103,0.443-2.738-0.598-3.544     C240.48,225.934,238.291,225.736,236.452,226.698z"/>
			<path style="fill:#FFFFFF;" d="M240.833,222.616c-0.036,0.216,0.114,0.426,0.301,0.542c0.238,0.147,0.531,0.178,0.811,0.166     c0.604-0.026,1.676-0.738,0.906-1.355C242.372,221.586,240.935,221.992,240.833,222.616z"/>
			<path style="opacity:0.48;fill:#AE312F;" d="M265.388,303.244c3.993-8.248,11.803-15.335,21.051-16.818     C277.783,289.506,270.781,295.916,265.388,303.244z"/>
			<path style="opacity:0.48;fill:#AE312F;" d="M259.456,294.835c2.532-5.533,6.786-11.815,13.184-12.967     C267.001,284.52,263.374,290.207,259.456,294.835z"/>
			<path style="opacity:0.48;fill:#AE312F;" d="M254.023,285.811c0.969-5.163,4.564-10.211,9.634-11.968     C259.484,277.054,256.586,281.222,254.023,285.811z"/>
			<path style="opacity:0.48;fill:#AE312F;" d="M248.698,275.948c1.572-4.593,5.362-9.241,10.418-9.902     C254.694,268.312,251.783,272.136,248.698,275.948z"/>
			<path style="opacity:0.48;fill:#AE312F;" d="M243.786,266.046c1.904-4.855,5.844-9.314,10.908-10.909     C250.442,258.204,247.139,262.015,243.786,266.046z"/>
		</g>
		<path style="opacity:0.48;fill:#AE312F;" d="M278.495,268.944c-4.537,0.099-10.387,1.15-12.008,5.941    c-0.521,1.458-0.428,3.094,0.628,4.104c5.276,3.91,12.717,2.433,18.668,5.146c5.024,9.474,17.727,7.483,26.03,3.98    c-8.399,4.428-21.482,6.516-26.941-3.307l0.303,0.29c-6.025-2.505-13.487-1.184-18.783-5.427    c-1.295-1.334-1.326-3.427-0.672-5.047C267.567,269.575,273.786,268.602,278.495,268.944z"/>
		<path style="opacity:0.48;fill:#AE312F;" d="M266.594,274.292c-5.186,1.023-9.769-5.328-7.509-10.017    c2.491-4.435,8.035-5.683,12.646-6.499c-4.141,1.663-9.242,2.946-11.587,7.015C258.258,268.868,261.956,274.342,266.594,274.292z"/>
		<path style="opacity:0.48;fill:#AE312F;" d="M324.842,251.769c-10.364-8.598-25.29-8.122-38.041-7.254    c-10.628,1.011-33.139,3.93-27.075,19.441c-7.211-15.65,16.119-19.705,26.97-20.614    C299.527,242.557,314.943,242.311,324.842,251.769z"/>
		<path style="fill:#FF5555;" d="M254.023,406.361c0,0-7.672-4.802-13.309-2.22c-5.636,2.581-7.417,9.289-2.906,14.938    c5.268,6.596,44.097,10.939,54.719,2.76c10.623-8.179-1.846-15.478-1.846-15.478s-2.246-7.66-9.305-5.492    c0,0-2.507-5.853-10.962-5.853C261.96,395.015,254.023,406.361,254.023,406.361z"/>
		<path style="fill:#FF5555;" d="M243.863,338.18c-0.114,2.173-0.148,4.35-0.1,6.525c0.012,0.566,0.033,1.145,0.249,1.668    c0.68,1.643,2.827,1.964,4.604,2.041c1.293,0.055,2.709,0.073,3.725-0.729c0.468-0.37,0.802-0.882,1.092-1.402    c1.988-3.568,1.76-8.373-2.094-10.651C248.604,334.015,244.059,334.447,243.863,338.18z"/>
		<path style="fill:#FF5555;" d="M334.331,284.06c-0.293-2.327-2.601-6.912-9.523-6.404c-0.815-4.532-6.194-7.271-10.668-6.179    c-1.076,0.262-2.127,0.71-2.958,1.442c-2.282,2.009-2.352,5.479-2.247,8.517c-2.109-0.473-4.285-0.949-6.413-0.571    c-2.128,0.378-4.217,1.831-4.657,3.947c-0.62,2.982,2.389,5.73,5.423,5.993c3.034,0.263,5.925-1.2,8.585-2.684    c0.221-0.124,0.446-0.249,0.691-0.311c0.668-0.169-0.624-0.293,0,0c4.359,2.046,11.668,4.025,16.535,3.798    C333.724,291.394,334.851,288.196,334.331,284.06z"/>
		<path style="fill:#FF5555;" d="M323.964,270.465c-0.044,0.084-0.066,0.178-0.078,0.272c-0.015,0.12-0.013,0.251,0.057,0.35    c0.074,0.106,0.206,0.152,0.331,0.183c0.328,0.081,0.694,0.096,0.986-0.073c0.388-0.225,0.535-0.911,0.054-1.125    C324.944,269.905,324.152,270.106,323.964,270.465z"/>
		<path style="fill:#FF5555;" d="M309.851,268.081c-0.288,0.402-0.308,1.001,0.012,1.378c0.203,0.239,0.507,0.367,0.806,0.46    c0.507,0.157,1.089,0.23,1.543-0.045c0.28-0.17,0.481-0.466,0.537-0.789c0.056-0.323-0.032-0.668-0.234-0.927    C311.88,267.347,310.485,267.195,309.851,268.081z"/>
		<path style="opacity:0.48;fill:#AE312F;" d="M338.885,368.065c-0.496,1.275-0.917,2.591-1.075,3.92    c-0.076,0.659-0.044,1.337,0.167,1.887c0.205,0.557,0.716,0.862,1.295,0.891c1.168,0.076,2.216-0.912,3.017-1.903    c0.818-1.018,1.523-2.188,2.08-3.369l0.873-1.854l0.189,2.059c0.141,1.54,0.466,3.131,1.028,4.568    c0.559,1.417,1.396,2.808,2.689,3.374c1.282,0.633,2.875,0.375,4.255-0.259c1.394-0.645,2.703-1.62,3.797-2.734l0.604-0.615    l0.028,0.842c0.041,1.224,0.31,2.499,0.78,3.666c0.482,1.171,1.273,2.218,2.336,2.974c-0.562-0.318-1.123-0.682-1.566-1.176    c-0.446-0.485-0.846-1.024-1.154-1.614c-0.631-1.18-0.998-2.468-1.116-3.831l0.632,0.227c-1.112,1.268-2.385,2.359-3.905,3.164    c-0.765,0.384-1.605,0.665-2.491,0.771c-0.884,0.113-1.822,0.017-2.665-0.379c-0.847-0.374-1.57-0.995-2.083-1.709    c-0.521-0.71-0.948-1.476-1.235-2.277c-0.598-1.602-0.927-3.232-1.047-4.93l1.061,0.205c-0.652,1.275-1.402,2.45-2.339,3.536    c-0.486,0.525-1.009,1.03-1.637,1.433c-0.628,0.389-1.407,0.678-2.207,0.571c-0.394-0.036-0.785-0.195-1.114-0.433    c-0.332-0.252-0.57-0.611-0.687-0.98c-0.246-0.746-0.157-1.487-0.023-2.172C337.675,370.543,338.209,369.261,338.885,368.065z"/>
		<path style="opacity:0.48;fill:#AE312F;" d="M168.542,272.569c0.106,28.341,6.029,56.636,14.058,83.714    c2.481,6.165,4.217,14.372,11.074,16.954c9.55,4.173,14.131,15.649,10.744,25.35c2.882-9.732-1.688-20.636-11.116-24.611    c-7.22-2.561-9.145-10.98-11.718-17.345c-5.311-16.257-8.763-33.079-11.116-50.006    C169.048,295.352,167.658,283.935,168.542,272.569z"/>
		<path style="opacity:0.2;fill:#AE312F;" d="M87.547,394.019c0,1.61-3.748,2.915-8.37,2.915c-4.623,0-8.37-1.305-8.37-2.915    c0-1.61,3.747-2.915,8.37-2.915C83.8,391.104,87.547,392.409,87.547,394.019z"/>
		<path style="opacity:0.2;fill:#AE312F;" d="M67.801,382.702c0,0.805-1.874,1.458-4.185,1.458c-2.311,0-4.185-0.653-4.185-1.458    c0-0.805,1.874-1.458,4.185-1.458C65.927,381.244,67.801,381.897,67.801,382.702z"/>
		<ellipse style="opacity:0.2;fill:#AE312F;" cx="369.317" cy="404.141" rx="8.37" ry="2.915"/>
		<path style="fill:#AE312F;" d="M139.192,328.844c-8.628,4.412-17.464,8.397-26.486,11.955c-1.606,0.635-3.234,1.259-4.874,1.825    c-1.606-5.313-3.107-11.123-4.459-17.499c12.787-3.962,29.096-5.533,33.104-6.064c2.945-0.393,6.78-0.243,7.843,2.53    C145.487,324.639,142.103,327.365,139.192,328.844z"/>
		<path style="fill:#AE312F;" d="M170.125,300.729c-7.404,0.058-14.819,0.913-22.189,0.231c-2.876-0.266-6.376-1.386-6.792-4.239    c-0.231-1.525,0.589-3.015,1.583-4.193c2.622-3.107,6.538-4.771,10.372-6.099c4.297-1.49,9.772-3.384,15.363-4.435    C168.669,287.446,169.259,293.868,170.125,300.729z"/>
		<path style="fill:#AE312F;" d="M145.256,221.365c-0.647,2.726-3.234,4.667-5.949,5.36c-2.715,0.693-5.579,0.358-8.363-0.058    c-7.266-1.074-14.508-2.622-21.554-4.724c0.3-0.681,0.612-1.351,0.924-1.998c1.375-2.865,2.784-5.544,4.216-8.051    c2.679-4.713,5.417-8.813,8.027-12.302c4.355,3.8,8.744,7.439,13.422,10.026c2.356,1.305,4.817,2.541,6.711,4.447    C144.586,215.97,145.868,218.742,145.256,221.365z"/>
		<path style="fill:#AE312F;" d="M180.139,350.305c-3.384-0.116-6.792,0.081-10.153,0.589c-1.906,0.289-3.858,0.681-5.752,0.323    c-1.906-0.347-3.777-1.652-4.135-3.546c-0.751-4.078,7.635-8.917,16.194-12.163C177.494,340.753,178.788,345.766,180.139,350.305z    "/>
		<path style="fill:#AE312F;" d="M122.467,272.003c-0.624,3.974-5.059,5.972-8.905,7.127c-5.209,1.571-10.5,2.888-15.836,3.939    c-0.231-6.122,0.058-12.405,0.728-18.608c2.772-0.335,5.695-0.554,8.929-0.809c3.315-0.254,6.769-0.497,9.864,0.716    C120.353,265.581,122.975,268.711,122.467,272.003z"/>
		<path style="fill:#AE312F;" d="M334.122,208.867c-6.214,3.5-12.787,6.919-19.706,6.896c-1.744,0-3.569-0.3-4.978-1.34    c-0.554-0.404-0.97-0.855-1.271-1.328c-2.507-3.893,2.888-9.656,5.695-11.99c1.698-1.409,3.592-2.888,5.602-4.297    C325.135,200.689,329.986,204.743,334.122,208.867z"/>
		<path style="fill:#AE312F;" d="M354.716,243.715c-7.323-1.317-14.611-3.973-21.172-6.85c-2.772-1.213-6.826-4.389-2.865-6.965    c3.026-1.975,9.772-2.98,16.956-3.442h0.012C350.997,232.361,353.25,238.182,354.716,243.715z"/>
		<path style="fill:#FF5555;" d="M201.473,218.233c-2.411-1.013-5.31-0.769-7.518,0.632c-2.264,1.437-3.682,3.887-5.744,5.601    c-2.629,2.185-6.178,3.074-8.686,5.398c-3.147,2.916-4.046,7.883-2.418,11.853c1.628,3.97,5.547,6.813,9.787,7.471    c6.403,0.994,13.216-3.202,15.211-9.366c0.488-1.509,0.736-3.146,1.663-4.433c1.778-2.467,5.785-3.322,6.273-6.323    c0.432-2.66-2.032-3.967-3.521-5.66C204.813,221.465,204.053,219.317,201.473,218.233z"/>
	</g>
	<g>
		<path style="fill:#AE312F;" d="M270.665,161.651c3.869,0.732,7.63,1.803,11.365,2.959c3.725,1.19,7.422,2.465,11.011,4.084    c-3.87-0.729-7.631-1.801-11.365-2.959C277.952,164.543,274.255,163.268,270.665,161.651z"/>
		<path style="fill:#AE312F;" d="M295.697,159.309c-3.797,0.225-7.572,0.094-11.341-0.125c-3.767-0.254-7.528-0.598-11.267-1.302    c3.797-0.228,7.572-0.096,11.341,0.125C288.197,158.264,291.959,158.609,295.697,159.309z"/>
		<path style="fill:#AE312F;" d="M293.721,147.362c-3.311,1.872-6.759,3.414-10.24,4.875c-3.495,1.428-7.024,2.773-10.691,3.785    c3.31-1.874,6.758-3.416,10.24-4.875C286.525,149.721,290.055,148.377,293.721,147.362z"/>
	</g>
	<g>
		<path style="fill:#AE312F;" d="M171.389,168.368c-3.811,0.99-7.67,1.625-11.542,2.174c-3.876,0.514-7.764,0.938-11.701,1.006    c3.81-0.992,7.67-1.628,11.541-2.174C163.564,168.862,167.452,168.438,171.389,168.368z"/>
		<path style="fill:#AE312F;" d="M147.107,161.849c3.803-0.062,7.569,0.231,11.325,0.612c3.753,0.416,7.495,0.921,11.2,1.784    c-3.804,0.065-7.569-0.229-11.325-0.611C154.555,163.215,150.812,162.71,147.107,161.849z"/>
		<path style="fill:#AE312F;" d="M151.064,150.405c3.443,1.617,6.696,3.536,9.902,5.529c3.187,2.023,6.327,4.123,9.275,6.527    c-3.445-1.614-6.697-3.534-9.902-5.529C157.153,154.906,154.014,152.807,151.064,150.405z"/>
	</g>
</g>















</svg>
