<?xml version="1.0" encoding="UTF-8"?>
<!-- Generator: Adobe Illustrator 25.2.3, SVG Export Plug-In . SVG Version: 6.00 Build 0)  -->
<svg xmlns="http://www.w3.org/2000/svg" xmlns:xlink="http://www.w3.org/1999/xlink" version="1.1" id="Capa_1" x="0px" y="0px" viewBox="0 0 512 512" style="enable-background:new 0 0 512 512;" xml:space="preserve" width="512" height="512">
<g>
	<g>
		<path style="fill:#9CF0E7;" d="M99.674,211.838c0,0,6.139-35.471,46.236-35.674c40.097-0.202,48.433,38.062,48.433,38.062    s3.522-11.227,12.441-11.117c8.92,0.11,12.567,17.39,12.567,17.39s9.899-10.467,31.781-5.225    c21.882,5.242,61.999,13.816,61.999,13.816H54.662L99.674,211.838z"/>
		<path style="fill:#9CF0E7;" d="M298.542,77.407c0,0,6.139-35.471,46.237-35.674c40.097-0.202,48.433,38.062,48.433,38.062    s3.521-11.227,12.441-11.117c8.92,0.11,12.567,17.39,12.567,17.39s9.899-10.466,31.781-5.225C471.883,86.086,512,94.66,512,94.66    H253.53L298.542,77.407z"/>
		<path style="fill:#FF5555;" d="M212.102,300.55c0,0-78.555,18.347-106.417,59.505c-27.861,41.158,6.01,54.263,42.865,62.348    c36.855,8.086,99.571-7.176,166.925-29.247c67.354-22.07,166.998-68.692,141.148-110.11    C436.965,251.548,212.102,300.55,212.102,300.55z"/>
		<g>
			<ellipse style="fill:#6CE1C1;" cx="119.151" cy="379.307" rx="119.151" ry="44.942"/>
			<path style="fill:#6CE1C1;" d="M191.558,339.901c0,8.47-18.204,15.336-40.66,15.336s-40.66-6.866-40.66-15.336     c0-8.47,18.204-15.336,40.66-15.336S191.558,331.431,191.558,339.901z"/>
			<ellipse style="fill:#6CE1C1;" cx="153.308" cy="316.279" rx="40.66" ry="15.336"/>
			<ellipse style="fill:#6CE1C1;" cx="422.852" cy="342.291" rx="68.963" ry="26.012"/>
			<ellipse style="fill:#6CE1C1;" cx="233.848" cy="433.161" rx="68.963" ry="26.012"/>
			<ellipse style="fill:#6CE1C1;" cx="110.238" cy="438.708" rx="83.67" ry="31.559"/>
			<ellipse style="fill:#6CE1C1;" cx="358.408" cy="380.621" rx="129.923" ry="49.005"/>
		</g>
		<g>
			<path style="fill:#FF9D3D;" d="M233.697,179.164l-5.007,45.658c0,0-9.934-3.922-20.314-7.096     c-3.246-0.989-6.55-1.909-9.602-2.611c-0.617-0.138-1.212-0.253-1.795-0.356c-11.523-1.921-16.93,4.324-32.099,2.162     c-0.423-0.058-0.834-0.127-1.235-0.207c-7.853-1.472-10.391-5.59-11.065-9.063c-0.572-2.933,0.183-5.405,0.183-5.405     c10.631-15.664,31.859-15.514,45.268-15.169c2.503,0.069,4.733,0.138,6.573,0.115c11.088-0.138,26.635-7.418,28.853-7.982     l0.011-0.012C233.582,179.164,233.663,179.152,233.697,179.164z"/>
			<path style="opacity:0.2;fill:#AE312F;" d="M233.697,179.164l-5.007,45.658c0,0-9.934-3.922-20.314-7.096     c-3.246-0.989-6.55-1.909-9.602-2.611c-0.617-0.138-1.212-0.253-1.795-0.356c-11.523-1.921-16.93,4.324-32.099,2.162     c-0.423-0.058-0.834-0.127-1.235-0.207c-7.853-1.472-10.391-5.59-11.065-9.063c-0.572-2.933,0.183-5.405,0.183-5.405     c10.631-15.664,31.859-15.514,45.268-15.169c2.503,0.069,4.733,0.138,6.573,0.115c11.088-0.138,26.635-7.418,28.853-7.982     l0.011-0.012C233.582,179.164,233.663,179.152,233.697,179.164z"/>
			<path style="fill:#AE312F;" d="M163.649,216.718c0.256-1.354,0.822-2.642,1.54-3.828c0.715-1.194,1.637-2.265,2.679-3.2     c0.515-0.476,1.101-0.868,1.671-1.274c0.618-0.334,1.201-0.726,1.865-0.959c1.272-0.578,2.664-0.837,4.026-0.921     c-1.265,0.55-2.501,1.027-3.629,1.72c-1.143,0.648-2.209,1.411-3.175,2.289C166.653,212.265,165.044,214.372,163.649,216.718z"/>
			<path style="fill:#AE312F;" d="M152.579,207.654c0.347-0.994,0.873-1.903,1.471-2.758c0.598-0.857,1.292-1.65,2.076-2.36     c0.799-0.688,1.655-1.338,2.644-1.766c0.976-0.434,2.06-0.69,3.108-0.57c-0.993,0.358-1.855,0.817-2.679,1.352     c-0.818,0.54-1.574,1.175-2.31,1.834c-0.749,0.648-1.443,1.367-2.157,2.078L152.579,207.654z"/>
		</g>
		<path style="fill:#AE312F;" d="M211.913,302.232c0,0-78.556,18.347-106.417,59.505c-27.861,41.158,4.742,58.861,42.865,62.348    c37.566,3.437,99.572-7.176,166.926-29.246c67.354-22.07,166.998-68.692,141.148-110.11    C436.776,253.23,211.913,302.232,211.913,302.232z"/>
		<path style="fill:#FF5555;" d="M212.623,295.904c0,0-78.555,18.347-106.416,59.505c-27.861,41.158,8.137,57.895,42.865,62.348    c37.419,4.798,99.572-7.176,166.926-29.246s166.998-68.692,141.148-110.11C437.487,246.902,212.623,295.904,212.623,295.904z"/>
		<path style="fill:#FF9D3D;" d="M399.575,120.846l0.017,0.087c3.693,27.636-8.832,46.352-39.663,59.46    c-40.509,16.601-113.736-2.414-113.736-2.414c-7.322-6.304-16.669-22.444-17.331-37.714c-0.002-0.077-0.013-0.14-0.015-0.217    c-0.139-1.825-0.192-3.767-0.141-5.666c0.12-5.232,0.686-10.546,1.949-15.664c5.088-23.321,25.712-36.727,50.442-41.541    c0.127-0.021,0.251-0.055,0.379-0.076c0.414-0.095,0.843-0.179,1.274-0.251c13.434-2.509,27.789-3.54,40.772-3.705l0.013-0.002    c4.183-0.026,8.182,0.083,12.022,0.32c29.33,2.181,50.265,9.44,59.39,30.633c0.371,0.959,0.716,1.897,1.063,2.855    C397.667,111.643,398.872,116.293,399.575,120.846z"/>
		<g>
			<g>
				<path style="fill:#FF9D3D;" d="M209.394,314.47c-1.498,3.439-3.429,6.107-5.647,8.212c-0.08,0.092-0.172,0.173-0.251,0.242      c-8.585,7.913-21.445,7.706-31.31,10.27c-12.54,3.255-22.257,15.457-26.704,17.493c-4.447,2.036-13.752,3.255-11.729-7.326      c2.023-10.581,32.362-32.145,32.362-32.145s-4.847-12.007-0.583-34.939c0.183-0.955,0.377-1.932,0.583-2.922      c4.378-20.678,26.178-31.19,33.322-34.123c1.429-0.587,2.275-0.874,2.275-0.874S216.675,297.783,209.394,314.47z"/>
				<path style="opacity:0.2;fill:#AE312F;" d="M209.394,314.47c-1.498,3.439-3.429,6.107-5.647,8.212      c-0.08,0.092-0.172,0.173-0.251,0.242c-8.585,7.913-21.445,7.706-31.31,10.27c-12.54,3.255-22.257,15.457-26.704,17.493      c-4.447,2.036-13.752,3.255-11.729-7.326c2.023-10.581,32.362-32.145,32.362-32.145s-4.847-12.007-0.583-34.939      c0.183-0.955,0.377-1.932,0.583-2.922c4.378-20.678,26.178-31.19,33.322-34.123c1.429-0.587,2.275-0.874,2.275-0.874      S216.675,297.783,209.394,314.47z"/>
			</g>
			<path style="fill:#AE312F;" d="M143.906,351.295c-0.443-1.012-0.664-2.102-0.77-3.197c-0.109-1.099-0.057-2.213,0.108-3.313     c0.173-1.1,0.525-2.177,1.02-3.176c0.484-1.006,1.203-1.894,2.031-2.607c-0.454,1.01-0.904,1.946-1.207,2.948     c-0.297,0.996-0.575,1.99-0.717,3.021C144.029,347.021,143.95,349.109,143.906,351.295z"/>
			<path style="opacity:0.48;fill:#AE312F;" d="M166.113,311.211c3.703,9.583,4.02,3.766,2.962-2.258     c1.086,2.066,2.379,5.195,3.83,6.767c0.034-0.004,0.052-0.005,0.032,0c0.073-1.687-1.362-4.083-2.046-5.732     c2.359,2.676,5.881,5.338,9.637,3.955c-2.697,1.555-6.155,0.519-8.431-1.402l0.766-0.566c0.735,1.202,2.472,5.648-0.544,4.676     c-1.408-1.189-1.987-2.804-2.793-4.38l1.024-0.291C171.177,320.366,166.704,317.117,166.113,311.211z"/>
			<path style="fill:#6CE1C1;" d="M205.627,236.227c0,0-29.005,7.823-39.514,31.353c-8.528,19.094-10.421,28.873-10.421,28.873     s10.779,15.509,41.358,1.034C227.63,283.012,205.627,236.227,205.627,236.227z"/>
		</g>
		<path style="fill:#FF9D3D;" d="M430.396,211.286c-1.738,25.957-38.684,44.071-38.684,44.071s8.379,26.82,7.853,48.154    c-0.194,7.855-1.6,14.962-5.075,19.712c-3.407,4.658-11.214,10.167-22.257,15.204c-42.848,18.277-93.283,21.201-143.544,2.071    c-9.991-3.922-17.662-9.374-23.389-15.929c-33.902-40.344,0.464-118.062,33.86-151.258h0.012    c28.006-31.688,109.843-2.906,109.421-2.082l32.705-3.991l1.383-0.173C387.124,166.389,430.873,175.505,430.396,211.286z"/>
		<g>
			<path style="fill:#FFFFFF;" d="M355.811,140.169c-5.453,4.456-14.518,6.558-21.448,4.577c-1.48-0.424-2.882-1.055-4.172-1.924     c-5.587-3.804-9.277-11.008-9.991-17.559c-0.028-0.15-0.044-0.302-0.06-0.454c-0.596-6.622,2.621-12.937,8.144-16.605     c6.466-4.289,16.547-6.419,23.452-1.66c2.724,1.881,5.009,4.623,6.68,7.789l0.013-0.002     C362.914,122.757,363.111,134.193,355.811,140.169z"/>
			<path style="fill:#AE312F;" d="M355.811,140.169c-3.119,2.542-6.944,4.085-10.861,4.927c-1.968,0.409-3.985,0.603-6.005,0.551     c-2.018-0.043-4.051-0.334-5.99-1.01c-1.943-0.669-3.721-1.809-5.251-3.166c-1.543-1.357-2.888-2.929-4.039-4.631     c-2.298-3.409-3.828-7.338-4.423-11.472l0.011,0.075c-0.686-4.939,0.704-9.908,3.692-13.788c1.486-1.922,3.33-3.597,5.41-4.821     c2.049-1.247,4.242-2.227,6.528-2.912c4.55-1.315,9.616-1.565,14.129,0.295c2.257,0.903,4.217,2.405,5.824,4.121     c1.625,1.722,2.937,3.697,3.979,5.785l-0.47-0.234l0.013-0.002l0.331-0.045l0.139,0.278c1.061,2.128,1.837,4.385,2.318,6.696     c0.471,2.312,0.67,4.677,0.525,7.022c-0.15,2.344-0.687,4.663-1.639,6.803C359.077,136.777,357.635,138.702,355.811,140.169z      M355.811,140.169c1.808-1.487,3.224-3.422,4.153-5.559c0.946-2.136,1.378-4.468,1.461-6.785     c0.167-4.655-1.161-9.281-3.393-13.282l0.469,0.233l-0.013,0.002l-0.305,0.057l-0.165-0.292c-1.109-1.962-2.465-3.783-4.076-5.32     c-1.609-1.544-3.454-2.801-5.513-3.499c-4.13-1.423-8.732-1.061-12.909,0.272c-4.19,1.366-8.147,3.629-10.8,7.031     c-1.322,1.705-2.32,3.649-2.944,5.713c-0.304,1.033-0.537,2.093-0.626,3.17c-0.074,0.536-0.061,1.078-0.087,1.619     c0.027,0.515,0.019,1.129,0.083,1.554l0.011,0.072l0,0.002c0.348,3.824,1.593,7.634,3.609,10.978     c1.009,1.672,2.211,3.234,3.611,4.6c1.398,1.373,3.001,2.523,4.822,3.259c3.653,1.475,7.8,1.613,11.716,0.921     C348.844,144.229,352.661,142.653,355.811,140.169z"/>
		</g>
		<path style="fill:#AE312F;" d="M298.359,129.97c0,0-3.803-3.778-5.444-2.875c-1.641,0.903,4.085,6.626,6.078,7.029    c1.994,0.404,5.519-6.545,4.34-7.714C302.154,125.242,298.359,129.97,298.359,129.97z"/>
		<path style="fill:#AE312F;" d="M307.557,156.296c-3.262-7.335-6.559-15.058-8.874-22.756l1.115-0.051    c-1.129,7.708-2.256,15.454-2.497,23.254c-0.69-8.726,0.492-17.502,1.771-26.129C301.304,139.11,304.918,147.913,307.557,156.296z    "/>
		<path style="fill:#AE312F;" d="M341.855,139.92c5.385-0.116,10.868-3.064,13.205-7.914c3.723-7.727-0.449-18.135-8.636-21.213    c-4.395-1.653-9.899-1.252-13.845,1.204c-10.545,6.563-6.398,23.589,4.902,27.302C338.874,139.757,340.357,139.953,341.855,139.92    z"/>
		<g>
			<path style="fill:#FFFFFF;" d="M277.587,135.016c-1.936,5.754-8.257,8.871-14.005,9.621c-0.793,0.093-1.587,0.122-2.368,0.072     c-9.454-0.58-17.067-11.788-15.306-20.828c0.165-0.931,0.45-1.842,0.834-2.719c3.395-7.661,14.919-12.263,22.839-8.576     c1.912,0.907,3.36,2.614,4.483,4.337c0.772,1.174,1.482,2.514,2.094,3.947C278.105,125.358,279.03,130.738,277.587,135.016z"/>
			<path style="fill:#AE312F;" d="M277.587,135.017c-0.362,1.019-0.835,2.001-1.451,2.895c-0.632,0.88-1.352,1.699-2.174,2.41     c-1.639,1.422-3.548,2.534-5.586,3.307c-1.018,0.387-2.058,0.731-3.124,0.977c-1.06,0.256-2.152,0.46-3.269,0.486     c-2.225,0.011-4.467-0.47-6.488-1.454c-4.07-1.949-7.233-5.492-9.168-9.57c-0.937-2.06-1.596-4.287-1.745-6.602     c-0.015-0.579-0.005-1.161-0.005-1.741c0.023-0.58,0.126-1.155,0.188-1.734c0.148-1.151,0.501-2.319,0.983-3.386     c2.037-4.325,5.966-7.278,10.191-8.831c4.234-1.528,9.071-1.781,13.249,0.043c2.176,0.85,3.74,2.679,4.908,4.503     c1.194,1.853,2.07,3.87,2.783,5.923c0.715,2.055,1.192,4.193,1.366,6.355C278.426,130.751,278.289,132.962,277.587,135.017z      M277.587,135.017c1.315-4.172,0.545-8.694-1.01-12.664c-0.793-2.001-1.818-3.909-3.078-5.626     c-1.258-1.699-2.787-3.241-4.746-3.848c-3.916-1.424-8.319-0.861-12.092,0.729c-1.908,0.783-3.675,1.887-5.209,3.216     c-1.535,1.323-2.819,2.929-3.621,4.717c-1.613,3.587-1.288,7.971,0.295,11.743c1.547,3.791,4.231,7.304,7.893,9.343     c1.815,1.034,3.864,1.618,5.964,1.749c1.052,0.045,2.111-0.081,3.167-0.264c1.056-0.176,2.103-0.428,3.117-0.783     c2.03-0.691,3.98-1.688,5.638-3.074c0.827-0.695,1.554-1.501,2.195-2.369C276.725,137.004,277.211,136.031,277.587,135.017z"/>
		</g>
		<path style="fill:#AE312F;" d="M257.047,137.727c0.42,0.252,4.566,3.94,11.815,0.546c7.249-3.395,4.827-12.957,3.15-15.96    c-1.677-3.002-6.748-8.964-15.073-5.39C248.615,120.496,249.815,133.379,257.047,137.727z"/>
		<path style="fill:#FF9D3D;" d="M284.157,77.584c-0.351,0.291-6.032,4.991-12.198,8.585c-2.113,1.216-4.275,2.312-6.308,3.05    c-3.293,1.206-6.236,1.49-7.991-0.115c-0.76-0.699-1.477-1.65-2.139-2.804c-0.074-0.117-0.151-0.246-0.213-0.365    c-3.238-5.847-5.034-16.049-3.969-21.916c0.293-1.636,0.809-2.922,1.566-3.692c0.295-0.307,0.622-0.517,1.001-0.657    c6.03-2.165,11.891,0.458,16.125,4.656c2.913,2.882,5.227,6.612,8.428,9.214c0.246,0.191,2.324,1.91,3.914,3.051l0.376,0.26    C283.444,77.341,284,77.649,284.157,77.584z"/>
		<path style="fill:#FF9D3D;" d="M387.795,92.567c-0.622-0.038-41.442-2.892-43.182-14.871c-0.164-1.147-0.227-2.31-0.196-3.463    c0.233-11.03,8.599-21.957,13.084-22.395l0.013-0.002c4.948-0.476,8.631,9.735,13.039,17.413    C374.888,76.823,387.417,92.089,387.795,92.567z"/>
		<path style="fill:#AE312F;" d="M358.417,75.579c0,0-1.608-0.356-5.975-0.088c-4.524-1.014-7.85-1.235-8.024-1.257    c0.233-11.03,8.599-21.957,13.084-22.395l0.013-0.002c1.089,2.373,2.372,5.217,1.684,11.898c-0.072,0.657-0.096,1.293-0.097,1.913    C359.043,74.829,358.417,75.579,358.417,75.579z"/>
		<path style="fill:#AE312F;" d="M259.675,84.111c-1.642,0.661-3.182,1.304-4.367,1.824c-3.238-5.847-5.034-16.049-3.969-21.916    c0.293-1.636,0.809-2.922,1.566-3.692c0,0,2.456,0.739,5.052,5.893c0.944,1.881,1.796,3.687,2.736,5.337    C262.922,75.456,265.021,81.931,259.675,84.111z"/>
		<path style="opacity:0.48;fill:#EB4949;" d="M337.441,148.414c-2.642,2.221-2.611,6.258,0.91,7.952    c4.715,2.269,12.969,0.971,16.481-2.83c2.965-3.209,0.319-8.272-3.389-8.863c-3.134-0.5-6.33,0.083-9.212,1.189    C340.892,146.377,338.922,147.17,337.441,148.414z"/>
		<path style="opacity:0.48;fill:#EB4949;" d="M265.4,147.63c2.911,1.967,3.399,5.982,0.116,7.988    c-4.396,2.686-12.768,2.149-16.748-1.31c-3.36-2.919-1.379-8.194,2.231-9.12c3.052-0.783,6.303-0.495,9.311,0.342    C261.707,145.92,263.768,146.528,265.4,147.63z"/>
		<path style="fill:#AE312F;" d="M318.292,73.242c-4.697,4.924-7.833,12.089-10.357,17.502c-1.39,2.966-2.621,6.01-3.741,9.086    c-0.847,2.308-2.57,4.685-5.168,5.273c-3.264,0.737-6.449-1.093-8.405-3.619c-2.454-3.152-2.954-7.119-2.773-10.943    c0.261-5.41,2.153-10.705,5.091-15.31c0.269-0.032,0.55-0.066,0.832-0.1C302.474,74.095,310.653,73.469,318.292,73.242z"/>
		<path style="fill:#AE312F;" d="M239.44,136.827c-3.486,0.877-7.297,0.028-10.751-1.422c0.002-0.336,0.004-0.672,0.016-1.022    c0.005-0.323,0.007-0.659,0.021-0.997c0.114-2.999,0.368-6.021,0.819-9.038C237.034,129.835,245.972,135.172,239.44,136.827z"/>
		<path style="fill:#AE312F;" d="M239.091,145.993c-2.191,1.564-5.735,2.064-9.13,2.101c-0.159-0.773-0.308-1.561-0.447-2.364    c-0.293-1.757-0.519-3.578-0.653-5.464c-0.002-0.077-0.013-0.14-0.015-0.217C235.974,141.339,242.954,143.234,239.091,145.993z"/>
		<path style="fill:#AE312F;" d="M236.924,121.146c-1.996-0.106-4.185-1.096-6.269-2.427c0.017-0.119,0.046-0.24,0.076-0.361    c0.637-2.518,1.433-5.025,2.436-7.475C237.745,116.068,241.551,121.394,236.924,121.146z"/>
		<path style="fill:#AE312F;" d="M335.556,73.464c-1.216,1.531-2.581,3.242-3.555,4.527c-3.078,4.073-6.172,9.658-8.785,10.442    c-5.461,1.645-8.234-3.544-5.133-9.298c1.415-2.622,3.541-4.602,5.438-5.988l0.013-0.002    C327.717,73.118,331.716,73.226,335.556,73.464z"/>
		<path style="fill:#AE312F;" d="M290.081,75.617c-2.539,3.88-5.063,10.261-7.913,11.458c-4.293,1.798-8.066-1.34-6.393-3.915    c1.621-2.502,3.585-4.506,5.322-5.982C283.943,76.588,286.933,76.064,290.081,75.617z"/>
		<path style="opacity:0.48;fill:#AE312F;" d="M352.525,180.183c3.465-1.73,6.985-3.415,10.236-5.51    c-0.225,0.758-0.571,1.728-0.607,2.515c-0.112,2.101,1.277,0.9,1.754-0.211c1.222-2.306,1.929-5.028,2.281-7.594    c1.828,4.511,4.042,7.581,5.489,0.722c3.873-0.363,7.775-1.563,11.088-3.658c-3.027,2.491-6.81,3.891-10.678,4.51l0.395-0.374    c-0.761,5.635-4.267,6.338-6.565,0.975l1.087-0.148c-0.655,2.465-1.543,7.047-4.197,7.944c-2.128,0.018-1.674-2.626-1.156-3.879    l0.602,0.497C359.132,177.672,355.864,179.005,352.525,180.183z"/>
		<path style="opacity:0.21;fill:#AE312F;" d="M358.417,114.333c-25.115-6.939-36.824,8.879-38.216,10.93    c-0.028-0.15-0.044-0.302-0.06-0.454c-0.596-6.622,2.621-12.937,8.144-16.605c6.466-4.289,16.547-6.419,23.452-1.66    C354.461,108.425,356.746,111.167,358.417,114.333z"/>
		<path style="opacity:0.21;fill:#AE312F;" d="M276.158,120.87c-11.23-4.374-23.871,0.066-30.251,3.012    c0.165-0.931,0.45-1.842,0.834-2.719c3.395-7.661,14.919-12.263,22.839-8.576c1.912,0.907,3.36,2.614,4.483,4.337    C274.836,118.097,275.547,119.436,276.158,120.87z"/>
		<path style="fill:#AE312F;" d="M394.492,103.012c-19.469,15.472-28.945,2.304-20.564-1.414c5.614-2.496,10.496-6.508,13.703-9.209    C390.547,95.567,392.839,99.107,394.492,103.012z"/>
		<path style="fill:#FF9D3D;" d="M369.178,252.39c0,0,43.579-1.452,47.427,34.848c3.849,36.3-4.811,50.336,0,55.66    c4.811,5.324,27.422,19.36,29.346,26.136c1.924,6.776-0.775,10.648-10.971,8.712c-10.196-1.936-24.629-19.36-38.58-21.78    c-13.951-2.42-35.891-2.42-46.089-25.168C340.112,308.051,347.762,260.3,369.178,252.39z"/>
		<path style="fill:#AE312F;" d="M399.575,120.846l0.017,0.087c0.027,0.421,0.077,0.826,0.115,1.232    c-7.366,4.233-16.716,7.389-24.841,5.323c-3.066-0.78-5.986-3.144-5.485-6.105c0.208-1.183,0.968-2.29,1.967-3.166    c2.949-2.607,7.443-3.69,11.339-4.752c4.429-1.215,9.452-3.999,13.322-6.514C397.667,111.643,398.872,116.293,399.575,120.846z"/>
		<path style="fill:#AE312F;" d="M400.264,127.891c0.213,5.422-0.378,10.68-1.846,15.724c-5.242,1.763-11.276,1.478-16.438-0.488    c-2.299-0.882-4.497-2.541-4.446-5.181c0.06-3.493,4.574-4.606,7.365-5.006C392.468,131.86,397.6,129.444,400.264,127.891z"/>
		<path style="fill:#AE312F;" d="M233.7,161.931c3.138-1.753,6.405-3.186,9.704-4.54c3.312-1.322,6.657-2.563,10.133-3.48    c-3.137,1.756-6.404,3.188-9.704,4.539C240.519,159.771,237.174,161.011,233.7,161.931z"/>
		<path style="fill:#AE312F;" d="M230.411,153.674c3.363-0.941,6.775-1.539,10.199-2.053c3.429-0.48,6.871-0.875,10.363-0.923    c-3.362,0.943-6.774,1.541-10.199,2.053C237.344,153.229,233.902,153.623,230.411,153.674z"/>
		<path style="fill:#AE312F;" d="M231.127,142.762c3.459,0.61,6.815,1.551,10.146,2.573c3.32,1.055,6.615,2.192,9.805,3.664    c-3.46-0.608-6.816-1.549-10.146-2.573C237.612,145.368,234.318,144.23,231.127,142.762z"/>
		<path style="fill:#FFFFFF;" d="M354.935,72.133c0,0-2.492,0.247-3.258-0.206c-0.779-0.451,2.998-1.17,2.998-1.17    c-2.042-0.486-4.003-2.417-3.363-2.562c0.65-0.16,3.165,1.098,3.165,1.098c-2.923-2.932-2.231-8.208,0.381-8.307    c1.117-0.044,2.748,2.148,4.243,4.66c-0.059,9.182,6.595,14.822,7.74,15.482c-4.717-2.943-10.095-4.666-14.4-5.639    C352.736,73.583,354.935,72.133,354.935,72.133z"/>
		<path style="fill:#FFFFFF;" d="M259.675,84.111c-0.025-2.073,1.592-5.219,1.738-5.488c-0.153,0.09-1.765,1.119-2.662,0.804    c-0.94-0.334,1.763-1.958,1.763-1.958s-2.213,0.549-2.515-0.084c-0.313-0.619,2.004-0.824,2.004-0.824    c-1.793-0.695-5.526-4.524-3.737-5.996c1.167-0.955,3.163,0.118,4.427,0.992c2.228,3.899,4.98,6.898,10.899,7.887    C271.592,79.444,265.021,81.931,259.675,84.111z"/>
		<path style="opacity:0.48;fill:#AE312F;" d="M290.493,135.486c-3.146,1.023-6.029,3.262-7.546,6.489    c-2.199,4.678-2.108,10.295,1.764,14.024c2.403,2.314,5.55,3.41,8.654,3.97c5.948,1.072,11.926,1.725,17.668-0.416    c2.082-0.777,4.1-1.876,5.682-3.558c2.424-2.577,3.651-6.49,3.217-10.258c-0.434-3.768-2.52-7.304-5.468-9.268    c-3.626-2.416-8.698-2.838-12.767-2.432C298.072,134.398,293.952,134.362,290.493,135.486z"/>
		<path style="fill:#AE312F;" d="M353.278,151.423c3.618-0.261,7.217-0.177,10.812-0.007c3.593,0.204,7.182,0.494,10.752,1.134    c-3.618,0.264-7.217,0.179-10.812,0.007C360.437,152.351,356.848,152.06,353.278,151.423z"/>
		<path style="fill:#AE312F;" d="M374.906,143.734c-3.316,1.082-6.697,1.824-10.093,2.483c-3.403,0.625-6.822,1.164-10.305,1.361    c3.316-1.085,6.697-1.827,10.093-2.483C368.005,144.472,371.423,143.933,374.906,143.734z"/>
		<path style="fill:#AE312F;" d="M370.237,133.719c-2.472,2.41-5.152,4.542-7.883,6.606c-2.751,2.037-5.554,4.004-8.567,5.691    c2.471-2.412,5.151-4.544,7.883-6.606C364.423,137.375,367.226,135.408,370.237,133.719z"/>
		<path style="opacity:0.48;fill:#AE312F;" d="M240.173,170.81c2.396,2.86,4.548,6.262,7.679,8.329    c-0.033,0.771,0.706,5.148,1.843,3.822c0.612-1.641,0.037-3.945-0.078-5.666c1.257,1.69,3.756,6.424,6.101,6.109    c0.119-0.04,0.152-0.112,0.21-0.213c0.295-0.874-0.618-2.44-1.064-3.332c3.025,1.575,6.207,3.006,9.587,3.639    c-3.07-0.139-6.025-1.147-8.841-2.345l0.528-0.564c0.851,1.243,1.449,3.918-0.853,3.892c-2.515-0.39-3.903-2.784-5.328-4.62    l1.039-0.388c0.987,6.779-4.124,6.158-4.057-0.036l0.231,0.387C244.118,177.43,242.18,174.046,240.173,170.81z"/>
		<path style="fill:#AE312F;" d="M321.863,103.749c0.109,0.388,0.26,0.792,0.582,1.032c0.401,0.298,0.952,0.262,1.443,0.174    c2.314-0.415,4.461-1.708,5.916-3.565c0.354-0.452,0.675-0.95,0.797-1.513c0.148-0.687-0.015-1.402-0.229-2.071    c-0.338-1.057-0.816-2.089-1.555-2.914C324.268,89.815,320.865,100.197,321.863,103.749z"/>
		<path style="fill:#AE312F;" d="M265.993,105.669c0.098,0.39,0.168,0.816,0.008,1.186c-0.199,0.46-0.694,0.705-1.163,0.876    c-2.21,0.804-4.712,0.762-6.895-0.114c-0.532-0.213-1.057-0.484-1.441-0.91c-0.469-0.521-0.683-1.222-0.83-1.909    c-0.232-1.086-0.331-2.219-0.1-3.305C256.99,94.807,265.094,102.09,265.993,105.669z"/>
		<path style="fill:#AE312F;" d="M386.124,258.304c-1.077-1.193-1.907-2.612-2.516-4.112c-0.621-1.498-1.04-3.087-1.233-4.704    c-0.173-1.616-0.211-3.259,0.06-4.861c0.197-1.61,0.721-3.16,1.355-4.624c-0.208,1.594-0.424,3.146-0.466,4.706    c-0.083,1.555,0.003,3.106,0.186,4.639c0.161,1.539,0.511,3.052,0.937,4.548C384.894,255.387,385.417,256.869,386.124,258.304z"/>
		<path style="fill:#AE312F;" d="M367.487,255.029c-0.648-1.338-1.014-2.818-1.148-4.312c-0.151-1.496-0.074-3.019,0.214-4.501    c0.305-1.477,0.759-2.935,1.484-4.256c0.659-1.353,1.611-2.537,2.631-3.601c-0.665,1.331-1.323,2.618-1.818,3.967    c-0.53,1.332-0.906,2.711-1.175,4.105c-0.294,1.392-0.414,2.818-0.449,4.251C367.209,252.116,367.263,253.566,367.487,255.029z"/>
		<ellipse style="fill:#FFFFFF;" cx="30.805" cy="377.734" rx="14.483" ry="7.468"/>
		<path style="fill:#FFFFFF;" d="M468.569,339.901c0,4.125-6.484,7.468-14.483,7.468c-7.999,0-14.483-3.343-14.483-7.468    c0-4.124,6.484-7.467,14.483-7.467C462.085,332.434,468.569,335.777,468.569,339.901z"/>
		<ellipse style="fill:#FFFFFF;" cx="400.307" cy="410.849" rx="14.483" ry="7.468"/>
		<path style="fill:#FFFFFF;" d="M40.437,360.175c0,1.779-2.796,3.221-6.246,3.221c-3.45,0-6.246-1.442-6.246-3.221    c0-1.779,2.796-3.22,6.246-3.22C37.641,356.954,40.437,358.396,40.437,360.175z"/>
		<path style="fill:#FFFFFF;" d="M444.089,348.838c0,0.639-1.004,1.156-2.243,1.156c-1.239,0-2.243-0.518-2.243-1.156    s1.004-1.156,2.243-1.156C443.085,347.682,444.089,348.199,444.089,348.838z"/>
		<path style="fill:#FFFFFF;" d="M404.382,395.561c0,1.746-2.745,3.161-6.131,3.161s-6.131-1.416-6.131-3.161    c0-1.746,2.745-3.161,6.131-3.161S404.382,393.815,404.382,395.561z"/>
		<path style="fill:#FFC893;" d="M324.53,351.641c-28.19,3.83-61.901,2.174-95.84-11.144c-9.991-3.922-17.661-9.373-23.4-15.952    c-0.256-1.066-8.512-27.725-4.79-58.221c2.098-17.189,6.108-35.957,22.154-51.163c14.036-13.301,33.876-18.899,52.851-16.485    c19.172,2.439,37.772,13.515,47.008,30.908c12.385,23.32,14.885,47.56,15.369,73.477c0.266,14.238-1.709,28.871-8.629,41.522    C327.892,347.072,326.328,349.448,324.53,351.641z"/>
		<path style="fill:#FFC893;" d="M305.841,210.285c0,0-0.665-12.625-3.432-12.803c-2.766-0.178,0,9.055,0,9.055    s-3.319-7.324-5.148-6.337c-1.829,0.987,0,4.985,0,4.985v12.597L305.841,210.285z"/>
		<path style="opacity:0.48;fill:#AE312F;" d="M377.975,222.186c-1.475-6.712-0.621-14.095,2.594-20.193    C378.871,208.619,378.083,215.352,377.975,222.186z"/>
		<ellipse style="fill:#6CE1C1;" cx="70.204" cy="319.077" rx="27.533" ry="10.2"/>
		<ellipse style="fill:#6CE1C1;" cx="333.67" cy="446.158" rx="21.96" ry="8.135"/>
		<path style="fill:#6CE1C1;" d="M313.728,395.574l-71.515,40.207c0,0-68.325,11.834-67.17-11.535    c1.143-23.358,33.585-18.792,33.585-18.792s-7.751-17.619,11.763-27.717c19.525-10.109,32.156,1.438,51.967,11.259    C291.665,398.564,312.687,395.711,313.728,395.574z"/>
		<path style="fill:#FFFFFF;" d="M197.05,392.4c0,1.746-1.407,3.161-3.142,3.161c-1.735,0-3.142-1.415-3.142-3.161    c0-1.746,1.407-3.161,3.142-3.161C195.643,389.239,197.05,390.654,197.05,392.4z"/>
		<path style="fill:#6CE1C1;" d="M391.712,256.102c0,0,33.45,8.354,30.055,60.573c0,0-27.148,17.318-55.005,12.811l16.273-68.977    l9.646-4.407"/>
		<path style="fill:#FFFFFF;" d="M198.614,377.734c0,0.869-0.7,1.573-1.564,1.573c-0.863,0-1.564-0.704-1.564-1.573    c0-0.869,0.7-1.573,1.564-1.573C197.914,376.161,198.614,376.865,198.614,377.734z"/>
		<path style="fill:#FFFFFF;" d="M220.749,357.862c0,4.201-3.385,7.607-7.561,7.607c-4.176,0-7.561-3.406-7.561-7.607    c0-4.201,3.385-7.607,7.561-7.607C217.364,350.255,220.749,353.661,220.749,357.862z"/>
		<path style="fill:#FFFFFF;" d="M253.434,368.303c0,1.084-0.874,1.963-1.952,1.963c-1.078,0-1.952-0.879-1.952-1.963    c0-1.084,0.874-1.963,1.952-1.963C252.56,366.34,253.434,367.219,253.434,368.303z"/>
		<path style="fill:#FFFFFF;" d="M316.604,380.621c0,3.167-2.551,5.734-5.699,5.734c-3.148,0-5.7-2.567-5.7-5.734    c0-3.167,2.552-5.734,5.7-5.734C314.053,374.887,316.604,377.454,316.604,380.621z"/>
		<path style="fill:#6CE1C1;" d="M387.551,257.967c0,14.519,0.445,29.354-4.017,43.082c-7.795,23.983-23.806,42.346-24.525,42.587    c-1.589,0.529-48.077,21.219-105.574,6.613c-57.508-14.594-76.971-47.932-53.869-111.891c0,0,6.843,57.458,84.583,59.01    c44.511,0.885,74.208-19.275,91.468-36.676c0.629,0.126,1.269,0.184,1.909,0.172C379.778,260.842,383.195,259.957,387.551,257.967    z"/>
		<path style="fill:#9CF0E7;" d="M387.563,257.967c0,11.978-0.336,31.968-4.798,45.695c-7.796,23.982-23.026,39.732-23.746,39.974    c-1.452,0.483-40.216,17.723-90.628,9.684c-4.881-0.771-9.877-1.783-14.952-3.071c-19.399-4.922-34.363-11.846-44.799-21.368    c-20.519-18.712-23.832-47.326-9.074-90.522c0,0,1.209,8.672,7.062,19.448c6.047,11.132,17.25,24.404,37.826,32.421    c10.574,4.106,23.617,6.82,39.701,7.142c8.277,0.161,16.05-0.402,23.32-1.553c19.41-3.025,35.277-10.167,47.897-18.493    c8.048-5.313,14.781-11.11,20.257-16.63c0.629,0.126,1.269,0.184,1.909,0.172C379.789,260.842,383.208,259.957,387.563,257.967z"/>
		<path style="fill:#FFFFFF;" d="M265.393,296.618l-0.977-0.461c-0.574-0.271-14.053-6.704-14.53-12.384    c-0.123-1.471,0.583-2.754,2.099-3.811c1.852-1.289,3.637-1.582,5.311-0.87c5.669,2.419,7.84,15.887,7.93,16.459L265.393,296.618z     M255.467,279.856c-0.892,0-1.828,0.346-2.828,1.044c-1.174,0.818-1.702,1.727-1.614,2.778c0.322,3.84,8.627,8.804,12.869,10.95    c-0.637-3.25-2.829-12.684-7.048-14.483C256.397,279.953,255.938,279.856,255.467,279.856z"/>
		<path style="fill:#FFFFFF;" d="M264.413,296.115l0.26-1.047c0.154-0.618,3.841-15.182,9.299-16.728    c1.412-0.403,2.794,0.051,4.115,1.343c1.621,1.585,2.247,3.297,1.862,5.091c-1.296,6.048-13.985,10.771-14.525,10.969    L264.413,296.115z M274.954,279.343c-0.223,0-0.447,0.032-0.671,0.096c-3.686,1.044-6.935,10.214-8.214,14.819    c3.047-1.255,11.798-5.222,12.762-9.725c0.301-1.404-0.204-2.724-1.544-4.034C276.496,279.726,275.727,279.343,274.954,279.343z"/>
		<path style="fill:#6CE1C1;" d="M283.915,344.441c-2.138,3.807-6.459,5.728-10.551,7.211c-1.635,0.587-3.304,1.15-4.973,1.668    c-4.881-0.771-9.877-1.783-14.952-3.071c-19.399-4.922-34.363-11.846-44.799-21.368c3.258-2.381,8.173-2.703,11.843-1.978    c3.909,0.782,7.613,2.404,11.511,3.186c4.847,0.978,9.991,0.61,14.529-1.346c3.178-1.368,5.978-3.473,9.076-5.026    c5.064-2.519,10.871-3.485,16.473-2.737c2.846,0.38,5.716,1.231,7.967,3.036c3.544,2.817,5.053,7.567,5.35,12.11    C285.572,338.978,285.309,341.957,283.915,344.441z"/>
		<path style="fill:#6CE1C1;" d="M244.454,290.227c-0.64,6.475-3.406,12.892-8.882,16.239c-3.681,2.242-8.642,3.024-12.849,2.173    c-2.549-0.529-4.995-1.84-6.539-3.956c-1.326-1.84-1.886-4.152-1.966-6.429c-0.171-5.313,2.115-10.385-2.481-14.548    c-1.875-1.702-4.31-2.645-6.253-4.255c-4.024-3.347-4.847-8.718-3.521-13.571c0.834-3.025,2.446-6.038,4.664-8.073    C212.674,268.939,223.877,282.211,244.454,290.227z"/>
		<path style="fill:#6CE1C1;" d="M360.345,288.202c-1.269,6.843-7.145,13.686-13.626,16.055c-5.819,2.139-11.134,4.106-14.507,9.638    c-4.652,7.648-11.991,13.628-21.354,9.568c-4.721-2.047-8.894-7.165-9.214-12.478c-0.023-0.437-0.023-0.897,0-1.345    c0.217-4.807,2.983-9.868,5.83-13.824c19.41-3.025,35.277-10.167,47.897-18.493C359.03,279.52,361.271,283.223,360.345,288.202z"/>
		<path style="opacity:0.48;fill:#AE312F;" d="M426.235,192.631c7.598,16.809,5.454,31.506-8.284,44.2    c-10.591,9.539-26.48,23.527-41.132,24.539c-10.402-1.199-15.67-14.158-11.963-23.204c3.988-8.837,11.688-15.725,19.655-20.947    c-7.68,5.427-15.175,12.466-18.98,21.202c-3.349,8.501,1.678,20.793,11.35,21.91c11.886-0.901,24.007-10.668,33.175-17.853    C427.86,228.395,435.27,214.857,426.235,192.631z"/>
		<path style="fill:#AE312F;" d="M435.749,377.883c0.394-1.778,0.544-3.46,0.275-5.106c-0.13-0.817-0.326-1.632-0.645-2.421    c-0.287-0.807-0.7-1.567-1.083-2.412c0.743,0.533,1.408,1.207,1.883,2.017c0.521,0.786,0.809,1.713,0.975,2.646    c0.143,0.941,0.099,1.909-0.142,2.818C436.781,376.331,436.375,377.2,435.749,377.883z"/>
		<path style="opacity:0.48;fill:#AE312F;" d="M394.385,346.102c2.141-0.091,4.238-0.58,6.236-1.317    c0.031,1.022-0.113,2.601,0.555,3.357c2.033-1.301,2.898-5.026,3.958-7.169l-0.213,3.279c-0.004,0.991-0.164,2.457,0.601,2.864    c1.35-0.774,1.999-2.594,2.792-3.935c0.778-1.472,1.581-3.336,2.257-4.87c0.132,1.797-0.327,4.693,1.632,5.625    c1.934,0.514,2.292-4.373,2.586-5.742c-0.148,2.088,0.201,5.238-1.889,6.483c-2.206,0.337-3.227-2.365-3.266-4.14l0.956,0.19    c-1.055,2.089-2.558,7.137-5.139,7.519c-1.872-0.327-1.669-2.71-1.608-4.103l1.038,0.265c-1.409,3.697-5.246,7.728-4.885,0.796    l0.408,0.314C398.452,346.068,396.398,346.282,394.385,346.102z"/>
		<path style="opacity:0.48;fill:#AE312F;" d="M286.49,216.718c-7.51-8.173-13.589-4.575-3.841,3.174    c-1.816-0.066-3.757-0.121-5.55,0.119c-0.936,0.16-2.324,0.306-2.797,1.077c3.28,1.428,7.889,0.393,11.444,0.356    c-2.927,1.029-6.584,1.895-9.166,3.633c-0.744,0.533-1.485,1.239-0.882,2.058c1.785,1.479,4.553,0.159,6.551-0.386    c-1.963,0.878-6.953,3.128-7.414-0.412c1.016-2.81,4.438-3.553,6.912-4.623l0.189,0.966c-2.484,0.141-5.014,0.378-7.461-0.253    c-0.363-0.146-0.812-0.237-1.175-0.836c-0.732-3.226,5.948-2.773,7.915-2.775l-0.356,0.914c-2.078-1.749-6.583-6.551-2.383-8.362    C281.957,211.096,284.378,214.434,286.49,216.718z"/>
	</g>
</g>















</svg>
