<?xml version="1.0" encoding="UTF-8"?>
<!-- Generator: Adobe Illustrator 25.2.3, SVG Export Plug-In . SVG Version: 6.00 Build 0)  -->
<svg xmlns="http://www.w3.org/2000/svg" xmlns:xlink="http://www.w3.org/1999/xlink" version="1.1" id="Capa_1" x="0px" y="0px" viewBox="0 0 512 512" style="enable-background:new 0 0 512 512;" xml:space="preserve" width="512" height="512">
<g>
	<g>
		<path style="opacity:0.1;fill:#AE312F;" d="M29.621,0C29.198,0.334,29.621,0,29.621,0L29.621,0z"/>
	</g>
	<path style="fill:#6CE1C1;" d="M384.113,366.434c-22.486,2.719-32.875,19.939-37.192,40.878   c-2.899,14.06-3.176,28.567-6.192,42.602c-11.717,54.531-75.449,67.074-123.057,60.486c-20.313-2.811-40.264-10.103-56.354-22.817   c-21.434-16.936-34.357-42.135-41.813-67.959c-6.906-23.919-3.732-55.301-19.928-75.335   c-10.989-13.593-27.053-21.989-40.551-32.729c-16.158-12.857-30.472-27.805-38.793-46.977   c-10.981-25.302-13.215-54.797-3.326-80.609c29.968-78.218,92.809-54.25,112.381-79.448c9.588-12.344,13.757-28.206,22.888-40.972   c14.533-20.318,36.772-30.921,61.015-34.933c57.538-9.522,121.213,5.079,170.282,35.796c36.798,23.035,66.974,55.856,87.498,94.065   c27.552,51.293,41.478,118.674,19.795,174.441c-4.362,11.219-10.617,22.216-20.528,29.048c-25.17,17.348-56.302,1.975-83.809,4.229   C385.642,366.264,384.871,366.342,384.113,366.434z"/>
	<g>
		<path style="fill:#FF9D3D;" d="M121.998,244.574c0,0-10.907,51.326-4.953,76.628c5.226,22.209,15.702,20.456,15.702,20.456    s3.711,5.373,10.254,6.416c6.543,1.043,10.041-5.575,10.041-5.575s4.99,0.557,8.268-4.145c4.931-7.072,0.868-73.12,23.363-97.299    C207.17,216.876,121.998,244.574,121.998,244.574z"/>
		<path style="opacity:0.2;fill:#AE312F;" d="M121.998,244.574c0,0-10.907,51.326-4.953,76.628    c5.226,22.209,15.702,20.456,15.702,20.456s3.711,5.373,10.254,6.416c6.543,1.043,10.041-5.575,10.041-5.575    s4.99,0.557,8.268-4.145c4.931-7.072,0.868-73.12,23.363-97.299C207.17,216.876,121.998,244.574,121.998,244.574z"/>
	</g>
	<path style="fill:#FF9D3D;" d="M414.781,235.212c-0.72,8.387-2.296,16.715-4.801,24.847l-136.75-13.519c0,0-1.095,0.615-3.136,1.59   c-2.258,1.085-7.782-4.73-12.179-3.096c-4.6,1.71-8.166,10.879-14.694,12.428c-0.03,0.015-0.06,0.03-0.105,0.03   c-17.81,4.747-46.775,5.7-68.855-1.471c-49.285-15.039-90.525-57.687-65.539-87.655c12.921-30.727,66.111-94.692,147.193-92.83   c32.309-0.084,64.382,9.261,90.97,27.202C390.147,131.547,419.138,182.86,414.781,235.212z"/>
	<g>
		<g>
			<path style="fill:#FF9D3D;" d="M407.71,243.423c0.14,0.512,0.274,1.01,0.414,1.521c8.172,31.586-5.522,64.87-33.56,80.809     c-2.408,1.387-4.941,2.634-7.569,3.74c-4.079,1.72-8.258,2.944-12.536,3.753l-0.014,0.006     c-12.469,2.398-25.567,1.309-38.018-1.19c-24.901-4.999-36.756-0.053-44.266,5.445c-4.374,3.189-7.259,6.567-10.371,8.292     c-8.479,4.659-22.133-6.346-6.24-20.91c3.311-3.039,7.12-5.378,11.234-7.13c6.962-2.954,14.78-4.235,22.434-4.349     c3.424-0.062,6.807,0.122,10.068,0.474c1.596,0.174,3.177,0.388,4.757,0.636c14.946,2.333,29.429,7.369,44.77,4.313     c14.831-2.949,31.241-12.814,39.548-26.541c2.4-3.968,4.125-8.249,4.923-12.782c0.358-1.889,0.545-3.834,0.558-5.803     c0.054-10.359-4.072-20.362-9.473-29.042c-2.658-4.244-7.116-8.035-9.406-12.373c-0.012-0.028-11.24-21.277,7.116-31.069     c8.112,7.881,15.074,17.373,20.076,27.698C404.448,233.602,406.313,238.468,407.71,243.423z"/>
			<path style="opacity:0.2;fill:#AE312F;" d="M407.71,243.423c0.14,0.512,0.274,1.01,0.414,1.521     c8.172,31.586-5.522,64.87-33.56,80.809c-2.408,1.387-4.941,2.634-7.569,3.74c-4.079,1.72-8.258,2.944-12.536,3.753l-0.014,0.006     c-12.469,2.398-25.567,1.309-38.018-1.19c-24.901-4.999-36.756-0.053-44.266,5.445c-4.374,3.189-7.259,6.567-10.371,8.292     c-8.479,4.659-22.133-6.346-6.24-20.91c3.311-3.039,7.12-5.378,11.234-7.13c6.962-2.954,14.78-4.235,22.434-4.349     c3.424-0.062,6.807,0.122,10.068,0.474c1.596,0.174,3.177,0.388,4.757,0.636c14.946,2.333,29.429,7.369,44.77,4.313     c14.831-2.949,31.241-12.814,39.548-26.541c2.4-3.968,4.125-8.249,4.923-12.782c0.358-1.889,0.545-3.834,0.558-5.803     c0.054-10.359-4.072-20.362-9.473-29.042c-2.658-4.244-7.116-8.035-9.406-12.373c-0.012-0.028-11.24-21.277,7.116-31.069     c8.112,7.881,15.074,17.373,20.076,27.698C404.448,233.602,406.313,238.468,407.71,243.423z"/>
		</g>
		<path style="fill:#AE312F;" d="M268.266,320.454c2.314,7.108-7.62,14.181-7.62,14.181s7.142-1.708,11.516,2.872    c-4.374,3.189-7.259,6.567-10.371,8.292c-8.479,4.659-22.133-6.346-6.24-20.91c3.311-3.039,7.12-5.378,11.234-7.13    C267.378,318.369,267.868,319.236,268.266,320.454z"/>
		<path style="fill:#AE312F;" d="M304.044,314.52c-0.435,1.824-1.784,5.124-6.006,5.271c-4.275,0.137-7.538-3.992-8.819-6.381    c3.424-0.062,6.807,0.122,10.068,0.474C300.884,314.059,302.465,314.272,304.044,314.52z"/>
		<path style="fill:#AE312F;" d="M374.564,325.753c-2.408,1.387-4.941,2.634-7.569,3.74c-4.079,1.72-8.258,2.944-12.536,3.753    c0.208-3.819,1.54-9.761,7.374-12.864C367.211,317.51,371.769,321.797,374.564,325.753z"/>
		<path style="fill:#AE312F;" d="M398.549,291.309c-1.952,3.643-6.591,2.564-10.187,0.984c2.4-3.968,4.125-8.249,4.923-12.782    C397.043,283.686,400.12,288.37,398.549,291.309z"/>
		<path style="fill:#AE312F;" d="M407.71,243.423c0.14,0.512,0.274,1.01,0.414,1.521c-3.316,4.121-8.614,9.363-11.623,5.14    c-3.34-4.684,2.313-15.559,5.655-21.163C404.448,233.602,406.313,238.468,407.71,243.423z"/>
	</g>
	<path style="fill:#FF9D3D;" d="M347.052,177.714c-1.073,0-38.27-9.274-67.606,9.478c-31.211,19.95-14.462,65.277,9.429,85.74   c11.89,10.184,49.846,17.991,50.991,16.737c0,0-17.175,18.815-21.829,33.369c-4.654,14.554-4.302,33.512,3.925,33.156   c8.227-0.355,6.96-18.35,14.752-27.414c7.793-9.064,28.901-24.438,36.771-28.728c7.87-4.29,2.15-13.267,2.15-13.267   s33.466-10.956,38.125-43.144C418.42,211.452,347.052,177.714,347.052,177.714z"/>
	<path style="opacity:0.48;fill:#AE312F;" d="M339.866,289.668c2.279,6.658,5.45,7.408,3.911-0.578   c1.491,1.762,3.517,5.519,5.924,5.613c-0.144-1.975-2.565-4.341-3.646-6.003c3.578,3.203,8.417,4.613,13.175,3.79   c-3.663,1.047-7.838,0.989-11.15-1.109l0.689-0.701c0.964,1.214,3.582,4.591,0.804,5.178c-2.575-0.275-3.997-2.762-5.433-4.583   l0.912-0.359c0.366,1.752-0.162,6.22-2.839,4.269C340.75,293.645,340.334,291.627,339.866,289.668z"/>
	<path style="fill:#AE312F;" d="M329.344,346.273c-0.863-1.064-1.511-2.289-2.03-3.558c-0.522-1.272-0.871-2.615-1.084-3.981   c-0.208-1.367-0.224-2.769-0.044-4.14c0.142-1.377,0.606-2.709,1.208-3.924c-0.16,1.363-0.363,2.663-0.339,3.986   c0.003,1.313,0.062,2.622,0.279,3.916C327.706,341.172,328.437,343.711,329.344,346.273z"/>
	<path style="fill:#FF9D3D;" d="M261.497,207.829c-2.146,2.745-4.246,6.632-6.272,11.298c-0.015,0.015-0.015,0.015-0.015,0.015   l-0.465,1.125c-0.51,1.2-1.02,2.461-1.515,3.766c-0.615,1.575-1.215,3.211-1.801,4.891c-0.06,0.18-0.12,0.36-0.195,0.555   c-2.941,8.492-5.672,18.245-8.118,28.013c-0.315,1.2-0.6,2.386-0.9,3.586l-0.06,0.24c-0.09,0.36-0.165,0.705-0.255,1.065   c-1.621,6.677-3.106,13.264-4.426,19.341c-3.151,14.644-5.342,26.377-6.197,29.529c-2.371,8.807-10.563,10.203-10.563,10.203   c-8.177,8.147-15.409,2.731-15.409,2.731c-14.074,3.736-16.13-11.883-17.36-39.461c-0.315-7.202,0.51-15.905,1.92-24.832   l0.045-0.27c1.08-6.737,2.476-13.609,3.976-20.061c4.096-17.735,8.897-32.379,9.468-32.814   C225.007,190.514,276.577,188.534,261.497,207.829z"/>
	<path style="opacity:0.1;fill:#AE312F;" d="M243.312,160.085c-0.705,50.294-43.753,82.569-69.05,95.937   c-9.978-2.971-20.256-7.367-30.594-13.624c-0.375-0.225-0.735-0.45-1.095-0.66c-12.199-16.58-26.257-41.802-38.516-65.644   c2.101-4.936,4.666-7.727,4.666-7.727c0.315-1.335,25.868-57.136,86.98-81.564C213.274,96.467,243.882,119.469,243.312,160.085z"/>
	<path style="fill:#AE312F;" d="M219.946,321.816c-1.333-0.339-2.545-1.097-3.58-2.022c-1.046-0.926-1.894-2.066-2.566-3.294   c-0.61-1.258-1.091-2.581-1.295-3.953c-0.145-0.676-0.138-1.374-0.195-2.054c0.009-0.687,0.055-1.372,0.13-2.046   c0.173,0.668,0.273,1.331,0.415,1.983c0.183,0.645,0.29,1.299,0.5,1.923c0.362,1.266,0.855,2.472,1.434,3.629   C216.009,318.26,217.694,320.291,219.946,321.816z"/>
	<path style="fill:#AE312F;" d="M206.103,324.208c-1.102-0.52-2.024-1.376-2.795-2.322c-0.78-0.951-1.378-2.039-1.854-3.171   c-0.424-1.151-0.752-2.34-0.867-3.554c-0.092-0.601-0.065-1.215-0.085-1.816c0.03-0.605,0.089-1.209,0.182-1.803   c0.156,0.591,0.242,1.176,0.365,1.754c0.147,0.573,0.236,1.151,0.397,1.711c0.28,1.129,0.634,2.225,1.046,3.296   C203.357,320.427,204.489,322.43,206.103,324.208z"/>
	<path style="fill:#FFC893;" d="M135.418,315.792c-1.661-0.209-3.581,0.043-4.58,1.386c-0.773,1.04-0.777,2.504-0.299,3.708   c0.478,1.204,1.37,2.193,2.3,3.095c2.468,2.393,5.343,4.372,8.482,5.773c2.229,0.996,4.391,1.335,6.634,0.163   c2.205-1.152,4.461-3.2,5.5-5.484c0.805-1.769,1.875-4.554,1.15-6.484c-0.511-1.361-1.872-2.221-3.248-2.69   c-1.637-0.558-3.538-0.673-5.019,0.219c-1.457,0.878-2.566,3.954-4.49,3.15c-1.033-0.432-1.917-1.38-2.975-1.858   C137.778,316.277,136.61,315.942,135.418,315.792z"/>
	<path style="fill:#FFC893;" d="M141.591,334.425c-0.44,0.006-0.889,0.042-1.294,0.213c-0.929,0.393-1.448,1.451-1.449,2.46   c-0.001,1.008,0.428,1.969,0.947,2.833c0.517,0.86,1.131,1.661,1.828,2.382c0.7,0.725,1.601,1.41,2.605,1.326   c1.028-0.086,1.809-0.946,2.386-1.801c0.707-1.048,1.294-2.234,1.328-3.498C148.033,334.89,144.24,334.388,141.591,334.425z"/>
	<path style="fill:#FFC893;" d="M128.171,331.196c-0.602,0.784-0.386,1.903-0.096,2.848c0.195,0.637,0.418,1.279,0.819,1.812   c0.4,0.532,1.011,0.945,1.677,0.954c0.876,0.012,1.603-0.642,2.216-1.268c0.617-0.63,1.257-1.366,1.254-2.248   C134.032,330.887,129.672,329.242,128.171,331.196z"/>
	<path style="fill:#FFC893;" d="M153.402,332.482c-0.093,0.431-0.154,0.883-0.041,1.308c0.154,0.579,0.606,1.029,1.082,1.391   c0.45,0.342,0.937,0.632,1.422,0.921c0.352,0.209,0.71,0.422,1.109,0.516c0.643,0.153,1.34-0.024,1.883-0.402   c0.543-0.378,0.939-0.94,1.195-1.55c0.666-1.59-0.005-3.895-1.855-4.314C156.45,329.957,153.814,330.582,153.402,332.482z"/>
	<path style="fill:#FF9D3D;" d="M191,227.323c-30.838,22.984-75.091,41.712-104.685,11.883   c-14.971-13.273-22.312-34.522-15.874-49.964c14.829-30.211,37.033-49.034,63.918-63.903c34.165-23.452,80.41-18.541,97.183,28.779   C240.279,183.271,221.995,204.524,191,227.323z"/>
	<path style="fill:#FF9D3D;" d="M190.392,113.305c-3.66,16.382-27.256,9.166-27.256,9.166l-12.662-5.771   c1.801-2.407,3.337-5.081,4.644-7.779c2.424-4.995,2.383-10.657,3.416-16.007c1.234-6.363,4.654-11.586,9.992-15.329   c0.267-0.188,0.631-0.227,1.106-0.137C175.196,78.517,193.759,98.199,190.392,113.305z"/>
	<path style="fill:#AE312F;" d="M190.392,113.305c-2.652,11.854-17.177,12.371-26.999,9.097c-1.036-0.35-2.025-0.743-2.941-1.16   c-2.149-0.988-4.301-1.963-6.453-2.937c-0.901-0.413-2.466-1.547-3.487-1.605c0.883,0.022,18.955,1.338,25.352-6.11   c4.481-5.217-2.176-17.652-5.598-23.943c-1.077-3.432-1.607-6.645-0.634-9.199C175.196,78.517,193.759,98.199,190.392,113.305z"/>
	<path style="fill:#AE312F;" d="M152.385,156.828c-4.477,2.949-9.875-2.571-19.614-10.305c-7.61-6.051-14.942-8.372-17.774-9.099   c6.987-4.967,13.647-8.863,19.356-12.082C148.683,132.116,156.704,153.983,152.385,156.828z"/>
	<path style="fill:#AE312F;" d="M146.674,128.971c-3.907-1.958-7.022-4.336-8.656-5.69c2.033-1.137,3.905-2.194,5.586-3.176   c1.424-0.837,2.957-1.645,4.594-2.409C153.62,122.622,150.829,131.055,146.674,128.971z"/>
	<path style="fill:#AE312F;" d="M118.73,154.5c-2.661,2.495-6.698,2.348-12.231-0.931c-3.104-1.845-6.227-2.268-8.355-2.289   c3.963-3.806,7.959-7.18,11.905-10.208C118.504,144.163,121.142,152.219,118.73,154.5z"/>
	<path style="fill:#FF9D3D;" d="M93.64,155.794c2.324,5.115,0.613,12.473-2.803,19.04c-4.777,9.201-12.876,16.876-17.832,14.74   c-8.505-3.663-26.749-24.158-20.433-31.024c0.126-0.133,0.261-0.273,0.393-0.397c6.31-6.472,15.869-6.311,23.621-3.6   C84.501,157.32,93.64,155.794,93.64,155.794z"/>
	<path style="fill:#AE312F;" d="M84.753,183.713c-4.069,4.543-8.562,7.238-11.747,5.862c-8.505-3.663-26.749-24.158-20.433-31.024   c0.126-0.133,0.261-0.273,0.393-0.397c1.417-0.467,3.524-0.974,6.067-0.975c3.309-0.002,6.51,3.374,10.722,6.252   C78.554,169.453,87.009,181.195,84.753,183.713z"/>
	<path style="fill:#FFFFFF;" d="M178.486,115.256c-5.235,5.085-10.945,2.111-11.34,1.893c0.209,0.202,2.282,2.223,0.062,3.094   c-2.329,0.917-4.169-2.201-4.169-2.201s1.092,2.327,0.355,4.361c-1.036-0.35-2.025-0.743-2.941-1.16   c-2.149-0.988-4.301-1.963-6.453-2.937c-0.901-0.413-2.466-1.547-3.487-1.605c0.883,0.022,17.089,0.375,23.486-7.073   c4.481-5.217-1.165-14.765-3.732-22.98c3.365,4.115,7.789,15.953,7.789,15.953s0.278-3.897,1.968-4.141   c1.611-0.23,1.059,4.991,1.013,5.475c0.139-0.268,1.853-3.436,3.386-2.218C186.027,102.989,183.912,109.983,178.486,115.256z"/>
	<path style="fill:#FFFFFF;" d="M90.837,174.834c-1.707,3.276-3.828,6.36-6.085,8.878c-2.155,1.218-4.275,1.784-5.73,0.703   c-4.274-3.164-1.293-6.587-1.293-6.587s-2.887,0.203-4.011-0.643c-1.062-0.81,2.607-1.087,2.959-1.106   c-0.39-0.096-4.123-0.985-4.12-2.032c0.008-0.848,1.496-0.557,2.174-0.387c-1.275-0.444-5.976-2.345-5.11-6.477   c0,0-15.001-2.959-10.591-10.004c3.309-0.002,7.363,0.84,11.574,3.718C79.406,166.919,81.093,173.474,90.837,174.834z"/>
	<g>
		<g>
			<path style="fill:#FFFFFF;" d="M222.2,178.835c-3.675,4.271-10.449,7.171-16.077,6.545c-1.202-0.134-2.37-0.443-3.48-0.956     c-4.814-2.253-8.58-7.456-9.955-12.548c-0.041-0.115-0.072-0.234-0.104-0.352c-1.292-5.164,0.415-10.604,4.243-14.26     c4.483-4.277,12.041-7.336,17.998-4.507c2.35,1.119,4.467,2.98,6.161,5.26l0.01-0.003     C225.533,164.077,227.118,173.109,222.2,178.835z"/>
			<path style="fill:#AE312F;" d="M222.2,178.835c-4.226,4.682-10.863,7.549-17.201,6.704c-6.543-1.341-11.217-7.289-13.215-13.419     l0.022,0.069c-3.87-11.953,8.99-23.387,20.556-21.062c3.796,0.854,6.818,3.552,8.983,6.624l-0.51-0.153     c0.013-0.004,0.324-0.107,0.337-0.111C225.483,163.543,227.342,172.765,222.2,178.835z M222.2,178.835     c5.028-5.932,2.961-14.976-1.559-20.554l0.509,0.152c-0.009,0.003-0.294,0.118-0.303,0.121c-2.19-2.809-5.232-5.312-8.795-5.867     c-9.157-1.115-19.544,6.774-18.852,16.423c0.007,0.425,0.085,0.844,0.128,1.267c0.09,0.429,0.155,0.913,0.266,1.255     c1.458,5.735,5.558,11.657,11.539,13.256C211.27,186.167,218.023,183.426,222.2,178.835z"/>
		</g>
		<path style="fill:#AE312F;" d="M211.335,180.538c4.166-0.825,8.054-3.906,9.26-8.065c1.923-6.627-2.619-14.302-9.361-15.627    c-3.619-0.711-7.842,0.356-10.597,2.838c-7.364,6.633-2.013,19.555,7.224,20.958C209,180.814,210.175,180.767,211.335,180.538z"/>
		<path style="opacity:0.21;fill:#AE312F;" d="M220.988,158.017c-20.366-2.077-27.475,12.045-28.299,13.859    c-0.041-0.115-0.072-0.234-0.104-0.352c-1.292-5.164,0.415-10.604,4.243-14.26c4.483-4.277,12.041-7.336,17.998-4.507    C217.177,153.876,219.294,155.737,220.988,158.017z"/>
	</g>
	<g>
		<g>
			<path style="fill:#FFFFFF;" d="M170.289,223.745c-3.27,5.427-10.234,9.917-16.591,10.283c-1.359,0.077-2.711-0.046-4.038-0.405     c-5.761-1.592-10.916-6.651-13.398-12.037c-0.067-0.12-0.124-0.245-0.181-0.371c-2.405-5.481-1.537-11.834,2.019-16.609     c4.164-5.586,11.968-10.4,19.105-8.385c2.816,0.799,5.513,2.463,7.82,4.672l0.01-0.006     C171.206,206.756,174.664,216.47,170.289,223.745z"/>
			<path style="fill:#AE312F;" d="M170.29,223.745c-3.803,5.98-10.626,10.4-17.806,10.63c-7.475-0.277-13.741-5.995-17.072-12.397     l0.033,0.064c-3.022-5.977-2.054-13.395,2.111-18.522c4.003-4.969,9.997-8.811,16.608-8.542     c4.344,0.216,8.195,2.619,11.171,5.594l-0.527-0.066l0.01-0.005l0.302-0.159C171.038,206.211,174.838,216.063,170.29,223.745z      M170.29,223.745c4.46-7.526,0.484-17.168-5.56-22.534l0.525,0.066l-0.01,0.006l-0.271,0.163     c-2.954-2.711-6.792-4.916-10.855-4.878c-10.451,0.442-20.562,11.239-17.931,21.885c0.09,0.474,0.257,0.927,0.387,1.391     c0.182,0.46,0.347,0.982,0.538,1.35c2.733,6.102,8.428,11.891,15.392,12.516C159.562,233.942,166.52,229.627,170.29,223.745z"/>
		</g>
		<path style="fill:#AE312F;" d="M158.564,227.678c4.463-1.699,8.193-5.847,8.748-10.685c0.884-7.709-5.597-15.363-13.319-15.562    c-4.146-0.107-8.626,1.871-11.214,5.141c-6.915,8.74,1.45,22.058,11.955,21.874C156.028,228.423,157.322,228.151,158.564,227.678z    "/>
		<path style="opacity:0.21;fill:#AE312F;" d="M165.026,200.894c-22.97,1.531-28.192,18.526-28.764,20.692    c-0.067-0.12-0.124-0.245-0.181-0.371c-2.405-5.481-1.537-11.834,2.019-16.609c4.164-5.586,11.968-10.4,19.105-8.385    C160.022,197.02,162.719,198.684,165.026,200.894z"/>
	</g>
	<g>
		<path style="fill:#AE312F;" d="M187.292,193.882c0,0-5.683-2.13-6.713-0.639c-1.03,1.49,2.912,4.764,8.481,3.663    c0,0,3.167-8.62-0.114-8.652C186.849,188.232,187.292,193.882,187.292,193.882z"/>
		<path style="opacity:0.48;fill:#AE312F;" d="M180.687,204.028c-1.814,2.47-2.783,5.738-2.206,9.038    c0.837,4.783,3.889,9.066,8.769,9.871c3.029,0.5,5.968-0.337,8.591-1.565c5.025-2.353,9.85-5.045,13.013-9.767    c1.147-1.713,2.075-3.639,2.367-5.781c0.447-3.283-0.712-6.957-3.038-9.63c-2.327-2.674-5.767-4.285-9.018-4.224    c-3.999,0.076-8.023,2.462-10.855,4.95C185.786,199.137,182.681,201.312,180.687,204.028z"/>
	</g>
	<path style="opacity:0.48;fill:#EB4949;" d="M212.912,186.697c-0.73,3.764,2.059,7.289,6.22,6.362   c5.571-1.242,11.714-8.045,12.104-13.794c0.329-4.854-5.392-7.487-8.956-5.462c-3.013,1.712-5.336,4.416-7.034,7.366   C214.457,182.539,213.321,184.587,212.912,186.697z"/>
	<path style="opacity:0.48;fill:#EB4949;" d="M151.155,237.083c-1.94,3.155-0.617,7.287,3.458,7.858   c5.456,0.765,13.321-3.302,15.628-8.366c1.948-4.275-2.327-8.594-6.236-7.972c-3.304,0.526-6.324,2.183-8.861,4.273   C153.965,233.849,152.242,235.316,151.155,237.083z"/>
	<path style="fill:#AE312F;" d="M221.954,135.54c-0.911,0.7-1.897,1.287-2.966,1.727c-1.359,0.555-3.002,0.831-4.225,0.026   c-1.057-0.688-1.54-2.032-1.501-3.291c0.045-1.25,0.536-2.455,1.067-3.598c0.395-0.852,0.796-1.695,1.204-2.53   C217.768,130.14,219.914,132.692,221.954,135.54z"/>
	<path style="fill:#AE312F;" d="M223.807,138.259c2.954,4.562,5.224,8.983,6.832,13.298c-1.163,0.413-2.357,0.722-3.553,0.931   c-2.434,0.432-5.427,0.264-6.721-1.854c-1.06-1.744-0.444-4,0.354-5.885C221.554,142.789,222.573,140.418,223.807,138.259z"/>
	<g>
		<path style="fill:#AE312F;" d="M222.892,181.653c2.939-1.583,5.998-2.849,9.087-4.037c3.1-1.157,6.231-2.235,9.482-2.994    c-2.938,1.585-5.998,2.851-9.087,4.037C229.273,179.815,226.143,180.892,222.892,181.653z"/>
		<path style="fill:#AE312F;" d="M238.314,166.99c-2.381,2.176-4.954,4.074-7.574,5.903c-2.639,1.801-5.326,3.533-8.208,4.984    c2.379-2.178,4.952-4.075,7.574-5.903C232.746,170.175,235.434,168.443,238.314,166.99z"/>
		<path style="fill:#AE312F;" d="M230.744,160.08c-1.182,3.001-2.658,5.837-4.207,8.632c-1.578,2.779-3.23,5.516-5.18,8.086    c1.179-3.003,2.656-5.838,4.207-8.632C227.145,165.388,228.797,162.651,230.744,160.08z"/>
	</g>
	<g>
		<path style="fill:#AE312F;" d="M160.385,238.095c-1.983,2.685-4.209,5.136-6.495,7.529c-2.31,2.37-4.681,4.68-7.298,6.754    c1.981-2.688,4.207-5.138,6.495-7.529C155.399,242.481,157.77,240.17,160.385,238.095z"/>
		<path style="fill:#AE312F;" d="M140.824,246.472c2.472-2.072,5.124-3.857,7.82-5.572c2.714-1.687,5.473-3.301,8.414-4.627    c-2.471,2.074-5.123,3.859-7.82,5.572C146.523,243.53,143.763,245.144,140.824,246.472z"/>
		<path style="fill:#AE312F;" d="M137.464,236.789c3.131-0.774,6.298-1.211,9.474-1.566c3.179-0.321,6.368-0.558,9.592-0.456    c-3.131,0.776-6.298,1.213-9.474,1.566C143.877,236.652,140.688,236.889,137.464,236.789z"/>
	</g>
	<path style="fill:#AE312F;" d="M116.159,244.638c-0.435,1.095-1.26,1.981-2.13,2.776c-2.056,1.891-4.426,3.391-6.932,4.636   c-4.441-1.47-8.732-3.601-12.873-6.422c3.391-0.42,6.722-1.41,9.783-2.941c1.665-0.84,3.256-1.831,5.026-2.446   c1.756-0.615,3.751-0.81,5.462-0.045c0.54,0.24,1.065,0.6,1.41,1.08C116.609,242.223,116.609,243.558,116.159,244.638z"/>
	<path style="fill:#AE312F;" d="M108.702,227.308c-0.69,5.776-8.132,7.682-12.663,9.183c-3.196,1.065-6.452,1.951-9.723,2.716   c-4.291-4.066-7.637-8.102-10.203-12.018c8.912-2.551,22.341-5.822,24.232-6.212c1.591-0.33,3.271-0.45,4.801,0.075   C107.667,221.892,109.002,224.757,108.702,227.308z"/>
	<path style="fill:#AE312F;" d="M93.037,214.63c-4.756,3.271-10.233,4.696-15.815,5.777c-1.5,0.3-3.016,0.555-4.546,0.735   c-0.96-1.981-1.74-3.931-2.356-5.807c-0.915-2.791-1.485-5.446-1.815-7.907c2.056,0.06,4.126,0.09,6.197,0.105   c5.567,0.045,11.163-0.81,16.7-0.6c0.975,0.03,1.981,0.135,2.866,0.57C97.718,209.213,95.198,213.159,93.037,214.63z"/>
	<path style="fill:#AE312F;" d="M264.213,151.668c-10.533,0.825-4.081-24.892-15.994-45.373   c-9.528-16.385-21.711-23.707-28.883-26.798c11.148-2.506,23.227-3.946,36.295-3.961   C279.758,97.262,273.876,150.903,264.213,151.668z"/>
	<path style="fill:#AE312F;" d="M290.606,134.038c-5.837-1.021-4.021-11.193-6.677-32.079c-1.47-11.538-5.807-20.076-9.378-25.402   c8.957,0.96,17.615,2.626,25.913,4.922C305.655,102.379,295.632,134.908,290.606,134.038z"/>
	<path style="fill:#AE312F;" d="M346.887,102.739c-1.08,44.653-39.086,66.694-27.593,42.732c9.033-18.83,7.022-44.158,5.567-55.081   C332.618,93.947,339.97,98.103,346.887,102.739z"/>
	<path style="fill:#AE312F;" d="M241.902,262.385c-1.621,6.677-3.106,13.264-4.426,19.341c-0.736-0.225-1.456-0.45-2.176-0.645   c-3.736-1.036-7.592-1.696-11.478-1.951c-2.986-0.195-6.122-0.18-8.792-1.53c-0.48-0.255-0.96-0.555-1.305-0.975   c-0.555-0.69-0.72-1.621-0.645-2.491c0.33-3.676,4.021-6.017,7.427-7.427C227.258,263.93,234.594,262.43,241.902,262.385z"/>
	<path style="fill:#AE312F;" d="M216.755,245.355c-2.16,1.665-4.726,2.671-7.232,3.751c-6.227,2.671-12.228,5.897-17.9,9.618   c-0.585,0.39-1.171,0.78-1.756,1.17c1.081-6.827,2.506-13.789,4.022-20.331c6.482-2.566,13.534-3.916,20.496-2.806   c1.906,0.315,4.051,1.005,4.801,2.791C220.07,241.619,218.54,243.959,216.755,245.355z"/>
	<path style="fill:#AE312F;" d="M392.815,149.958c-0.21,0.3-0.42,0.6-0.645,0.9c-2.761,3.691-6.482,6.542-10.293,9.138   c-9.333,6.332-20.331,11.583-31.509,10.068c-1.726-0.24-3.481-0.66-4.892-1.695c-3.451-2.551-3.466-7.937-1.425-11.718   c2.056-3.781,5.567-6.482,8.583-9.543c6.497-6.617,10.683-15.365,12.048-24.517c0.24-1.651,0.225-3.706,0.225-5.807   C375.845,126.656,385.238,137.879,392.815,149.958z"/>
	<path style="fill:#AE312F;" d="M412.471,198.301c-2.371,0.765-4.801,1.365-7.247,1.861c-7.772,1.591-15.875,2.266-23.647,0.66   c-1.845-0.375-4.111-1.515-3.826-3.376c0.12-0.81,0.72-1.441,1.35-1.98c2.896-2.461,6.662-3.601,10.158-5.102   c6.602-2.806,12.558-7.082,17.39-12.394C409.11,184.632,411.06,191.429,412.471,198.301z"/>
	<path style="fill:#AE312F;" d="M414.781,235.212c-1.261,0.075-2.521,0.105-3.781,0.105c-4.816,0.015-9.708-0.135-14.269-1.665   c-1.966-0.645-4.066-1.801-4.576-3.811c-0.57-2.236,1.171-4.501,3.271-5.476c2.086-0.96,4.471-1.006,6.752-1.306   c3.961-0.54,7.787-1.936,11.163-4.036c0.57-0.36,1.125-0.825,1.68-1.305C415.351,223.569,415.262,229.405,414.781,235.212z"/>
	<path style="opacity:0.48;fill:#AE312F;" d="M320.685,201.741c-13.575,6.312-14.988,10.201,1.277,5.042   c-1.902,2.432-3.958,5.039-4.761,8.057c-0.423,1.303,0.093,3.584,1.759,2.652c2.818-1.951,4.344-5.609,6.035-8.52   c-0.355,3.513-0.782,7.262-0.121,10.751c0.381,3.064,3.014,4.303,3.752,0.595c0.464-2.077,0.395-4.357,0.258-6.503   c4.469,5.179,10.881,9.647,18.003,9.269c-6.831,0.793-13.248-3.126-17.844-7.884l0.699-0.297c0.471,2.848-0.096,11.592-4.725,7.767   c-2.091-3.309-1.524-7.419-1.377-11.131l1.033,0.31c-6.965,13.382-12.728,4.787-4.346-4.483l0.493,0.742   C303.077,213.033,308.421,206.166,320.685,201.741z"/>
	<path style="fill:#AE312F;" d="M214.223,137.458c0,0-7.387-2.663-13.628-0.466c-7.423,2.613-20.181,17.253-34.009,27.515   c-10.008,7.427-50.657,26.069-52.767,35.322c-2.11,9.253,3.946,25.829,10.752,34.939c6.805,9.109,19.046,9.128,27.291,8.741   c0,0-15.448,0.252-24.207-15.853c-8.759-16.105-9.554-25.053-3.674-31.543s35.181-20.518,42.554-24.752   c7.373-4.234,17.786-16.43,25.623-22.715C199.996,142.361,205.187,136.493,214.223,137.458z"/>
	<path style="fill:#AE312F;" d="M205.646,142.048c0.302-0.135,11.725-1.352,19.574,12.207c7.849,13.559,2.004,30.534-5.884,36.583   c0,0,8.277-3.461,9.6-5.363c1.323-1.902,5.992-18.269,4.391-23.706c-1.601-5.437-14.127-22.4-19.102-22.897   C209.248,138.375,205.646,142.048,205.646,142.048z"/>
	<path style="fill:#AE312F;" d="M185.424,185.716c0,0-6.209,0.942-8.718,4.219c-4.454,5.819-2.657,28.101-5.979,34.686   c-3.323,6.585-8.444,13.077-15.446,14.586c0,0,8.465-0.178,11.706-2.418c3.24-2.24,8.152-12.273,8.152-12.273l0.941-13.169   l2.235-17.384C178.314,193.963,182.123,187.153,185.424,185.716z"/>
	<path style="opacity:0.39;fill:#9CF0E7;" d="M210.596,138.891c-7.366-0.447-15.67,6.732-30.59,22.373   c-14.92,15.627-44.963,25.3-53.31,34.612c-8.347,9.312-0.908,22.316,1.572,26.813c2.494,4.483,12.513,25.285,34.511,16.679   c21.998-8.621,14.123-32.04,15.536-40.387c1.398-8.318,5.15-10.73,5.15-10.73c8.722-3.979,17.963,7.696,27.131,7.278   c9.183-0.404,22.402-4.555,23.166-23.7C234.526,152.687,217.977,139.338,210.596,138.891z"/>
	<path style="fill:#FF5555;" d="M211.308,136.799c-7.667-0.465-16.31,7.007-31.839,23.287   c-15.529,16.265-46.798,26.333-55.486,36.025c-8.688,9.693-0.945,23.227,1.636,27.908c2.596,4.666,13.023,26.318,35.92,17.36   c22.897-8.973,16.81-33.004,18.281-41.691c0.879-5.193,2.971-11.793,9.449-11.55c5.527,0.207,10.218,4.132,15.152,6.176   c2.182,0.904,4.507,1.547,6.888,1.438c9.558-0.42,23.317-4.741,24.112-24.667C236.215,151.158,218.99,137.264,211.308,136.799z    M219.835,189.934c-15.418,9.417-25.863-10.182-38.002-2.644c-10.512,6.527,0.728,37.933-18.545,47.744   c-15.447,7.855-24.719,0.496-34.135-16.06c-9.417-16.572-0.511-23.93,22.557-35.625c11.12-5.641,21.263-11.907,29.947-19.436   c9.32-8.08,17.363-16.595,17.363-16.595c11.405-9.929,18.406-4.208,25.75,3.983C233.341,160.894,234.494,180.999,219.835,189.934z"/>
	<path style="fill:#FF5555;" d="M116.47,219.144c0,0-21.098,8.436-38.427,10.806c0,0,3.578,5.178,8.272,9.257   c0,0,19.414-2.441,34.681-10.031C120.996,229.176,118.127,224.477,116.47,219.144z"/>
	<path style="fill:#FFC893;" d="M270.095,248.13c-4.621,2.221-14.104,6.302-26.873,9.333l5.897-21.186c0,0,1.5,2.206,3.976,0.51   c1.861-1.275-0.555-5.371-1.86-7.307c-0.435-0.63-0.735-1.035-0.735-1.035s0.36,0.21,0.93,0.48c1.53,0.735,4.576,1.935,5.777,0.765   c1.651-1.62-3.976-5.657-3.976-5.657l1.515-3.766l0.465-1.125c0,0,0,0,0.015-0.015c0.315-0.285,4.516-3.976,11.103-5.102   C266.329,214.026,262.392,231.862,270.095,248.13z"/>
	<path style="opacity:0.48;fill:#AE312F;" d="M243.314,256.678c1.553-7.172,3.239-14.304,5.561-21.28   c1.005,1.001,2.594,1.785,3.891,0.947c1.283-2.092-2.774-7.525-3.909-9.536c1.561,0.973,3.377,2.218,5.127,2.774   c6.283,1.475,1.326-4.102-1.131-5.433c1.182-3.202,2.597-6.323,4.35-9.249c-1.465,2.983-2.64,6.095-3.673,9.23l-0.128-0.365   c7.848,4.673,4.375,9.972-3.177,5.112l0.706-0.712c1.155,2.193,4.91,6.981,2.379,9.124c-1.463,0.868-3.313,0.454-4.536-0.644   l0.83-0.208C247.395,243.03,245.405,250.05,243.314,256.678z"/>
	<path style="opacity:0.48;fill:#AE312F;" d="M281.646,189.732c-3.324,1.416-15.824,5.126-16.697,8.132   c2.365,2.292,7.336,0.915,10.35,0.651c-4.816,2.83-10.357,5.352-14.033,9.627c-0.517,0.647-0.163,1.372,0.622,1.563   c2.143,0.448,4.585-0.699,6.566-1.53c-6.98,20.951-0.176,44.871,15.469,60.175c-16.258-14.559-23.396-38.424-16.851-59.394   l0.724,0.671c-2.198,0.926-7.738,2.773-7.765-1.193c2.74-4.698,8.396-6.819,12.869-9.553l0.256,0.783   c-2.402,0.125-8.254,1.033-8.91-2.104C266.859,193.645,277.069,191.447,281.646,189.732z"/>
	<path style="opacity:0.2;fill:#AE312F;" d="M289.961,392.382c-0.69,4.741-2.146,10.533-4.681,16.595   c2.701-0.825,6.167-1.605,7.532-0.825c2.011,1.155-6.842,10.983-14.044,12.964c-9.258,13.849-25.087,26.573-51.044,29.303   c-38.621,4.081-56.522-23.962-60.092-33.955c-3.871,0.615-7.337,0.54-10.458-0.015c1.065-2.596,3.766-4.396,9.693-3.451   c0.09,0.015,0.195,0.03,0.285,0.045c0,0,0.21,0.435,0.66,1.2c0.015,0,0.015,0.015,0.015,0.03c0.3,0.48,0.675,1.095,1.17,1.816   c5.057,7.592,21.066,26.587,53.175,24.577c40.017-2.506,63.138-56.776,53.61-74.166c6.542,2.326,11.613,7.517,13.624,14.404   c2.716,0.615,5.132,2.551,5.057,5.912C294.372,389.966,292.811,391.767,289.961,392.382z"/>
	<path style="fill:#6CE1C1;" d="M119.584,96.469c0,8.333-8.36,15.089-18.673,15.089c-10.313,0-18.674-6.756-18.674-15.089   c0-8.334,8.36-15.09,18.674-15.09C111.223,81.379,119.584,88.135,119.584,96.469z"/>
	<ellipse style="fill:#6CE1C1;" cx="388.362" cy="388.31" rx="18.674" ry="15.089"/>
	<path style="fill:#6CE1C1;" d="M418.965,381.934c0,1.672-1.678,3.028-3.747,3.028c-2.069,0-3.747-1.356-3.747-3.028   c0-1.672,1.678-3.028,3.747-3.028C417.288,378.906,418.965,380.262,418.965,381.934z"/>
	<path style="fill:#6CE1C1;" d="M426.066,394.613c0,3.481-3.492,6.303-7.8,6.303c-4.308,0-7.8-2.822-7.8-6.303   c0-3.481,3.492-6.303,7.8-6.303C422.574,388.31,426.066,391.131,426.066,394.613z"/>
	<path style="fill:#FFFFFF;" d="M99.519,270.15c0,2.398-1.944,4.341-4.341,4.341c-2.397,0-4.341-1.943-4.341-4.341   c0-2.398,1.943-4.341,4.341-4.341C97.576,265.809,99.519,267.753,99.519,270.15z"/>
	<path style="fill:#FFFFFF;" d="M78.811,256.114c0,0.745-0.604,1.349-1.349,1.349c-0.745,0-1.349-0.604-1.349-1.349   c0-0.745,0.604-1.349,1.349-1.349C78.207,254.765,78.811,255.369,78.811,256.114z"/>
	<circle style="fill:#FFFFFF;" cx="262.72" cy="298.191" r="4.432"/>
	<path style="fill:#FFFFFF;" d="M273.128,288.151c0,0.838-0.679,1.517-1.517,1.517s-1.517-0.679-1.517-1.517   c0-0.838,0.679-1.517,1.517-1.517S273.128,287.314,273.128,288.151z"/>
	<path style="fill:#FFFFFF;" d="M306.676,441.611c0,2.311-1.874,4.185-4.185,4.185c-2.311,0-4.185-1.874-4.185-4.185   c0-2.311,1.874-4.185,4.185-4.185C304.802,437.426,306.676,439.3,306.676,441.611z"/>
	<path style="fill:#FFFFFF;" d="M314.683,435.942c0,1.392-1.128,2.52-2.52,2.52s-2.519-1.128-2.519-2.52   c0-1.391,1.128-2.519,2.519-2.519S314.683,434.55,314.683,435.942z"/>
	<g>
		<path style="fill:#AE312F;" d="M207.455,66.019c-0.173-0.05-3.184-0.92-7.424,0.277c-2.635,0.744-5.29,2.677-6.26,3.448    C198.821,72.545,205.226,68.525,207.455,66.019z"/>
		<path style="fill:#AE312F;" d="M207.487,66.027c0,0-0.026-0.007-0.032-0.009c-1.893,1.747-8.633,6.526-13.684,3.724    c-0.423,0.334,0,0,0,0c1.618,7.277,4.132,15.079,6.179,23.195c0.393-0.041,0.807-0.123,1.252-0.183c0,0,3.57,1.224,5.149,0.891    c2.004-0.423,5-3.232,5-3.232c0.445-0.166,0.86-0.338,1.235-0.515C210.584,81.963,209.059,73.096,207.487,66.027z"/>
		<path style="fill:#FF5555;" d="M225.265,145.515c-1.202-4.651-2.334-9.046-3.275-13.026c-2.053-8.686-4.474-18.127-7.035-28.121    c-0.944-3.678-1.89-7.388-2.826-11.085c-4.196-1.502-7.379-0.496-10.292,2.147c0.978,3.849,1.964,7.715,2.945,11.546    c2.548,9.943,4.956,19.339,6.985,27.929c0.966,4.084,2.113,8.529,3.328,13.234c4.637,17.972,10.988,42.582,7.514,52.871    c-1.25,3.698-3.973,5.545-6.037,6.443c-3.867,1.681-8.843,1.562-12.981-0.309c-0.32-0.143-0.907-0.293-1.194-0.441    c-1.801,2.933-3.432,5.852-5.6,8.737c0.776,0.447,1.585,0.876,2.467,1.275c2.482,1.122,5.118,1.858,7.786,2.202    c4.701,0.607,9.498-0.001,13.71-1.833c5.672-2.466,9.863-6.981,11.797-12.713C237.033,191.121,230.781,166.892,225.265,145.515z"/>
		<path style="fill:#FFFFFF;" d="M211.349,90.416c-3.637,1.341-6.72,1.818-10.148,2.339c0.192,0.765,0.442,1.908,0.636,2.674    c3.898,0.27,7.293-0.584,10.292-2.147C211.873,92.276,211.603,91.42,211.349,90.416z"/>
		<path style="fill:#FFFFFF;" d="M200.249,205.49c-5.887-0.488-5.887,1.488-5.887,4.745c1.216,1.159,1.501,3.775,2.434,5.204    c2.168-2.885,4.02-5.651,5.821-8.585C201.998,206.538,200.744,205.836,200.249,205.49z"/>
	</g>
	<path style="fill:#AE312F;" d="M198.457,220.093c-3.203-7.508-6.866-17.634-10.842-24.662c7.618,4.247,14.751,9.746,19.651,17.03   c-5.137-6.122-11.585-11.075-18.472-15.066l0.753-0.759C193.375,204.106,196.003,212.093,198.457,220.093z"/>
	<g>
		<g>
			<path style="fill:#AE312F;" d="M278.767,421.115c-1.35,0.39-2.655,0.495-3.811,0.195c-7.277-1.861,6.752-11.118,6.752-11.118     s1.576-0.615,3.571-1.215c2.701-0.825,6.167-1.605,7.532-0.825C294.822,409.307,285.969,419.135,278.767,421.115z"/>
			<path style="fill:#AE312F;" d="M168.727,416.29c0,0,22.304-15.414,12.512-34.998C181.239,381.293,158.664,396.446,168.727,416.29     z"/>
			<path style="fill:#AE312F;" d="M168.726,416.284c-0.375,0.075-0.735,0.135-1.095,0.18c-3.871,0.615-7.337,0.54-10.458-0.015     c-15.68-2.791-22.176-17.66-22.176-17.66c17.63-4.186,27.938,8.072,31.869,14.209c0.045,0.075,0.09,0.15,0.135,0.21v0.015     c0.885,1.395,1.426,2.43,1.62,2.851C168.696,416.209,168.726,416.284,168.726,416.284z"/>
			<path style="fill:#FF5555;" d="M290.185,390.626c-0.06,0.57-0.135,1.155-0.225,1.756c-0.69,4.741-2.146,10.533-4.681,16.595     c-1.68,3.991-3.811,8.118-6.512,12.138c-9.258,13.849-25.087,26.573-51.044,29.303c-38.621,4.081-56.522-23.962-60.092-33.955     c-0.6-1.635-0.795-2.791-0.63-3.241v-0.015c0.03-0.09,0.09-0.15,0.15-0.165c0.06-0.03,0.135-0.045,0.195-0.06     c1.455-0.45,2.881,0.135,4.171,1.065c1.47,1.08,2.776,2.611,3.781,3.616c0.705,0.675,1.425,1.336,2.175,1.966     c10.938,9.273,26.738,12.514,40.602,9.513c5.552-1.2,9.813-7.307,13.624-15.289c1.725-3.586,3.346-7.562,4.967-11.628     c3.556-8.973,7.052-18.425,11.283-25.372c1.095-1.801,2.236-3.421,3.436-4.832c1.966-2.311,4.111-4.036,6.482-4.951     c6.377-2.491,12.634-2.475,17.915-0.585v0.015c6.542,2.326,11.613,7.517,13.624,14.404     C290.276,383.86,290.576,387.131,290.185,390.626z"/>
			<path style="fill:#AE312F;" d="M248.723,374.612c2.084-3.544,5.296-3.828,9.363-1.436c4.067,2.392-2.939,12.155-6.378,10.133     C248.816,381.608,246.639,378.156,248.723,374.612z"/>
			<path style="fill:#AE312F;" d="M294.462,386.815c-0.09,3.151-1.651,4.951-4.501,5.567c-0.87,0.195-1.875,0.285-2.986,0.255     c-4.712-0.105-3.346-12.048,0.645-11.958c0.6,0.015,1.2,0.09,1.785,0.225C292.121,381.519,294.537,383.454,294.462,386.815z"/>
			<path style="fill:#AE312F;" d="M236.663,402.224c-2.76,0.57-11.702-2.939-14.079-0.335c-2.377,2.603,6.1,12.242,13.243,13.469     C241.26,416.29,239.424,401.654,236.663,402.224z"/>
		</g>
		<path style="fill:#AE312F;" d="M269.112,419.523c0.695-1.59,2.151-4.454,0.423-5.694c-0.828-0.478-1.827,0.036-2.566,0.72    c-1.325,1.153-2.402,3.265-3.316,4.754c3.532-14.54-0.933-15.531-6.247-1.85c0.704-11.275-4.967-6.278-7.81,0.386    c1.243-2.856,2.327-7.024,5.77-7.847c2.491-0.027,3.086,3.108,3.058,5.005l-0.95-0.203c4.248-11.868,10.946-10.49,7.61,2.076    l-0.81-0.342C268.158,410.277,273.383,413.275,269.112,419.523z"/>
	</g>
</g>















</svg>
