<?xml version="1.0" encoding="UTF-8"?>
<!-- Generator: Adobe Illustrator 25.2.3, SVG Export Plug-In . SVG Version: 6.00 Build 0)  -->
<svg xmlns="http://www.w3.org/2000/svg" xmlns:xlink="http://www.w3.org/1999/xlink" version="1.1" id="Capa_1" x="0px" y="0px" viewBox="0 0 512 512" style="enable-background:new 0 0 512 512;" xml:space="preserve" width="512" height="512">
<g>
	<path style="fill:#6CE1C1;" d="M126.361,319.773c0,0,7.028-27.117,4.415-35.16c-2.613-8.043-3.454-11.884-7.448-9.683   c-4.686,2.582-8.281,6.592-12.15,10.198c-1.82,1.697-3.67,3.667-6.103,4.371c-1.934,0.559-4.031,0.431-3.618-2.16   c0.419-2.626,3.409-5.05,5.017-7.007c3.402-4.141,7.231-8.218,11.438-11.556c4.368-3.443,3.902-9.454,1.676-14.174   c-2.226-4.72-4.165-10.633-6.419-10.005c-1.185,0.331-2.294,2.068-3.052,2.928c-1.873,2.125-3.674,4.311-5.572,6.415   c-4.197,4.651-9.025,9.865-15.098,11.984c-2.652,0.925-1.747-10.781,11.315-24.29c2.162-2.236,8.222-6.769,5.145-10.249   c-2.424-2.741-11.889-10.559-15.035-12.409c-3.146-1.85-18.316,24.323-23.137,24.488c-4.821,0.165,10.702-31.258,6.302-33.126   c-4.4-1.868-13.797-8.005-17.773-6.875c-3.976,1.13-9.614,17.483-15.347,19.559c-5.733,2.077,5.58-22.725,2.021-23.697   c-3.559-0.972-33.792-7.678-39.221-5.39c-5.429,2.289-3.407,30.169-3.087,33.573c0.319,3.404,23.842-2.785,26.965,1.317   c3.123,4.102-19.828,8.095-22.814,8.716c-2.986,0.621-0.462,17.724,1.745,25.767c2.207,8.043,28.462-1.911,35.401-4.875   c6.939-2.963,5.16,9.506-9.561,12.494c-14.721,2.988-20.171,10.437-14.655,20.193c5.515,9.755,10.766,18.742,17.454,20.907   c6.687,2.165,27.491-20.351,32.569-19.616c5.078,0.734-22.477,27.579-16.633,31.616c5.844,4.037,25.992,24.772,37.354,18.995   C99.819,337.246,126.361,319.773,126.361,319.773z"/>
	<path style="fill:#6CE1C1;" d="M370.584,161.695c-1.457,16.553,4.647-26.637,13.493-51.286   c6.813-18.982,16.784-40.102,21.584-37.851c4.799,2.25-17.996,87.041-20.412,140.678   C382.833,266.873,370.584,161.695,370.584,161.695z"/>
	<path style="fill:#6CE1C1;" d="M390.61,186.537c4.809-20.631,9.805-41.26,15.531-61.657c5.494-19.572,12.626-41.153,25.987-57.07   c1.456-1.735,4.978-6.41,7.816-5.384c4.095,1.48,3.738,8.205,3.574,11.589c-0.357,7.368-1.964,14.868-4.004,21.935   c-8.934,30.948-19.586,61.4-31.805,91.203c-2.661,6.49-5.392,13.014-8.755,19.179c-1.008,1.848-3.627,7.847-6.425,7.664   C384.411,213.464,390.61,186.537,390.61,186.537z"/>
	<path style="fill:#6CE1C1;" d="M406.903,197.771c5.085-13.979,15.401-26.544,22.118-39.877   c5.591-11.098,10.567-22.506,14.895-34.155c1.911-5.144,6.84-26.152,15.492-23.006c6.438,2.74,1.864,22.503,0.889,27.204   c-4.641,22.37-17.199,41.469-31.335,58.972c-8.905,11.026-18.545,22.12-29.469,31.234   C399.492,218.144,406.899,197.781,406.903,197.771z"/>
	<path style="fill:#6CE1C1;" d="M412.393,210.771c0,0,24.364-19.348,36.431-37.439c12.067-18.091,15.182-10.328,13.959,0   c-1.223,10.328-24.603,42.836-48.855,52.995C389.677,236.485,412.393,210.771,412.393,210.771z"/>
	<ellipse style="fill:#FFC893;" cx="400.481" cy="304.358" rx="68.097" ry="29.11"/>
	<path style="fill:#FFC893;" d="M512,377.642c0,10.667-4.855,20.923-13.787,30.458c-8.99-1.81-19.29-2.84-30.237-2.84   c-35.136,0-63.622,10.609-63.622,23.689c0,7.328,8.931,13.875,22.968,18.216c-43.685,14.272-100.921,22.909-163.558,22.909   c-137.103,0-248.235-41.375-248.235-92.432s111.133-92.432,248.235-92.432C400.853,285.21,512,326.585,512,377.642z"/>
	<ellipse style="opacity:0.2;fill:#AE312F;" cx="265.542" cy="382.946" rx="152.22" ry="44.067"/>
	<g>
		<g>
			<path style="fill:#FF9D3D;" d="M222.125,271.168l-2.331,82.092c0,0-5.97,15.333-24.683,24.256     c-5.025,2.408-10.982,4.351-17.975,5.413c-1.347,0.207-2.668,0.375-3.937,0.518c-29.824,3.445-38.126-8.534-46.219-6.682     c-8.444,1.93-6.242,9.428-21.614,13.883c-16.279,4.701-53.679,17.936-56.023,6.074c-2.098-10.606,20.565-20.345,35.976-23.803     c15.411-3.471,29.294-13.882,35.846-44.329c0.22-1.049,0.479-2.072,0.751-3.082c1.955-7.356,5.025-13.611,8.482-18.817     c9.803-14.776,22.753-21.251,22.753-21.251s-8.482-1.554-6.553-3.471c1.916-1.929,19.27,0,19.27,0s-6.941-3.47-2.707-5.996     c4.248-2.525,25.965,5.996,25.965,5.996c0.531-7.705,5.594-18.985,5.594-18.985L222.125,271.168z"/>
			<path style="opacity:0.2;fill:#AE312F;" d="M222.125,271.168l-2.331,82.092c0,0-5.97,15.333-24.683,24.256     c-5.025,2.408-10.982,4.351-17.975,5.413c-1.347,0.207-2.668,0.375-3.937,0.518c-29.824,3.445-38.126-8.534-46.219-6.682     c-8.444,1.93-6.242,9.428-21.614,13.883c-16.279,4.701-53.679,17.936-56.023,6.074c-2.098-10.606,20.565-20.345,35.976-23.803     c15.411-3.471,29.294-13.882,35.846-44.329c0.22-1.049,0.479-2.072,0.751-3.082c1.955-7.356,5.025-13.611,8.482-18.817     c9.803-14.776,22.753-21.251,22.753-21.251s-8.482-1.554-6.553-3.471c1.916-1.929,19.27,0,19.27,0s-6.941-3.47-2.707-5.996     c4.248-2.525,25.965,5.996,25.965,5.996c0.531-7.705,5.594-18.985,5.594-18.985L222.125,271.168z"/>
		</g>
		<path style="fill:#AE312F;" d="M65.631,401.027c-0.506-1.627-0.524-3.431-0.075-5.129c0.424-1.711,1.338-3.297,2.532-4.605    c1.236-1.278,2.732-2.245,4.317-2.938c0.792-0.345,1.633-0.563,2.443-0.824c0.851-0.133,1.684-0.307,2.526-0.396    c-0.773,0.375-1.556,0.666-2.319,0.996c-0.735,0.395-1.491,0.728-2.201,1.129c-1.404,0.834-2.729,1.761-3.823,2.92    C66.857,394.494,65.639,397.635,65.631,401.027z"/>
		<path style="fill:#AE312F;" d="M149.772,336.307c-0.415,1.476-1.969,2.409-3.484,2.551c-1.528,0.142-3.03-0.35-4.468-0.893    c-5.75-2.163-14.31-6.631-19.905-12.458c1.955-7.356,5.025-13.611,8.482-18.817c0.881,0.932,1.657,1.955,2.422,2.966    c5.491,7.239,10.995,14.491,15.734,22.236C149.383,333.238,150.212,334.792,149.772,336.307z"/>
		<path style="fill:#AE312F;" d="M195.111,377.515c-5.025,2.408-10.982,4.351-17.975,5.413c-1.347,0.207-2.668,0.375-3.937,0.518    c0.79-3.885,3.613-8.094,4.468-11.72c1.774-7.55,1.619-15.449,0.622-23.09c-0.311-2.396-0.686-4.96,0.363-7.148    c1.049-2.176,4.17-3.51,5.957-1.891c0.388,0.35,0.673,0.79,0.945,1.231c5.413,8.754,8.729,18.804,9.596,29.06    C195.357,372.4,195.409,374.99,195.111,377.515z"/>
	</g>
	<path style="fill:#FF9D3D;" d="M361.682,82.949c30.124,87.53-131.608,107.955-154.514,107.433   c-12.903-12.628-28.547-20.235-37.674-43.504c-14.978-41.407,2.948-76.558,46.032-91.792   C264.407,38.018,345.424,21.359,361.682,82.949z"/>
	<path style="fill:#FF9D3D;" d="M219.164,54.97c-0.353,0.403-6.071,6.925-12.563,12.26c-2.227,1.81-4.535,3.49-6.76,4.733   c-3.602,2.024-6.973,2.915-9.321,1.395c-1.017-0.663-2.032-1.627-3.022-2.835c-0.109-0.121-0.222-0.255-0.317-0.381   c-4.878-6.144-8.906-17.6-8.781-24.589c0.03-1.948,0.387-3.534,1.122-4.57c0.285-0.412,0.626-0.716,1.04-0.951   c6.605-3.656,13.923-1.742,19.648,2.303c3.937,2.777,7.339,6.649,11.557,9.047c0.322,0.174,3.067,1.764,5.133,2.781l0.487,0.229   C218.288,54.825,218.993,55.075,219.164,54.97z"/>
	<path style="fill:#FF9D3D;" d="M342.603,52.493c-0.731,0.075-48.771,4.576-53.071-8.947c-0.409-1.295-0.703-2.628-0.886-3.968   c-1.824-12.802,5.835-27.039,10.971-28.401l0.014-0.005c5.668-1.496,11.892,9.61,18.479,17.648   C324.595,36.75,342.072,52.012,342.603,52.493z"/>
	<g>
		<g>
			<path style="fill:#FF9D3D;" d="M489.454,207.823c-0.531,0.415-1.062,0.803-1.606,1.191c-5.866,4.209-12.277,7.239-17.068,13.002     c-10.347,12.432-8.793,27.053-7.809,42.088c0.492,7.718,0.777,15.657,0.388,23.505c-0.35,7.161-1.256,14.232-3.043,21.018     c-2.732,10.399-7.563,20.099-15.696,28.27c-13.468,13.52-37.763,21.705-66.616,11.59l8.094-12.782c0,0,15.32,2.447,31.664-3.807     c2.927-1.127,5.905-2.538,8.819-4.286c3.263-1.956,6.009-4.339,8.314-7.02c10.244-11.979,11.591-30.161,10.049-45.468     c-0.725-7.175-1.191-14.569-1.14-21.964c0.039-7.162,0.583-14.323,1.839-21.278c0.311-1.722,0.673-3.432,1.075-5.115     c2.512-10.49,7.42-20.384,14.919-27.597c4.571-4.416,10.114-7.822,16.641-9.777c4.74-1.412,13.145-3.289,17.03,0.971     C501.317,196.984,494.893,203.614,489.454,207.823z"/>
			<path style="opacity:0.2;fill:#AE312F;" d="M489.454,207.823c-0.531,0.415-1.062,0.803-1.606,1.191     c-5.866,4.209-12.277,7.239-17.068,13.002c-10.347,12.432-8.793,27.053-7.809,42.088c0.492,7.718,0.777,15.657,0.388,23.505     c-0.35,7.161-1.256,14.232-3.043,21.018c-2.732,10.399-7.563,20.099-15.696,28.27c-13.468,13.52-37.763,21.705-66.616,11.59     l8.094-12.782c0,0,15.32,2.447,31.664-3.807c2.927-1.127,5.905-2.538,8.819-4.286c3.263-1.956,6.009-4.339,8.314-7.02     c10.244-11.979,11.591-30.161,10.049-45.468c-0.725-7.175-1.191-14.569-1.14-21.964c0.039-7.162,0.583-14.323,1.839-21.278     c0.311-1.722,0.673-3.432,1.075-5.115c2.512-10.49,7.42-20.384,14.919-27.597c4.571-4.416,10.114-7.822,16.641-9.777     c4.74-1.412,13.145-3.289,17.03,0.971C501.317,196.984,494.893,203.614,489.454,207.823z"/>
		</g>
		<path style="fill:#AE312F;" d="M489.454,207.823c-0.531,0.415-1.062,0.803-1.606,1.191c0.725-3.885,3.303-7.006,3.303-7.006    c-15.113,3.82-24.696,0.155-29.514-2.836c4.571-4.416,10.114-7.822,16.641-9.777c4.74-1.412,13.145-3.289,17.03,0.971    C501.317,196.984,494.893,203.614,489.454,207.823z"/>
		<path style="fill:#AE312F;" d="M443.805,253.162c0.039-7.162,0.583-14.323,1.839-21.278c3.341,1.593,7.408,4.481,8.133,9.285    C454.54,246.208,448.635,250.52,443.805,253.162z"/>
		<path style="fill:#AE312F;" d="M460.316,308.628c-2.331-2.37-6.125-7.485-3.743-14.064c1.411-3.924,4.144-5.931,6.786-6.954    l-0.153,4.26c-0.153,4.249-0.763,8.469-1.82,12.588L460.316,308.628z"/>
		<path style="fill:#AE312F;" d="M431.398,336.51c-6.164,1.619-10.8-1.593-13.637-4.61c2.927-1.127,5.905-2.538,8.819-4.286    c3.263-1.956,6.009-4.339,8.314-7.02C436.811,326.072,438.534,334.645,431.398,336.51z"/>
	</g>
	<path style="fill:#AE312F;" d="M298.222,39.499c-5.456-0.309-9.368,0.072-9.576,0.079c-1.824-12.802,5.835-27.039,10.971-28.401   l0.014-0.005c1.718,2.537,3.752,5.581,4.22,13.439c0.041,0.774,0.134,1.514,0.25,2.231   C303.875,32.755,303.418,39.801,298.222,39.499z"/>
	<path style="fill:#FF9D3D;" d="M430.414,261.139c-1.806,20.016-6.958,39.176-15.877,57.318   c-18.176,36.694-47.753,70.878-86.65,86.366c-8.547,3.717-14.401-111.58-14.401-111.58l-18.078-80.395   c0,0,18.092-68.598,25.447-71.343c7.343-2.746,34.875-12.186,34.875-12.186C411.803,146.251,436.11,206.466,430.414,261.139z"/>
	<g>
		<path style="fill:#FFC893;" d="M348.232,327.393c-14.945,42.684-48.771,44.536-48.784,44.549    c-8.534,1.178-27.986,3.237-36.727,2.564c-17.017-1.308-34.901-2.512-48.395-14.193c-14.413-12.471-17.159-29.889-18.713-47.89    c-0.117-1.36-0.22-2.732-0.311-4.092c-0.13-2.033-0.22-4.067-0.285-6.1v-0.013c-0.181-5.672-0.091-11.357,0.324-17.016    c0.375-5.452,1.062-10.878,2.059-16.253c0.621-3.328,1.36-6.656,2.383-9.894c0.634-2.007,1.373-3.976,2.24-5.892    c12.109-26.652,72.12-57.875,107.928-56.14c35.795,1.722,29.242,24.23,29.242,24.23s0.958,2.538,2.383,6.942    c1.826,5.711,4.442,14.595,6.721,25.136C353.023,275.229,356.313,304.342,348.232,327.393z"/>
		<path style="fill:#FFC893;" d="M195.757,301.829c0,0-6.68,3.469-6.423,4.753c0.257,1.285,5.591-1.799,5.591-1.799    s-4.564,4.624-3.279,5.781c1.284,1.156,4.111-2.826,4.111-2.826V301.829z"/>
	</g>
	<path style="fill:#AE312F;" d="M191.916,67.198c-1.785,1.078-3.455,2.116-4.735,2.944c-4.878-6.144-8.906-17.6-8.781-24.589   c0.03-1.948,0.387-3.534,1.122-4.57c0,0,2.998,0.386,6.998,5.851c1.456,1.995,2.79,3.922,4.197,5.65   C193.486,57.059,197.723,63.655,191.916,67.198z"/>
	<path style="opacity:0.48;fill:#EB4949;" d="M304.449,132.001c-2.652,3.074-1.85,7.736,2.57,9.023   c5.918,1.723,15.275-1.355,18.64-6.423c2.841-4.278-1.199-9.628-5.627-9.603c-3.742,0.021-7.349,1.305-10.493,3.136   C308.078,128.985,305.936,130.278,304.449,132.001z"/>
	<path style="opacity:0.48;fill:#EB4949;" d="M210.643,150.467c3.762,1.719,5.092,6.27,1.652,9.217   c-4.605,3.946-14.449,4.925-19.736,1.686c-4.464-2.734-3.161-9.214,0.864-10.975c3.403-1.489,7.241-1.777,10.899-1.384   C206.022,149.194,208.535,149.504,210.643,150.467z"/>
	<path style="fill:#AE312F;" d="M258.059,43.424c-4.531,6.592-6.818,15.479-8.727,22.222c-1.054,3.697-1.908,7.451-2.627,11.224   c-0.547,2.832-2.1,5.91-5.012,7.086c-3.657,1.476-7.712-0.032-10.467-2.58c-3.454-3.176-4.79-7.67-5.306-12.126   c-0.724-6.307,0.471-12.793,3.016-18.68c0.307-0.088,0.628-0.181,0.949-0.274C239.815,47.434,249.213,45.147,258.059,43.424z"/>
	<path style="fill:#AE312F;" d="M384.078,143.305c-3.976,5.374-9.182,9.855-15.126,12.937c-4.843,2.513-10.529,4.118-15.747,2.538   c-0.531-0.155-1.075-0.376-1.438-0.803c-0.389-0.479-0.453-1.127-0.453-1.748c0.065-3.989,2.927-7.304,5.53-10.334   c3.134-3.665,6.126-7.446,8.949-11.357c0.272-0.376,0.531-0.79,0.751-1.243C372.734,136.001,378.6,139.381,384.078,143.305z"/>
	<path style="opacity:0.2;fill:#AE312F;" d="M348.296,253.331c-11.073,10.231-40.081,34.02-76.355,39.913   c-31.651,5.154-61.022-2.564-76.601-8.042c0.375-5.452,1.062-10.878,2.059-16.253c0.621-3.328,1.36-6.656,2.383-9.894   l141.793-30.861C343.401,233.905,346.017,242.789,348.296,253.331z"/>
	<path style="fill:#AE312F;" d="M178.385,132.035c-3.889,1.68-8.486,1.427-12.78,0.409c-0.062-0.388-0.123-0.777-0.175-1.185   c-0.056-0.375-0.118-0.763-0.165-1.157c-0.437-3.491-0.716-7.034-0.764-10.61C174.257,124.408,185.671,128.872,178.385,132.035z"/>
	<path style="fill:#9CF0E7;" d="M141.506,202.798c0,0-7.731-1.787-14.595,0.959c-0.479-1.619-0.894-3.147-1.243-4.572   c3.535-0.855,9.7-1.476,15.398,2.072L141.506,202.798z"/>
	<path style="fill:#6CE1C1;" d="M363.707,177.183c-0.028,1.862-0.15,3.715-0.259,5.556c0,0-2.667,1.385-2.75,2.374   c-0.071,0.852,2.271,3.142,2.271,3.142c-0.378,3.59-0.925,7.113-1.619,10.594c0,0-1.531,0.595-1.631,1.063   c-0.122,0.576,0.97,2.084,0.97,2.084c-0.379,1.654-0.766,3.311-1.217,4.934c0,0-3.48,0.329-3.71,1.099   c-0.341,1.145,1.962,4.625,1.962,4.625c-6.711,19.767-19.111,36.79-37.103,48.874c0,0-2.386-2.716-3.396-2.104   c-0.915,0.554-2.367,5.64-2.367,5.64c-2.053,1.188-4.165,2.267-6.345,3.341c0,0-1.115-1.987-1.95-1.602   c-0.669,0.309-2.557,3.674-2.557,3.674c-2.223,0.97-4.515,1.876-6.864,2.732c0,0-0.977-0.632-1.585-0.425   c-0.496,0.169-1.718,1.59-1.718,1.59h-0.013c-4.423,1.408-8.963,2.734-13.533,3.807c0,0-1.088-5.525-1.9-5.345   c-0.98,0.216-3.448,6.485-3.448,6.485c-2.316,0.471-4.628,0.849-6.967,1.23c0,0-2.871-3.1-3.66-2.982   c-1.24,0.186-2.491,3.824-2.491,3.824c-5.505,0.708-11.047,1.156-16.589,1.36c0,0-0.552-1.26-0.949-1.248   c-0.471,0.014-1.654,1.326-1.654,1.326c-3.847,0.085-7.696,0.094-11.526-0.078c0,0-1.329-5.478-2.914-5.595   c-1.243-0.092-5.594,5.012-5.594,5.012c-4.345-0.424-8.642-1.03-12.899-1.839c0,0-1.058-3.146-1.82-3.311   c-0.646-0.14-2.402,2.418-2.402,2.418c-5.228-1.083-10.225-2.683-15.022-4.495c0,0-0.228-4.83-1.168-5.215   c-0.717-0.294-3.805,3.195-3.805,3.195c-19.717-8.695-35.375-23.298-46.139-40.743c0,0,4.364-4.122,3.913-4.893   c-0.403-0.689-6.479,0.515-6.479,0.515c-1.728-3.108-3.213-6.294-4.638-9.542c-0.337-0.769,2.118-3.439,1.798-4.215   c-0.291-0.706-3.374,0.418-3.65-0.293c-1.28-3.291-2.4-6.626-3.38-9.997c0,0,3.203-3.04,3.011-3.753   c-0.218-0.809-4.254-0.816-4.254-0.816c-0.905-3.682-1.619-7.403-2.124-11.152c1.397-0.134,6.501-0.68,12.122-1.293l21.544,19.202   c0,0,135.831-23.205,195.099-50.942c3.263-0.635,6.523-1.279,9.779-1.932c0.212,1.166,0.403,2.384,0.574,3.639   c0,0-2.248,2.044-2.171,2.7c0.097,0.835,2.683,1.784,2.683,1.784c0.173,1.847,0.307,3.74,0.402,5.644c0,0-9.186,2.604-9.166,4.435   C354.426,172.903,363.707,177.183,363.707,177.183z"/>
	<path style="fill:#9CF0E7;" d="M359.473,206.93c-0.518,1.891-1.101,3.807-1.748,5.724c-8.806-6.903-17.781-8.392-17.781-8.392   s-19.49,2.499-1.166-0.997C348.037,201.503,354.927,204.003,359.473,206.93z"/>
	<path style="fill:#9CF0E7;" d="M361.35,198.849c-0.207,1.049-0.428,2.098-0.661,3.147c-1.878-1.671-4.066-3.237-6.281-3.911   C354.409,198.085,357.375,197.813,361.35,198.849z"/>
	<path style="fill:#9CF0E7;" d="M363.448,182.739c-0.116,1.787-0.285,3.626-0.479,5.516c-10.231-1.385-19.18,2.124-19.18,2.124   s-14.957,5.115,0.881-2.642C351.922,184.189,358.475,182.985,363.448,182.739z"/>
	<path style="fill:#9CF0E7;" d="M363.707,177.183c-5.827-0.389-16.861-0.195-24.929,5.504c-11.474,8.094,5.012-9.35,5.012-9.35   s8.768-7.084,19.788-6.462C363.733,169.931,363.798,173.401,363.707,177.183z"/>
	<path style="fill:#9CF0E7;" d="M363.163,161.138c-3.911,0.117-7.978,0.712-7.978,0.712c1.748-2.331,4.818-4.028,7.472-5.141   C362.826,157.913,363.008,159.402,363.163,161.138z"/>
	<path style="fill:#9CF0E7;" d="M231.109,282.754c-2.914-0.117-5.75-0.311-8.508-0.583c1.282-3.639,3.432-10.593,3.445-16.071h5.517   C231.563,266.099,232.12,273.559,231.109,282.754z"/>
	<path style="fill:#9CF0E7;" d="M209.703,280.332c-1.437-0.272-2.836-0.57-4.222-0.894c1.994-5.375,4.805-6.436,4.805-6.436   C209.586,275.89,209.547,278.441,209.703,280.332z"/>
	<path style="fill:#9CF0E7;" d="M208.472,262.978c-9.765,1.839-15.217,7.615-18.014,11.966c-1.697-0.634-3.354-1.308-4.973-2.02   c3.471-10.788,13.002-13.533,13.002-13.533S224.816,259.922,208.472,262.978z"/>
	<path style="fill:#9CF0E7;" d="M139.111,213.016c0,0-3.056,1.917-6.967,5.245c-0.673-1.528-1.282-3.031-1.852-4.507   C132.571,213.029,135.614,212.511,139.111,213.016z"/>
	<path style="fill:#9CF0E7;" d="M157.487,221.369c-5.828,6.086-12.73,9.22-18.169,10.839c-0.906-1.476-1.748-2.952-2.551-4.416   c9.014-5.892,14.893-14.776,14.893-14.776S169.155,209.209,157.487,221.369z"/>
	<path style="fill:#9CF0E7;" d="M245.238,282.754c-0.881,0.026-1.736,0.064-2.603,0.078c0.712-1.658,1.554-3.755,2.033-5.595   C244.668,277.237,245.096,279.503,245.238,282.754z"/>
	<path style="fill:#9CF0E7;" d="M267.979,280.552c-2.007,0.298-4.054,0.583-6.152,0.842c-0.855-9.609-2.914-16.343-2.914-16.343   s1.243-25.097,7.201-6.786C268.795,266.501,268.795,274.375,267.979,280.552z"/>
	<path style="fill:#9CF0E7;" d="M314.859,265.064c0.065-4.429-0.168-12.031-2.253-16.784l2.266-2.033c0,0,3.691,6.294,5.75,15.281   C318.783,262.745,316.866,263.937,314.859,265.064z"/>
	<path style="fill:#9CF0E7;" d="M308.513,268.405c-1.464,0.725-2.966,1.411-4.507,2.072c1.165-7.162,0.635-14.789,0.635-14.789   l2.409-1.152C309.174,259.339,309.096,264.532,308.513,268.405z"/>
	<path style="fill:#9CF0E7;" d="M298.736,266.099c-0.401,2.189-1.049,4.895-1.593,7.11c-1.088,0.402-2.176,0.79-3.302,1.165   L298.736,266.099z"/>
	<path style="fill:#9CF0E7;" d="M280.294,278.182c-1.748,0.402-3.522,0.777-5.348,1.14c0.958-7.265,0.531-14.025,0.531-14.025   s3.859-23.803,6.32-5.905C282.988,268.029,281.823,274.155,280.294,278.182z"/>
	<path style="fill:#AE312F;" d="M179.719,142.703c-2.252,2.228-6.281,3.484-10.225,4.175c-0.332-0.864-0.655-1.747-0.969-2.649   c-0.674-1.977-1.283-4.039-1.797-6.195c-0.016-0.089-0.042-0.16-0.059-0.248C175.209,137.915,183.69,138.774,179.719,142.703z"/>
	<path style="fill:#AE312F;" d="M172.478,114.379c-2.343,0.259-5.078-0.468-7.755-1.609c-0.003-0.141,0.008-0.286,0.02-0.432   c0.262-3.034,0.713-6.085,1.414-9.111C172.468,108.349,177.909,113.782,172.478,114.379z"/>
	<path style="fill:#AE312F;" d="M278.189,40.382c-1.124,2.003-2.387,4.243-3.277,5.915c-2.808,5.299-5.347,12.35-8.239,13.756   c-6.042,2.946-10.254-2.526-7.739-9.774c1.149-3.303,3.246-5.999,5.191-7.965l0.014-0.005   C269.002,41.479,273.676,40.841,278.189,40.382z"/>
	<path style="fill:#AE312F;" d="M225.683,51.563c-2.217,4.973-3.943,12.835-7.031,14.764c-4.654,2.9-9.64-0.009-8.183-3.307   c1.411-3.203,3.316-5.896,5.056-7.935C218.726,53.858,222.105,52.681,225.683,51.563z"/>
	<g>
		<g>
			<path style="fill:#FFFFFF;" d="M315.361,124.915c-5.499,6.196-15.647,10.36-24.088,9.393c-1.803-0.208-3.554-0.67-5.22-1.428     c-7.224-3.332-12.886-10.959-14.961-18.399c-0.062-0.168-0.109-0.341-0.156-0.514c-1.952-7.545,0.592-15.464,6.323-20.762     c6.709-6.196,18.034-10.586,26.974-6.402c3.527,1.656,6.706,4.39,9.252,7.733l0.015-0.005     C320.318,103.419,322.72,116.608,315.361,124.915z"/>
			<path style="fill:#AE312F;" d="M315.361,124.915c-15.729,16.139-38.338,11.781-45.321-10.141l0.026,0.082     c-7.571-24.332,29.976-42.716,43.823-20.629l-0.567-0.174c0.013-0.004,0.36-0.111,0.374-0.116     C320.117,102.588,323.057,116.166,315.361,124.915z M315.361,124.915c7.557-8.61,4.411-21.933-2.265-30.074l0.566,0.172     c-0.012,0.004-0.331,0.121-0.344,0.125c-11.137-16.932-39.191-7.091-41.676,11.471c-0.91,7.145,2.305,14.19,6.834,19.621     C287.593,138.384,306.016,135.159,315.361,124.915z"/>
		</g>
		<path style="fill:#AE312F;" d="M299.075,127.294c6.244-1.164,12.065-5.621,13.863-11.676c2.864-9.649-3.968-20.888-14.079-22.885    c-5.428-1.072-11.756,0.444-15.881,4.038c-11.023,9.606-2.964,28.506,10.89,30.641    C295.574,127.674,297.337,127.618,299.075,127.294z"/>
		<path style="opacity:0.21;fill:#AE312F;" d="M313.486,94.535c-30.542-3.226-41.162,17.307-42.392,19.945    c-0.062-0.168-0.109-0.341-0.156-0.514c-1.952-7.545,0.592-15.464,6.323-20.762c6.709-6.196,18.034-10.586,26.974-6.402    C307.761,88.458,310.94,91.193,313.486,94.535z"/>
	</g>
	<g>
		<g>
			<path style="fill:#FFFFFF;" d="M226.066,129.786c-1.16,7.025-7.923,11.837-14.468,13.804c-0.906,0.26-1.823,0.445-2.742,0.535     c-11.111,1.135-22.098-10.372-21.767-21.164c0.014-1.108,0.174-2.217,0.454-3.304c2.495-9.509,15.031-17.034,24.947-14.284     c2.397,0.684,4.406,2.381,6.04,4.159c1.121,1.211,2.203,2.624,3.186,4.165C224.835,118.516,226.932,124.563,226.066,129.786z"/>
			<path style="fill:#AE312F;" d="M226.066,129.786c-2.068,9.996-14.273,16.992-24.015,14.188     c-10.071-2.971-18.369-14.089-15.721-24.763c3.201-10.437,15.039-16.99,25.494-14.643     C221.136,107.662,227.086,120.451,226.066,129.786z M226.066,129.786c0.929-9.423-5.187-21.211-14.524-23.949     c-9.411-1.512-19.927,4.945-22.713,14.044c-2.295,9.334,4.799,19.628,13.617,22.865     C211.766,146.096,224.052,139.598,226.066,129.786z"/>
		</g>
		<path style="fill:#AE312F;" d="M202.681,136.846c0.537,0.212,6.062,3.685,13.852-1.627c7.791-5.311,3.155-15.908,0.634-19.061    c-2.521-3.152-9.554-9.078-18.563-3.354C189.596,118.529,193.44,133.2,202.681,136.846z"/>
		<path style="opacity:0.21;fill:#AE312F;" d="M221.716,113.698c-13.898-2.913-27.764,4.638-34.627,9.264    c0.014-1.108,0.174-2.217,0.454-3.304c2.495-9.509,15.031-17.034,24.947-14.284c2.397,0.684,4.406,2.381,6.04,4.159    C219.652,110.743,220.734,112.157,221.716,113.698z"/>
	</g>
	<path style="fill:#AE312F;" d="M352.38,63.293c-19.715,21.615-33.242,8.196-24.198,2.295c6.058-3.959,10.978-9.533,14.195-13.27   C346.375,55.436,349.714,59.093,352.38,63.293z"/>
	<path style="fill:#AE312F;" d="M361.682,82.949l0.036,0.098c0.112,0.482,0.247,0.94,0.368,1.403   c-7.768,6.303-18.048,11.741-27.894,10.904c-3.715-0.316-7.562-2.493-7.542-6.012c0.018-1.408,0.691-2.834,1.687-4.037   c2.937-3.579,7.96-5.691,12.291-7.663c4.924-2.252,10.239-6.432,14.265-10.08C357.713,72.669,359.999,77.817,361.682,82.949z"/>
	<path style="fill:#AE312F;" d="M363.823,90.965c1.277,6.23,1.589,12.425,0.839,18.539c-5.765,3.041-12.841,3.864-19.22,2.576   c-2.843-0.58-5.716-2.079-6.158-5.143c-0.594-4.052,4.447-6.201,7.618-7.198C355.505,97.045,361.017,93.271,363.823,90.965z"/>
	<path style="fill:#FFFFFF;" d="M300.486,35.14c0,0-2.853,0.762-3.83,0.385c-0.992-0.373,3.267-1.926,3.267-1.926   c-2.468-0.171-5.117-2.03-4.4-2.321c0.726-0.309,3.892,0.666,3.892,0.666c-3.958-2.833-4.155-9.067-1.135-9.681   c1.291-0.265,3.606,1.959,5.823,4.579c1.676,10.631,10.489,15.882,11.948,16.427c-6.048-2.502-12.632-3.468-17.828-3.77   C298.202,37.237,300.486,35.14,300.486,35.14z"/>
	<path style="fill:#FFFFFF;" d="M191.916,67.198c-0.423-2.393,0.861-6.341,0.98-6.68c-0.161,0.133-1.841,1.632-2.945,1.439   c-1.157-0.206,1.68-2.601,1.68-2.601s-2.47,1.058-2.943,0.383c-0.482-0.656,2.175-1.336,2.175-1.336   c-2.218-0.461-7.29-4.176-5.487-6.221c1.177-1.328,3.703-0.468,5.34,0.301c3.333,4.084,7.105,7.027,14.18,7.039   C204.897,59.522,197.723,63.655,191.916,67.198z"/>
	<g>
		<path style="fill:#AE312F;" d="M245.537,117.41c0,0-5.143-3.643-6.88-2.285c-1.737,1.358,6.012,6.883,8.408,6.969    c2.397,0.085,5.179-8.625,3.584-9.751C249.054,111.216,245.537,117.41,245.537,117.41z"/>
		<path style="fill:#FF5555;" d="M237.431,125.293c-3.467,1.784-6.396,4.925-7.548,8.947c-1.671,5.831-0.497,12.31,4.716,15.882    c3.236,2.217,7.105,2.884,10.824,2.938c7.125,0.104,14.205-0.284,20.479-3.858c2.276-1.297,4.414-2.954,5.936-5.201    c2.331-3.443,3.016-8.204,1.794-12.479c-1.221-4.276-4.32-7.966-8.123-9.674c-4.678-2.102-10.66-1.62-15.318-0.373    C246.043,122.587,241.243,123.332,237.431,125.293z"/>
		<path style="fill:#AE312F;" d="M261.24,146.1c-1.347-1.97-2.613-3.989-3.912-5.989l-3.747-6.091    c-1.249-2.032-2.43-4.103-3.62-6.172c-1.159-2.093-2.323-4.162-3.344-6.38l1.237-0.261c0.034,4.561,0.188,9.137,0.377,13.702    c0.104,2.283,0.232,4.566,0.431,6.843c0.161,2.282,0.413,4.553,0.73,6.826c-0.599-2.217-0.978-4.488-1.349-6.756    c-0.335-2.274-0.567-4.56-0.791-6.846c-0.43-4.577-0.62-9.162-0.688-13.763l-0.045-3.067l1.282,2.805    c0.966,2.113,2.113,4.215,3.24,6.3l3.412,6.268l3.43,6.267C258.992,141.895,260.149,143.978,261.24,146.1z"/>
	</g>
	<g>
		<path style="fill:#AE312F;" d="M180.51,167.147c3.329-2.613,6.862-4.891,10.444-7.087c3.602-2.162,7.256-4.24,11.115-5.98    c-3.328,2.616-6.861,4.893-10.444,7.087C188.021,163.326,184.367,165.404,180.51,167.147z"/>
		<path style="fill:#AE312F;" d="M174.666,157.776c3.74-1.714,7.598-3.055,11.485-4.303c3.899-1.211,7.827-2.329,11.875-3.069    c-3.739,1.717-7.597,3.057-11.485,4.303C182.641,155.916,178.712,157.033,174.666,157.776z"/>
		<path style="fill:#AE312F;" d="M173.427,145.018c4.137,0.062,8.22,0.513,12.289,1.06c4.064,0.585,8.115,1.267,12.11,2.341    c-4.137-0.059-8.22-0.511-12.289-1.059C181.473,146.772,177.423,146.09,173.427,145.018z"/>
		<path style="fill:#AE312F;" d="M317.655,132.141c4.161-0.975,8.366-1.562,12.581-2.052c4.22-0.452,8.45-0.806,12.725-0.766    c-4.161,0.979-8.366,1.564-12.582,2.052C326.16,131.824,321.929,132.178,317.655,132.141z"/>
		<path style="fill:#AE312F;" d="M341.362,119.115c-3.661,1.87-7.455,3.37-11.282,4.78c-3.84,1.374-7.714,2.654-11.723,3.563    c3.66-1.872,7.454-3.372,11.282-4.78C333.48,121.308,337.354,120.027,341.362,119.115z"/>
		<path style="fill:#AE312F;" d="M334.026,108.424c-2.435,3.248-5.152,6.224-7.938,9.133c-2.814,2.882-5.699,5.695-8.868,8.233    c2.433-3.251,5.15-6.226,7.938-9.133C327.974,113.777,330.859,110.964,334.026,108.424z"/>
	</g>
	<path style="opacity:0.48;fill:#AE312F;" d="M185.692,171.199c3.323,2.859,6.472,6.383,10.499,8.18   c0.243,0.982,0.545,2.003,0.986,2.903c0.402,0.899,1.475,2.234,1.926,1.159c0.404-1.998-0.678-4.504-1.141-6.455   c1.91,2.025,4.002,4.483,6.522,5.707c0.427,0.206,0.877,0.321,1.22,0.278c0.16,0.004,0.379-0.083,0.479-0.159   c0.138-0.071,0.163-0.167,0.214-0.297c0.176-1.066-1.159-2.68-1.848-3.623c3.808,1.234,7.768,2.267,11.803,2.344   c-3.595,0.419-7.223-0.187-10.726-1.036l0.486-0.73c0.368,0.445,0.676,0.892,0.949,1.405c0.248,0.514,0.516,1.086,0.416,1.851   c-0.074,0.372-0.302,0.789-0.628,0.992c-0.156,0.131-0.316,0.198-0.477,0.259c-0.157,0.077-0.329,0.111-0.507,0.131   c-2.98,0.02-5.048-2.473-7.048-4.321l1.089-0.627c0.292,0.986,0.487,1.953,0.555,3.003c0.019,0.527,0.024,1.067-0.162,1.67   c-0.16,0.67-0.953,1.332-1.675,1.235c-1.372-0.1-1.999-1.27-2.499-2.288c-0.418-0.948-0.707-1.893-0.9-2.897l0.33,0.391   c-2.132-1.033-3.675-2.613-5.36-4.168C188.624,174.529,187.102,172.912,185.692,171.199z"/>
	<path style="opacity:0.48;fill:#AE312F;" d="M326.65,153.561c3.481-2.923,7.034-5.813,10.17-9.095   c-0.05,0.919-0.169,2.093,0.004,2.992c0.082,0.54,0.318,1.076,0.556,1.176c0.094,0.055,0.296,0.06,0.448,0.003   c1.281-1.184,1.302-3.727,1.568-5.432c0.209-1.847,0.09-3.869-0.07-5.684c0.936,1.181,2.057,2.746,3.234,3.677   c0.688,0.569,1.538,1.02,2.002,0.746c1.397-0.909,1.247-3.622,1.24-5.211c2.212-0.746,4.37-1.794,6.376-3.057   c1.945-1.162,3.707-2.594,5.285-4.226c-1.361,1.832-3.075,3.4-4.928,4.76c-1.884,1.33-3.882,2.46-6.053,3.351l0.334-0.518   c0.496,3.393-0.928,8.478-5.048,5.14c-0.82-0.665-1.505-1.393-2.158-2.207l1.156-0.456c0.034,3.225-0.02,6.501-1.591,9.395   c-0.211,0.297-0.495,0.634-0.986,0.803c-0.428,0.134-0.889,0.133-1.341-0.105c-0.858-0.555-0.945-1.371-1.05-2.005   c-0.077-0.672-0.06-1.302,0.013-1.964l0.796,0.386C333.508,148.844,330.14,151.28,326.65,153.561z"/>
	<path style="fill:#FFFFFF;" d="M352.311,155.012C351.392,187.31,340.41,270.463,251.7,274.206   c-97.334,4.092-113.561-70.087-116.035-87.466c1.765-0.185,3.569-0.381,5.4-0.584l30.062,26.866c0,0,164.402-54.783,177.156-57.232   C349.627,155.532,350.969,155.273,352.311,155.012z"/>
	<path style="fill:#FF5555;" d="M348.283,155.789c-0.324,28.465-9.298,107.707-98.603,113.768   c-85.705,5.802-104.716-61.553-108.614-83.4c2.357-0.259,4.934-0.557,7.719-0.868c0.622-0.077,1.269-0.142,1.917-0.22   c0.311-0.039,0.621-0.064,0.932-0.104c-0.039,0.324-0.052,0.648-0.052,0.984c0,5.335,4.325,9.674,9.674,9.674   c3.393,0,6.384-1.761,8.107-4.403c1.502,3.38,4.895,5.724,8.819,5.724c5.348,0,9.674-4.325,9.674-9.674   c0-2.435-0.894-4.675-2.422-6.372c1.386-0.169,2.785-0.35,4.209-0.531c48.88-6.224,98.257-13.381,146.947-22.378   C340.5,157.278,344.411,156.54,348.283,155.789z"/>
	<path style="fill:#FF9D3D;" d="M367.673,318.134c0,0-5.491,65.114-33.645,83.413c-18.571,12.056-33.671,2.188-33.671,2.188   c-11.875,8.612-22.987,4.17-25.693-5.607c-0.635-2.267-0.816-4.831-0.44-7.576c1.8-13.248,5.271-45.714,3.6-56.696   c-0.764-5.012-1.179-10.49-0.376-14.479v-0.026l0.285-1.113c1.14-3.976,3.807-5.944,9.078-3.406   c10.619,5.128,13.546,31.106,13.546,31.106c9.505-26.716,29.63-53.057,47.929-52.695   C366.585,293.619,367.673,316.67,367.673,318.134z"/>
	<path style="opacity:0.48;fill:#AE312F;" d="M303.442,377.642c2.134-2.178,4.466-4.385,5.965-7.036   c0.162-0.326,0.302-0.687,0.291-0.972c-0.011-0.145-0.042-0.217-0.137-0.285c-0.095-0.087-0.225-0.126-0.371-0.145   c-0.612-0.061-1.346,0.287-1.989,0.633c-2.068,1.14-4.146,3.154-5.934,4.712c1.148-1.908,6.334-9.291,4.613-11.111   c-0.472-0.236-0.872-0.187-1.264,0.177c-1.553,1.565-1.831,5.768-2.396,7.871c-0.514-9.242-1.327-18.586-2.823-27.72   c-1.301-7.631-2.701-15.407-6.258-22.365c4.128,6.682,5.827,14.559,7.349,22.176c1.347,7.711,2.288,15.48,2.66,23.307l-1.192-0.078   c0.385-2.037,1.754-5.684,4.451-4.366c0.459,0.226,0.784,0.725,0.877,1.165c0.324,1.913-0.734,3.697-1.493,5.269   c-0.663,1.243-1.392,2.427-2.187,3.589l-0.636-0.559c1.221-1.013,2.477-1.951,3.897-2.701c0.721-0.337,1.461-0.741,2.42-0.637   c0.234,0.039,0.49,0.134,0.678,0.317c0.219,0.168,0.333,0.501,0.317,0.74c-0.02,0.498-0.219,0.868-0.411,1.225   C308.166,373.53,305.788,375.573,303.442,377.642z"/>
	<path style="fill:#AE312F;" d="M183.71,223.115c0,0-8.309,6.232-5.342,8.606C181.336,234.095,183.71,223.115,183.71,223.115z"/>
	<path style="fill:#AE312F;" d="M206.176,200.662c0,0-7.089,7.591-3.752,9.408C205.761,211.889,206.176,200.662,206.176,200.662z"/>
	<path style="fill:#AE312F;" d="M225.064,219.266c0,0-6,8.478-2.448,9.828C226.168,230.445,225.064,219.266,225.064,219.266z"/>
	<path style="fill:#AE312F;" d="M250.853,205.719c0,0-3.045,9.93,0.752,10.101C255.401,215.991,250.853,205.719,250.853,205.719z"/>
	<path style="fill:#AE312F;" d="M280.994,205.944c0,0-0.923,10.345,2.826,9.726C287.57,215.051,280.994,205.944,280.994,205.944z"/>
	<path style="fill:#AE312F;" d="M317.488,194.888c0,0,0.401,10.379,4.042,9.288C325.17,203.085,317.488,194.888,317.488,194.888z"/>
	<path style="fill:#AE312F;" d="M262.238,179.611c0,0-1.054,10.333,2.703,9.762C268.698,188.801,262.238,179.611,262.238,179.611z"/>
	<path style="fill:#AE312F;" d="M264.173,228.958c0,0-1.758,10.236,2.029,9.923C269.989,238.569,264.173,228.958,264.173,228.958z"/>
	<path style="fill:#AE312F;" d="M293.484,180.932c0,0,0.7,10.363,4.307,9.168C301.399,188.904,293.484,180.932,293.484,180.932z"/>
	<path style="fill:#AE312F;" d="M325.876,169.063c0,0,2.404,10.105,5.764,8.329C335,175.616,325.876,169.063,325.876,169.063z"/>
	<path style="fill:#AE312F;" d="M302.228,226.327c0,0,0.148,10.385,3.814,9.383C309.707,234.708,302.228,226.327,302.228,226.327z"/>
	<path style="fill:#AE312F;" d="M245.353,243.209c0,0-3.813,9.661-0.042,10.129C249.082,253.805,245.353,243.209,245.353,243.209z"/>
	<path style="fill:#AE312F;" d="M230.216,184.458c0,0-4.266,9.47-0.521,10.115C233.44,195.219,230.216,184.458,230.216,184.458z"/>
	<path style="fill:#AE312F;" d="M210.03,248.281c0,0-5.796,8.619-2.213,9.884C211.4,259.431,210.03,248.281,210.03,248.281z"/>
	<path style="opacity:0.48;fill:#AE312F;" d="M262.892,301.135c-3.415-3.013-6.979-6.319-11.216-8.031   c-0.524-0.173-1.068-0.291-1.558-0.246c-3.663,0.637,5.391,8.814,6.47,9.918c-3.085-0.642-6.392-1.457-9.537-1.096   c-0.398,0.051-0.759,0.173-1.021,0.319c-0.079,0.031-0.084,0.087-0.136,0.12c-0.055,0.039-0.088,0.077-0.073,0.064   c0.016-0.033-0.014-0.071,0.046,0.035c1.002,0.99,2.984,1.561,4.402,2.058c2.283,0.733,4.785,1.359,7.124,1.925   c-2.399,0.817-4.927,1.692-7.253,2.679c-1.625,0.758-3.785,1.499-4.906,2.792c-0.011-0.102-0.042-0.053,0.087,0.018   c3.185,0.806,7.042-0.099,10.302-0.484c-3.166,6.134-5.057,13.235-4.213,20.177c-1.287-6.695,0.197-13.664,3.003-19.803   l0.484,0.658c-2.824,0.487-5.638,0.998-8.533,0.828c-0.5-0.052-1.003-0.1-1.582-0.378c-0.272-0.146-0.7-0.475-0.687-1.068   c0.054-0.524,0.305-0.745,0.489-0.974c0.801-0.777,1.645-1.197,2.496-1.661c2.547-1.296,5.193-2.316,7.875-3.283l0.062,1.213   c-3.048-0.75-6.117-1.522-8.915-2.998c-0.671-0.402-1.798-1.103-1.406-2.186c0.17-0.372,0.41-0.552,0.691-0.753   c3.064-1.275,6.446-0.215,9.553,0.308l-0.506,0.945c-2.088-2.085-4.166-4.266-5.568-6.908c-0.407-0.786-0.858-2.285,0.175-2.911   c0.327-0.222,0.672-0.282,1.012-0.322c0.677-0.037,1.29,0.132,1.863,0.337C256.282,294.374,259.596,297.818,262.892,301.135z"/>
	<path style="opacity:0.48;fill:#AE312F;" d="M377.395,305.113c-0.234-1.332-0.532-2.651-0.888-3.946   c-0.376-1.277-0.803-2.592-1.544-3.629c-0.382-0.513-0.843-0.875-1.354-0.704c-2.485,0.941-1.144,6.701-1.131,8.811   c-1.393-3.699-2.539-8.351-5.39-11.18c-0.495-0.423-1.043-0.697-1.528-0.603c-0.601,0.104-1.02,0.364-1.081,0.812   c-0.176,2.14,2.162,4.521,3.245,6.238c-7.206-4.816-16.089-9.086-24.947-6.999c7.699-2.721,16.206,0.183,22.925,4.215l-0.854,0.9   c-0.475-0.66-0.863-1.319-1.194-2.06c-0.302-0.738-0.617-1.55-0.439-2.556c0.452-2.17,3.465-2.266,4.699-0.89   c1.235,1.135,1.954,2.521,2.624,3.892c0.648,1.388,1.183,2.797,1.605,4.27l-0.978,0.189c0.021-1.962-0.062-5.016,2.297-5.728   c0.372-0.096,0.897-0.017,1.221,0.222c0.345,0.224,0.582,0.526,0.776,0.828C376.827,299.643,377.112,302.396,377.395,305.113z"/>
	<path style="fill:#FF9D3D;" d="M362.82,231.885c0,0-10.44-24.659-23.972-17.588c0,0-10.11-5.275-13.532,7.071   c0,0-11.092,12.969,0,32.069c11.092,19.099,27.485,22.987,46.831,19.732C391.493,269.913,362.82,231.885,362.82,231.885z"/>
	<path style="opacity:0.48;fill:#AE312F;" d="M410.678,243.631c-6.101,9.849-14.386,18.548-24.462,24.396   c-20.708,11.978-49.783,9.384-61.216-13.839c-5.504-10.616-8.856-23.243-0.08-33.206l-0.15,0.285   c0.195-0.762,0.379-1.527,0.596-2.282c0.334-0.723,0.54-1.497,0.985-2.171c2.339-4.668,8.445-5.008,12.677-2.894l-0.415,0.025   c11.86-7.008,22.454,13.854,26.454,22.471c-3.946-8.014-15.193-28.788-26.187-21.643c-3.867-1.906-9.518-1.81-11.624,2.552   c-0.393,0.603-0.571,1.337-0.872,1.996l-0.536,2.147l-0.04,0.161c-8.443,9.573-5.04,21.753,0.31,31.967   c2.679,5.045,6.262,9.642,10.815,13.077c14.037,10.307,34.126,8.818,48.893,0.667C395.869,261.654,404.369,253.285,410.678,243.631   z"/>
	<path style="opacity:0.48;fill:#AE312F;" d="M338.848,214.297c0.107,1.19,0.397,2.294,0.713,3.385   c0.338,1.085,0.739,2.145,1.198,3.184c0.425,1.055,0.964,2.064,1.459,3.107c0.267,0.511,0.535,1.026,0.789,1.555   c0.271,0.519,0.547,1.038,0.78,1.598c-0.461-0.384-0.879-0.809-1.302-1.235c-0.384-0.454-0.777-0.907-1.129-1.391   c-0.694-0.974-1.312-2.01-1.786-3.123c-0.463-1.113-0.84-2.275-0.993-3.484C338.428,216.697,338.417,215.435,338.848,214.297z"/>
	<path style="opacity:0.48;fill:#AE312F;" d="M325.315,221.368c0.486,2.308,1.28,4.391,2.218,6.444   c0.464,1.028,0.994,2.026,1.527,3.037c0.539,1.01,1.121,2.001,1.648,3.074c-1.888-1.451-3.323-3.415-4.35-5.57   c-0.482-1.094-0.88-2.233-1.079-3.418C325.08,223.76,325.011,222.53,325.315,221.368z"/>
	<path style="opacity:0.48;fill:#AE312F;" d="M359.953,226.327c0.006-1.457,0.14-2.905,0.24-4.358   c0.856-8.687,2.787-17.268,5.814-25.457c0.524-1.358,1.073-2.705,1.663-4.035c-0.312,1.425-0.74,2.809-1.057,4.225   C364.06,206.506,361.927,216.386,359.953,226.327z"/>
	<path style="fill:#FF9D3D;" d="M137.552,229.207c0,0-5.48,16.575,0.509,30.412c5.989,13.837,21.369,14.208,36.604,6.609   c9.708-4.842,16.456-14.004,16.191-23.708c0.693-2.954,1.6-7.411,0-10.464c-1.293-2.467-3.433-5.016-8.013-5.73   c-10.682-8.956-39.669,11.849-39.669,11.849S139.013,231.89,137.552,229.207z"/>
	<path style="opacity:0.48;fill:#AE312F;" d="M182.844,226.327c-0.393,1.565-1.194,3.005-2.118,4.325   c-0.928,1.328-2.046,2.511-3.243,3.599c-1.237,1.04-2.537,2.008-3.955,2.775c-1.398,0.795-2.889,1.415-4.427,1.863   c1.308-0.937,2.625-1.785,3.882-2.714c1.265-0.914,2.475-1.885,3.646-2.897C178.941,231.219,181.07,228.978,182.844,226.327z"/>
	<path style="opacity:0.48;fill:#AE312F;" d="M179.715,252.756c1.9-1.814,3.898-3.399,5.819-5.064   c0.977-0.812,1.912-1.662,2.826-2.53c0.898-0.884,1.791-1.77,2.497-2.878c-0.206,1.324-0.947,2.505-1.742,3.55   c-0.805,1.057-1.747,1.988-2.74,2.843c-1.006,0.84-2.05,1.629-3.165,2.309C182.103,251.672,180.952,252.295,179.715,252.756z"/>
	<path style="fill:#AE312F;" d="M413.928,176.561c-0.091,0.051-0.168,0.116-0.259,0.168c-6.657,4.287-13.935,7.666-21.653,9.467   c-4.015,0.932-8.91,1.165-11.591-1.968c-2.448-2.875-1.8-7.408,0.285-10.568c2.085-3.16,5.271-5.374,8.094-7.9   c3.445-3.095,6.501-6.863,8.56-11.085C403.801,161.202,409.396,168.584,413.928,176.561z"/>
	<path style="fill:#AE312F;" d="M370.441,270.088c-0.906,1.373-1.904,2.694-2.978,3.924c-0.79,0.103-1.593,0.181-2.396,0.246   c-9.091,0.686-16.356-0.674-22.197-3.341c3.108-0.984,6.009-2.655,8.573-4.649c4.546-3.549,8.172-8.107,11.863-12.523   c1.878-2.24,4.481-4.701,7.291-3.872c2.046,0.596,3.212,2.784,3.678,4.869C375.427,260.039,373.42,265.569,370.441,270.088z"/>
	<path style="fill:#AE312F;" d="M428.212,215.49c-7.187,3.173-14.841,5.012-22.715,4.947c-3.419-0.013-7.524-0.92-8.664-4.157   c-0.79-2.227,0.311-4.753,1.994-6.385c1.709-1.645,3.937-2.59,6.074-3.587c6.229-2.901,12.251-6.527,17.742-10.8   c0.855,2.344,1.645,4.727,2.37,7.136C426.283,206.865,427.345,211.152,428.212,215.49z"/>
	<path style="fill:#AE312F;" d="M430.414,261.139c-0.013,0.195-0.039,0.389-0.052,0.583c-4.999,1.749-10.619,3.199-15.346,2.046   c-8.508-2.059-6.669-10.736-1.541-15.385c4.053-3.691,9.415-5.711,14.025-8.586c1.178-0.738,2.318-1.515,3.432-2.318   C431.333,245.353,431.139,253.279,430.414,261.139z"/>
	<path style="fill:#AE312F;" d="M423.654,295.665c-0.699,2.306-1.502,4.662-2.396,7.058c-1.606,4.364-3.496,8.871-5.646,13.455   c-6.462-1.399-12.588-3.95-17.418-8.366c-1.956-1.774-3.717-3.898-4.39-6.449c-0.699-2.538-0.142-5.556,1.891-7.239   c1.981-1.645,4.831-1.697,7.382-1.515C409.991,293.114,416.777,294.784,423.654,295.665z"/>
	<path style="fill:#AE312F;" d="M402.804,339.294c-3.121,4.831-6.488,9.635-10.127,14.336c-8.275-2.344-15.916-6.981-21.407-13.585   c-2.072-2.486-3.885-5.944-2.396-8.806c1.075-2.098,3.652-3.056,5.996-2.901c2.344,0.155,4.52,1.217,6.592,2.318   c4.507,2.396,8.884,5.077,13.637,6.916C397.844,338.647,400.305,339.139,402.804,339.294z"/>
	<path style="fill:#AE312F;" d="M371.296,377.031c-3.29,3.018-6.708,5.918-10.244,8.677c-3.341,2.59-6.799,5.037-10.347,7.343   c-5.504-9.868-9.518-20.63-9.246-32.143c0.091-3.82,1.075-8.275,4.196-9.687c1.088-0.492,2.331-0.505,3.522-0.337   c7.913,1.179,12.678,10.205,17.107,17.755C367.579,370.815,369.276,373.833,371.296,377.031z"/>
	<path style="fill:#FF5555;" d="M278.398,144.981c-0.437,0.859-0.369,1.99,0.28,2.701c0.557,0.61,1.415,0.831,2.228,0.976   c0.869,0.155,1.76,0.256,2.633,0.126c0.873-0.13,1.734-0.512,2.301-1.189c1.39-1.661-0.054-4.025-1.938-4.479   C282.098,142.682,279.298,143.212,278.398,144.981z"/>
	<path style="fill:#FF5555;" d="M230.324,123.308c0.213,0.487,0.732,0.788,1.258,0.87c0.096,0.015,0.192,0.024,0.288,0.027   c0.432,0.015,0.867-0.074,1.289-0.18c0.231-0.058,0.483-0.137,0.607-0.341c0.064-0.105,0.084-0.231,0.092-0.353   C234.008,121.081,229.382,121.152,230.324,123.308z"/>
	<ellipse style="fill:#FFC893;" cx="121.916" cy="470.073" rx="72.263" ry="30.891"/>
	<path style="fill:#FFC893;" d="M490.321,433.791c0,7.373-13.982,13.35-31.229,13.35c-17.247,0-31.229-5.977-31.229-13.35   c0-7.373,13.982-13.35,31.229-13.35C476.339,420.441,490.321,426.418,490.321,433.791z"/>
	<ellipse style="fill:#FFC893;" cx="39.115" cy="439.182" rx="16.838" ry="7.198"/>
	<path style="fill:#FFC893;" d="M508.539,311.924c0,3.975-7.539,7.198-16.838,7.198c-9.299,0-16.838-3.223-16.838-7.198   c0-3.975,7.539-7.198,16.838-7.198C501,304.726,508.539,307.949,508.539,311.924z"/>
	<path style="opacity:0.2;fill:#AE312F;" d="M125.668,437.81c0,1.988-3.769,3.599-8.419,3.599c-4.65,0-8.419-1.611-8.419-3.599   c0-1.987,3.769-3.599,8.419-3.599C121.899,434.211,125.668,435.823,125.668,437.81z"/>
	<ellipse style="opacity:0.2;fill:#AE312F;" cx="490.796" cy="395.233" rx="5.724" ry="2.447"/>
	<path style="opacity:0.2;fill:#AE312F;" d="M459.588,380.796c0,2.539-4.815,4.597-10.753,4.597c-5.939,0-10.753-2.058-10.753-4.597   c0-2.539,4.815-4.597,10.753-4.597C454.773,376.199,459.588,378.257,459.588,380.796z"/>
	<path style="opacity:0.2;fill:#AE312F;" d="M151.222,471.226c0,3.339-6.331,6.045-14.141,6.045c-7.81,0-14.141-2.706-14.141-6.045   c0-3.339,6.331-6.045,14.141-6.045C144.891,465.181,151.222,467.887,151.222,471.226z"/>
	<circle style="fill:#6CE1C1;" cx="77.045" cy="205.719" r="1.335"/>
	<path style="fill:#6CE1C1;" d="M404.139,63.981c0,0.737-0.598,1.335-1.335,1.335c-0.737,0-1.335-0.597-1.335-1.335   c0-0.737,0.598-1.335,1.335-1.335C403.541,62.646,404.139,63.244,404.139,63.981z"/>
	<circle style="fill:#6CE1C1;" cx="9.9" cy="293.606" r="1.335"/>
	<path style="fill:#6CE1C1;" d="M466.299,145.908c0,0.737-0.598,1.335-1.335,1.335c-0.737,0-1.335-0.598-1.335-1.335   c0-0.737,0.597-1.335,1.335-1.335C465.701,144.573,466.299,145.171,466.299,145.908z"/>
	<circle style="fill:#6CE1C1;" cx="73.04" cy="193.462" r="5.024"/>
	<path style="fill:#6CE1C1;" d="M425.158,56.104c0,2.774-2.249,5.024-5.024,5.024c-2.774,0-5.023-2.249-5.023-5.024   c0-2.774,2.249-5.024,5.023-5.024C422.909,51.081,425.158,53.33,425.158,56.104z"/>
	<circle style="fill:#6CE1C1;" cx="471.322" cy="129.319" r="5.024"/>
	<path style="fill:#6CE1C1;" d="M11.235,303.78c0,2.774-2.249,5.023-5.023,5.023c-2.775,0-5.024-2.249-5.024-5.023   c0-2.775,2.249-5.024,5.024-5.024C8.986,298.756,11.235,301.005,11.235,303.78z"/>
	<path style="opacity:0.2;fill:#AE312F;" d="M284.377,398.192c-3.937,0.893-7.123,0.764-9.712-0.065   c-0.635-2.267-0.816-4.831-0.44-7.576c1.8-13.248,5.271-45.714,3.6-56.696c-0.764-5.012-1.179-10.49-0.376-14.479v-0.026   l0.285-1.113c0.142-0.453,4.727-3.497,11.189,2.15C295.385,326.033,307.48,392.947,284.377,398.192z"/>
	<g>
		<path style="fill:#FFC893;" d="M279.2,329.86c0.305,0.221,0.701,0.272,1.078,0.273c0.565,0.002,1.202-0.136,1.494-0.619    c0.129-0.214,0.172-0.468,0.206-0.716c0.077-0.555,0.11-1.173-0.226-1.622C280.087,324.948,277.116,328.352,279.2,329.86z"/>
		<path style="fill:#FFC893;" d="M281.66,319.951c-0.115,0.148-0.145,0.344-0.164,0.531c-0.06,0.605-0.039,1.228,0.161,1.802    c0.564,1.609,3.548,2.142,3.877,0.113C285.83,320.581,283.113,318.076,281.66,319.951z"/>
		<path style="fill:#FFC893;" d="M287.982,327.505c0.341,0.588,1.082,0.908,1.746,0.764c1.72-0.373,1.626-2.797,0.235-3.522    C288.203,323.831,287.181,326.122,287.982,327.505z"/>
		<path style="fill:#FFC893;" d="M283.036,336.945c0.022-2.03,0.175-4.486,1.487-5.947c1.096-1.221,2.573-1.157,3.525,0.25    c2.026,2.994,2.805,6.908,3.425,10.559c1.257,7.393,2.124,15.064,1.15,22.632c-0.725,5.637-1.805,12.921-5.154,17.393    c-0.643,0.859-1.528,1.747-2.587,1.599c-4.018-0.562-2.738-8.433-2.351-11.402c0.971-7.449,1.636-14.762,1.227-22.311    c-0.223-4.125-0.739-8.206-0.725-12.349C283.033,337.229,283.034,337.088,283.036,336.945z"/>
	</g>
</g>















</svg>
