<svg viewBox="0 0 500 500" xmlns="http://www.w3.org/2000/svg" id="图层_1"><defs><style>.cls-1{fill:#231815;}.cls-2{fill:#f8e6cf;}.cls-3{fill:#423774;}.cls-4{fill:#eea453;}.cls-5{fill:#d18b46;}.cls-6{fill:#671527;}.cls-7{fill:#aa2831;}</style></defs><title>画板 1</title><path d="M326.08,137.61a1.36,1.36,0,0,1-.86-2.41c3.88-3.17,10.09-9.23,10.86-12.46-1.85-4.34-11.8-28.92-2.18-33.38l.4-.12c.58-.07,14-1.74,19.07,4.72,2.3,3,2.45,7,.45,12.07a5.26,5.26,0,0,1-2.49,2.9c-2,1.1-4.62,1.2-7.89.25a1.36,1.36,0,0,1,.75-2.62c6,1.75,7-1.28,7.06-1.41,1.67-4.21,1.64-7.37,0-9.52-3.78-4.86-14.69-3.91-16.37-3.72-5.41,2.93-.53,20,3.88,30.12l.14.34,0,.37c-.66,5.23-10.75,13.62-11.9,14.56A1.34,1.34,0,0,1,326.08,137.61Z" class="cls-1"></path><path d="M361.9,93.18h-.08a1.37,1.37,0,0,1-1.28-1.44l.9-15.73c2.26-11.57.66-16.46-1.08-18.56a5.94,5.94,0,0,0-4.81-2.07h-.05a4.3,4.3,0,0,0-4.26,3.7l-4.58,31.47a1.33,1.33,0,0,1-1.54,1.15A1.36,1.36,0,0,1,344,90.16l4.57-31.47a7,7,0,0,1,6.94-6h.06a8.63,8.63,0,0,1,6.9,3.05c3.08,3.72,3.64,10.66,1.68,20.64l-.87,15.55A1.36,1.36,0,0,1,361.9,93.18Z" class="cls-1"></path><path d="M372.76,120.89a29.5,29.5,0,0,1-9.28-1.85,1.36,1.36,0,0,1,.88-2.57c6.43,2.2,11,2.28,13.18.19,2.84-2.7,1.22-8.43,1.21-8.49l-.1-.36.09-.36c.55-2.14.41-3.83-.41-5a5.19,5.19,0,0,0-3.32-1.92l-1.67-.19.53-1.59c.88-2.63.76-4.75-.38-6.48-2.6-3.93-9.61-4.53-9.67-4.54a1.36,1.36,0,0,1-1.25-1.46A1.27,1.27,0,0,1,364,85c.34,0,8.38.7,11.72,5.74a9.21,9.21,0,0,1,1.1,7.44,7.35,7.35,0,0,1,3.7,2.68c1.25,1.8,1.55,4.12.91,6.92.37,1.55,1.52,7.45-2,10.85A9.29,9.29,0,0,1,372.76,120.89Z" class="cls-1"></path><path d="M354.62,139.21a1.35,1.35,0,0,1-1.17-.68,1.37,1.37,0,0,1,.49-1.86,9.92,9.92,0,0,0,4.87-9.68l0-.3.08-.28c3.27-11.89-7.8-17.59-8.28-17.82a1.36,1.36,0,0,1,1.22-2.44c.14.07,13.37,6.87,9.75,20.73A12.51,12.51,0,0,1,355.3,139,1.36,1.36,0,0,1,354.62,139.21Z" class="cls-1"></path><path d="M169.15,253.37s28.32-7.81,39-2L213,273.92,186.35,285.6Z" class="cls-2"></path><path d="M185.75,287.35l-18.59-34.84,1.63-.45c1.18-.32,29-7.88,40.06-1.86l.55.29,5.19,24.23Zm-14.59-33.1,15.8,29.6,24.5-10.73L207,252.31C198,248.07,177.18,252.76,171.16,254.25Z" class="cls-1"></path><path d="M195.53,257.87a41.69,41.69,0,0,0-37.55-1,13.38,13.38,0,0,0-7.13,8.35c-1.23,4.15-2.5,9.95-2,14.94a10.85,10.85,0,0,0,8.62,9.31c8.5,1.85,26.56,4.94,38.46.92a8.76,8.76,0,0,0,5.65-6.77c1-5,1.73-13.17-1.29-20.48A10.46,10.46,0,0,0,195.53,257.87Z" class="cls-2"></path><path d="M181.48,293.7a119.88,119.88,0,0,1-24.29-2.93,12.15,12.15,0,0,1-9.69-10.5c-.53-5.25.82-11.31,2-15.46a14.72,14.72,0,0,1,7.86-9.2,43.32,43.32,0,0,1,38.77,1.06h0a11.8,11.8,0,0,1,5.38,5.92c3.09,7.47,2.45,15.69,1.37,21.26a10.12,10.12,0,0,1-6.55,7.8A47.26,47.26,0,0,1,181.48,293.7Zm-5.92-39.47a40,40,0,0,0-17,3.84,12,12,0,0,0-6.4,7.51c-1.15,3.92-2.43,9.6-1.94,14.42a9.43,9.43,0,0,0,7.56,8.11c7.42,1.62,25.93,4.95,37.73,1a7.4,7.4,0,0,0,4.76-5.73c1-5.22,1.61-12.86-1.22-19.71a9.11,9.11,0,0,0-4.14-4.56h0A41.85,41.85,0,0,0,175.56,254.23Z" class="cls-1"></path><path d="M163.32,279.12a1.39,1.39,0,0,1-.92-.35c-5.39-4.94-.92-22.39-.39-24.36a1.38,1.38,0,0,1,1.66-1,1.35,1.35,0,0,1,1,1.66c-1.82,6.84-3.54,18.76-.39,21.65a1.36,1.36,0,0,1-.92,2.36Z" class="cls-1"></path><path d="M173.77,279.12a1.34,1.34,0,0,1-1.11-.57c-5.41-7.58.7-24.22,1-24.92a1.36,1.36,0,1,1,2.55,1c-1.65,4.43-5.1,17.07-1.3,22.39a1.35,1.35,0,0,1-1.1,2.15Z" class="cls-1"></path><path d="M185.6,279.12a1.36,1.36,0,0,1-1.12-.59c-6.4-9.27.35-23.74.64-24.35a1.36,1.36,0,0,1,2.46,1.17c-.07.13-6.37,13.66-.86,21.64a1.36,1.36,0,0,1-.35,1.89A1.4,1.4,0,0,1,185.6,279.12Z" class="cls-1"></path><path d="M193.58,277.31a1.35,1.35,0,0,1-1.24-.81c-1.94-4.38,1.48-17.5,1.88-19a1.37,1.37,0,0,1,1.66-1,1.35,1.35,0,0,1,1,1.67c-1.4,5.24-3.19,14.54-2,17.18a1.36,1.36,0,0,1-1.25,1.91Z" class="cls-1"></path><path d="M378.15,107.78l.09-.36c.56-2.14.42-3.83-.4-5a5.18,5.18,0,0,0-3.32-1.93l-1.67-.19.52-1.59c.89-2.63.77-4.75-.38-6.48-2.61-4-9.59-4.52-9.66-4.53s-.21-.12-.32-.16l-.25,4.35a1.35,1.35,0,0,1-1.36,1.27h-.08a1.35,1.35,0,0,1-1.27-1.43L361,76c2.25-11.58.65-16.47-1.09-18.57a5.91,5.91,0,0,0-4.8-2.07H355a4.3,4.3,0,0,0-4.26,3.7l-4.5,31a12.24,12.24,0,0,1,6.62,3.93c2.31,3,2.46,7,.46,12.07a4,4,0,0,1-.51,1.06c3.38,2.27,11.1,8.81,8.22,19.79A12.48,12.48,0,0,1,354.81,139a1.38,1.38,0,0,1-.68.18,1.36,1.36,0,0,1-.68-2.54,9.92,9.92,0,0,0,4.87-9.68l0-.29.07-.28c2.84-10.32-5.17-16-7.61-17.46-1.95,1.07-4.57,1.16-7.79.22l.75-2.61c6,1.73,7-1.29,7.06-1.42,1.67-4.21,1.64-7.37,0-9.52-3.77-4.86-14.68-3.91-16.36-3.71-5.42,2.93-.54,20,3.87,30.11l.15.34-.05.38c-.65,5.22-10.74,13.62-11.89,14.56L205.33,230.2s-7,9.76-8.62,17l11.49,4.22c-.17-.64-3.07-10.22-2.45-10.49s-.3-.68,0,0l5.48,12.49-2.13,0h0s-.18,0-.41.25c-3.73,3.87-3.71,30-2.82,45.62l.13,2.49-2.16-1.23c-20.25-11.47-62,0-62.37.13a6.85,6.85,0,0,0-5,3c-10,13.51-.17,64.64-.07,65.16l.33,1.68-1.71-.06c-6.75-.28-11.83,1.09-14.69,3.82a8.14,8.14,0,0,0-2.29,3.87l60.55,9.59a1.37,1.37,0,0,0,1.26-.42c3.54-3.44,2.67-21.58,1.29-32.2l-.21-1.54h1.56c37.09.14,58.62,14,70.15,25.69,12.54,12.66,16.21,25.15,16.36,25.67l.14.48-.21.45c-18.9,42-16.62,53.45-14.76,56.44a2.41,2.41,0,0,0,1.74,1.32c26.62,4.93,56.46,8.45,58.73,5.59.95-3.28-8.66-8.36-15.45-10.73l-.39-.13-.24-.32c-6.49-8.37,17.59-30.23,22.48-34.52,6.19-7.07.88-29.05.82-29.28l-.09-.4.14-.39c10.06-27-6.13-142.1-6.29-143.26-3.21-9.57,36.12-79,40.62-86.83l.26-.32c19.85-18.11,20.62-37.16,20.31-43.08a10.59,10.59,0,0,1-4.54,1A29.44,29.44,0,0,1,363,119a1.36,1.36,0,1,1,.88-2.57c6.43,2.2,11,2.28,13.17.2,2.84-2.71,1.23-8.44,1.21-8.5Z" class="cls-2"></path><path d="M205.75,240.9c.69-.3-.3-.68,0,0Z" class="cls-2"></path><path d="M363.87,116.44c6.43,2.2,11,2.28,13.17.2,2.84-2.71,1.23-8.44,1.21-8.5l-.1-.36.09-.36c.56-2.14.42-3.83-.4-5a5.18,5.18,0,0,0-3.32-1.93l-1.67-.19.52-1.59c.89-2.63.77-4.75-.38-6.48-2.61-4-9.59-4.52-9.66-4.53s-.21-.12-.32-.16l-.25,4.35a1.35,1.35,0,0,1-1.36,1.27h-.08a1.35,1.35,0,0,1-1.27-1.43L361,76c2.25-11.58.65-16.47-1.09-18.57a5.91,5.91,0,0,0-4.8-2.07H355a4.3,4.3,0,0,0-4.26,3.7l-4.5,31a12.24,12.24,0,0,1,6.62,3.93c2.31,3,2.46,7,.46,12.07a4,4,0,0,1-.51,1.06c3.38,2.27,11.1,8.8,8.22,19.79A12.48,12.48,0,0,1,354.81,139a1.38,1.38,0,0,1-.68.18,1.36,1.36,0,0,1-.68-2.54,9.92,9.92,0,0,0,4.87-9.68l0-.29.07-.28c2.84-10.32-5.17-16-7.61-17.46-1.95,1.07-4.57,1.16-7.79.22l.75-2.61c6,1.73,7-1.29,7.06-1.42,1.67-4.21,1.64-7.37,0-9.52-3.77-4.86-14.68-3.91-16.36-3.71-5.42,2.93-.54,20,3.87,30.11l.15.34-.05.38c-.65,5.22-10.74,13.62-11.89,14.56L205.33,230.2s-7,9.76-8.62,17l11.49,4.22c-.17-.64-3.07-10.22-2.45-10.49-.3-.68.69-.3,0,0l5.48,12.49-2.13,0h0s-.18,0-.41.25c-3.73,3.87-3.71,30-2.82,45.62l.13,2.49-2.16-1.23c-20.25-11.47-62,0-62.37.13a6.85,6.85,0,0,0-5,3c-10,13.51-.17,64.64-.07,65.16l.33,1.68-1.71-.06c-6.75-.28-11.83,1.09-14.69,3.82a8.14,8.14,0,0,0-2.29,3.87l60.55,9.59a1.37,1.37,0,0,0,1.26-.42c3.54-3.44,2.67-21.58,1.29-32.2l-.21-1.54h1.56c37.09.14,58.62,14,70.15,25.69,12.54,12.66,16.21,25.15,16.36,25.67l.14.48-.21.45c-18.9,42-16.62,53.45-14.76,56.44a2.41,2.41,0,0,0,1.74,1.32c26.62,4.93,56.46,8.45,58.73,5.59.95-3.28-8.66-8.36-15.45-10.73l-.39-.13-.24-.32c-6.49-8.37,17.59-30.23,22.48-34.52,6.19-7.07.88-29.05.82-29.28l-.09-.4.14-.39c2.47-6.65,3.36-18.62,3.28-32.9L213,295.55l80.17,19.28,31.17,21.36c-2.31-40.35-8.65-85.38-8.75-86.1-3.21-9.57,36.12-79,40.62-86.83l.26-.32c19.85-18.11,20.62-37.16,20.31-43.08a10.59,10.59,0,0,1-4.54,1A29.44,29.44,0,0,1,363,119a1.36,1.36,0,1,1,.88-2.57Z" class="cls-2"></path><path d="M183,354.87c37.09.13,57.74,12.5,69.27,24.15,12.54,12.66,16.21,25.15,16.36,25.67l.13.48-.2.45c-4.32,9.6-7.49,17.54-9.86,24.21l44.19,15.92c5.86-8.92,16.47-18.57,19.56-21.28,6.19-7.08,1.75-28.42,1.69-28.64l-.44-2h0c.94-2.53,1.3-5.5,1.82-9.4L205.07,288.61c.09,3.74.23,7.32.4,10.46h0l-1.82-.46c-20.24-11.47-62.15,1.74-62.57,1.85a6.86,6.86,0,0,0-5,3c-5.31,7.17-5,24.9-3.58,40.07L183,362c-.21-2.5.2-5-.07-7.12" class="cls-3"></path><path d="M196.71,247.17l7.51,2.76c-.18-.64-.62.27,0,0s3.68.78,4,1.46l1.37,2.74h0c-.05,0-.64-.77-.87-.53-3.32,3.45-5.53,25.43-4.93,41,30.45,8.26,89.61,39.31,121.73,57.67-1.24-43.28-9.3-100.61-9.42-101.43-1.06-3.17,2.56-12.92,8-24.81-19.4-17.47-41-39.69-49.12-48.15l-70,49.51S198.34,240,196.71,247.17Z" class="cls-4"></path><path d="M204.22,249.93l-.3-.11C203.89,249.93,203.93,250.05,204.22,249.93Z" class="cls-4"></path><path d="M203.92,249.82l.3.11C204.12,249.58,204,249.69,203.92,249.82Z" class="cls-4"></path><path d="M298.23,200.69l-.73.09.39.38Z" class="cls-5"></path><path d="M297.89,201.16l-.39-.38-66.37,8.14L205,227.41s-.47.91-1.18,2.34C223.16,240.24,263,252.14,297.89,201.16Z" class="cls-5"></path><path d="M153.65,151.31s-18.68-2.22-18.08,8.32,5.42,23.8,18.08,28.62S153.65,151.31,153.65,151.31Z" class="cls-2"></path><path d="M155.5,190a6.54,6.54,0,0,1-2.33-.48c-13-5-18.32-18.65-19-29.81a7.72,7.72,0,0,1,2.41-6.32c5.11-4.81,16.71-3.49,17.19-3.43l.88.1.26.85c1.63,5.37,9.43,32.4,3.45,38A4.13,4.13,0,0,1,155.5,190Zm-5.83-37.52c-3.53,0-8.6.46-11.19,2.89a5,5,0,0,0-1.55,4.18c.58,10.32,5.42,22.94,17.2,27.44,1.67.61,2.21.1,2.42-.09,3.58-3.34-.42-22.45-3.94-34.32C151.93,152.53,150.9,152.48,149.67,152.48Z" class="cls-1"></path><circle r="90.88" cy="119.54" cx="235.21" class="cls-1"></circle><path d="M235.2,211.78a92.24,92.24,0,1,1,92.24-92.24A92.34,92.34,0,0,1,235.2,211.78ZM235.2,30a89.52,89.52,0,1,0,89.52,89.52A89.61,89.61,0,0,0,235.2,30Z" class="cls-1"></path><path d="M309.57,97a47.44,47.44,0,0,1,10,35.2,190.14,190.14,0,0,1-13.42,49.75c-10.82,42.94-71,49.72-71,49.72-71-1.08-85.9-29.78-89-41.57a10.13,10.13,0,0,1,1-7.72,39.48,39.48,0,0,0,5.1-15.71,11.37,11.37,0,0,0-1.15-6.7c-5.55-10.24-3.49-29.53-.52-44.81A62.26,62.26,0,0,1,176,76C204.38,56.09,258.68,33.21,309.57,97Z" class="cls-2"></path><path d="M235.36,233c-71.82-1.07-87.19-30.13-90.48-42.58a11.58,11.58,0,0,1,1.11-8.76,38.06,38.06,0,0,0,4.92-15.16,10.07,10.07,0,0,0-1-5.91c-5.81-10.71-3.56-30.77-.65-45.71a63.42,63.42,0,0,1,26-40C203.59,55,258.91,31.32,310.63,96.13a49,49,0,0,1,10.31,36.21,193.62,193.62,0,0,1-13.53,50.15C296.56,225.61,236,232.93,235.36,233Zm-1-176.56c-17,0-36.33,5.73-57.64,20.66a60.66,60.66,0,0,0-24.84,38.3c-4.05,20.8-3.92,36,.37,43.9a12.66,12.66,0,0,1,1.31,7.49,40.72,40.72,0,0,1-5.28,16.26,8.78,8.78,0,0,0-.81,6.68c3.12,11.84,17.93,39.51,87.71,40.56.42-.06,59.16-7.17,69.62-48.7A192,192,0,0,0,318.24,132a46.18,46.18,0,0,0-9.73-34.19h0C294.06,79.73,268.79,56.44,234.41,56.44Z" class="cls-1"></path><path d="M206.11,145.67a4.3,4.3,0,0,1-3.21-1.45c-13.16-14.71-20.39-24.65-21.48-29.53a2.72,2.72,0,0,1,5.31-1.18c.79,3.55,7.63,12.83,18.43,25.06a63.32,63.32,0,0,1,1.84-9.82,2.72,2.72,0,0,1,5.24,1.45,54,54,0,0,0-1.8,11.18,4.34,4.34,0,0,1-4.33,4.29Zm.85-5.07h0Z" class="cls-1"></path><path d="M226.92,147.61a5.17,5.17,0,0,1-1.92-.38,5.08,5.08,0,0,1-3.11-3.88L220.27,134a2.72,2.72,0,0,1,5.37-.93l1.51,8.82c6.8-5,22-16.75,26.92-25a2.72,2.72,0,1,1,4.67,2.78c-5.35,9-20.35,20.75-28.82,27A5.09,5.09,0,0,1,226.92,147.61Z" class="cls-1"></path><path d="M199.72,171.33a3.52,3.52,0,0,1-.64-.05l-34.43-5.67a2.72,2.72,0,0,1,.88-5.37L194.39,165l-31.07-26.69a2.72,2.72,0,0,1,3.54-4.12l35.36,30.37a3.85,3.85,0,0,1-2.5,6.77Zm-1.05-2.65h0Z" class="cls-1"></path><path d="M239.51,169.31l-1.27-2.15a3.15,3.15,0,0,1,.91-3.69L288.6,123.3a2.72,2.72,0,1,1,3.43,4.21l-43,35,40.92-5.84a2.78,2.78,0,0,1,3.08,2.31A2.72,2.72,0,0,1,290.7,162Z" class="cls-1"></path><path d="M200.43,201.87c.78-14.37,8.17-38.19,50.64-26.93a9.49,9.49,0,0,1,6.89,7.13c2.88,13.18,4.54,44.22-48.44,31.94A11.82,11.82,0,0,1,200.43,201.87Z" class="cls-6"></path><path d="M209.52,214c35.67,8.27,46.56-3.1,49-15.44-25.71-10.73-47.38-.13-57.71,6.84A11.77,11.77,0,0,0,209.52,214Z" class="cls-7"></path><path d="M230.92,218.18a97.81,97.81,0,0,1-21.7-2.84,13.07,13.07,0,0,1-9.72-9.59l-.23-.93.79-.53c10.8-7.29,32.82-17.89,59-7l1,.42-.22,1.1c-1.28,6.45-4.49,11.38-9.55,14.66C245.47,216.62,239,218.18,230.92,218.18ZM202.41,206a10.34,10.34,0,0,0,7.42,6.7h0c17.93,4.14,31,3.66,39-1.47a18.78,18.78,0,0,0,8.12-11.82C233.07,189.94,212.87,199.14,202.41,206Z" class="cls-1"></path><path d="M230.94,218.18a97.6,97.6,0,0,1-21.72-2.85,13.11,13.11,0,0,1-10.15-13.53h0c.44-8,2.86-18.85,11.93-25.45s22.58-7.46,40.42-2.72a10.83,10.83,0,0,1,7.87,8.15c1.58,7.22,2.95,20.58-5.55,29C248.72,215.7,241.09,218.18,230.94,218.18Zm.3-44.81c-7.65,0-13.89,1.73-18.64,5.18-8.21,6-10.41,16-10.81,23.4h0a10.4,10.4,0,0,0,8,10.74c20.46,4.74,34.59,3.45,42-3.87,7.59-7.48,6.28-19.79,4.82-26.45a8.13,8.13,0,0,0-5.91-6.11A76.9,76.9,0,0,0,231.24,173.37Z" class="cls-1"></path><path d="M146.46,169.66a4,4,0,0,1-2.27-.7c-3.17-2.1-3.88-8.48-3.95-9.19a1.37,1.37,0,0,1,1.22-1.49A1.33,1.33,0,0,1,143,159.5c.22,2.23,1.16,6.15,2.74,7.2a1.41,1.41,0,0,0,1.32.14,1.38,1.38,0,0,1,1.7.9,1.34,1.34,0,0,1-.89,1.7A4.71,4.71,0,0,1,146.46,169.66Z" class="cls-1"></path><path d="M195.51,250.13c-1.48-9.94,8.05-21.37,8.45-21.86L206,230c-.09.11-9.14,11-7.85,19.7Z" class="cls-1"></path><path d="M306.92,472.78c-13.19,0-35.57-3.7-50.76-6.53a4.91,4.91,0,0,1-3.67-2.36c-4.76-7.06.16-27.37,14.23-58.73-.78-2.35-4.84-13.31-15.63-24.16-11-11.06-31.45-24.25-66.58-24.75.75,6.43,2.82,28-2.28,32.95a4.06,4.06,0,0,1-3.58,1.15l-63-10v-1.15a10.24,10.24,0,0,1,3.22-6.91c3.18-3.11,8.24-4.68,15-4.68-1.67-9.18-8.92-52.46.86-65.65a9.31,9.31,0,0,1,6.69-4c1.48-.43,40.32-11.12,62.06-.94-.44-9.41-1.46-39.92,3.7-45.29a4.3,4.3,0,0,1,.58-.5l-4-9.21a1.35,1.35,0,0,1,.69-1.79,1.34,1.34,0,0,1,1.79.69l5.48,12.48-2.12,0h0a.69.69,0,0,0-.41.25c-3.72,3.87-3.71,30-2.82,45.63l.14,2.48-2.17-1.22c-20.24-11.46-61.94,0-62.37.12a6.84,6.84,0,0,0-5,3c-10,13.52-.17,64.65-.07,65.16l.33,1.68-1.71-.06c-6.73-.29-11.84,1.08-14.69,3.83a7.93,7.93,0,0,0-2.29,3.87l60.55,9.59a1.32,1.32,0,0,0,1.25-.42c3.55-3.44,2.67-21.58,1.29-32.2l-.2-1.54H183c37.1.13,58.63,14,70.16,25.69,12.54,12.66,16.2,25.15,16.35,25.67l.14.48-.21.45c-18.89,42-16.61,53.45-14.75,56.44a2.35,2.35,0,0,0,1.74,1.31c26.61,4.94,56.45,8.47,58.72,5.6,1-3.31-8.45-8.29-15.46-10.74l-.37-.13L299,458c-6.48-8.37,17.59-30.22,22.48-34.51,6.19-7.08.89-29.06.83-29.28l-.1-.4.15-.4c10.05-27-6.13-142.09-6.3-143.25-3.2-9.58,36.13-79,40.63-86.83L357,163c23.75-21.67,20.18-44.75,20.14-45a1.37,1.37,0,0,1,1.11-1.57,1.33,1.33,0,0,1,1.57,1.11c.18,1,3.9,24.63-20.83,47.31-16.75,29.37-42.4,78.17-40.24,84.67.73,5,16.35,116.1,6.35,144.43.75,3.24,5.16,23.67-1.65,31.43C312.19,435.27,298.16,451,301,456c4,1.44,18.7,7.22,16.71,14C317.11,472,313,472.78,306.92,472.78Z" class="cls-1"></path></svg>