<svg id="图层_1" data-name="图层 1" xmlns="http://www.w3.org/2000/svg" viewBox="0 0 568.09 489.76"><defs><style>.cls-1,.cls-7{fill:#e38069;}.cls-2,.cls-8{fill:none;}.cls-2,.cls-7,.cls-8{stroke:#f5bd84;}.cls-17,.cls-2,.cls-7,.cls-8{stroke-miterlimit:10;}.cls-2{stroke-width:2px;}.cls-3{fill:#ca7062;}.cls-4{fill:#545a50;}.cls-5{fill:#f1bf85;}.cls-6{fill:#f5bd84;}.cls-7,.cls-8{stroke-width:3px;}.cls-9{fill:#a36057;}.cls-10{fill:#edb39f;}.cls-11{fill:#e09d8c;}.cls-12{fill:#578b7e;}.cls-13{fill:#407969;}.cls-14{fill:#db937a;}.cls-15{fill:#eda496;}.cls-16{fill:#a46054;}.cls-17{fill:#e2a183;stroke:#a36057;stroke-width:2.5px;}.cls-18{fill:#da6b5d;}</style></defs><title>1</title><path class="cls-1" d="M188.53,320.94a102,102,0,0,1-.1-28.75,122.89,122.89,0,0,1,16.66-46c9.23-15.3,16.81-20.65,18.78-22,4-2.72,15-10.13,20.88-5.72,3.93,2.93,4.56,10.29,1.64,18.33a1.25,1.25,0,0,0,.92,1.82,12.35,12.35,0,0,1,11.36,9.83c.92,4.19-1.89,6.7-3.62,14.73-.83,3.86-.56,4.75-.22,5.32,1.37,2.35,4.59.93,8.16,2.61,4.12,1.93,6.57,7,6.4,11.64-.19,5.21-3.69,9.22-4.75,10.41-9.35,10.45-22.72,4.26-38.31,11.28-6.17,2.78-14.77,8.56-23.17,22.18" transform="translate(-23.83 -65.64)"/><path class="cls-2" d="M236.69,241.63S195,263.73,187.92,306" transform="translate(-23.83 -65.64)"/><path class="cls-2" d="M246.64,268S216.38,273.4,197,297.61" transform="translate(-23.83 -65.64)"/><path class="cls-3" d="M194.17,271.89c7.66,6.1,14.22,12.77,22.29,20.06,7.08,6.39-1.93-2.35,4.19,3.82-1.89,1.75-14.37,12.24-16.11,12.66-11.32,2.69-.31-5.05-13.15-30.45Z" transform="translate(-23.83 -65.64)"/><path class="cls-4" d="M270.16,329.77l-2.5,6.92s-5-9.25-14-8.5-50.21,40.64-50.21,40.64L144.77,348l110.6-76.06" transform="translate(-23.83 -65.64)"/><path class="cls-1" d="M327.51,407.1c2-10,5.17-27.28,13.1-33.74,2.31-1.87,5.25-3.32,8.16-2.79s5.39,3.77,4.23,6.51c2.45-2,6.05-4,8.46-2,1.28,1.07,1.84,3.11,3.47,3.45a4.73,4.73,0,0,0,2.88-.73,9.21,9.21,0,0,1,6.95-.58c2.23.84,4,3.2,3.56,5.55-.47,2.65-4.12,3.81-8.37,5.53-5,2-16.46,6.69-22.6,13.81a26.93,26.93,0,0,0-5.84,12.44" transform="translate(-23.83 -65.64)"/><path class="cls-2" d="M342.45,389.93a24,24,0,0,1,2.2-4.23,24.34,24.34,0,0,1,7.39-7.22" transform="translate(-23.83 -65.64)"/><path class="cls-2" d="M364.06,382c-.61,0-14.24,6.42-14.09,11.89" transform="translate(-23.83 -65.64)"/><path class="cls-3" d="M333.77,383.6s-14.41,20.1,33.25,6.29l2.93-1.55a108.66,108.66,0,0,1-35.8-5.55Z" transform="translate(-23.83 -65.64)"/><path class="cls-1" d="M185,267.57c10.16,8.5,22.19,20.08,22.19,20.08h0c11.62,9.56,14.25,14.84,35.79,33.31,33.42,28.66,32.55,28,33.22,28.52,18.24,13.92,52.69,42.08,98.1,40.4,10.92-.4,34.21-.06,55.16-14.44,7.69-5.28,13.29-11.25,20.8-19.28,17.5-18.67,19.21-26.46,28.23-36.36,28.2-30.94,80.46-30.5,98-18.12,1,.71,6.09,4.3,5.33,7-1.53,5.49-25.94,3.34-26.17,6.08-.12,1.35,5.73,2.1,6.29,5.37.12.73.14,2.44-2.73,5.11-9.47,8.81-28,8.15-28,10.73,0,.85,2,1.22,2.18,3,.2,1.59-1.26,3-1.76,3.47-4.74,4.51-28.91,12.89-35.33,15.27-11.22,4.16-19.46,9.2-29.41,14.9,0,0-5.79,3.43-5.61,3.73s17.69-12.27,41.65-18.18c23.78-5.88,32.66.12,33.34,1.39a8.84,8.84,0,0,1,1.06,4.51c-.27,3.1-2.5,3.88-2.4,5.3.26,3.77,16.38,2.58,30.29,11.26,3.88,2.42,10.27,6.41,10.45,12,.2,6.45-8.23,8-9,14.58-1,8.15,10.82,11.41,19.31,24.84,1,1.56,10.61,19.57,3.27,31.33-7.49,12-28.21,10.27-35.55,9.66,0,0-24.76-2.09-44.31-21.48l-.28-.26c-14.14-12.75-36.16-28.24-63-28-33.36.35-39.92,24.65-89.88,42.39-2.22.78-5.46,1.92-9.58,3.19,0,0-42.61,13.13-92.76,7.93-54.93-5.71-151-35.31-199.64-120.79C24.48,303.83,23.69,247.34,27.64,246c.47-.15,2.19.08,3.56-1.14,1.79-1.57,1.57-4.35,1.63-5,.46-5.37,33.59-18.25,79.64-7.81C112.47,232.09,153.76,241.44,185,267.57Z" transform="translate(-23.83 -65.64)"/><path class="cls-3" d="M164.59,426.55a44.93,44.93,0,0,0,4.81,16.94,45.41,45.41,0,0,0,15.71,17.24c-6.2-2.34-12.65-5.06-19.29-8.22-2.37-1.12-4.68-2.27-6.92-3.42V431.68Z" transform="translate(-23.83 -65.64)"/><path class="cls-3" d="M202.85,471.32" transform="translate(-23.83 -65.64)"/><path class="cls-3" d="M150.13,411.45a77,77,0,0,0-20.94,22.08l2.3,1,6.16,3.1Z" transform="translate(-23.83 -65.64)"/><path class="cls-3" d="M342.45,463a21.11,21.11,0,0,0,11.91,3.3l-9.53,3.07C344,467.22,343.24,465.09,342.45,463Z" transform="translate(-23.83 -65.64)"/><path class="cls-3" d="M325.83,467.32a24.77,24.77,0,0,0,2.07,5.9l-1.22.23c-.19-.68-.37-1.42-.51-2.22A22.07,22.07,0,0,1,325.83,467.32Z" transform="translate(-23.83 -65.64)"/><path class="cls-5" d="M177.24,261.21l3.45,2.76c-.46,2.42-1,5.16-1.76,8.17,0,0-.93,3.87-2,7.71-9.25,32.12-29.28,58.9-29.28,58.9-23.39,31.26-52.26,47.61-66.4,54.57l-3-3.35a181.56,181.56,0,0,0,65.43-53.53A181.55,181.55,0,0,0,177.24,261.21Z" transform="translate(-23.83 -65.64)"/><ellipse class="cls-6" cx="97.59" cy="274.91" rx="14.53" ry="9.57" transform="translate(-171.73 51.68) rotate(-37.76)"/><path class="cls-2" d="M414.25,383.44c.83,6.35,5.06,11.41,10.54,12.75a14,14,0,0,0,10.15-1.72,28.74,28.74,0,0,0-5.6,31.41" transform="translate(-23.83 -65.64)"/><path class="cls-2" d="M550.85,313.38s-30.3-16.14-77.7,31.45-52,47-52,47c-6.55,2.26-13.25,10.17-12.21,15.74,1.27,6.76,9.46,11.87,17.66,9.07" transform="translate(-23.83 -65.64)"/><path class="cls-2" d="M293.74,458.82" transform="translate(-23.83 -65.64)"/><path class="cls-2" d="M234.39,443.32" transform="translate(-23.83 -65.64)"/><path class="cls-2" d="M179.72,268.7c9.32,4.46,12.16,14.85,8.41,20.92-2.63,4.27-8.56,6.46-14.68,5.51,5.86,4.67,8.31,12.25,6.21,18.83-2.56,8-11.5,13.28-20.76,11.37,6.63,5.14,8.61,13.94,5.31,20.34-4,7.77-15.28,11-24.06,5.32,4.36,7.15,4,15.95-.62,21.67-6,7.38-18.35,8.78-27.21,1.59a15.84,15.84,0,0,1-26.75,16.9" transform="translate(-23.83 -65.64)"/><path class="cls-5" d="M185,285.32" transform="translate(-23.83 -65.64)"/><path class="cls-2" d="M113.5,376.92S237,503.53,426.4,418.1" transform="translate(-23.83 -65.64)"/><path class="cls-2" d="M173.45,295.13s150.64,146,242.43,93.63" transform="translate(-23.83 -65.64)"/><path class="cls-2" d="M158.9,325.33s145.76,116.09,249.87,79.9" transform="translate(-23.83 -65.64)"/><path class="cls-2" d="M141.37,353.32S267.2,463.19,412.2,413.77" transform="translate(-23.83 -65.64)"/><path class="cls-3" d="M27.55,245.43c2.36-2,3.88-1.38,5-3.05,1-1.5.12-2.42,1.19-3.57a4.23,4.23,0,0,1,5.35-.44A3.14,3.14,0,0,1,40,240a11.3,11.3,0,0,1-.83,7.72,10,10,0,0,1-4.71,4.86c-.52.24-4.66,2.05-7.36-.14a4.51,4.51,0,0,1-1.75-3.85C25.51,247.14,26.59,246.26,27.55,245.43Z" transform="translate(-23.83 -65.64)"/><path class="cls-6" d="M28.31,246.73c2-1.55,4.88-1.81,5.91-4.43.19-.47.14-1.06.34-1.49.86-1.79,2.94-2.47,4-.45.8,1.57.26,4.12-.32,5.67a8.94,8.94,0,0,1-4.59,5.24,8,8,0,0,1-3.07.7c-3.32,0-4.36-3.37-1.94-5.48,1.47-1.27-.66-3.38-2.12-2.12-2,1.73-3.36,3.87-2.28,6.57a6.49,6.49,0,0,0,5.62,4,11.21,11.21,0,0,0,10.52-6.34c1.69-3.34,2.92-10.2-1.45-12.07a5.82,5.82,0,0,0-6.24,1.21c-1.09,1.16-.64,3-1.63,4.1s-3.15,1.46-4.23,2.28C25.28,245.29,26.77,247.89,28.31,246.73Z" transform="translate(-23.83 -65.64)"/><path class="cls-2" d="M525.83,335.47s-6.13-3-30.13,9.36-49.77,42.77-70.91,51.36" transform="translate(-23.83 -65.64)"/><path class="cls-2" d="M558.59,413.86A78.87,78.87,0,0,1,526.85,422c-23.24.82-34-10-57.19-11.74-10.2-.78-24.9,0-43.26,7.8" transform="translate(-23.83 -65.64)"/><path class="cls-2" d="M528,376.06a60.15,60.15,0,0,1-24.67,16.37c-13.77,4.62-22.42,1.26-37.27,3.06-9.54,1.16-23.11,4.62-38.95,15.36" transform="translate(-23.83 -65.64)"/><path class="cls-7" d="M267.87,413.33A55,55,0,0,1,166,371.66c8.54-20.87,28.27-29.38,30.81-30.37a57,57,0,0,1,23.78-3.75,60.88,60.88,0,0,1,17.16,4C255,348.84,281.68,379.57,267.87,413.33Z" transform="translate(-23.83 -65.64)"/><path class="cls-8" d="M208,338.23a125.74,125.74,0,0,0-45.51,62.32" transform="translate(-23.83 -65.64)"/><path class="cls-8" d="M230.75,339.26a205.54,205.54,0,0,1-52.42,92.42" transform="translate(-23.83 -65.64)"/><path class="cls-8" d="M188,356.77A44,44,0,0,1,220,370.29" transform="translate(-23.83 -65.64)"/><path class="cls-8" d="M170.92,380.67a67.4,67.4,0,0,1,29.24,24.77" transform="translate(-23.83 -65.64)"/><path class="cls-8" d="M248.87,350.84a39.76,39.76,0,0,1-32,26.08" transform="translate(-23.83 -65.64)"/><path class="cls-8" d="M235.35,369.28a55.11,55.11,0,0,1,36.29,22.55" transform="translate(-23.83 -65.64)"/><path class="cls-8" d="M206,396.7a77.67,77.67,0,0,1,54.52,27.95" transform="translate(-23.83 -65.64)"/><path class="cls-8" d="M187,422.31a62.58,62.58,0,0,0,38.9,24.47" transform="translate(-23.83 -65.64)"/><path class="cls-8" d="M259.48,359.85a110.31,110.31,0,0,1-56.31,77.79" transform="translate(-23.83 -65.64)"/><path class="cls-1" d="M164.85,417.35c-1.82,27.37,5.71,39.87,12.5,46.24,16,14.94,42.35,9.6,46.79,23.8,1.47,4.67.19,10.3-2.34,14-3.67,5.37-10.05,6.86-17.45,8.59A61,61,0,0,1,190,511.6a2,2,0,0,0-2.05,2.09c.14,3.87-.47,12.09-7.25,18a22,22,0,0,1-22.28,3.65,2,2,0,0,0-2.62,1.39c-2.76,10.38-9.47,17.88-16.8,18.65-11,1.14-18.94-13.42-21.84-18.75-1.43-2.63-6.73-13-6.13-34.92a130.31,130.31,0,0,1,39.06-90" transform="translate(-23.83 -65.64)"/><path class="cls-1" d="M327.19,471.18c4,11.57,8.77,24.06,19.58,30.52,3.14,1.88,7,3.15,10.53,2.09s6.08-5.27,4.23-8.33c3.34,2,8.1,3.83,10.77,1.06,1.41-1.47,1.8-4,3.76-4.62,1.19-.39,2.48.09,3.68.44a11.94,11.94,0,0,0,8.69-.34c2.63-1.33,4.42-4.39,3.54-7.11-1.3-4.05-6.79-4.84-11.2-5.3a73.59,73.59,0,0,1-33.54-12.14c-1.88-1.27-3.82-2.83-4.19-5" transform="translate(-23.83 -65.64)"/><path class="cls-2" d="M334.17,467.32s3.69,19.34,25.52,28.14" transform="translate(-23.83 -65.64)"/><path class="cls-2" d="M150.13,422.31S121.32,493.48,156,534" transform="translate(-23.83 -65.64)"/><path class="cls-2" d="M339,466.16a57.61,57.61,0,0,0,36.85,22.27" transform="translate(-23.83 -65.64)"/><path class="cls-2" d="M156.81,424.65s-8.51,60.2,30.18,86.1" transform="translate(-23.83 -65.64)"/><path class="cls-6" d="M140.19,245.32c.16-.84.52-.94,1.06-.31a10,10,0,0,1-.47,1.18c-.28.63-.6,1.24-.93,1.84-.62,1.11-1.3,2.19-2,3.25l1.39.38a29.36,29.36,0,0,1,1-6.34.75.75,0,0,0-1.44-.4,30.6,30.6,0,0,0-1,6.74c0,.79,1,1,1.4.37a38.84,38.84,0,0,0,2.5-4.16c.53-1,1.39-2.46,1.18-3.66a1.69,1.69,0,0,0-2-1.34,2.84,2.84,0,0,0-2.06,2C138.4,245.82,139.85,246.21,140.19,245.32Z" transform="translate(-23.83 -65.64)"/><path class="cls-6" d="M129.34,248.66c-.37-.35-.59-.44-.2-.84s.5-.1.85.25a20.81,20.81,0,0,1,1.38,1.58,38.79,38.79,0,0,1,2.41,3.41l1-1a28.43,28.43,0,0,1-5.47-3.37c-.73-.61-1.8.44-1.06,1.06a30.19,30.19,0,0,0,5.77,3.61c.63.32,1.46-.36,1-1-.75-1.16-1.53-2.29-2.38-3.38s-1.82-2.49-3.07-3a1.68,1.68,0,0,0-2.29,1,2.71,2.71,0,0,0,.94,2.87C129,250.39,130,249.33,129.34,248.66Z" transform="translate(-23.83 -65.64)"/><path class="cls-6" d="M147.13,256.48a2.87,2.87,0,0,0,2.51-1.28,1.73,1.73,0,0,0-.57-2.36c-1-.56-2.51-.22-3.55-.06A40.4,40.4,0,0,0,140.4,254a.76.76,0,0,0,0,1.45,31.29,31.29,0,0,0,6.73,1.08.75.75,0,0,0,0-1.5,28.94,28.94,0,0,1-6.33-1v1.45c1.23-.36,2.48-.69,3.74-.94a21.62,21.62,0,0,1,2.26-.34c.33,0,.66-.05,1-.05.18.71-.05,1-.67.91C146.17,255,146.16,256.53,147.13,256.48Z" transform="translate(-23.83 -65.64)"/><path class="cls-6" d="M129.18,260.37l-.51.26-.54-.66c0-.13.6-.36.72-.42a19.92,19.92,0,0,1,2.2-1c1.17-.48,2.37-.88,3.58-1.25L133.9,256a28.61,28.61,0,0,1-4.72,4.35c-.79.55-.05,1.85.75,1.3a30,30,0,0,0,5-4.59.75.75,0,0,0-.73-1.25c-1.44.45-2.86.94-4.25,1.53a8.83,8.83,0,0,0-3.4,2,1.66,1.66,0,0,0,.2,2.35,2.67,2.67,0,0,0,3.15,0A.75.75,0,0,0,129.18,260.37Z" transform="translate(-23.83 -65.64)"/><path class="cls-6" d="M142.07,263.86c.43.51.27.83-.49,1-.14-.25-.27-.51-.39-.77a19.69,19.69,0,0,1-.89-2.19c-.42-1.2-.77-2.43-1.09-3.67l-1.26.73a29.37,29.37,0,0,1,4.12,4.93c.51.82,1.81.07,1.3-.75a30.8,30.8,0,0,0-4.36-5.24.75.75,0,0,0-1.25.73,41.56,41.56,0,0,0,1.45,4.64,7.43,7.43,0,0,0,1.8,3.22,1.65,1.65,0,0,0,2.28-.2,2.69,2.69,0,0,0,.08-3.15C142.92,262.25,141.62,263,142.07,263.86Z" transform="translate(-23.83 -65.64)"/><path class="cls-6" d="M138.34,256l0-.05a1.5,1.5,0,0,0-2.12-2.12l-.05.05a1.53,1.53,0,0,0,0,2.12,1.51,1.51,0,0,0,2.12,0Z" transform="translate(-23.83 -65.64)"/><path class="cls-9" d="M312.05,430.45a17.38,17.38,0,0,1,.77,5.45c-.1,5-2.41,8.62-6.54,14.25C297.54,462,294,464.58,293,471c-.72,5,1,6.68,1.32,7,2.4,2.25,7.06,1.42,9,.47,12.12-6,20.82-16.91,29.09-27.49,3.46-4.43,7-9,8.34-14.46a7.93,7.93,0,0,0-.31-5.7,10.13,10.13,0,0,0-3.11-3.07c-2.63-1.92-6.68-4.42-12.45-9.12" transform="translate(-23.83 -65.64)"/><path class="cls-4" d="M335.71,323.22c-1.4,13.46-6.08,21.2-10.15,25.8-2.63,3-4,3.5-8.25,8.18-7,7.73-11.25,12.38-12.41,18.22-1.85,9.33,4.73,18.54,11.51,28,6.43,9,11.56,12.38,11,18.9-.37,4.06-2.79,7.53-4.71,10.28s-5.49,5.06-9.51,8.76A10.5,10.5,0,0,1,301.29,443a105,105,0,0,1-18.2-11.78,103.84,103.84,0,0,1-14.22-13.87,68.72,68.72,0,0,1-11.71-27.5,69.88,69.88,0,0,1,2.12-32.91,81.11,81.11,0,0,1,20-34.14" transform="translate(-23.83 -65.64)"/><path class="cls-10" d="M259.91,115.84c-1.69-2.21-1.09-3.2-3.25-5.55-2.38-2.57-3.41-1.72-4.91-3.91-2-3-1.93-7.16-1.89-8.63,0-.29,0-.43,0-.58.3-3.64,4.06-7,7.23-5.49A7.59,7.59,0,0,1,261.84,84a7.08,7.08,0,0,1,8.22,3c.2-.4,2-3.71,5.53-4.23a7.92,7.92,0,0,1,7.46,3.59c1,1.6.63,2.78,2,3.9s2.43.44,3.81,1.34c2.92,1.91,3.13,8.39.93,10.92-.27.31-.95,1-1.88,2.21-.69.9-1.2,1.67-1.53,2.2-1.63,2.59-1.81,3.61-3.32,6.15a28,28,0,0,1-4.64,5.83,7,7,0,0,1-.92.75,9.6,9.6,0,0,1-5.2,1.36C268.12,121.26,262.84,119.68,259.91,115.84Z" transform="translate(-23.83 -65.64)"/><path class="cls-10" d="M233.47,346.2a26.11,26.11,0,0,1-9,10.32,15,15,0,0,1-1.89,1.07c-.62.3-1.19.55-1.7.75-1,.43-1.8.67-2,.75s-1.54.58-4.06,3c-3.1,3-2.69,3.48-4,4.19a5,5,0,0,1-7.69-2.56c-1.26-3.28,1.94-8.41,8-12.56l-.3-.24a26.55,26.55,0,0,1-11,7.54c-2.72.92-4.37.88-5.75.3s-3.18-2-3.27-3.9a4.86,4.86,0,0,1,1.66-3.4c1.33-1.42,2.65-1.79,4.28-2.57a22.31,22.31,0,0,0,5.62-3.87l.79.36c-2.39.49-7.11,1.08-11.48-1.21-1.34-.71-3.07-1.65-3.62-3.56a5.53,5.53,0,0,1,3.19-6.29,8,8,0,0,1,4.92,0c2.86.64,6.13.25,8.9,1.21a16.36,16.36,0,0,1-2.52-1.49,8.17,8.17,0,0,1-2.2-1.9,4.82,4.82,0,0,1-.74-3.93,5,5,0,0,1,2.7-3,6,6,0,0,1,3.75-.44c2.5.47,3.17,2.15,6.68,4.86a19.47,19.47,0,0,0,4.37,2.83c1.66.68,4.89,1.49,10.09-.41" transform="translate(-23.83 -65.64)"/><path class="cls-10" d="M318.6,195.89s-2.61,19.87-11.41,29.78,24,11.76,24.05,10.46,4-5.6,4-5.6,2.41-4.49,4.68-9.71c2.4-5.49,4.64-11.79,3.75-14.46C341.91,201.17,318.6,195.89,318.6,195.89Z" transform="translate(-23.83 -65.64)"/><path class="cls-11" d="M317.09,206.81l29.33.25c-1.25,4.82-5.28,8.94-6.53,13.76a31,31,0,0,1-22.8-14Z" transform="translate(-23.83 -65.64)"/><polyline class="cls-11" points="206.92 265.76 212.86 281.97 207.68 284.46 205.28 286.92 196.57 267.6 206.47 263.88"/><path class="cls-11" d="M257.42,115.88c-.26-.67.09-1.59,1.06-2.74l-.42-1.09,25,.86-.78,1.3Q258.79,119.39,257.42,115.88Z" transform="translate(-23.83 -65.64)"/><path class="cls-12" d="M305.29,220.69a143.2,143.2,0,0,1-7.65-14.29c-1.41-3-5.61-16.56-9.37-36-3.7-19.1-2.8-35.34-4.45-50.38-.38-3.42-2.42-6.37-5.91-6.38l-15.74-.06a5.93,5.93,0,0,0-5.81,4.46c-3,11.86-13.77,51.85,10.54,122.38" transform="translate(-23.83 -65.64)"/><path class="cls-13" d="M266.82,239.42a32.28,32.28,0,0,1-1.27-3c-.43-1.17-.75-2.22-.8-2.46-.68-3,8.82-11.28,21.65-13.74a42.27,42.27,0,0,1,17.42.39l-7.4,12.11-28.29,8.06Z" transform="translate(-23.83 -65.64)"/><path class="cls-12" d="M336.77,227.48l20.56,4.44a57.81,57.81,0,0,1,1.08,52.51c-2.33,4.8-3.58,5.6-5.74,8.57a53,53,0,0,0-3.53,5.65c-6.13,11.07-11,26.78-11,26.78-1.33,4.27-2.58,8.8-6.73,11.23a12.89,12.89,0,0,1-3.86,1.38c-52,9.26-81.33-21.27-81.33-21.28a66.12,66.12,0,0,1-16.93-27.71,2,2,0,0,1,.29-1.73c2.71-4,15.54-22.6,31.1-40.88,12.89-15.16,18.95-19.84,26.78-22.76a49.11,49.11,0,0,1,17.85-3l2.82.61-.17,13.82c2.5.73,13.32,3.6,22.86-2.34A23.62,23.62,0,0,0,336.77,227.48Z" transform="translate(-23.83 -65.64)"/><path class="cls-13" d="M323.25,261.71c-8.13,11.9-15.06,25.05-27.35,33.16-14.52,9.59-30.49,17.16-46.37,24.2-1.76.78-.24,3.36,1.51,2.59,16.75-7.43,34.16-15.28,49.06-26,11.27-8.13,18.06-21.16,25.74-32.39,1.1-1.6-1.5-3.1-2.59-1.52Z" transform="translate(-23.83 -65.64)"/><path class="cls-13" d="M346.42,304l-2.87,6.53s-7,22.24-49.37,28.28S346.42,304,346.42,304Z" transform="translate(-23.83 -65.64)"/><path class="cls-12" d="M364.06,263a64.79,64.79,0,0,1-6.42,23,131.86,131.86,0,0,1-8.29,13.58c-4.09,6.2-7.65,11-8.55,12.2-10.11,13.15-37.18,23.59-44,26.14,0,0-39.36,12.69-59.83,14.32a6,6,0,0,1-5.81-3.11l-7-13.35A5.64,5.64,0,0,1,227,328c10.15-4.44,31.73-13.76,45.85-19a7.51,7.51,0,0,0,.71-.33c23.09-12.38,28.17-16.9,28.17-16.9C307,287,311.3,280.33,319.84,267c2-3.05,3.5-5.61,4.54-7.35" transform="translate(-23.83 -65.64)"/><path class="cls-10" d="M338.94,80.59a104.89,104.89,0,0,0-15.17,23.54,46.77,46.77,0,0,1-5.79,9.46,118.32,118.32,0,0,1-14.3,14.83c-13.2,11.61-30.68,50.44,11.48,77,0,0,17,15.19,57.8,9.3s50.65-62,50.65-62L409.9,83.29Z" transform="translate(-23.83 -65.64)"/><path class="cls-9" d="M339,80.59s0,0,0,0c-.45-1.32,4.29-4,5.89-4.92,21.26-12.07,46.67-9.83,46.67-9.83,5.7.5,48.2,4.89,67.77,38.38,0,0,15.07,26.61,10.24,58.16,0,.09-.14.89-.19,2a19.2,19.2,0,0,0,.17,3.63c.76,5.32,1,8,1.72,9.85s1.41,2.86,1.08,3.14c-.54.46-3.3-1.21-5.24-3.48-1.09-1.27-1.53-2.26-2-2.17-.7.15-.5,3.58-.46,3.89.76,6.65,1.52,13.3,6.63,19.91,1.16,1.49,2,2.31,1.81,2.6-.73,1-10.65-5-15.23-8.57a.94.94,0,0,0-1.3.15,83.67,83.67,0,0,1-34.72,25.36c-18.63,7.06-34.75,5-37.75,4.11-.73-.2-1.14-.3-2-.49-3.83-.89-6.69-1.54-9.25-.73a15.44,15.44,0,0,0-2.3.95l0,0c-1.11.72-1.61,1.19-1.74,1.09s1-2.63,3.08-4.74c1.94-1.92,3.57-2.53,3.39-3.07s-2-.47-3.21-.25a10.52,10.52,0,0,0-6,3.46,16.79,16.79,0,0,1,1.27-2.67,18.4,18.4,0,0,1,3.58-4.44c3.14-2.95,10.07-10,12.54-13.35,2.15-2.95,4.5-7.66,4.85-15.24a1,1,0,0,1,1.52-.73c3.22,2.33,11.24,6.25,19.08-4.93l.09-.15c.54-1.26,7.28-17.94-13.16-16.22a2,2,0,0,1-2-2.81,18.22,18.22,0,0,1,4.25-5.54.94.94,0,0,0-.13-1.46l-8.62-5.9a1,1,0,0,1-.2-1.38l6.54-8a.94.94,0,0,0-.3-1.44l-8-4.16a1,1,0,0,1-.32-1.42l5.07-6.49a1,1,0,0,0-.49-1.49l-7-2.11a1,1,0,0,1-.65-1.14l1.72-6.63a1,1,0,0,0-.89-1.19l-9.21-.49a1,1,0,0,1-.9-1.06l.9-7.61a1,1,0,0,0-1.07-1.06l-9.58,1.05a1,1,0,0,1-1-1.33l2.11-4.77a1,1,0,0,0-1-1.32l-7.32,1.17a1,1,0,0,1-1.08-1.18l1.52-5.59a1,1,0,0,0-.93-1.2l-6.4,0a2,2,0,0,1-1.76-2.89,2,2,0,0,0-1.69-2.89Z" transform="translate(-23.83 -65.64)"/><path class="cls-13" d="M339.89,220.82A55.59,55.59,0,0,1,328,228.31a54.71,54.71,0,0,1-9.07,3.18c-6.26,1.83-8,1.63-8.82.72-.19-.21-.39-.55-.49-2.16a21.65,21.65,0,0,1,.69-6.91c.91-3,1.71-3.46,3.1-6.63a34.89,34.89,0,0,0,2.25-7.29,14.55,14.55,0,0,0-4.58,1.77,15.5,15.5,0,0,0-4.29,3.95,23.46,23.46,0,0,0-4.56,14.11,20.67,20.67,0,0,0,1.2,7.35,5.13,5.13,0,0,0,.55,1.06c1.21,1.75,3.42,2.23,5.24,2.53,24.5,4,38.95-2.44,38.95-2.44a69.53,69.53,0,0,0,9.36-4.55,14,14,0,0,0-.22-4.52,15.46,15.46,0,0,0-4.33-7.6,20.09,20.09,0,0,0-10.87-5.65Z" transform="translate(-23.83 -65.64)"/><path class="cls-13" d="M238.26,280.7l13-6.26c1.74-.83.22-3.42-1.51-2.59l-13,6.26c-1.74.84-.22,3.43,1.51,2.59Z" transform="translate(-23.83 -65.64)"/><path class="cls-13" d="M304,237.46c-10.45,9.58-21.37,20.34-32.43,32.36-12.34,13.4-23.13,26.49-32.52,38.85.27.37.56.75.88,1.13s.81.93,1.2,1.34c10.19-12.35,20.33-26.29,32.38-39.24,10.93-11.76,21.73-22.72,32.28-32.91Z" transform="translate(-23.83 -65.64)"/><path class="cls-13" d="M231.81,325.92l11.74,25.6-7.33,1a4.6,4.6,0,0,1-4.71-2.42L222.64,333a2.87,2.87,0,0,1,1.51-4l7.66-3" transform="translate(-23.83 -65.64)"/><path class="cls-13" d="M255.44,121.74l28.62.7,0-6a3.08,3.08,0,0,0-3-3.07L259,112.93a2.64,2.64,0,0,0-2.67,2.26Z" transform="translate(-23.83 -65.64)"/><path class="cls-14" d="M285.76,91.17c-3,.56-6.16.59-8.67,2.58s-4.27,5.08-3.52,8.21c.54,2.27,2.44,5,5.1,4.37,1.44-.34,2.74-1.43,4-2.09a22.62,22.62,0,0,1,7-2.19c.48-.07.27-.79-.2-.73a23.62,23.62,0,0,0-7.53,2.46,19.88,19.88,0,0,1-3.11,1.68c-2.41.76-4.09-1.62-4.56-3.7-.83-3.63,2.18-7.35,5.42-8.63,2-.79,4.15-.85,6.25-1.24.47-.08.27-.81-.2-.72Z" transform="translate(-23.83 -65.64)"/><path class="cls-14" d="M269.73,86.86c-2.11,3.24-3.75,8.08-1.67,11.71,1.72,3,4.75,2.78,6.46-.1a.38.38,0,0,0-.65-.38,2.9,2.9,0,0,1-5.16.1,7.13,7.13,0,0,1-.67-4.93,15.21,15.21,0,0,1,2.34-6c.27-.41-.38-.78-.65-.38Z" transform="translate(-23.83 -65.64)"/><path class="cls-14" d="M257.05,92.89c.16,6.07,7.17,12.79,12.2,6.65.3-.37-.22-.9-.53-.53-4.57,5.58-10.78-.72-10.92-6.12a.38.38,0,0,0-.75,0Z" transform="translate(-23.83 -65.64)"/><path class="cls-14" d="M256,109a6.69,6.69,0,0,0,8.29-7.46c-.07-.47-.79-.27-.72.2a5.94,5.94,0,0,1-7.37,6.54.37.37,0,0,0-.2.72Z" transform="translate(-23.83 -65.64)"/><path class="cls-14" d="M268,107.91a4.92,4.92,0,0,1,1.11,4.51.38.38,0,0,0,.73.2,5.73,5.73,0,0,0-1.31-5.24c-.32-.36-.85.17-.53.53Z" transform="translate(-23.83 -65.64)"/><path class="cls-14" d="M205.48,336.19a47.86,47.86,0,0,1,5.92,2c.91.32,1.31-1.13.4-1.45a47.81,47.81,0,0,0-5.92-2c-.94-.2-1.34,1.24-.4,1.44Z" transform="translate(-23.83 -65.64)"/><path class="cls-14" d="M202.79,346.39c1.42-.45,2.87-.82,4.33-1.14a10.09,10.09,0,0,1,3-.49c1,.08,1-1.42,0-1.5a10.53,10.53,0,0,0-3,.46c-1.58.34-3.16.74-4.71,1.22-.92.29-.52,1.74.4,1.45Z" transform="translate(-23.83 -65.64)"/><path class="cls-14" d="M208.15,354.33a17.45,17.45,0,0,1,5.66-3.13c.91-.29.52-1.74-.4-1.44a19.15,19.15,0,0,0-6.32,3.51c-.74.62.32,1.68,1.06,1.06Z" transform="translate(-23.83 -65.64)"/><path class="cls-11" d="M394.93,169c2.36-.45,5.42-.93,6.84,1.54,1.3,2.28.25,4.9-1.7,6.39a6.38,6.38,0,0,1-3.05,1.32c-1.27.16-3.66-.27-3.47-2.08.16-1.57,2.71-2,3.92-2.12a9.66,9.66,0,0,1,4.09.64c1.37.48,2-1.69.6-2.17-3.1-1.11-10.22-1.39-10.82,3.15-.57,4.36,4.54,5.59,7.76,4.35,3.59-1.38,6.31-5.06,5.28-9-1.26-4.79-6-5-10.05-4.19-1.42.27-.81,2.44.6,2.17Z" transform="translate(-23.83 -65.64)"/><ellipse class="cls-15" cx="343.84" cy="179.47" rx="7.82" ry="10.51" transform="translate(-14.6 309.96) rotate(-57.94)"/><ellipse class="cls-15" cx="301.33" cy="145.97" rx="6.35" ry="7.47" transform="translate(-6.16 258.21) rotate(-57.94)"/><path class="cls-16" d="M348.26,136.16c.13,4.85-1.71,8,3.71,10.4,4.93,2.2,10.1,3.9,15,6.08,1.75.77,3.28-1.82,1.52-2.59-3.58-1.58-7.18-3.1-10.83-4.52a34.87,34.87,0,0,1-4.56-1.75c-3.28-1.83-1.81-4.81-1.88-7.62-.05-1.93-3.05-1.93-3,0Z" transform="translate(-23.83 -65.64)"/><path class="cls-16" d="M335.62,123.47c-4.3.9-5.06-2.4-6.15-5.68-.91-2.76-1.89-5.49-2.91-8.2-.68-1.79-3.58-1-2.9.8,1.53,4,2.53,8.58,4.44,12.47,1.65,3.36,4.79,4.24,8.32,3.5,1.89-.39,1.09-3.28-.8-2.89Z" transform="translate(-23.83 -65.64)"/><path class="cls-16" d="M341.19,125.7a12.84,12.84,0,0,1-2.26,3.29c-.44.46.26,1.17.71.7a13.71,13.71,0,0,0,2.41-3.48c.28-.58-.58-1.09-.86-.51Z" transform="translate(-23.83 -65.64)"/><path class="cls-16" d="M346.24,130.47a3.71,3.71,0,0,1-2.17,2.1c-.6.22-.34,1.18.26,1a4.73,4.73,0,0,0,2.87-2.8c.24-.6-.73-.86-1-.26Z" transform="translate(-23.83 -65.64)"/><ellipse class="cls-9" cx="342.41" cy="155.93" rx="7.89" ry="5.27" transform="translate(-28.52 235.46) rotate(-47.18)"/><ellipse class="cls-9" cx="319.85" cy="136.31" rx="7.25" ry="5.51" transform="translate(-29 194.14) rotate(-43.88)"/><path class="cls-17" d="M313.57,170.7c2.85-3.46,4.46-8.61,2.79-9.75s-6.28,2-8.94,5.43c-2.35,3-4.3,7.65-2.91,9S310.74,174.15,313.57,170.7Z" transform="translate(-23.83 -65.64)"/><path class="cls-9" d="M328.33,149.93a5.34,5.34,0,0,0-7.42.23c-1.83,1.89-2.53,5.22-.42,7.17,1.06,1,2.65-.61,1.59-1.59-2.54-2.35,2.05-6.63,4.66-4.22,1.07,1,2.66-.6,1.59-1.59Z" transform="translate(-23.83 -65.64)"/><path class="cls-18" d="M469.08,148.2c14.44,1.11,27,2.21,38.12,3.19,2.52.22,6.66.64,8.81,3.56,2.69,3.65.84,9.25-.82,12.8a3.4,3.4,0,0,1-4.48,1.61c-4.43-2-9.23-4-14.41-5.8a195.72,195.72,0,0,0-25.88-7.6c19.86,7.91,35.64,15.48,47.49,21.17,6.64,3.18,14,6.82,15.39,13.64,1.12,5.35-1.86,10.42-4.45,13.69a3.2,3.2,0,0,1-4.68.31c-5.22-5-11-10.08-17.52-15.18a252.06,252.06,0,0,0-41.83-26.72Z" transform="translate(-23.83 -65.64)"/><polygon class="cls-3" points="445.26 82.56 449.32 82.87 449.32 90.91 445.42 89.97 445.26 82.56"/><polygon class="cls-3" points="442.64 88.73 449.13 91.32 448.03 100.94 440.99 97.22 442.64 88.73"/><path class="cls-18" d="M337.55,80.38a44.69,44.69,0,0,0-12.4,17.41,241.64,241.64,0,0,0,70,49,246.86,246.86,0,0,0,74.36,20.6c.75-2.37.24-5.19.67-8.39a51.77,51.77,0,0,0,.44-12.21,243.55,243.55,0,0,1-53-14.3A244.31,244.31,0,0,1,337.55,80.38Z" transform="translate(-23.83 -65.64)"/><path class="cls-13" d="M314.43,236.19c-1.71,2-.22,4.6-.72,6.89a.5.5,0,0,0,.83.49,8,8,0,0,0,2.46-4.7c.11-.63-.85-.9-1-.27a7.08,7.08,0,0,1-2.21,4.26l.84.49c.43-1.95-.91-4.83.47-6.45.41-.49-.29-1.2-.71-.71Z" transform="translate(-23.83 -65.64)"/><path class="cls-13" d="M318.24,237c.37,2.58-2.32,3.39-3.68,5.08-.4.5.3,1.21.71.71.91-1.13,2.25-1.72,3.17-2.81a4.08,4.08,0,0,0,.77-3.24c-.09-.64-1.06-.37-1,.26Z" transform="translate(-23.83 -65.64)"/><path class="cls-13" d="M313.7,243.12c-1.94,2.9-2.55,6.3-3.6,9.57-1.23,3.8-3.76,6.94-5.51,10.49h.87l-.14-.23a.5.5,0,0,0-.86.51l.13.23a.51.51,0,0,0,.87,0c1.54-3.14,3.78-5.94,5.06-9.19,1.42-3.63,1.84-7.58,4-10.88.36-.53-.5-1-.86-.5Z" transform="translate(-23.83 -65.64)"/><path class="cls-13" d="M313.38,238.85a9.56,9.56,0,0,0-1.62,4.25c-.25,1.91,0,4-.54,5.85l.91-.12-.09.52c.41-.5-.29-1.21-.7-.71l0,0a.51.51,0,0,0-.07.6l0,.06a.51.51,0,0,0,.91-.12c1-3.39-.08-6.72,2.07-9.87.36-.53-.5-1-.87-.5Z" transform="translate(-23.83 -65.64)"/><path class="cls-13" d="M316.56,240.71c.14,2.13-1.42,3.83-3,5.12a5.91,5.91,0,0,0-2.32,2.68c-.2.62.77.88,1,.27.54-1.64,2.75-2.71,3.83-4a5.64,5.64,0,0,0,1.48-4c-.05-.63-1.05-.64-1,0Z" transform="translate(-23.83 -65.64)"/><path class="cls-13" d="M311.82,242.72c-2.95,2.23-1.29,5.75-1.36,8.76h1l0-.27c-.05-.63-1.05-.64-1,0l0,.27a.5.5,0,0,0,1,0c.06-2.52-1.65-6,.87-7.9.51-.38,0-1.25-.51-.86Z" transform="translate(-23.83 -65.64)"/><path class="cls-13" d="M314.78,245.28c0,2.82-3,4.36-4.35,6.54a.5.5,0,0,0,.86.51c1.45-2.4,4.45-3.92,4.49-7.05a.5.5,0,0,0-1,0Z" transform="translate(-23.83 -65.64)"/><path class="cls-13" d="M309.94,247.29c-2,2.53-.65,5.08-1,8-.08.64.92.64,1,0,.31-2.48-1-5.06.72-7.25.38-.5-.32-1.22-.71-.71Z" transform="translate(-23.83 -65.64)"/><path class="cls-13" d="M312.85,249.75a5.88,5.88,0,0,1-2,4.39,12.67,12.67,0,0,0-2.44,2.52c-.34.55.52,1,.87.51.86-1.37,2.34-2.11,3.29-3.4a7,7,0,0,0,1.27-4c0-.65-1-.65-1,0Z" transform="translate(-23.83 -65.64)"/><path class="cls-13" d="M308.9,251.5c-2.22,1.05-1.18,5.13-1.89,7-.23.6.74.86,1,.27a8.39,8.39,0,0,0,.44-2.86c0-1-.08-3,1-3.53.58-.27.07-1.13-.51-.86Z" transform="translate(-23.83 -65.64)"/><path class="cls-13" d="M311,254.84a3.53,3.53,0,0,1-2.6,3.45,3.59,3.59,0,0,0-2.19,1.92c-.29.57.57,1.08.87.51a3.14,3.14,0,0,1,2-1.63,5.06,5.06,0,0,0,1.45-.93,4,4,0,0,0,1.42-3.32c-.06-.63-1.06-.64-1,0Z" transform="translate(-23.83 -65.64)"/><path class="cls-13" d="M307.11,255a6.9,6.9,0,0,0-1.87,3.31c-.45,1.87,0,4.08-1.34,5.66-.4.5.3,1.21.71.71,2.16-2.63.66-6.45,3.21-9,.46-.45-.25-1.16-.71-.71Z" transform="translate(-23.83 -65.64)"/><path class="cls-13" d="M309.13,258.62c-.05,3.06-2.79,3.57-4.68,5.24-1.24,1.1-1.46,2.7-1.59,4.29-.05.64.95.64,1,0,.14-1.69.5-3.09,2-4.09.8-.54,1.68-.93,2.43-1.54a4.91,4.91,0,0,0,1.87-3.9c0-.64-1-.64-1,0Z" transform="translate(-23.83 -65.64)"/><path class="cls-13" d="M304.62,262.46c-.52,2.33-3.33,3.3-3,6,.08.63,1.08.64,1,0-.29-2.36,2.47-3.52,3-5.7.14-.63-.82-.89-1-.27Z" transform="translate(-23.83 -65.64)"/><path class="cls-13" d="M304.79,264.41a8.46,8.46,0,0,1-.62,5.81c-.29.58.57,1.08.86.51a9.51,9.51,0,0,0,.72-6.59c-.15-.63-1.11-.36-1,.27Z" transform="translate(-23.83 -65.64)"/><path class="cls-13" d="M304.64,262.67c-2.41-.17-4,1.92-4.51,4.07-.14.62.82.89,1,.26.4-1.73,1.57-3.47,3.55-3.33.64.05.64-.95,0-1Z" transform="translate(-23.83 -65.64)"/><path class="cls-13" d="M302.48,224.2c-2.5.79-2.07,3.73-3.58,5.39a.51.51,0,0,0,.49.84,7.16,7.16,0,0,0,4.36-2.72c.39-.5-.31-1.21-.71-.7a6.27,6.27,0,0,1-3.92,2.45l.49.84a5.71,5.71,0,0,0,1.16-2.1c.39-1.14.67-2.62,2-3,.62-.2.35-1.16-.26-1Z" transform="translate(-23.83 -65.64)"/><path class="cls-13" d="M298.88,229.61c-3.06,1.45-5.07,4-7.54,6.25-2.85,2.57-6.51,3.89-9.69,6l.73.3,0-.25c-.09-.64-1.05-.37-1,.26l0,.26a.5.5,0,0,0,.73.3c2.75-1.82,6-3,8.56-5,3-2.35,5.16-5.58,8.68-7.24.58-.28.07-1.14-.51-.87Z" transform="translate(-23.83 -65.64)"/><path class="cls-13" d="M300.35,225.9a8,8,0,0,0-3.42,2.83c-1,1.44-1.62,3.31-2.9,4.53l.84.22,0-.07-.35.62.05,0c.6-.21.34-1.18-.27-1h0a.51.51,0,0,0-.34.62v.06a.51.51,0,0,0,.84.22,14.37,14.37,0,0,0,2.3-3.44,7.84,7.84,0,0,1,3.82-3.76c.59-.26.08-1.12-.51-.86Z" transform="translate(-23.83 -65.64)"/><path class="cls-13" d="M302.61,229.14c-1.38,3.42-6,1.74-8.33,3.79-.49.42.22,1.13.7.7.87-.76,2-.69,3-.86a13.1,13.1,0,0,0,2.88-.8,4.57,4.57,0,0,0,2.67-2.57c.24-.59-.73-.85-1-.26Z" transform="translate(-23.83 -65.64)"/><path class="cls-13" d="M297.22,228.35a4.19,4.19,0,0,0-3,1.76c-1.12,1.48-1.06,3.33-1.95,4.88l.92.38.09-.23c.23-.6-.73-.86-1-.26l-.09.23c-.21.53.64.86.92.38,1.18-2.07,1-5.86,4.12-6.14.64,0,.64-1,0-1Z" transform="translate(-23.83 -65.64)"/><path class="cls-13" d="M299,232c-1.22,2.41-4.84,2.18-7,3.31-.57.3-.06,1.16.5.86,2.31-1.23,6-1,7.32-3.67.29-.57-.57-1.08-.86-.5Z" transform="translate(-23.83 -65.64)"/><path class="cls-13" d="M293.48,231.24a4.43,4.43,0,0,0-2.65,2.29c-.62,1.27-.82,2.69-1.66,3.85-.37.53.49,1,.87.51,1.39-1.95,1.16-4.71,3.7-5.69.6-.23.34-1.19-.26-1Z" transform="translate(-23.83 -65.64)"/><path class="cls-13" d="M295.29,234.72a5,5,0,0,1-3.56,2.64,14.29,14.29,0,0,0-3.63.95c-.58.28-.07,1.14.5.86,1.55-.76,3.33-.6,4.88-1.32a6,6,0,0,0,2.68-2.62c.31-.57-.56-1.07-.87-.51Z" transform="translate(-23.83 -65.64)"/><path class="cls-13" d="M290.71,234.23c-2.49-.26-3.2,3.68-4.75,4.9-.51.4.21,1.1.71.71a6.85,6.85,0,0,0,1.64-2.2c.46-.84,1.25-2.53,2.4-2.41.64.07.64-.93,0-1Z" transform="translate(-23.83 -65.64)"/><path class="cls-13" d="M291.33,238.19c-.71,1.88-3,1.5-4.5,1.36a3.58,3.58,0,0,0-2.35.63c-.54.34,0,1.21.51.87,1.53-1,3.44,0,5.15-.59a3.35,3.35,0,0,0,2.16-2c.23-.6-.74-.86-1-.26Z" transform="translate(-23.83 -65.64)"/><path class="cls-13" d="M287.5,236.29a6.22,6.22,0,0,0-3.36,2c-1.11,1.32-1.73,3.26-3.5,3.86-.61.21-.35,1.18.26,1a5.31,5.31,0,0,0,2.65-2.21c1.17-1.69,2.09-3.19,4.22-3.69.62-.14.36-1.11-.27-1Z" transform="translate(-23.83 -65.64)"/><path class="cls-13" d="M288,240.29c-1.45,2.76-4.63,1.47-7.07,2.11a5.51,5.51,0,0,0-3,2.74c-.34.55.53,1.05.87.51a4.26,4.26,0,0,1,3.61-2.43c.94-.06,1.88.05,2.81-.07a4.46,4.46,0,0,0,3.66-2.36c.3-.57-.56-1.07-.86-.5Z" transform="translate(-23.83 -65.64)"/><path class="cls-13" d="M282,241.27c-1.54,1.79-4.6,1-5.46,3.62-.2.61.76.87,1,.26.45-1.37,2-1.52,3.15-1.9a4.38,4.38,0,0,0,2.06-1.27c.42-.48-.28-1.19-.71-.71Z" transform="translate(-23.83 -65.64)"/><path class="cls-13" d="M281,242.63a6.83,6.83,0,0,1-3.21,4.41.5.5,0,0,0,.5.86,7.76,7.76,0,0,0,3.67-5c.14-.63-.82-.9-1-.27Z" transform="translate(-23.83 -65.64)"/><path class="cls-13" d="M281.89,241.45a4.85,4.85,0,0,0-6.08,1.17c-.43.48.27,1.19.71.71a3.83,3.83,0,0,1,4.86-1c.56.32,1.07-.55.51-.86Z" transform="translate(-23.83 -65.64)"/><path class="cls-6" d="M345.94,96.44l2.69,3.27a1,1,0,1,0,1.42-1.41L347.35,95a1,1,0,0,0-1.41,0,1,1,0,0,0,0,1.42Z" transform="translate(-23.83 -65.64)"/><path class="cls-6" d="M342.4,100.09a16.12,16.12,0,0,0,3.45,2.64c1.13.63,2.14-1.1,1-1.73a13.76,13.76,0,0,1-3-2.32,1,1,0,0,0-1.42,1.41Z" transform="translate(-23.83 -65.64)"/><path class="cls-6" d="M345,94.29l-6.32,8.34c-.73,1,.76,1.89,1.57,1.21l.57-.49c1-.84-.43-2.25-1.41-1.42l-.57.49,1.57,1.22,6.32-8.34c.78-1-1-2-1.73-1Z" transform="translate(-23.83 -65.64)"/><path class="cls-6" d="M350.67,103.93l-3.17,4.31c-.76,1,1,2,1.73,1l3.17-4.31c.76-1-1-2-1.73-1Z" transform="translate(-23.83 -65.64)"/><path class="cls-6" d="M353.46,103.23a1,1,0,0,0,0-2,1,1,0,0,0,0,2Z" transform="translate(-23.83 -65.64)"/><path class="cls-6" d="M368.44,110l-7.06,11.15c-.6.94.81,2.06,1.57,1.21,1-1.14,2.37-3.42,3.67-4.14,1-.54.33.46,0,1.06l-1.28,2.47c-.59,1.14,1.14,2.15,1.73,1,.78-1.51,4.28-6,1.6-7.35A2.46,2.46,0,0,0,366,116a43.36,43.36,0,0,0-4.47,5l1.57,1.21,7.05-11.14c.69-1.09-1-2.1-1.72-1Z" transform="translate(-23.83 -65.64)"/><path class="cls-6" d="M377.93,118.91c-1.34,1.34-2.62,2.72-3.82,4.17-.88,1.06-2.06,2.25-1.87,3.74.41,3.12,4,3,6.15,1.94,1.16-.56.15-2.28-1-1.73s-3.83,1-2.84-1.3a9.44,9.44,0,0,1,1.59-2c1-1.2,2.1-2.34,3.21-3.45a1,1,0,0,0-1.41-1.42Z" transform="translate(-23.83 -65.64)"/><path class="cls-6" d="M373.45,121.61a27.39,27.39,0,0,1,5.7,2.32c1.12.62,2.14-1.1,1-1.72a29.64,29.64,0,0,0-6.18-2.53,1,1,0,0,0-.53,1.93Z" transform="translate(-23.83 -65.64)"/><path class="cls-6" d="M383.32,126.47l-2.48,5.32c-.54,1.16,1.18,2.17,1.73,1l2.48-5.32c.54-1.16-1.19-2.18-1.73-1Z" transform="translate(-23.83 -65.64)"/><path class="cls-6" d="M385.68,124.62a1,1,0,0,0,0-2,1,1,0,0,0,0,2Z" transform="translate(-23.83 -65.64)"/><path class="cls-6" d="M390.44,127.92c-.93,2.16-1.88,4.32-2.85,6.46-.52,1.15,1.07,2.15,1.72,1l1.62-2.83a8.48,8.48,0,0,1,1.7-2.56c1.11-.88.82.86.68,1.48a7,7,0,0,1-1.51,2.92c-.83,1,.58,2.39,1.41,1.41,1.41-1.65,3.9-6.38,1-7.86-1.33-.68-2.65.19-3.49,1.23a36.66,36.66,0,0,0-3.08,5.2l1.72,1c1-2.14,1.93-4.3,2.85-6.46.51-1.17-1.22-2.19-1.72-1Z" transform="translate(-23.83 -65.64)"/><path class="cls-6" d="M404.82,132.8a2.6,2.6,0,0,0-3.58-1.77,6,6,0,0,0-3.45,4.42,2.55,2.55,0,0,0,2.84,2.84c1.93-.31,3.48-2.42,4.64-3.83.8-1-.6-2.41-1.42-1.41-.47.57-3.24,4.08-4,3-.49-.73.55-1.85,1-2.34s1.81-1.62,2-.4,2.13.73,1.93-.53Z" transform="translate(-23.83 -65.64)"/><path class="cls-6" d="M403.12,134.08a68.36,68.36,0,0,1-2.77,6.81c-.56,1.17-1.12,2.13-2.49,2.3s-4.13-.92-2.91-2.8c.7-1.08-1-2.08-1.73-1-2.24,3.45,2,6.12,5.16,5.78,2-.22,2.87-1.54,3.69-3.26a71,71,0,0,0,3-7.29c.42-1.21-1.51-1.74-1.93-.53Z" transform="translate(-23.83 -65.64)"/><path class="cls-6" d="M412.51,135.39a46.24,46.24,0,0,1-2.32,7.45c-.48,1.19,1.45,1.71,1.93.53a47.27,47.27,0,0,0,2.32-7.45c.27-1.25-1.65-1.79-1.93-.53Z" transform="translate(-23.83 -65.64)"/><path class="cls-6" d="M409.4,146l-.78,1.3a1,1,0,0,0,1.72,1l.79-1.3a1,1,0,0,0-1.73-1Z" transform="translate(-23.83 -65.64)"/><path class="cls-6" d="M418.35,137.68a46.52,46.52,0,0,1-2.31,7.45c-.49,1.19,1.45,1.71,1.93.53a46.21,46.21,0,0,0,2.31-7.45c.28-1.26-1.65-1.79-1.93-.53Z" transform="translate(-23.83 -65.64)"/><path class="cls-6" d="M415.25,148.24l-.79,1.3a1,1,0,0,0,1.73,1l.78-1.3a1,1,0,0,0-1.72-1Z" transform="translate(-23.83 -65.64)"/><path class="cls-6" d="M424.81,138.73a47.27,47.27,0,0,1-2.32,7.45c-.49,1.19,1.45,1.71,1.93.53a46.21,46.21,0,0,0,2.31-7.45c.28-1.26-1.65-1.79-1.92-.53Z" transform="translate(-23.83 -65.64)"/><path class="cls-6" d="M421.7,149.29l-.79,1.31a1,1,0,0,0,1.73,1l.79-1.31a1,1,0,0,0-1.73-1Z" transform="translate(-23.83 -65.64)"/><path class="cls-6" d="M361.2,108.32a2.45,2.45,0,0,0-3.05-2.35,5.6,5.6,0,0,0-3.62,3.6c-.38,1.52.49,3.32,2.21,3.28s3.51-1.9,4.68-3.06a1,1,0,0,0-1.41-1.42,21.17,21.17,0,0,1-1.88,1.67c-.39.31-1.59,1.35-1.69.37-.06-.7.57-1.3,1-1.73.26-.24,1.71-1.43,1.72-.36a1,1,0,0,0,2,0Z" transform="translate(-23.83 -65.64)"/><path class="cls-6" d="M359.36,109.07c-.94,1.93-1.95,3.82-3.06,5.66-.76,1.25-1.25,2.34-3,2.2-1.17-.09-2.81-1.67-1.79-2.86.83-1-.58-2.4-1.42-1.42-2.3,2.7.28,5.86,3.24,6.32,1.81.29,3-.57,3.92-2a62.17,62.17,0,0,0,3.81-6.87c.56-1.15-1.17-2.17-1.73-1Z" transform="translate(-23.83 -65.64)"/></svg>