<?xml version="1.0" encoding="utf-8"?>
<!-- Generator: Adobe Illustrator 25.0.0, SVG Export Plug-In . SVG Version: 6.00 Build 0)  -->
<svg version="1.1" id="图层_1" xmlns="http://www.w3.org/2000/svg" xmlns:xlink="http://www.w3.org/1999/xlink" x="0px" y="0px"
	 viewBox="0 0 600 600" style="enable-background:new 0 0 600 600;" xml:space="preserve">
<style type="text/css">
	.st0{fill:#40A8C6;}
	.st1{fill:#2389A6;}
	.st2{fill:#EC5606;}
	.st3{fill:#FF894A;}
	.st4{fill:#FDE231;}
	.st5{fill:#192F69;}
	.st6{fill:#B37108;}
	.st7{fill:#FFFFFF;}
	.st8{fill:#3A486C;}
	.st9{fill:#25504B;}
	.st10{fill:#7951DD;}
	.st11{fill:#6239CC;}
	.st12{fill:#F5CA34;}
	.st13{fill:#A76A57;}
	.st14{fill:#4A111D;}
	.st15{fill:url(#SVGID_1_);}
	.st16{fill:url(#SVGID_2_);}
	.st17{fill:url(#SVGID_3_);}
	.st18{fill:#8A4F3D;}
	.st19{fill:url(#SVGID_4_);}
	.st20{fill:url(#SVGID_5_);}
	.st21{fill:url(#SVGID_6_);}
	.st22{fill:#132978;}
	.st23{fill:#AA5020;}
	.st24{fill:#393F4F;}
	.st25{fill:#271106;}
	.st26{fill:#FFF7D0;}
	.st27{fill:#FFC827;}
	.st28{fill:#272B35;}
	.st29{fill:#F4E3BD;}
	.st30{fill:#3E5FAB;}
	.st31{fill:#375082;}
	.st32{fill:#FBFBD6;}
	.st33{fill:#EFA52A;}
	.st34{fill:#528DE2;}
	.st35{fill:#F79FCF;}
	.st36{fill:#F4EBDF;}
	.st37{fill:#3D0512;}
	.st38{fill:#F26283;}
	.st39{fill:#FE7C9A;}
	.st40{fill:#DB4668;}
	.st41{fill:#AD1B3D;}
	.st42{fill:#FAF1F3;}
	.st43{fill:#C30A58;}
	.st44{fill:#F9DCE4;}
	.st45{fill:#F87392;}
	.st46{fill:#F65E81;}
	.st47{fill:#FFED53;}
	.st48{fill:#FA3A83;}
	.st49{fill:#E02270;}
	.st50{fill:#F9B4C6;}
	.st51{fill:#FFD5E0;}
	.st52{fill:#FF93AC;}
	.st53{fill:#FFE9EF;}
	.st54{opacity:0.4;clip-path:url(#SVGID_8_);fill:#FFC2D1;}
	.st55{opacity:0.47;clip-path:url(#SVGID_8_);fill:#FFC2D1;}
	.st56{fill:#CA0937;}
	.st57{fill:#FFFBFC;}
	.st58{fill:none;stroke:#FF93AC;stroke-width:4;stroke-linecap:round;stroke-linejoin:round;}
	.st59{fill:none;stroke:#FF93AC;stroke-width:4;stroke-linecap:round;stroke-linejoin:round;stroke-dasharray:4.1573,6.2359;}
	.st60{fill:none;stroke:#FF93AC;stroke-width:4;stroke-linecap:round;stroke-linejoin:round;stroke-dasharray:4.2449,6.3673;}
	.st61{fill:#1598C3;}
	.st62{fill:#4F3818;}
	.st63{fill:#BA3A12;}
	.st64{fill:#505958;}
	.st65{fill:#F9BE69;}
</style>
<g>
	<path class="st34" d="M398.15,155.04c0,0,10.84-47.14,28.18-39.02c17.34,8.13,26.55,50.94-8.67,81.82c0,0,39.56,2.71,37.93,26.01
		s-17.34,60.69-56.36,3.25c0,0,16.26,56.36-26.55,47.69s-25.47-44.98-25.47-44.98s-55.81,63.4-52.02,6.5s36.85-43.35,36.85-43.35
		s-73.7-7.59-36.85-54.19s54.73,14.63,54.73,14.63s-10.3-45.52,16.8-46.06C393.82,106.81,402.49,131.74,398.15,155.04z"/>
	<ellipse class="st33" cx="369.97" cy="185.35" rx="24.32" ry="21.93"/>
</g>
<g>
	<path class="st34" d="M202.77,225.89c0,0,12.93-53.46,34.52-47.8c53.66,14.05,32.53,62.41-10.62,100.25c0,0,48.47,3.32,46.47,31.87
		c-1.99,28.55-21.25,74.36-69.05,3.98c0,0,25.08,57.17-32.53,58.43c-53.5,1.16-31.2-55.11-31.2-55.11s-35.78,69.05-70.76,8.57
		c-31.81-54.99,52.17-53.71,52.17-53.71s-90.29-9.29-45.15-66.39s67.06,17.93,67.06,17.93s-12.61-55.77,20.58-56.43
		S208.08,197.34,202.77,225.89z"/>
	<ellipse class="st33" cx="168.23" cy="263.02" rx="29.79" ry="26.86"/>
</g>
<g>
	<path class="st35" d="M415.93,331.8c0,0,12.04-49.77,32.14-44.5c49.95,13.08,30.29,58.1-9.89,93.33c0,0,45.12,3.09,43.27,29.67
		c-1.85,26.58-19.78,69.23-64.28,3.71c0,0,23.35,53.23-30.29,54.39c-49.81,1.08-29.05-51.3-29.05-51.3s-33.31,64.28-65.88,7.98
		c-29.61-51.19,48.57-50.01,48.57-50.01s-84.06-8.65-42.03-61.81s62.43,16.69,62.43,16.69s-11.74-51.92,19.16-52.54
		C410.99,276.79,420.88,305.23,415.93,331.8z"/>
	<ellipse class="st36" cx="383.78" cy="366.37" rx="27.74" ry="25.01"/>
</g>
</svg>
