<svg xmlns:xlink="http://www.w3.org/1999/xlink" xmlns="http://www.w3.org/2000/svg" version="1.1" viewBox="0 0 234 242" height="242px" width="234px">
    
    <title>Saint-bag (3)副本</title>
    <desc>Created with Sketch.</desc>
    <defs></defs>
    <g fill-rule="evenodd" fill="none" stroke-width="1" stroke="none" id="Page-1">
        <g transform="translate(2.000000, 2.000000)" id="Saint-bag-(3)副本">
            <g stroke="#6E6E96" transform="translate(0.000000, 131.000000)" id="Group">
                <path stroke-linejoin="round" stroke-linecap="round" fill-rule="nonzero" fill="#FF7073" stroke-width="3" id="Shape" d="M120.132,78.942 C120.132,101.205 73.233,106.313 60.085,106.313 C45.964,106.313 0.036,101.205 0.036,78.942 C0.036,56.682 26.92,38.635 60.085,38.635 C93.248,38.636 120.132,56.683 120.132,78.942 Z"></path>
                <path stroke-linejoin="round" stroke-linecap="round" fill-rule="nonzero" fill="#FF7073" stroke-width="3" id="Shape" d="M83.147,72.959 C76.148,74.739 68.331,75.735 60.084,75.735 C30.119,75.735 5.827,62.598 5.827,46.393 C5.827,30.186 30.119,17.049 60.084,17.049 C90.05,17.049 114.341,30.186 114.341,46.393 C114.341,51.969 111.463,57.184 106.466,61.624"></path>
                <ellipse ry="21.896" rx="57.916" cy="22.711" cx="60.083" stroke-linejoin="round" stroke-linecap="round" fill-rule="nonzero" fill="#FF7073" stroke-width="3" id="Oval"></ellipse>
                <g id="Shape" transform="translate(11.000000, 13.000000)">
                    <path fill-rule="nonzero" fill="#C45659" d="M47.624,0.653 C32.62,0.653 19.262,3.412 10.676,8 C4.439,11.332 0.721,15.629 0.721,20.533 C0.721,20.975 0.762,21.399 0.822,21.813 C11.197,27.714 28.935,31.606 49.083,31.606 C63.931,31.606 77.469,29.492 87.719,26.018 C92.611,23.243 94.526,20.225 94.526,18.077 C94.526,6.42 73.527,0.653 47.624,0.653 Z"></path>
                    <path stroke-linejoin="round" stroke-linecap="round" stroke-width="3" d="M47.624,0.653 C32.62,0.653 19.262,3.412 10.676,8 C4.439,11.332 0.721,15.629 0.721,20.533 C0.721,20.975 0.762,21.399 0.822,21.813 C11.197,27.714 28.935,31.606 49.083,31.606 C63.931,31.606 77.469,29.492 87.719,26.018 C92.611,23.243 94.526,20.225 94.526,18.077 C94.526,6.42 73.527,0.653 47.624,0.653 Z"></path>
                </g>
            </g>
            <g transform="translate(43.000000, 0.000000)" id="Group">
                <path fill-rule="nonzero" fill="#FF7073" stroke-width="3" stroke="#6E6E96" id="Shape" d="M115.814,108.544 C112.21,108.544 108.77,110.119 105.612,112.957 C101.614,107.198 96.611,103.565 90.88,102.881 C73.374,100.787 46.484,125.756 42.269,160.01 C38.055,194.263 58.112,224.839 75.617,226.931 C82.965,227.81 90.325,223.712 96.711,216.146 C101.676,226.888 108.401,233.5 115.815,233.5 C131.08,233.5 151.547,205.527 151.547,171.021 C151.547,136.517 131.079,108.544 115.814,108.544 Z"></path>
                <path fill-rule="nonzero" fill="#FF7073" stroke-width="3" stroke="#6E6E96" id="Shape" d="M65.013,101.022 C65.013,101.022 -19.525,144.933 39.103,178.17 C86.677,205.139 166.195,212.075 156.73,170.787 C147.264,129.499 142.515,75.546 65.013,101.022 Z"></path>
                <path fill-rule="nonzero" fill="#FFFFFF" stroke-width="3" stroke="#6E6E96" id="Shape" d="M156.882,172.517 C147.966,183.287 126.057,185.725 101.764,181.979 C88.979,179.392 91.009,170.872 91.787,168.626 L104.701,135.11 L85.705,128.152 L71.889,164.006 C71.889,164.006 66.811,173.245 58.72,169.437 C53.118,166.983 47.736,164.251 42.719,161.263 C30.054,153.724 24.174,145.785 22.717,137.99 C11.814,135.785 11.794,164.719 39.105,179.137 C78.502,199.935 136.669,209.999 153.128,190.547 C159.474,186.574 162.917,168.741 156.882,172.517 Z"></path>
                <path fill-rule="nonzero" fill="#FFFFFF" stroke-width="3" stroke="#6E6E96" id="Shape" d="M60.807,223.418 C60.807,223.418 47.28,215.441 58.732,208.92 C71.328,201.745 106.366,209.181 94.822,226.49 L60.807,223.418 Z"></path>
                <path fill-rule="nonzero" fill="#9696B5" stroke-width="3" stroke="#6E6E96" id="Shape" d="M95.258,229.555 C95.258,237.892 85.793,237.848 74.117,237.848 C62.443,237.848 52.978,237.893 52.978,229.555 C52.978,221.218 62.443,214.46 74.117,214.46 C85.793,214.46 95.258,221.219 95.258,229.555 Z"></path>
                <path fill-rule="nonzero" fill="#FFFFFF" stroke-width="3" stroke="#6E6E96" id="Shape" d="M103.251,223.153 C103.251,223.153 89.809,216.555 101.174,209.883 C113.77,202.487 148.808,208.915 137.265,226.226 L103.251,223.153 Z"></path>
                <path fill-rule="nonzero" fill="#9696B5" stroke-width="3" stroke="#6E6E96" id="Shape" d="M137.701,229.29 C137.701,237.628 128.235,237.585 116.561,237.585 C104.887,237.585 95.422,237.629 95.422,229.29 C95.422,220.954 104.887,214.195 116.561,214.195 C128.235,214.195 137.701,220.954 137.701,229.29 Z"></path>
                <path fill-rule="nonzero" fill="#CFC8BB" stroke="#6E6E96" id="Shape" d="M170.354,171.79 C170.354,171.79 175.215,173.34 173.125,176.519 C173.126,176.52 178.186,173.844 170.354,171.79 Z"></path>
                <path stroke-linejoin="round" stroke-linecap="round" fill-rule="nonzero" fill="#FF7073" stroke-width="3" stroke="#6E6E96" id="Shape" d="M133.059,139.522 C139.163,146.889 148.45,160.819 154.847,182.971 C156.118,187.367 163.486,188.914 167.09,186.386 C175.364,180.576 178.535,181.99 177.781,174.123 C178.002,172.568 177.866,170.464 177.387,167.394 C177.309,166.748 177.222,166.07 177.117,165.334 C176.87,163.564 176.448,161.736 175.904,159.873 C167.885,125.67 145.531,110.769 138.142,101.815 C130.63,92.711 120.825,97.794 115.557,105.682 C117.634,104.992 119.828,104.892 122.023,105.514"></path>
                <path fill-rule="nonzero" fill="#FFFFFF" stroke-width="3" stroke="#6E6E96" id="Shape" d="M158.657,180.344 L158.642,180.386 C159.072,179.218 163.261,169.097 177.917,173.118 C180.359,173.788 182.884,172.351 183.555,169.907 C184.225,167.466 182.787,164.94 180.344,164.269 C161.673,159.145 152.319,170.583 149.983,177.348 C149.156,179.743 150.426,182.355 152.822,183.181 C155.218,184.011 157.83,182.739 158.657,180.344 Z"></path>
                <path fill-rule="nonzero" fill="#FF7073" stroke-width="3" stroke="#6E6E96" id="Shape" d="M182.943,176.067 C182.944,176.068 182.944,176.068 182.945,176.068 C182.945,176.068 180.678,167.796 167.138,172.328 C157.098,175.688 155.55,181.325 155.421,184.016 C154.831,186.065 154.55,188.497 154.339,191.492 C154.316,191.828 154.328,192.175 154.373,192.521 C154.325,192.653 154.269,192.784 154.237,192.917 C154.237,192.917 155.052,202.7 162.091,201.528 C169.132,200.354 166.272,195.156 169.75,198.663 C174.275,203.226 185.356,197.286 186.226,191.354 C186.471,190.751 186.628,190.132 186.671,189.505 C187.06,184.026 185.57,179.232 182.943,176.067 Z"></path>
                <path stroke-linejoin="round" stroke-linecap="round" fill-rule="nonzero" fill="#FF7073" stroke-width="3" stroke="#6E6E96" id="Shape" d="M90.451,96.795 C92.879,96.801 95.105,97.489 97.048,98.705 C93.827,89.79 85.154,82.31 74.886,88.92 C64.783,95.421 37.628,103.513 19.839,133.816 C18.759,135.438 17.815,137.06 17.067,138.672 C16.757,139.341 16.478,139.96 16.218,140.55 C14.867,143.339 14.142,145.301 13.935,146.837 C10.967,154.102 14.623,153.616 21.518,161.371 C24.523,164.751 32.537,165.273 35.069,161.445 C44.031,147.891 53.327,138.573 60.956,132.377"></path>
                <path fill-rule="nonzero" fill="#FFFFFF" stroke-width="3" stroke="#6E6E96" id="Shape" d="M31.882,157.92 L31.885,157.962 C31.769,156.734 30.281,145.992 14.076,145.845 C11.374,145.822 9.18,143.772 9.17,141.273 C9.161,138.77 11.343,136.762 14.046,136.787 C34.688,136.976 41.124,150.367 41.642,157.424 C41.826,159.923 39.789,162.059 37.095,162.195 C34.398,162.33 32.063,160.416 31.882,157.92 Z"></path>
                <path fill-rule="nonzero" fill="#FF7073" stroke-width="3" stroke="#6E6E96" id="Shape" d="M25.39,148.012 C12.721,140.044 8.08,147.284 8.08,147.284 C8.082,147.284 8.085,147.284 8.088,147.284 C4.627,149.497 1.834,153.44 0.627,158.487 C0.624,158.499 0.617,158.508 0.615,158.519 C0.613,158.531 0.613,158.54 0.611,158.551 C0.573,158.712 0.531,158.869 0.497,159.031 C0.368,159.633 0.355,160.257 0.436,160.887 C0.592,170.06 11.253,174.672 15.354,172.304 C19.798,169.741 15.519,174.075 22.437,177.098 C29.353,180.116 32.921,171.049 32.921,171.049 C32.928,170.917 32.9,170.778 32.887,170.646 C33.033,170.324 33.145,169.997 33.216,169.668 C33.834,166.767 34.223,164.38 34.189,162.274 C34.805,159.688 34.782,153.919 25.39,148.012 Z"></path>
                <path opacity="0.15" fill-rule="nonzero" fill="#6E6E96" id="Shape" d="M0.627,158.487 C0.627,158.487 10.11,173.765 17.75,160.888 C17.75,160.888 27.208,171.918 30,151.168 C30,151.168 35.753,152.482 34.32,161.564 C32.887,170.646 23.775,185.375 17.012,170.646 C17.013,170.647 -2.996,174.556 0.627,158.487 Z"></path>
                <path opacity="0.15" fill-rule="nonzero" fill="#6E6E96" id="Shape" d="M162.517,174.328 C162.517,174.328 153.663,138.475 136.215,130.445 C145.354,122.491 149.85,114.303 149.85,114.303 L148.25,112.918 L49.184,103.141 C49.184,103.141 49.897,113.428 56.215,123.837 C46.447,127.83 32.792,142.294 32.792,142.294 C29.003,146.083 30,151.168 30,151.168 C34.61,154.325 34.32,161.564 34.32,161.564 C35.39,165.707 41.158,159.702 41.158,159.702 L46.177,163.249 L61.583,140.751 L62.416,139.918 C64.105,138.229 65.459,136.774 66.499,135.486 C72.474,140.152 80.481,143.782 91.249,144.918 C104.002,146.264 114.625,143.547 123.168,139.254 C123.172,139.257 140.766,153.391 141.757,181.276 L149.983,177.347 C149.983,177.347 152.549,184.85 155.421,184.015 C155.421,184.015 148.215,205.446 167.221,198.4 C167.221,198.4 186.053,205.804 186.053,182.361 C186.054,182.362 160.283,198.237 162.517,174.328 Z"></path>
                <path fill-rule="nonzero" fill="#F5F5F5" stroke="#6E6E96" id="Shape" d="M150.171,53.913 C150.171,53.913 150.694,59.34 145.507,61.865 L143.513,57.802 L150.171,53.913 Z"></path>
                <path stroke-linejoin="round" stroke-linecap="round" fill-rule="nonzero" fill="#FF7073" stroke-width="3" stroke="#6E6E96" id="Shape" d="M173.105,33.632 C172.099,36.485 147.136,19.456 151.462,24.369 C158.215,32.037 152.797,39.141 149.765,45.88 C141.969,63.198 121.505,71.242 104.062,63.846 C86.614,56.448 78.789,36.411 86.584,19.091 C94.378,1.774 134.096,-6.081 147.95,6.506 C162.112,19.374 173.843,31.535 173.105,33.632 Z"></path>
                <path stroke-linejoin="round" stroke-linecap="round" fill-rule="nonzero" fill="#FFFFFF" stroke-width="3" stroke="#6E6E96" id="Shape" d="M154.914,101.197 C150.134,112.802 140.464,123.23 128.246,129.795 C140.741,104.921 123.688,145.757 86.292,135.22 C77.266,133.286 73.1,126.013 67.595,114.345 C73.429,139.924 59.502,119.609 52.141,108.403 C45.123,92.84 45.48,79.22 50.596,66.805 C60.159,43.595 85.78,24.191 120.138,36.267 C146.871,45.662 164.479,77.988 154.914,101.197 Z"></path>
                <g stroke="#6E6E96" id="Shape" transform="translate(72.000000, 39.000000)">
                    <path fill-rule="nonzero" fill="#FFBCAC" d="M7.354,34.323 C18.671,32.913 36.743,35.081 50.749,52.42 C51.28,53.088 51.808,53.692 52.33,54.264 C59.842,49.525 65.005,41.867 65.759,32.826 C67.115,16.534 53.655,1.943 35.698,0.232 C17.737,-1.476 2.076,10.345 0.719,26.636 C0.466,29.677 0.729,32.657 1.441,35.508 C3.36,34.681 5.35,34.323 7.354,34.323 Z"></path>
                    <path stroke-linejoin="round" stroke-linecap="round" stroke-width="3" d="M7.354,34.323 C18.671,32.913 36.743,35.081 50.749,52.42 C51.28,53.088 51.808,53.692 52.33,54.264 C59.842,49.525 65.005,41.867 65.759,32.826 C67.115,16.534 53.655,1.943 35.698,0.232 C17.737,-1.476 2.076,10.345 0.719,26.636 C0.466,29.677 0.729,32.657 1.441,35.508 C3.36,34.681 5.35,34.323 7.354,34.323 Z"></path>
                </g>
                <path fill-rule="nonzero" fill="#6E6E96" id="Shape" d="M98.039,58.612 C97.433,60.555 95.275,61.63 93.221,61.011 C91.165,60.392 89.993,58.315 90.601,56.37 C91.207,54.427 93.366,53.353 95.42,53.971 C97.475,54.592 98.647,56.669 98.039,58.612 Z"></path>
                <path fill-rule="nonzero" fill="#6E6E96" id="Shape" d="M123.302,66.121 C122.66,68.17 120.39,69.301 118.228,68.649 C116.063,67.997 114.827,65.809 115.465,63.762 C116.105,61.715 118.379,60.582 120.54,61.234 C122.709,61.887 123.941,64.074 123.302,66.121 Z"></path>
                <path stroke-linejoin="round" stroke-linecap="round" stroke-width="3" stroke="#6E6E96" id="Shape" d="M105.202,95.954 C105.202,95.954 94.008,104.624 86.794,92.481"></path>
                <path stroke-linejoin="round" stroke-linecap="round" fill-rule="nonzero" fill="#FFBCAC" stroke-width="3" stroke="#6E6E96" id="Shape" d="M111.488,79.288 C110.469,83.536 102.529,85.305 97.548,84.13 C92.566,82.956 89.351,78.562 90.368,74.314 C91.385,70.066 96.246,67.574 101.227,68.748 C106.21,69.919 112.505,75.041 111.488,79.288 Z"></path>
                <path stroke-linejoin="round" stroke-linecap="round" fill-rule="nonzero" fill="#FFFFFF" stroke-width="3" stroke="#6E6E96" id="Shape" d="M118.803,22.807 C143.064,29.949 159.558,46.161 155.639,59.021 C151.717,71.879 135.966,53.231 111.703,46.09 C87.44,38.946 63.851,46.015 67.77,33.158 C70.561,24.008 82.937,19.022 98.587,19.481"></path>
                <path stroke-linejoin="round" stroke-linecap="round" fill-rule="nonzero" fill="#FFFFFF" stroke-width="3" stroke="#6E6E96" id="Shape" d="M181.44,32.596 C180.995,37.968 176.047,41.887 170.398,41.348 C164.745,40.809 160.528,36.02 160.976,30.649 C161.424,25.277 166.369,21.36 172.019,21.896 C177.674,22.435 181.892,27.227 181.44,32.596 Z"></path>
                <path stroke-linejoin="round" stroke-linecap="round" fill-rule="nonzero" fill="#5E5E5E" stroke-width="3" stroke="#6E6E96" id="Shape" d="M151.463,23.295 L140.056,17.677"></path>
                <path opacity="0.1" fill-rule="nonzero" fill="#6E6E96" id="Shape" d="M80.864,21.763 C80.864,21.763 68.208,34.419 80.864,34.419 C93.52,34.419 128,35.669 144.25,51.919 C144.25,51.919 161.564,56.631 125.573,25.109 C125.573,25.109 155.638,35.122 155.638,59.021 C155.638,59.021 157.417,68.6 129.833,53.76 C102.249,38.92 59.955,48.273 68.602,31.096 L80.864,21.763 Z"></path>
                <path opacity="0.15" fill-rule="nonzero" fill="#6E6E96" id="Shape" d="M162.757,25.924 L140.056,11.419 C140.056,11.419 126.249,8.225 133.153,18.322 C140.057,28.419 121.205,23.553 121.205,23.553 C121.205,23.553 152.251,35.919 152.251,42.419 C152.251,42.419 159.677,30.819 151.464,24.369 L160.978,30.648 L162.757,25.924 Z"></path>
                <path opacity="0.1" fill-rule="nonzero" fill="#6E6E96" id="Shape" d="M161.608,28.972 C161.608,28.972 166.302,37.867 170.75,33.419 C175.198,28.971 172.02,21.896 172.02,21.896 C172.02,21.896 181.452,26.735 181.452,31.327 C181.452,35.919 164.467,50.524 161.608,28.972 Z"></path>
                <path opacity="0.15" fill-rule="nonzero" fill="#6E6E96" id="Shape" d="M71.78,40.352 C71.78,40.352 76.568,49.469 113.438,56.341 C131.141,59.641 150.786,67.919 149.3,83.368 C147.263,104.552 127.749,121.919 130.249,109.919 C132.749,97.919 97.249,145.419 82.249,125.419 C67.249,105.419 61.249,104.641 61.249,111.419 C61.249,118.197 42.167,93.712 49.208,70.565 C49.208,70.565 36.182,107.26 68.715,125.664 L68.715,114.919 C68.715,114.919 80.831,159.507 131.79,121.963 L128.245,129.795 C128.245,129.795 174.007,102.381 151.126,63.532 C151.127,63.532 118.811,40.352 71.78,40.352 Z"></path>
                <path opacity="0.15" fill-rule="nonzero" fill="#6E6E96" id="Shape" d="M46.177,163.25 C46.177,163.25 34.084,169.586 41.084,173.919 C48.084,178.252 125.529,208.03 151.751,182.919 L155.423,184.017 L153.129,190.548 C153.129,190.548 137.665,206.229 100.875,199.407 C64.084,192.586 31.228,174.041 31.228,174.041 L34.321,161.565 L41.159,159.703 L46.177,163.25 Z"></path>
                <path opacity="0.15" fill-rule="nonzero" fill="#6E6E96" id="Shape" d="M94.371,145.162 C94.371,145.162 71.539,175.358 100.311,181.639 C100.311,181.639 90.749,180.585 92.416,167.252 C94.083,153.919 100.82,145.18 100.82,145.18 L94.371,145.162 Z"></path>
                <path opacity="0.15" fill-rule="nonzero" fill="#6E6E96" id="Shape" d="M90.711,73.292 C90.711,73.292 85.045,103.324 115.21,83.767 L111.488,79.288 C111.488,79.288 110.938,75.2 108.571,72.832 C108.571,72.832 107.818,80.119 101.284,80.119 C94.75,80.119 90.711,73.292 90.711,73.292 Z"></path>
                <path opacity="0.15" fill-rule="nonzero" fill="#6E6E96" id="Shape" d="M87.963,197.735 C87.963,197.735 99.789,207.395 93.989,213.193 C92.92,214.261 96.878,214.179 96.878,214.179 C98.75,210.251 112.245,206.899 117.074,206.899 C123.964,207.689 125.536,209.508 125.399,211.331 C125.263,213.152 123.411,214.976 116.561,214.195 C116.561,214.195 132.779,215.534 137.264,226.226 C137.264,226.226 140.246,222.181 138.755,216.216 C138.755,216.216 147.415,200.918 148.749,194.918 C148.75,194.919 125.75,206.419 87.963,197.735 Z"></path>
                <path opacity="0.15" fill-rule="nonzero" fill="#6E6E96" id="Shape" d="M71.42,206.205 C71.42,206.205 84.392,208.61 81.75,211.252 C79.108,213.894 67.566,215.203 67.566,215.203 C67.566,215.203 88.226,211.061 94.821,226.49 C94.821,226.49 106.756,211.824 71.42,206.205 Z"></path>
                <path opacity="0.25" fill-rule="nonzero" fill="#6E6E96" id="Shape" d="M76.445,214.806 C76.445,214.806 87.054,219.252 81.75,227.919 C76.446,236.586 50.43,230.891 54.423,224.071 C54.423,224.071 46.366,237.696 65.391,237.696 C84.416,237.696 94.821,238.585 94.821,230.252 C94.821,221.919 86.475,216.359 76.445,214.806 Z"></path>
                <path opacity="0.25" fill-rule="nonzero" fill="#6E6E96" id="Shape" d="M120.445,214.472 C120.445,214.472 131.054,218.918 125.75,227.585 C120.446,236.252 94.43,230.557 98.424,223.737 C98.424,223.737 90.366,237.362 109.392,237.362 C128.418,237.362 138.822,238.251 138.822,229.918 C138.822,221.585 130.475,216.025 120.445,214.472 Z"></path>
            </g>
            <path opacity="0.15" fill-rule="nonzero" fill="#6E6E96" id="Shape" d="M9.25,202.919 C9.25,202.919 1.75,219.419 25.75,223.919 C49.75,228.419 68.802,230.159 100.141,220.561 C100.141,220.561 95.914,225.474 95.914,231.697 C95.914,231.697 44.174,248.674 6.462,222.797 C6.462,222.797 -8.366,206.08 9.578,188.136 C9.578,188.136 -1.107,174.709 11.822,165.815 C11.822,165.815 44.498,182.27 74.227,174.043 L85.415,179.728 C85.415,179.728 56.25,188.035 27.75,179.728 C-0.75,171.421 12.75,189.421 32.25,195.421 C51.75,201.421 82.25,196.921 82.25,196.921 C82.25,196.921 88.75,196.421 88.75,203.421 C88.75,210.421 48.5,220.171 24.25,206.921 C24.25,206.919 10.355,196.941 9.25,202.919 Z"></path>
        </g>
    </g>
</svg>