<svg xmlns:xlink="http://www.w3.org/1999/xlink" xmlns="http://www.w3.org/2000/svg" version="1.1" viewBox="0 0 239 235" height="235px" width="239px">
    
    <title>Saint-Sale (3)副本</title>
    <desc>Created with Sketch.</desc>
    <defs></defs>
    <g fill-rule="evenodd" fill="none" stroke-width="1" stroke="none" id="Page-1">
        <g transform="translate(1.000000, 2.000000)" id="Saint-Sale-(3)副本">
            <g stroke="#6E6E96" transform="translate(162.000000, 128.000000)" id="Group">
                <rect height="80.764" width="73.699" y="21.856" x="0.362" stroke-linejoin="round" stroke-linecap="round" fill-rule="nonzero" fill="#6EB6C7" stroke-width="3" id="Rectangle-path"></rect>
                <path stroke-linejoin="round" stroke-linecap="round" stroke-width="3" id="Shape" d="M20.562,31.488 L20.562,17.967 C20.562,8.577 28.172,0.967 37.562,0.967 C46.951,0.967 54.562,8.577 54.562,17.967 L54.562,31.488"></path>
                <g id="Shape" fill-rule="nonzero" transform="translate(11.000000, 55.000000)">
                    <g>
                        <path fill="#FFFFFF" d="M3.978,1.448 C3.143,1.956 2.508,2.661 2.093,3.545 C1.69,4.408 1.485,5.335 1.485,6.302 C1.485,7.781 1.893,9.024 2.699,9.99 C3.483,10.942 4.789,11.709 6.58,12.268 C7.813,12.644 8.209,12.96 8.334,13.118 C8.554,13.389 8.658,13.681 8.658,14.018 C8.658,14.376 8.549,14.685 8.322,14.956 C8.117,15.202 7.832,15.317 7.425,15.317 C6.863,15.317 6.455,15.061 6.146,14.51 C5.936,14.14 5.792,13.567 5.72,12.808 L5.67,12.315 L0.988,12.719 L1.017,13.204 C1.129,15.055 1.631,16.606 2.507,17.82 C3.425,19.094 5.058,19.742 7.357,19.742 C8.662,19.742 9.768,19.471 10.645,18.936 C11.526,18.398 12.219,17.603 12.707,16.573 C13.184,15.564 13.424,14.45 13.424,13.261 C13.424,12.241 13.24,11.307 12.881,10.478 C12.51,9.624 11.912,8.905 11.107,8.332 C10.557,7.942 9.691,7.567 8.668,7.194 C8.785,7.184 13.064,6.838 13.064,6.838 L13.019,6.336 C12.849,4.414 12.29,2.982 11.364,2.07 C10.427,1.151 9.073,0.684 7.337,0.684 C5.935,0.691 4.807,0.946 3.978,1.448 Z M7.31,6.726 C6.47,6.482 6.283,6.287 6.25,6.247 C6.129,6.102 6.076,5.968 6.076,5.809 C6.076,5.546 6.148,5.335 6.3,5.163 C6.35,5.105 6.496,4.935 6.946,4.935 C7.349,4.935 7.651,5.054 7.866,5.297 C8.112,5.574 8.277,6.062 8.362,6.738 C8.362,6.738 8.391,6.975 8.409,7.104 C8.04,6.983 7.739,6.854 7.31,6.726 Z"></path>
                        <path fill="#7FB8C7" d="M7.329,0.191 C5.842,0.191 4.626,0.469 3.718,1.021 C2.796,1.582 2.099,2.359 1.642,3.333 C1.204,4.265 0.986,5.263 0.986,6.303 C0.986,7.903 1.433,9.249 2.315,10.313 C2.829,10.935 3.515,11.469 4.394,11.926 L1.431,12.185 L0.456,12.269 L0.519,13.242 C0.638,15.187 1.169,16.828 2.103,18.12 C3.122,19.533 4.889,20.249 7.358,20.249 C8.754,20.249 9.95,19.954 10.905,19.371 C11.874,18.78 12.632,17.912 13.159,16.792 C13.667,15.717 13.923,14.531 13.923,13.271 C13.923,12.183 13.729,11.178 13.339,10.287 C12.934,9.351 12.277,8.559 11.398,7.935 C11.21,7.798 10.995,7.666 10.755,7.538 L12.601,7.39 L13.604,7.306 L13.515,6.302 C13.331,4.259 12.727,2.721 11.71,1.727 C10.677,0.706 9.204,0.191 7.329,0.191 Z M1.984,6.302 C1.984,5.405 2.171,4.559 2.546,3.758 C2.921,2.96 3.485,2.332 4.237,1.876 C4.989,1.42 6.02,1.19 7.331,1.19 C8.939,1.19 10.165,1.604 11.01,2.434 C11.856,3.26 12.358,4.578 12.518,6.385 L8.862,6.683 C8.764,5.899 8.559,5.329 8.245,4.973 C7.933,4.617 7.501,4.438 6.95,4.438 C6.497,4.438 6.155,4.572 5.925,4.836 C5.696,5.104 5.581,5.427 5.581,5.81 C5.581,6.086 5.675,6.335 5.864,6.56 C6.048,6.789 6.482,7.002 7.169,7.203 C7.441,7.285 7.702,7.367 7.95,7.449 C8.204,7.533 8.445,7.618 8.675,7.702 C9.61,8.048 10.322,8.395 10.821,8.746 C11.556,9.267 12.091,9.91 12.425,10.684 C12.761,11.454 12.927,12.316 12.927,13.269 C12.927,14.388 12.704,15.419 12.259,16.365 C11.815,17.311 11.192,18.027 10.392,18.516 C9.589,19.002 8.579,19.245 7.365,19.245 C5.226,19.245 3.745,18.675 2.921,17.531 C2.1,16.39 1.632,14.938 1.525,13.177 L5.228,12.857 C5.307,13.689 5.468,14.324 5.714,14.758 C6.116,15.464 6.689,15.818 7.431,15.818 C7.987,15.818 8.411,15.637 8.712,15.276 C9.014,14.915 9.163,14.496 9.163,14.019 C9.163,13.567 9.018,13.162 8.729,12.804 C8.44,12.446 7.775,12.108 6.735,11.788 C5.031,11.257 3.815,10.55 3.089,9.669 C2.351,8.79 1.984,7.666 1.984,6.302 Z M6.626,5.916 L6.624,5.914 C6.577,5.859 6.577,5.837 6.577,5.811 C6.577,5.632 6.628,5.549 6.68,5.493 C6.702,5.468 6.792,5.439 6.948,5.439 C7.323,5.439 7.441,5.575 7.493,5.631 C7.569,5.72 7.694,5.917 7.792,6.349 C7.683,6.315 7.568,6.28 7.454,6.245 C6.86,6.074 6.665,5.946 6.626,5.916 Z M7.421,14.818 C7.148,14.818 6.854,14.752 6.577,14.266 C6.456,14.054 6.296,13.619 6.212,12.76 L6.204,12.671 C6.278,12.695 6.353,12.721 6.432,12.743 C7.69,13.127 7.935,13.418 7.945,13.431 C8.091,13.613 8.157,13.791 8.157,14.018 C8.157,14.262 8.089,14.454 7.938,14.635 C7.888,14.696 7.786,14.818 7.421,14.818 Z"></path>
                    </g>
                    <g transform="translate(12.000000, 0.000000)">
                        <path fill="#FFFFFF" d="M5.956,0.996 L0.956,19.441 L5.983,19.441 C5.983,19.441 6.471,17.157 6.597,16.569 C7.198,16.569 9.602,16.569 10.2,16.569 C10.329,17.155 10.829,19.441 10.829,19.441 L15.948,19.441 L10.97,0.996 L5.956,0.996 Z M8.415,8.353 C8.764,9.929 9.042,11.199 9.175,11.799 C8.647,11.799 8.189,11.799 7.657,11.799 C7.79,11.198 8.069,9.929 8.415,8.353 Z"></path>
                        <path fill="#7FB8C7" d="M11.354,0.496 L10.585,0.496 L6.335,0.496 L5.571,0.496 L5.37,1.234 L0.641,18.678 L0.298,19.941 L1.606,19.941 L5.577,19.941 L6.388,19.941 L6.557,19.15 L7.001,17.069 L9.797,17.069 L10.253,19.155 L10.426,19.941 L11.232,19.941 L15.295,19.941 L16.603,19.941 L16.262,18.679 L11.554,1.235 L11.354,0.496 Z M1.609,18.941 L6.338,1.496 L10.588,1.496 L15.295,18.941 L11.232,18.941 L10.603,16.069 L6.195,16.069 L5.58,18.941 L1.609,18.941 Z M8.413,6.023 L7.036,12.299 L8.036,12.299 L8.06,12.299 L8.771,12.299 L8.794,12.299 L9.794,12.299 L8.413,6.023 Z M8.28,11.302 L8.415,10.684 L8.554,11.302 L8.28,11.302 Z"></path>
                    </g>
                    <g transform="translate(27.000000, 0.000000)">
                        <path fill="#FFFFFF" d="M1.04,0.996 L1.04,19.441 L11.993,19.441 L11.993,14.151 C11.993,14.151 6.772,14.151 5.93,14.151 C5.93,13.225 5.93,0.996 5.93,0.996 L1.04,0.996 Z"></path>
                        <path fill="#7FB8C7" d="M6.432,0.496 L5.432,0.496 L1.539,0.496 L0.539,0.496 L0.539,1.496 L0.539,18.941 L0.539,19.941 L1.539,19.941 L11.492,19.941 L12.492,19.941 L12.492,18.941 L12.492,14.651 L12.492,13.651 L11.492,13.651 L6.429,13.651 L6.429,1.496 L6.432,0.496 Z M1.54,1.496 L5.433,1.496 L5.433,13.651 L5.433,14.651 L6.433,14.651 L11.495,14.651 L11.495,18.941 L1.542,18.941 L1.54,1.496 Z"></path>
                    </g>
                    <g transform="translate(39.000000, 0.000000)">
                        <path fill="#FFFFFF" d="M0.76,0.996 L0.76,19.441 L12.355,19.441 L12.355,14.492 C12.355,14.492 6.507,14.492 5.652,14.492 C5.652,13.887 5.652,12.653 5.652,12.047 C6.495,12.047 11.7,12.047 11.7,12.047 L11.7,7.493 C11.7,7.493 6.495,7.493 5.652,7.493 C5.652,6.972 5.652,6.252 5.652,5.729 C6.505,5.729 12.169,5.729 12.169,5.729 L12.169,0.996 L0.76,0.996 Z"></path>
                        <path fill="#7FB8C7" d="M12.665,0.496 L11.665,0.496 L1.26,0.496 L0.26,0.496 L0.26,1.496 L0.26,18.941 L0.26,19.941 L1.26,19.941 L11.855,19.941 L12.855,19.941 L12.855,18.941 L12.855,14.992 L12.855,13.992 L11.855,13.992 L6.152,13.992 L6.152,12.548 L11.198,12.548 L12.198,12.548 L12.198,11.548 L12.198,7.993 L12.198,6.993 L11.198,6.993 L6.152,6.993 L6.152,6.23 L11.667,6.23 L12.667,6.23 L12.667,5.23 L12.667,1.496 L12.665,0.496 Z M1.26,1.496 L11.665,1.496 L11.665,5.23 L5.149,5.23 L5.149,6.23 L5.149,6.993 L5.149,7.993 L6.149,7.993 L11.196,7.993 L11.196,11.548 L5.149,11.548 L5.149,12.548 L5.149,13.992 L5.149,14.992 L6.149,14.992 L11.852,14.992 L11.852,18.941 L1.257,18.941 L1.26,1.496 Z"></path>
                    </g>
                </g>
            </g>
            <rect height="80.764" width="73.699" y="149.856" x="152.753" stroke-linejoin="round" stroke-linecap="round" fill-rule="nonzero" fill="#7BCDE0" stroke-width="3" stroke="#6E6E96" id="Rectangle-path"></rect>
            <path stroke-linejoin="round" stroke-linecap="round" stroke-width="3" stroke="#6E6E96" id="Shape" d="M172.952,159.488 L172.952,145.967 C172.952,136.577 180.563,128.967 189.952,128.967 C199.341,128.967 206.952,136.577 206.952,145.967 L206.952,159.488"></path>
            <g fill-rule="nonzero" transform="translate(163.000000, 183.000000)" id="Group">
                <g id="Shape">
                    <path fill="#FFFFFF" d="M4.368,1.448 C3.533,1.956 2.899,2.661 2.484,3.545 C2.08,4.408 1.875,5.335 1.875,6.302 C1.875,7.781 2.283,9.024 3.089,9.99 C3.873,10.942 5.18,11.709 6.971,12.268 C8.203,12.644 8.6,12.96 8.725,13.118 C8.944,13.389 9.048,13.681 9.048,14.018 C9.048,14.376 8.94,14.685 8.712,14.956 C8.507,15.202 8.223,15.317 7.816,15.317 C7.253,15.317 6.846,15.061 6.536,14.51 C6.326,14.14 6.182,13.567 6.11,12.808 L6.061,12.315 L1.378,12.719 L1.407,13.204 C1.52,15.055 2.022,16.606 2.898,17.82 C3.816,19.094 5.448,19.742 7.747,19.742 C9.052,19.742 10.158,19.471 11.035,18.936 C11.916,18.398 12.609,17.603 13.098,16.573 C13.574,15.564 13.815,14.45 13.815,13.261 C13.815,12.241 13.63,11.307 13.272,10.478 C12.901,9.624 12.302,8.905 11.497,8.332 C10.947,7.942 10.081,7.567 9.059,7.194 C9.175,7.184 13.455,6.838 13.455,6.838 L13.41,6.336 C13.24,4.414 12.682,2.982 11.755,2.07 C10.819,1.151 9.464,0.684 7.729,0.684 C6.325,0.691 5.197,0.946 4.368,1.448 Z M7.7,6.726 C6.86,6.482 6.673,6.287 6.641,6.247 C6.52,6.102 6.466,5.968 6.466,5.809 C6.466,5.546 6.538,5.335 6.691,5.163 C6.74,5.105 6.887,4.935 7.337,4.935 C7.74,4.935 8.042,5.054 8.257,5.297 C8.503,5.574 8.668,6.062 8.753,6.738 C8.753,6.738 8.782,6.975 8.8,7.104 C8.431,6.983 8.13,6.854 7.7,6.726 Z"></path>
                    <path fill="#7FB8C7" d="M7.72,0.191 C6.233,0.191 5.017,0.469 4.109,1.021 C3.187,1.582 2.489,2.359 2.032,3.333 C1.595,4.265 1.376,5.263 1.376,6.303 C1.376,7.903 1.823,9.249 2.705,10.313 C3.22,10.935 3.905,11.469 4.784,11.926 L1.821,12.185 L0.847,12.269 L0.909,13.242 C1.028,15.187 1.56,16.828 2.493,18.12 C3.513,19.533 5.279,20.249 7.748,20.249 C9.144,20.249 10.34,19.954 11.295,19.371 C12.265,18.78 13.023,17.912 13.549,16.792 C14.058,15.717 14.314,14.531 14.314,13.271 C14.314,12.183 14.119,11.178 13.73,10.287 C13.324,9.351 12.667,8.559 11.788,7.935 C11.6,7.798 11.385,7.666 11.146,7.538 L12.991,7.39 L13.994,7.306 L13.905,6.302 C13.722,4.259 13.117,2.721 12.101,1.727 C11.067,0.706 9.595,0.191 7.72,0.191 Z M2.375,6.302 C2.375,5.405 2.563,4.559 2.938,3.758 C3.313,2.96 3.876,2.332 4.628,1.876 C5.38,1.42 6.411,1.19 7.723,1.19 C9.33,1.19 10.557,1.604 11.402,2.434 C12.247,3.26 12.749,4.578 12.909,6.385 L9.253,6.683 C9.155,5.899 8.95,5.329 8.636,4.973 C8.324,4.617 7.893,4.438 7.341,4.438 C6.889,4.438 6.546,4.572 6.317,4.836 C6.088,5.104 5.973,5.427 5.973,5.81 C5.973,6.086 6.067,6.335 6.255,6.56 C6.44,6.789 6.873,7.002 7.561,7.203 C7.832,7.285 8.093,7.367 8.341,7.449 C8.595,7.533 8.836,7.618 9.067,7.702 C10.001,8.048 10.713,8.395 11.212,8.746 C11.947,9.267 12.483,9.91 12.816,10.684 C13.152,11.454 13.318,12.316 13.318,13.269 C13.318,14.388 13.094,15.419 12.65,16.365 C12.205,17.311 11.582,18.027 10.782,18.516 C9.98,19.002 8.969,19.245 7.755,19.245 C5.616,19.245 4.135,18.675 3.312,17.531 C2.49,16.39 2.023,14.938 1.916,13.177 L5.619,12.857 C5.698,13.689 5.86,14.324 6.106,14.758 C6.507,15.464 7.08,15.818 7.822,15.818 C8.378,15.818 8.802,15.637 9.104,15.276 C9.405,14.915 9.555,14.496 9.555,14.019 C9.555,13.567 9.409,13.162 9.12,12.804 C8.831,12.446 8.166,12.108 7.126,11.788 C5.422,11.257 4.206,10.55 3.48,9.669 C2.741,8.79 2.375,7.666 2.375,6.302 Z M7.017,5.916 L7.015,5.914 C6.967,5.859 6.967,5.837 6.967,5.811 C6.967,5.632 7.019,5.549 7.07,5.493 C7.092,5.468 7.183,5.439 7.338,5.439 C7.713,5.439 7.831,5.575 7.883,5.631 C7.959,5.72 8.084,5.917 8.183,6.349 C8.073,6.315 7.958,6.28 7.845,6.245 C7.251,6.074 7.056,5.946 7.017,5.916 Z M7.812,14.818 C7.538,14.818 7.244,14.752 6.967,14.266 C6.847,14.054 6.687,13.619 6.603,12.76 L6.595,12.671 C6.668,12.695 6.743,12.721 6.822,12.743 C8.08,13.127 8.325,13.418 8.335,13.431 C8.481,13.613 8.547,13.791 8.547,14.018 C8.547,14.262 8.48,14.454 8.328,14.635 C8.278,14.696 8.177,14.818 7.812,14.818 Z"></path>
                </g>
                <g id="Shape" transform="translate(12.000000, 0.000000)">
                    <path fill="#FFFFFF" d="M6.347,0.996 L1.347,19.441 L6.373,19.441 C6.373,19.441 6.861,17.157 6.987,16.569 C7.588,16.569 9.992,16.569 10.59,16.569 C10.72,17.155 11.22,19.441 11.22,19.441 L16.338,19.441 L11.36,0.996 L6.347,0.996 Z M8.806,8.353 C9.154,9.929 9.433,11.199 9.566,11.799 C9.037,11.799 8.579,11.799 8.047,11.799 C8.181,11.198 8.46,9.929 8.806,8.353 Z"></path>
                    <path fill="#7FB8C7" d="M11.745,0.496 L10.977,0.496 L6.727,0.496 L5.962,0.496 L5.762,1.234 L1.033,18.678 L0.691,19.941 L1.998,19.941 L5.969,19.941 L6.78,19.941 L6.949,19.15 L7.394,17.069 L10.19,17.069 L10.646,19.155 L10.819,19.941 L11.624,19.941 L15.687,19.941 L16.994,19.941 L16.653,18.679 L11.945,1.235 L11.745,0.496 Z M2,18.941 L6.729,1.496 L10.979,1.496 L15.686,18.941 L11.623,18.941 L10.994,16.069 L6.586,16.069 L5.972,18.941 L2,18.941 Z M8.804,6.023 L7.426,12.299 L8.426,12.299 L8.45,12.299 L9.161,12.299 L9.185,12.299 L10.185,12.299 L8.804,6.023 Z M8.671,11.302 L8.807,10.684 L8.945,11.302 L8.671,11.302 Z"></path>
                </g>
                <g id="Shape" transform="translate(27.000000, 0.000000)">
                    <path fill="#FFFFFF" d="M1.431,0.996 L1.431,19.441 L12.383,19.441 L12.383,14.151 C12.383,14.151 7.162,14.151 6.32,14.151 C6.32,13.225 6.32,0.996 6.32,0.996 L1.431,0.996 Z"></path>
                    <path fill="#7FB8C7" d="M6.822,0.496 L5.822,0.496 L1.93,0.496 L0.93,0.496 L0.93,1.496 L0.93,18.941 L0.93,19.941 L1.93,19.941 L11.882,19.941 L12.882,19.941 L12.882,18.941 L12.882,14.651 L12.882,13.651 L11.882,13.651 L6.819,13.651 L6.819,1.496 L6.822,0.496 Z M1.931,1.496 L5.823,1.496 L5.823,13.651 L5.823,14.651 L6.823,14.651 L11.885,14.651 L11.885,18.941 L1.933,18.941 L1.931,1.496 Z"></path>
                </g>
                <g id="Shape" transform="translate(39.000000, 0.000000)">
                    <path fill="#FFFFFF" d="M1.15,0.996 L1.15,19.441 L12.744,19.441 L12.744,14.492 C12.744,14.492 6.897,14.492 6.041,14.492 C6.041,13.887 6.041,12.653 6.041,12.047 C6.884,12.047 12.089,12.047 12.089,12.047 L12.089,7.493 C12.089,7.493 6.884,7.493 6.041,7.493 C6.041,6.972 6.041,6.252 6.041,5.729 C6.895,5.729 12.559,5.729 12.559,5.729 L12.559,0.996 L1.15,0.996 Z"></path>
                    <path fill="#7FB8C7" d="M13.056,0.496 L12.056,0.496 L1.65,0.496 L0.65,0.496 L0.65,1.496 L0.65,18.941 L0.65,19.941 L1.65,19.941 L12.244,19.941 L13.244,19.941 L13.244,18.941 L13.244,14.992 L13.244,13.992 L12.244,13.992 L6.541,13.992 L6.541,12.548 L11.587,12.548 L12.587,12.548 L12.587,11.548 L12.587,7.993 L12.587,6.993 L11.587,6.993 L6.541,6.993 L6.541,6.23 L12.057,6.23 L13.057,6.23 L13.057,5.23 L13.057,1.496 L13.057,0.496 L13.056,0.496 Z M1.65,1.496 L12.055,1.496 L12.055,5.23 L5.538,5.23 L5.538,6.23 L5.538,6.993 L5.538,7.993 L6.538,7.993 L11.585,7.993 L11.585,11.548 L5.538,11.548 L5.538,12.548 L5.538,13.992 L5.538,14.992 L6.538,14.992 L12.241,14.992 L12.241,18.941 L1.647,18.941 L1.65,1.496 Z"></path>
                </g>
            </g>
            <path stroke-linejoin="round" fill-rule="nonzero" fill="#FF7073" stroke-width="3" stroke="#6E6E96" id="Shape" d="M88.07,117.624 C83.938,117.624 80.054,120.031 76.676,124.253 C75.622,117.66 72.764,113.506 66.786,112.79 C51.845,111.006 15.922,155.144 15.284,158.909 C10.36,187.949 34.436,223.934 53.759,223.348 C62.348,223.087 67.445,220.162 70.357,208.205 C74.681,220.567 81.011,228.954 88.068,228.954 C107.704,228.954 124.418,197.589 124.418,168.138 C124.417,138.687 101.096,117.624 88.07,117.624 Z"></path>
            <path fill-rule="nonzero" fill="#FF7073" stroke-width="3" stroke="#6E6E96" id="Shape" d="M36.582,97.804 C36.582,97.804 10.082,113.841 6.293,146.39 C2.285,159.744 6.279,172.85 30.65,179.512 C80.252,193.064 155.369,183.961 138.162,151.349 C133.199,112.544 103.209,62.082 36.582,97.804 Z"></path>
            <path fill-rule="nonzero" fill="#FFFFFF" stroke-width="3" stroke="#6E6E96" id="Shape" d="M137.604,151.952 C131.541,162.589 111.729,168.719 88.451,170.146 C76.074,170.386 76.217,162.91 76.48,160.892 L88.232,130.568 L53.928,128.328 L57.09,160.772 C57.09,160.772 54.272,169.417 45.994,167.758 C40.303,166.766 34.754,165.496 29.495,163.948 C16.215,160.04 9.145,154.531 6.199,148.312 C-4.356,148.515 -1.191,172.613 29.793,179.513 C70.556,189.459 126.522,186.953 137.803,167.674 C142.88,163.174 142.425,147.678 137.604,151.952 Z"></path>
            <path opacity="0.15" fill-rule="nonzero" fill="#6E6E96" id="Shape" d="M141.202,154.253 C141.202,154.253 130.437,177.831 93.664,178.555 C56.892,179.279 1.1,173.165 1.1,152.224 C1.1,152.224 -4.15,185.106 65.584,185.106 C135.318,185.105 138.662,172.54 141.202,154.253 Z"></path>
            <path fill-rule="nonzero" fill="#FFFFFF" stroke-width="3" stroke="#6E6E96" id="Shape" d="M41.119,218.694 C41.119,218.694 29.734,217.756 39.346,208.141 C48.24,199.246 80.005,206.546 70.147,221.319 L41.119,218.694 Z"></path>
            <path fill-rule="nonzero" fill="#9797BA" stroke-width="3" stroke="#6E6E96" id="Shape" d="M70.523,223.933 C70.523,231.05 62.446,231.012 52.479,231.012 C42.515,231.012 34.437,231.05 34.437,223.933 C34.437,216.821 42.517,213.532 52.479,213.532 C62.446,213.531 70.523,216.82 70.523,223.933 Z"></path>
            <path fill-rule="nonzero" fill="#FFFFFF" stroke-width="3" stroke="#6E6E96" id="Shape" d="M77.344,218.47 C77.344,218.47 67.616,216.803 75.57,208.852 C86.321,198.1 116.228,206.32 106.376,221.094 L77.344,218.47 Z"></path>
            <path fill-rule="nonzero" fill="#9797BA" stroke-width="3" stroke="#6E6E96" id="Shape" d="M106.748,223.708 C106.748,230.825 98.671,230.786 88.709,230.786 C78.745,230.786 70.665,230.823 70.665,223.708 C70.665,216.592 78.743,213.307 88.709,213.307 C98.671,213.306 106.748,216.593 106.748,223.708 Z"></path>
            <path stroke-linecap="round" fill-rule="nonzero" fill="#FF7073" stroke-width="3" stroke="#6E6E96" id="Shape" d="M108.798,103.297 C106.301,97.092 98.882,98.589 91.385,116.341 C91.385,116.341 91.115,134.02 73.546,157.159 C71.38,160.014 74.08,165.266 77.501,166.283 C85.558,168.677 86.065,171.369 91.054,166.7 C92.299,165.918 96.106,164.192 98.249,162.09 C106.39,154.086 118.392,138.283 121.746,125.614"></path>
            <path fill-rule="nonzero" fill="#FFFFFF" stroke-width="3" stroke="#6E6E96" id="Shape" d="M77.131,163.873 L77.099,163.881 C78.057,163.593 86.614,161.382 91.391,172.274 C92.188,174.087 94.368,174.957 96.264,174.213 C98.156,173.468 99.048,171.397 98.254,169.58 C92.17,155.708 80.185,155.374 74.702,157.134 C72.762,157.758 71.73,159.771 72.401,161.633 C73.072,163.493 75.187,164.496 77.131,163.873 Z"></path>
            <path fill-rule="nonzero" fill="#FF7073" stroke="#6E6E96" id="Shape" d="M92.8,174.879 C93.111,173.447 91.855,173.568 89.54,172.116 C89.54,172.116 92.665,177.924 87.448,181.562 C83.546,184.272 90.841,183.87 92.8,174.879 Z"></path>
            <path fill-rule="nonzero" fill="#FF7073" stroke="#6E6E96" id="Shape" d="M79.997,165.088 C79.997,165.088 74.341,163.706 72.581,168.628 C71.122,172.712 70.467,158.945 79.997,165.088 Z"></path>
            <path stroke-linejoin="round" stroke-linecap="round" fill-rule="nonzero" fill="#FF7073" stroke-width="3" stroke="#6E6E96" id="Shape" d="M25.44,123.827 C26.295,133.107 35.236,154.226 36.296,155.283 C38.883,157.874 38.676,160.721 39.73,161.926 C42.73,167.913 44.475,165.292 53.331,165.217 C57.191,165.185 62.027,160.328 60.989,156.55 C52.57,125.93 59.408,106.658 59.408,106.658 C59.074,89.763 54.796,83.662 50.549,84.641 C51.919,83.085 53.611,82.04 55.483,81.475 C47.946,78.537 44.115,82.851 36.747,90.221"></path>
            <path fill-rule="nonzero" fill="#FFFFFF" stroke-width="3" stroke="#6E6E96" id="Shape" d="M56.931,162.236 L56.959,162.257 C56.106,161.641 48.366,156.564 39.171,166.896 C37.635,168.618 35.088,168.876 33.476,167.48 C31.861,166.081 31.798,163.551 33.332,161.828 C45.048,148.669 57.268,152.055 62.095,155.685 C63.804,156.969 64.032,159.481 62.608,161.287 C61.18,163.095 58.64,163.518 56.931,162.236 Z"></path>
            <path fill-rule="nonzero" fill="#FF7073" stroke="#6E6E96" id="Shape" d="M36.699,169.283 C36.961,167.626 38.18,168.15 41.097,167.303 C41.097,167.303 35.614,172.632 39.415,178.21 C42.258,182.373 35.061,179.654 36.699,169.283 Z"></path>
            <path fill-rule="nonzero" fill="#FF7073" stroke="#6E6E96" id="Shape" d="M53.551,162.659 C53.551,162.659 59.811,162.926 59.609,168.822 C59.437,173.712 65.635,158.971 53.551,162.659 Z"></path>
            <path fill-rule="nonzero" fill="#FF7073" stroke-width="3" stroke="#6E6E96" id="Shape" d="M65.954,167.287 C65.871,167.21 65.771,167.147 65.673,167.079 C65.547,166.806 65.4,166.551 65.23,166.321 C59.587,158.779 56.732,157.212 43.379,161.789 C35.994,164.317 34.464,173.41 39.663,180.852 C39.695,180.905 39.715,180.956 39.754,181.009 C39.776,181.033 39.804,181.062 39.826,181.091 C39.891,181.185 39.949,181.275 40.017,181.372 C40.331,181.792 40.723,182.149 41.173,182.452 C47.158,187.503 56.11,183.242 56.891,179.275 C57.741,174.981 58.122,180.167 63.95,177.419 C69.779,174.676 65.954,167.287 65.954,167.287 Z"></path>
            <path fill-rule="nonzero" fill="#FF7073" stroke-width="3" stroke="#6E6E96" id="Shape" d="M91.868,172.401 C91.366,170.849 90.363,168.507 88.778,167.408 C78.411,160.21 75.356,161.708 67.857,166.491 C67.64,166.63 67.432,166.793 67.237,166.978 C67.121,167.017 67,167.055 66.897,167.101 C66.897,167.101 61.065,172.227 65.339,175.99 C69.612,179.752 71.5,175.542 71.004,179.334 C70.281,184.887 85.647,198.774 93.91,175.772 C94.309,174.668 93.468,173.51 91.868,172.401 Z"></path>
            <path stroke-linejoin="round" stroke-linecap="round" stroke-width="3" stroke="#6E6E96" id="Shape" d="M70.361,209.14 L70.361,185.395"></path>
            <path fill-rule="nonzero" fill="#F5F5F5" stroke="#6E6E96" id="Shape" d="M111.082,52.591 C111.082,52.591 112.003,57.841 107.135,60.693 L104.885,56.885 L111.082,52.591 Z"></path>
            <path stroke-linejoin="round" stroke-linecap="round" fill-rule="nonzero" fill="#FF7073" stroke-width="3" stroke="#6E6E96" id="Shape" d="M131.906,31.099 C131.14,33.954 105.528,19.241 110.118,23.703 C117.276,30.665 112.529,37.997 110.082,44.791 C103.788,62.257 84.452,71.636 66.894,65.742 C49.336,59.848 40.2,40.912 46.492,23.447 C52.786,5.984 82.197,-8.217 105.348,6.56 C120.118,18.033 132.466,29.001 131.906,31.099 Z"></path>
            <path stroke-linejoin="round" stroke-linecap="round" fill-rule="nonzero" fill="#FFFFFF" stroke-width="3" stroke="#6E6E96" id="Shape" d="M119.266,98.313 C115.478,109.981 106.842,120.872 95.433,128.19 C105.731,103.009 92.19,144.087 54.953,136.634 C46.012,135.432 43.703,128.808 37.459,117.853 C45.068,142.337 29.97,123.593 21.952,113.228 C13.942,98.588 13.264,85.287 17.315,72.803 C24.885,49.463 46.096,28.476 80.486,37.655 C107.246,44.798 126.842,74.973 119.266,98.313 Z"></path>
            <g stroke="#6E6E96" transform="translate(36.000000, 41.000000)" id="Group">
                <path fill-rule="nonzero" fill="#FFBCAC" id="Shape" d="M7.532,35.84 C18.455,33.612 36.228,34.363 51.185,50.206 C51.75,50.818 52.311,51.368 52.864,51.882 C59.826,46.701 64.28,38.847 64.334,29.981 C64.431,14.001 50.217,0.795 32.586,0.481 C14.955,0.168 0.585,12.868 0.485,28.846 C0.465,31.827 0.948,34.713 1.856,37.436 C3.668,36.488 5.578,35.989 7.532,35.84 Z"></path>
                <path stroke-linejoin="round" stroke-linecap="round" stroke-width="3" id="Shape" d="M7.532,35.84 C18.455,33.612 36.228,34.363 51.185,50.206 C51.75,50.818 52.311,51.368 52.864,51.882 C59.826,46.701 64.28,38.847 64.334,29.981 C64.431,14.001 50.217,0.795 32.586,0.481 C14.955,0.168 0.585,12.868 0.485,28.846 C0.465,31.827 0.948,34.713 1.856,37.436 C3.668,36.488 5.578,35.989 7.532,35.84 Z"></path>
            </g>
            <path fill-rule="nonzero" fill="#6E6E96" id="Shape" d="M60.633,61.094 C60.188,63.034 58.167,64.243 56.117,63.796 C54.069,63.345 52.769,61.41 53.215,59.472 C53.659,57.532 55.683,56.325 57.732,56.769 C59.78,57.22 61.08,59.156 60.633,61.094 Z"></path>
            <path fill-rule="nonzero" fill="#6E6E96" id="Shape" d="M85.818,66.511 C85.348,68.555 83.222,69.826 81.063,69.358 C78.905,68.885 77.538,66.845 78.008,64.802 C78.471,62.758 80.604,61.484 82.761,61.956 C84.919,62.429 86.286,64.468 85.818,66.511 Z"></path>
            <path stroke-linejoin="round" stroke-linecap="round" fill-rule="nonzero" fill="#FF7073" stroke-width="3" stroke="#6E6E96" id="Shape" d="M79.692,98.858 C79.692,98.858 71.687,116.37 55.516,112.412 C49.835,111.642 46.242,103.611 42.334,92.672 L79.692,98.858 Z"></path>
            <path stroke-linejoin="round" stroke-linecap="round" fill-rule="nonzero" fill="#FFBCAC" stroke-width="3" stroke="#6E6E96" id="Shape" d="M75.295,80.232 C74.621,84.449 67.019,86.772 62.074,86.001 C57.132,85.233 53.666,81.193 54.339,76.975 C55.008,72.758 59.56,69.964 64.503,70.734 C69.447,71.498 75.967,76.017 75.295,80.232 Z"></path>
            <path stroke-linejoin="round" stroke-linecap="round" fill-rule="nonzero" fill="#FFFFFF" stroke-width="3" stroke="#6E6E96" id="Shape" d="M78.174,24.638 C102.354,29.772 119.647,44.33 116.797,57.156 C113.942,69.98 97.189,52.994 73.005,47.864 C48.825,42.73 26.369,51.393 29.221,38.572 C31.252,29.443 42.937,23.653 58.221,22.922 C58.221,22.921 70.343,22.572 78.174,24.638 Z"></path>
            <path stroke-linejoin="round" stroke-linecap="round" fill-rule="nonzero" fill="#FFFFFF" stroke-width="3" stroke="#6E6E96" id="Shape" d="M141.073,31.335 C141.045,36.604 136.515,40.796 130.974,40.693 C125.419,40.596 120.953,36.246 120.984,30.978 C121.011,25.71 125.541,21.519 131.088,21.615 C136.638,21.718 141.108,26.069 141.073,31.335 Z"></path>
            <path stroke-linejoin="round" stroke-linecap="round" fill-rule="nonzero" fill="#5E5E5E" stroke-width="3" stroke="#6E6E96" id="Shape" d="M110.035,22.655 L98.496,18.037"></path>
            <path opacity="0.15" fill-rule="nonzero" fill="#6E6E96" id="Shape" d="M31.77,33.221 C31.77,33.221 29.587,44.395 47.045,40.776 C64.505,37.16 93.688,42.429 101.3,48.818 C108.916,55.209 100.904,23.181 62.324,22.918 C23.744,22.654 90.809,16.261 103.345,27.887 C115.877,39.513 81.22,9.431 94.904,11.116 C108.588,12.803 121.998,24.9 111.398,11.345 L125.338,23.233 L121.53,27.964 L115.649,23.923 C115.649,23.923 109.377,21.642 113.717,30.01 C118.062,38.381 111.335,41.588 111.335,41.588 C111.335,41.588 120.772,60.587 112.665,61.783 C112.665,61.783 74.642,41.063 43.29,46.099 C43.289,46.099 23.323,49.312 31.77,33.221 Z"></path>
            <path opacity="0.1" fill-rule="nonzero" fill="#6E6E96" id="Shape" d="M50.708,45.37 C50.708,45.37 74.736,47.562 92.428,59.534 C92.428,59.534 97.01,77.666 81.293,85.821 L88.864,92.883 C88.864,92.883 106.954,75.933 96.875,56.505 C96.876,56.505 65.846,40.635 50.708,45.37 Z"></path>
            <path opacity="0.1" fill-rule="nonzero" fill="#6E6E96" id="Shape" d="M54.339,76.974 C54.339,76.974 75.678,84.569 66.805,71.32 C66.805,71.32 85.966,79.131 65.309,86.093 C65.309,86.092 51.972,84.443 54.339,76.974 Z"></path>
            <path opacity="0.15" fill-rule="nonzero" fill="#6E6E96" id="Shape" d="M49.972,108.826 C49.972,108.826 46.208,96.612 59.457,100.809 C72.704,105.007 75.917,106.957 66.765,111.705 L79.691,98.857 L42.332,92.67 L49.972,108.826 Z"></path>
            <path opacity="0.15" fill-rule="nonzero" fill="#6E6E96" id="Shape" d="M99.61,64.688 L109.679,67.878 C109.679,67.878 121.639,87.887 103.37,101.594 C85.101,115.302 63.028,148.107 37.14,109.494 C37.14,109.494 28.008,104.141 30.661,112.854 C30.661,112.854 22.144,107.551 15.734,90.812 C15.451,90.075 15.172,89.313 14.898,88.53 C8.421,69.985 15.927,121.645 39.016,129.579 L37.462,117.853 C37.462,117.853 49.533,164.105 97.745,120.896 L95.434,128.19 C95.434,128.19 136.535,101.002 112.668,61.784 L96.875,56.504 L99.61,64.688 Z"></path>
            <path opacity="0.15" fill-rule="nonzero" fill="#6E6E96" id="Shape" d="M91.012,160.302 C91.012,160.302 119.06,134.334 120.396,121.356 C121.732,108.38 132.898,138.694 98.25,169.581 C98.251,169.579 99.415,165.168 91.012,160.302 Z"></path>
            <path opacity="0.15" fill-rule="nonzero" fill="#6E6E96" id="Shape" d="M84.346,139.804 C84.346,139.804 100.201,126.386 98.347,132.893 C95.068,144.389 114.251,122.108 117.845,114.436 C117.845,114.436 131.513,124.88 127.828,143.764 C124.143,162.649 98.248,169.578 98.248,169.578 C98.248,169.578 132.061,166.719 138.99,150.561 C138.99,150.561 128.25,107.231 117.844,102.578 C117.844,102.578 110.713,122.551 95.431,128.189 L97.74,120.895 L88.31,130.325 L84.346,139.804 Z"></path>
            <path opacity="0.15" fill-rule="nonzero" fill="#6E6E96" id="Shape" d="M7.231,140.612 C7.231,140.612 25.178,158.74 27.674,152.502 C27.674,152.502 20.961,126.706 25.878,126.706 C25.878,126.706 32.229,155.014 37.908,157.502 L32.224,164.719 C32.224,164.719 7.786,157.562 6.198,148.314 L7.231,140.612 Z"></path>
            <path opacity="0.15" fill-rule="nonzero" fill="#6E6E96" id="Shape" d="M30.171,122.858 C30.171,122.858 37.589,152.689 42.46,154.623 L37.909,157.501 L25.879,126.705 C25.879,126.707 21.329,116.143 30.171,122.858 Z"></path>
            <path opacity="0.15" fill-rule="nonzero" fill="#6E6E96" id="Shape" d="M40.499,163.315 C40.499,163.315 37.971,178.399 48.267,176.527 C58.564,174.656 50.452,169.039 58.875,171.846 C67.298,174.655 65.955,167.286 65.955,167.286 C65.955,167.286 61.164,174.288 65.339,175.989 C65.339,175.989 60.262,180.434 57.456,177.629 C57.456,177.629 55.79,184.754 47.332,184.754 C38.872,184.755 30.74,173.074 40.499,163.315 Z"></path>
            <path opacity="0.15" fill-rule="nonzero" fill="#6E6E96" id="Shape" d="M103.955,183.193 C103.955,183.193 103.729,205.021 94.959,213.792 C94.959,213.792 106.336,216.015 106.336,221.092 C106.336,221.092 124.086,199.148 124.086,178.088 L103.955,183.193 Z"></path>
            <path opacity="0.15" fill-rule="nonzero" fill="#6E6E96" id="Shape" d="M52.143,183.797 C52.143,183.797 57.142,199.424 57.142,213.794 C57.142,213.794 67.496,216.542 70.084,221.465 C70.454,222.169 70.667,222.917 70.667,223.708 C70.667,230.037 70.264,185.105 70.264,185.105 L52.143,183.797 Z"></path>
            <path opacity="0.25" fill-rule="nonzero" fill="#6E6E96" id="Shape" d="M34.437,223.933 C34.437,223.933 61.372,230.037 61.372,220.677 C61.372,211.317 57.142,213.793 57.142,213.793 C57.142,213.793 71.246,213.168 70.665,223.709 C70.083,234.249 64.647,231.013 52.478,231.013 C40.311,231.014 34.437,231.404 34.437,223.933 Z"></path>
            <path opacity="0.25" fill-rule="nonzero" fill="#6E6E96" id="Shape" d="M70.474,222.999 C70.474,222.999 97.409,229.102 97.409,219.74 C97.409,210.383 93.179,212.859 93.179,212.859 C93.179,212.859 107.283,212.234 106.702,222.775 C106.121,233.315 100.686,230.078 88.516,230.078 C76.348,230.078 70.474,230.468 70.474,222.999 Z"></path>
            <path opacity="0.15" fill-rule="nonzero" fill="#6E6E96" id="Shape" d="M93.909,175.773 C95.297,172.493 87.672,166.984 84.46,164.851 C87.777,167.977 89.747,177.369 82.588,179.021 C74.475,180.893 81.651,170.911 73.845,172.478 C66.037,174.044 67.857,166.492 67.857,166.492 C59.589,177.272 71.003,179.335 71.003,179.335 C72.142,181.814 73.318,183.69 74.511,185.077 L70.265,185.109 L70.731,191.192 C85.764,201.356 93.909,184.93 93.909,184.93 L87.436,184.979 C90.727,181.87 93.183,177.487 93.909,175.773 Z M84.46,164.853 C84.017,164.436 83.554,164.126 83.083,163.966 C83.083,163.966 83.624,164.297 84.46,164.853 Z"></path>
            <path opacity="0.15" fill-rule="nonzero" fill="#6E6E96" id="Shape" d="M35.052,182.352 C35.052,182.352 42.183,195.172 53.884,190.14 L52.143,183.796 L35.052,182.352 Z"></path>
            <path opacity="0.15" fill-rule="nonzero" fill="#6E6E96" id="Shape" d="M32.73,132.249 C32.73,132.249 48.836,155.713 84.347,139.805 L88.312,130.326 C88.312,130.326 57.158,150.473 42.182,126.137 C42.182,126.137 39.043,133.988 30.17,122.859 L32.73,132.249 Z"></path>
            <path opacity="0.15" fill-rule="nonzero" fill="#6E6E96" id="Shape" d="M121.528,27.964 C121.528,27.964 121.219,36.79 130.306,34.77 C139.395,32.751 132.707,21.78 132.707,21.78 C132.707,21.78 147.238,28.874 138.452,37.659 C129.666,46.448 119.617,40.545 121.528,27.964 Z"></path>
            <rect height="11.333" width="83.309" y="219.287" x="152.753" opacity="0.15" fill-rule="nonzero" fill="#6E6E96" id="Rectangle-path"></rect>
        </g>
    </g>
</svg>