<svg xmlns:xlink="http://www.w3.org/1999/xlink" xmlns="http://www.w3.org/2000/svg" version="1.1" viewBox="0 0 190 242" height="242px" width="190px">
    
    <title>Saint副本</title>
    <desc>Created with Sketch.</desc>
    <defs></defs>
    <g fill-rule="evenodd" fill="none" stroke-width="1" stroke="none" id="Page-1">
        <g transform="translate(1.000000, 2.000000)" id="Saint副本">
            <path fill-rule="nonzero" fill="#FF7073" stroke-width="3" stroke="#6E6E96" id="Shape" d="M116.429,108.552 C112.825,108.552 109.385,110.127 106.227,112.965 C102.229,107.206 97.226,103.573 91.495,102.889 C73.989,100.795 47.099,125.764 42.884,160.018 C38.67,194.271 58.727,224.847 76.232,226.939 C83.58,227.818 90.94,223.72 97.326,216.154 C102.291,226.896 109.016,233.508 116.43,233.508 C131.695,233.508 152.162,205.535 152.162,171.029 C152.161,136.525 131.694,108.552 116.429,108.552 Z"></path>
            <path fill-rule="nonzero" fill="#FF7073" stroke-width="3" stroke="#6E6E96" id="Shape" d="M65.627,101.031 C65.627,101.031 -18.911,144.942 39.717,178.179 C87.291,205.148 166.809,212.084 157.344,170.796 C147.878,129.508 143.129,75.554 65.627,101.031 Z"></path>
            <path fill-rule="nonzero" fill="#FFFFFF" stroke-width="3" stroke="#6E6E96" id="Shape" d="M157.496,172.525 C148.58,183.295 126.671,185.733 102.378,181.987 C89.593,179.4 91.623,170.88 92.401,168.634 L105.315,135.118 L86.319,128.16 L72.503,164.014 C72.503,164.014 67.425,173.253 59.334,169.445 C53.732,166.991 48.35,164.259 43.333,161.271 C30.668,153.732 24.788,145.793 23.331,137.998 C12.428,135.793 12.408,164.727 39.719,179.145 C79.116,199.943 137.283,210.007 153.742,190.555 C160.088,186.583 163.531,168.75 157.496,172.525 Z"></path>
            <path fill-rule="nonzero" fill="#FFFFFF" stroke-width="3" stroke="#6E6E96" id="Shape" d="M61.421,223.427 C61.421,223.427 47.894,215.45 59.346,208.929 C71.942,201.754 106.98,209.19 95.436,226.499 L61.421,223.427 Z"></path>
            <path fill-rule="nonzero" fill="#9696B5" stroke-width="3" stroke="#6E6E96" id="Shape" d="M95.872,229.563 C95.872,237.9 86.407,237.856 74.731,237.856 C63.057,237.856 53.592,237.901 53.592,229.563 C53.592,221.226 63.057,214.468 74.731,214.468 C86.407,214.469 95.872,221.227 95.872,229.563 Z"></path>
            <path fill-rule="nonzero" fill="#FFFFFF" stroke-width="3" stroke="#6E6E96" id="Shape" d="M103.865,223.162 C103.865,223.162 90.423,216.564 101.788,209.892 C114.384,202.496 149.422,208.924 137.879,226.235 L103.865,223.162 Z"></path>
            <path fill-rule="nonzero" fill="#9696B5" stroke-width="3" stroke="#6E6E96" id="Shape" d="M138.316,229.299 C138.316,237.637 128.85,237.594 117.176,237.594 C105.502,237.594 96.037,237.638 96.037,229.299 C96.037,220.963 105.502,214.204 117.176,214.204 C128.85,214.204 138.316,220.963 138.316,229.299 Z"></path>
            <path fill-rule="nonzero" fill="#CFC8BB" stroke="#6E6E96" id="Shape" d="M170.968,171.799 C170.968,171.799 175.829,173.349 173.739,176.528 C173.74,176.528 178.8,173.852 170.968,171.799 Z"></path>
            <path stroke-linejoin="round" stroke-linecap="round" fill-rule="nonzero" fill="#FF7073" stroke-width="3" stroke="#6E6E96" id="Shape" d="M133.673,139.531 C139.777,146.898 149.064,160.828 155.461,182.98 C156.732,187.376 164.1,188.923 167.704,186.395 C175.978,180.585 179.149,181.999 178.395,174.132 C178.616,172.577 178.48,170.473 178.001,167.403 C177.923,166.757 177.836,166.079 177.731,165.343 C177.484,163.573 177.062,161.745 176.518,159.882 C168.499,125.679 146.145,110.778 138.756,101.824 C131.244,92.72 121.439,97.803 116.171,105.691 C118.248,105.001 120.442,104.901 122.637,105.523"></path>
            <path fill-rule="nonzero" fill="#FFFFFF" stroke-width="3" stroke="#6E6E96" id="Shape" d="M159.272,180.352 L159.257,180.394 C159.687,179.226 163.876,169.105 178.532,173.126 C180.974,173.796 183.499,172.359 184.17,169.915 C184.84,167.474 183.402,164.948 180.959,164.277 C162.288,159.153 152.934,170.591 150.598,177.356 C149.771,179.751 151.041,182.363 153.437,183.189 C155.832,184.019 158.445,182.748 159.272,180.352 Z"></path>
            <path fill-rule="nonzero" fill="#FF7073" stroke-width="3" stroke="#6E6E96" id="Shape" d="M183.558,176.076 C183.559,176.077 183.559,176.077 183.56,176.077 C183.56,176.077 181.293,167.805 167.753,172.337 C157.713,175.697 156.165,181.334 156.036,184.025 C155.446,186.074 155.165,188.506 154.954,191.501 C154.931,191.837 154.943,192.184 154.988,192.53 C154.94,192.662 154.884,192.793 154.852,192.926 C154.852,192.926 155.667,202.709 162.706,201.537 C169.747,200.363 166.887,195.165 170.365,198.672 C174.89,203.235 185.971,197.295 186.841,191.363 C187.086,190.76 187.243,190.141 187.286,189.514 C187.674,184.035 186.185,179.241 183.558,176.076 Z"></path>
            <path stroke-linejoin="round" stroke-linecap="round" fill-rule="nonzero" fill="#FF7073" stroke-width="3" stroke="#6E6E96" id="Shape" d="M91.066,96.803 C93.494,96.809 95.72,97.497 97.663,98.713 C94.442,89.798 85.769,82.318 75.501,88.928 C65.398,95.429 38.243,103.521 20.454,133.824 C19.374,135.446 18.43,137.068 17.682,138.68 C17.372,139.349 17.093,139.968 16.833,140.558 C15.482,143.347 14.757,145.309 14.55,146.845 C11.582,154.11 15.238,153.624 22.133,161.379 C25.138,164.759 33.152,165.281 35.684,161.453 C44.646,147.899 53.942,138.581 61.571,132.385"></path>
            <path fill-rule="nonzero" fill="#FFFFFF" stroke-width="3" stroke="#6E6E96" id="Shape" d="M32.496,157.928 L32.499,157.97 C32.383,156.742 30.895,146 14.69,145.853 C11.988,145.83 9.794,143.78 9.784,141.281 C9.775,138.778 11.957,136.77 14.66,136.795 C35.302,136.984 41.738,150.375 42.256,157.432 C42.44,159.931 40.403,162.067 37.709,162.203 C35.013,162.339 32.678,160.425 32.496,157.928 Z"></path>
            <path fill-rule="nonzero" fill="#FF7073" stroke-width="3" stroke="#6E6E96" id="Shape" d="M26.004,148.02 C13.335,140.052 8.694,147.292 8.694,147.292 C8.696,147.292 8.699,147.292 8.702,147.292 C5.241,149.505 2.448,153.448 1.241,158.495 C1.238,158.507 1.231,158.516 1.229,158.527 C1.227,158.539 1.227,158.548 1.225,158.559 C1.187,158.72 1.145,158.877 1.111,159.039 C0.982,159.641 0.969,160.265 1.05,160.895 C1.206,170.068 11.867,174.68 15.968,172.312 C20.412,169.749 16.133,174.083 23.051,177.106 C29.967,180.124 33.535,171.057 33.535,171.057 C33.542,170.925 33.514,170.786 33.501,170.654 C33.647,170.332 33.759,170.005 33.83,169.676 C34.448,166.775 34.837,164.388 34.803,162.282 C35.419,159.697 35.397,153.927 26.004,148.02 Z"></path>
            <path opacity="0.15" fill-rule="nonzero" fill="#6E6E96" id="Shape" d="M1.241,158.496 C1.241,158.496 10.724,173.774 18.364,160.897 C18.364,160.897 27.822,171.927 30.614,151.177 C30.614,151.177 36.367,152.491 34.934,161.573 C33.501,170.655 24.389,185.384 17.626,170.655 C17.627,170.656 -2.382,174.564 1.241,158.496 Z"></path>
            <path opacity="0.15" fill-rule="nonzero" fill="#6E6E96" id="Shape" d="M163.131,174.337 C163.131,174.337 154.277,138.484 136.829,130.454 C145.968,122.5 150.464,114.313 150.464,114.313 L148.864,112.928 L49.798,103.151 C49.798,103.151 50.511,113.438 56.829,123.847 C47.061,127.84 33.406,142.304 33.406,142.304 C29.617,146.093 30.614,151.178 30.614,151.178 C35.224,154.335 34.934,161.574 34.934,161.574 C36.004,165.717 41.772,159.712 41.772,159.712 L46.791,163.259 L62.197,140.761 L63.03,139.928 C64.719,138.239 66.073,136.784 67.113,135.496 C73.088,140.162 81.095,143.792 91.863,144.928 C104.616,146.274 115.239,143.557 123.782,139.264 C123.786,139.267 141.38,153.401 142.371,181.286 L150.597,177.357 C150.597,177.357 153.163,184.86 156.035,184.025 C156.035,184.025 148.829,205.456 167.835,198.41 C167.835,198.41 186.667,205.814 186.667,182.371 C186.668,182.371 160.898,198.246 163.131,174.337 Z"></path>
            <path fill-rule="nonzero" fill="#F5F5F5" stroke="#6E6E96" id="Shape" d="M150.785,53.922 C150.785,53.922 151.308,59.349 146.121,61.874 L144.127,57.811 L150.785,53.922 Z"></path>
            <path stroke-linejoin="round" stroke-linecap="round" fill-rule="nonzero" fill="#FF7073" stroke-width="3" stroke="#6E6E96" id="Shape" d="M173.72,33.64 C172.714,36.493 147.751,19.464 152.077,24.377 C158.83,32.045 153.412,39.149 150.38,45.888 C142.584,63.206 122.12,71.25 104.677,63.854 C87.229,56.456 79.404,36.42 87.199,19.099 C94.993,1.782 134.711,-6.073 148.565,6.514 C162.727,19.383 174.457,31.544 173.72,33.64 Z"></path>
            <path stroke-linejoin="round" stroke-linecap="round" fill-rule="nonzero" fill="#FFFFFF" stroke-width="3" stroke="#6E6E96" id="Shape" d="M155.529,101.206 C150.749,112.811 141.079,123.239 128.861,129.804 C141.356,104.93 124.303,145.766 86.907,135.229 C77.881,133.295 73.715,126.022 68.21,114.354 C74.044,139.933 60.117,119.618 52.756,108.412 C45.738,92.849 46.095,79.229 51.211,66.814 C60.774,43.604 86.395,24.2 120.753,36.276 C147.486,45.671 165.094,77.997 155.529,101.206 Z"></path>
            <g stroke="#6E6E96" transform="translate(73.000000, 39.000000)" id="Group">
                <path fill-rule="nonzero" fill="#FFBCAC" id="Shape" d="M6.969,34.332 C18.286,32.922 36.358,35.09 50.364,52.429 C50.895,53.097 51.423,53.701 51.945,54.273 C59.457,49.534 64.62,41.876 65.374,32.835 C66.73,16.543 53.27,1.952 35.313,0.241 C17.352,-1.467 1.691,10.354 0.334,26.645 C0.081,29.686 0.344,32.666 1.056,35.517 C2.975,34.689 4.964,34.332 6.969,34.332 Z"></path>
                <path stroke-linejoin="round" stroke-linecap="round" stroke-width="3" id="Shape" d="M6.969,34.332 C18.286,32.922 36.358,35.09 50.364,52.429 C50.895,53.097 51.423,53.701 51.945,54.273 C59.457,49.534 64.62,41.876 65.374,32.835 C66.73,16.543 53.27,1.952 35.313,0.241 C17.352,-1.467 1.691,10.354 0.334,26.645 C0.081,29.686 0.344,32.666 1.056,35.517 C2.975,34.689 4.964,34.332 6.969,34.332 Z"></path>
            </g>
            <path fill-rule="nonzero" fill="#6E6E96" id="Shape" d="M98.654,58.621 C98.048,60.564 95.89,61.639 93.836,61.02 C91.78,60.401 90.608,58.324 91.216,56.379 C91.822,54.436 93.981,53.362 96.035,53.98 C98.089,54.6 99.262,56.677 98.654,58.621 Z"></path>
            <path fill-rule="nonzero" fill="#6E6E96" id="Shape" d="M123.916,66.13 C123.274,68.179 121.004,69.31 118.842,68.658 C116.677,68.006 115.441,65.818 116.079,63.771 C116.719,61.724 118.993,60.591 121.154,61.243 C123.323,61.895 124.556,64.083 123.916,66.13 Z"></path>
            <path stroke-linejoin="round" stroke-linecap="round" stroke-width="3" stroke="#6E6E96" id="Shape" d="M105.817,95.963 C105.817,95.963 94.623,104.633 87.409,92.49"></path>
            <path stroke-linejoin="round" stroke-linecap="round" fill-rule="nonzero" fill="#FFBCAC" stroke-width="3" stroke="#6E6E96" id="Shape" d="M112.103,79.297 C111.084,83.545 103.144,85.314 98.163,84.139 C93.181,82.965 89.966,78.571 90.983,74.323 C92,70.075 96.861,67.583 101.842,68.757 C106.824,69.927 113.119,75.05 112.103,79.297 Z"></path>
            <path stroke-linejoin="round" stroke-linecap="round" fill-rule="nonzero" fill="#FFFFFF" stroke-width="3" stroke="#6E6E96" id="Shape" d="M119.417,22.815 C143.678,29.957 160.172,46.169 156.253,59.029 C152.331,71.887 136.58,53.239 112.317,46.098 C88.054,38.954 64.465,46.023 68.384,33.166 C71.175,24.016 83.551,19.03 99.201,19.489"></path>
            <path stroke-linejoin="round" stroke-linecap="round" fill-rule="nonzero" fill="#FFFFFF" stroke-width="3" stroke="#6E6E96" id="Shape" d="M182.055,32.604 C181.61,37.976 176.662,41.895 171.013,41.356 C165.36,40.817 161.143,36.028 161.591,30.657 C162.039,25.285 166.984,21.368 172.634,21.904 C178.288,22.443 182.506,27.235 182.055,32.604 Z"></path>
            <path stroke-linejoin="round" stroke-linecap="round" fill-rule="nonzero" fill="#5E5E5E" stroke-width="3" stroke="#6E6E96" id="Shape" d="M152.077,23.303 L140.67,17.685"></path>
            <path opacity="0.1" fill-rule="nonzero" fill="#6E6E96" id="Shape" d="M81.479,21.771 C81.479,21.771 68.823,34.427 81.479,34.427 C94.135,34.427 128.615,35.677 144.865,51.927 C144.865,51.927 162.179,56.639 126.188,25.117 C126.188,25.117 156.253,35.13 156.253,59.029 C156.253,59.029 158.032,68.608 130.448,53.768 C102.864,38.928 60.57,48.281 69.217,31.104 L81.479,21.771 Z"></path>
            <path opacity="0.15" fill-rule="nonzero" fill="#6E6E96" id="Shape" d="M163.371,25.933 L140.67,11.427 C140.67,11.427 126.863,8.233 133.767,18.33 C140.671,28.427 121.819,23.561 121.819,23.561 C121.819,23.561 152.865,35.927 152.865,42.427 C152.865,42.427 160.291,30.827 152.078,24.377 L161.592,30.656 L163.371,25.933 Z"></path>
            <path opacity="0.1" fill-rule="nonzero" fill="#6E6E96" id="Shape" d="M162.223,28.98 C162.223,28.98 166.917,37.875 171.365,33.427 C175.813,28.979 172.635,21.904 172.635,21.904 C172.635,21.904 182.067,26.743 182.067,31.335 C182.067,35.927 165.081,50.533 162.223,28.98 Z"></path>
            <path opacity="0.15" fill-rule="nonzero" fill="#6E6E96" id="Shape" d="M72.395,40.36 C72.395,40.36 77.183,49.477 114.053,56.349 C131.756,59.649 151.401,67.927 149.915,83.376 C147.878,104.56 128.364,121.927 130.864,109.927 C133.364,97.927 97.864,145.427 82.864,125.427 C67.864,105.427 61.864,104.649 61.864,111.427 C61.864,118.205 42.782,93.72 49.823,70.574 C49.823,70.574 36.797,107.269 69.33,125.673 L69.33,114.928 C69.33,114.928 81.446,159.516 132.405,121.972 L128.86,129.804 C128.86,129.804 174.622,102.39 151.741,63.541 C151.741,63.541 119.425,40.36 72.395,40.36 Z"></path>
            <path opacity="0.15" fill-rule="nonzero" fill="#6E6E96" id="Shape" d="M46.791,163.259 C46.791,163.259 34.698,169.595 41.698,173.928 C48.698,178.261 126.143,208.039 152.365,182.928 L156.037,184.026 L153.743,190.557 C153.743,190.557 138.279,206.238 101.489,199.416 C64.698,192.595 31.842,174.05 31.842,174.05 L34.935,161.574 L41.773,159.712 L46.791,163.259 Z"></path>
            <path opacity="0.15" fill-rule="nonzero" fill="#6E6E96" id="Shape" d="M94.986,145.171 C94.986,145.171 72.154,175.367 100.926,181.648 C100.926,181.648 91.365,180.594 93.031,167.261 C94.697,153.928 101.435,145.189 101.435,145.189 L94.986,145.171 Z"></path>
            <path opacity="0.15" fill-rule="nonzero" fill="#6E6E96" id="Shape" d="M91.325,73.3 C91.325,73.3 85.659,103.332 115.824,83.775 L112.102,79.296 C112.102,79.296 111.552,75.208 109.185,72.84 C109.185,72.84 108.432,80.127 101.898,80.127 C95.364,80.127 91.325,73.3 91.325,73.3 Z"></path>
            <path opacity="0.15" fill-rule="nonzero" fill="#6E6E96" id="Shape" d="M88.577,197.744 C88.577,197.744 100.404,207.404 94.604,213.202 C93.535,214.27 97.493,214.188 97.493,214.188 C99.365,210.26 112.86,206.908 117.689,206.908 C124.579,207.698 126.151,209.517 126.014,211.34 C125.878,213.161 124.026,214.985 117.176,214.204 C117.176,214.204 133.394,215.543 137.879,226.235 C137.879,226.235 140.861,222.19 139.37,216.225 C139.37,216.225 148.03,200.927 149.364,194.927 C149.365,194.927 126.365,206.427 88.577,197.744 Z"></path>
            <path opacity="0.15" fill-rule="nonzero" fill="#6E6E96" id="Shape" d="M72.034,206.214 C72.034,206.214 85.006,208.619 82.364,211.261 C79.722,213.903 68.18,215.212 68.18,215.212 C68.18,215.212 88.84,211.07 95.435,226.499 C95.436,226.499 107.37,211.833 72.034,206.214 Z"></path>
            <path opacity="0.25" fill-rule="nonzero" fill="#6E6E96" id="Shape" d="M77.06,214.814 C77.06,214.814 87.668,219.26 82.364,227.927 C77.06,236.594 51.044,230.899 55.037,224.079 C55.037,224.079 46.98,237.704 66.005,237.704 C85.03,237.704 95.435,238.593 95.435,230.26 C95.435,221.927 87.089,216.368 77.06,214.814 Z"></path>
            <path opacity="0.25" fill-rule="nonzero" fill="#6E6E96" id="Shape" d="M121.06,214.48 C121.06,214.48 131.669,218.926 126.365,227.593 C121.061,236.26 95.045,230.565 99.039,223.745 C99.039,223.745 90.981,237.37 110.007,237.37 C129.033,237.37 139.437,238.259 139.437,229.926 C139.437,221.593 131.089,216.034 121.06,214.48 Z"></path>
        </g>
    </g>
</svg>