<svg xmlns:xlink="http://www.w3.org/1999/xlink" xmlns="http://www.w3.org/2000/svg" version="1.1" viewBox="0 0 233 238" height="238px" width="233px">
    
    <title>Saint-in-bag (4)副本</title>
    <desc>Created with Sketch.</desc>
    <defs></defs>
    <g fill-rule="evenodd" fill="none" stroke-width="1" stroke="none" id="Page-1">
        <g transform="translate(0.000000, 2.000000)" id="Saint-in-bag-(4)副本">
            <circle r="114.75" cy="119.841" cx="115.531" opacity="0.25" fill-rule="nonzero" fill="#7FD8FF" id="Oval"></circle>
            <ellipse ry="17.585" rx="85.366" cy="216.097" cx="112.347" fill-rule="nonzero" fill="#D95F62" stroke-width="3" stroke="#6E6E96" id="Oval"></ellipse>
            <path fill-rule="nonzero" fill="#FF7073" stroke-width="3" stroke="#6E6E96" id="Shape" d="M111.361,231.095 C61.502,224.221 10.795,206.774 11.64,193.233 C12.726,175.83 59.135,164.56 115.295,168.065 C171.457,171.572 216.104,188.522 215.017,205.927 C213.932,223.333 167.522,234.6 111.361,231.095"></path>
            <path fill-rule="nonzero" fill="#FF7073" stroke-width="3" stroke="#6E6E96" id="Shape" d="M223.453,180.911 C222.701,193.896 192.316,213.706 104.89,202.251 C53.973,193.628 21.402,180.352 22.153,167.362 C22.905,154.378 68.579,146.881 124.168,150.621 C179.752,154.36 224.205,167.924 223.453,180.911 Z"></path>
            <path fill-rule="nonzero" fill="#C96769" stroke-width="3" stroke="#6E6E96" id="Shape" d="M122.121,160.871 C76.642,156.494 38.079,161.392 37.218,171.812 C37.139,172.763 38.375,173.725 38.893,174.696 C53.127,183.639 83.251,191.741 118.556,195.136 C155.525,198.696 184.754,197.095 199.401,190.344 C199.672,189.8 202.851,188.241 202.899,187.661 C210.543,173.672 167.594,165.247 122.121,160.871 Z"></path>
            <g transform="translate(8.000000, 0.000000)" id="Group">
                <path fill-rule="nonzero" fill="#FF7073" stroke-width="3" stroke="#6E6E96" id="Shape" d="M171.566,117.306 C159.286,88.093 131.072,66.598 77.76,85.043 C77.76,85.043 46.031,97.911 36.197,132.769 C29.484,146.641 31.552,161.643 56.984,173.179 C108.749,196.658 217.302,190.39 179.254,161.265 C166.397,146.142 165.685,130.412 171.566,117.306 Z"></path>
                <path fill-rule="nonzero" fill="#FFFFFF" stroke-width="3" stroke="#6E6E96" id="Shape" d="M178.536,161.827 C170.058,172.371 147.364,175.595 121.705,173.081 C108.153,171.173 109.616,163.039 110.256,160.884 L113.099,126.718 L92.055,122.835 L89.117,157.359 C89.117,157.359 87.824,166.299 75.784,163.043 C69.746,160.961 63.912,158.605 58.444,155.994 C44.631,149.403 37.883,142.151 35.756,134.85 C24.2,133.224 23.437,160.079 56.046,173.032 C90.193,190.326 155.616,200.832 184.482,176.29 C190.814,172.264 184.547,158.005 178.536,161.827 Z"></path>
                <path stroke-linecap="round" fill-rule="nonzero" fill="#FF7073" stroke-width="3" stroke="#6E6E96" id="Shape" d="M145.621,142.244 C160.661,143.419 175.169,136.39 186.963,130.589 C190.064,129.063 193.384,125.579 194.71,124.524 C201.68,120.881 198.944,119.306 199.413,109.639 C199.609,105.54 194.928,100.607 191.005,101.874 C159.18,112.161 123.514,95.086 123.514,95.086 C101.374,96.479 113.284,114.614 119.076,119.688"></path>
                <path fill-rule="nonzero" fill="#FFFFFF" stroke-width="3" stroke="#6E6E96" id="Shape" d="M197.285,102.542 C198.703,100.666 198.419,97.985 196.651,96.549 C194.885,95.11 192.306,95.467 190.89,97.336 C186.89,102.625 182.693,115.771 195.455,127.655 C197.122,129.211 199.715,129.033 201.247,127.258 C202.772,125.483 202.659,122.782 200.988,121.226 C190.97,111.895 196.63,103.441 197.309,102.51 L197.285,102.542 Z"></path>
                <path opacity="0.15" fill-rule="nonzero" fill="#6E6E96" id="Shape" d="M170.49,137.97 L192.743,124.811 L188.901,118.871 C188.901,118.871 169.049,122.967 153.222,128.134 C169.959,117.4 171.666,105.108 171.666,105.108 L168.639,102.079 L60.95,79.243 C60.95,79.243 62.91,121.001 68.899,115.013 C74.249,109.664 69.366,141.744 103.898,142.163 C102.317,145.488 92.67,171.527 121.707,173.081 C158.748,175.061 178.539,161.828 178.539,161.828 C178.539,161.828 168.414,149.382 168.414,138.716 L170.49,137.97 Z M165.423,159.87 C165.423,159.87 119.43,175.768 119.43,159.87 C119.43,143.971 118.01,140.848 118.01,140.848 C124.531,139.663 130.256,138.178 135.295,136.492 C135.286,136.504 127.388,151.921 150.091,147.947 C172.802,143.971 165.423,159.87 165.423,159.87 Z"></path>
                <path fill-rule="nonzero" fill="#FF7073" stroke-width="3" stroke="#6E6E96" id="Shape" d="M203.836,125.3 C231.97,125.069 222.722,103.092 216.415,101.766 C212.11,100.863 217.397,100.417 214.936,94.339 C212.476,88.264 204.688,92.651 204.688,92.651 C204.601,92.747 204.512,92.866 204.426,92.975 C204.15,93.117 203.894,93.282 203.656,93.465 C195.608,99.793 193.839,102.897 197.714,116.897 C198.306,119.04 199.451,120.662 200.948,121.797 C201.542,123.958 202.483,125.311 203.836,125.3 Z"></path>
                <path stroke-linecap="round" stroke-width="3" stroke="#6E6E96" id="Shape" d="M214.662,100.895 C214.662,100.895 211.741,108.532 204.723,106.675"></path>
                <path stroke-linecap="round" fill-rule="nonzero" fill="#FF7073" stroke-width="3" stroke="#6E6E96" id="Shape" d="M96.377,113.817 C104.218,111.888 111.747,94.72 91.807,82.734 C91.807,82.734 62.682,87.447 38.021,62.507 C34.98,59.434 28.244,61.766 26.444,65.677 C22.213,74.899 18.908,75.048 23.635,81.802 C24.358,83.425 25.769,88.271 27.918,91.186 C36.097,102.281 46.31,113.941 60.88,120.106"></path>
                <path fill-rule="nonzero" fill="#FF7073" stroke-width="3" stroke="#6E6E96" id="Shape" d="M19.142,76.254 C21.081,75.92 22.934,74.96 24.518,73.253 C34.888,62.091 34.733,58.344 30.301,48.572 C30.168,48.286 30.007,48.011 29.82,47.745 C29.794,47.601 29.77,47.449 29.731,47.316 C29.731,47.316 24.601,39.471 19.378,43.939 C14.15,48.406 18.861,51.376 14.415,50.138 C7.901,48.325 -11.314,64.321 14.765,78.116 C16.019,78.779 17.545,77.978 19.142,76.254 Z"></path>
                <path stroke-linecap="round" stroke-width="3" stroke="#6E6E96" id="Shape" d="M16.469,50.174 C16.469,50.174 15.499,58.693 22.932,60.353"></path>
                <path fill-rule="nonzero" fill="#F5F5F5" stroke="#6E6E96" id="Shape" d="M174.981,67.618 C174.981,67.618 173.286,72.999 167.323,73.306 L167.066,68.629 L174.981,67.618 Z"></path>
                <path stroke-linejoin="round" stroke-linecap="round" fill-rule="nonzero" fill="#FF7073" stroke-width="3" stroke="#6E6E96" id="Shape" d="M205.024,57.574 C202.912,59.884 186.02,33.574 188.154,40.004 C191.488,50.036 183.454,54.609 177.842,59.803 C163.414,73.147 140.674,72.534 127.045,58.436 C113.422,44.338 114.068,22.09 128.494,8.746 C142.919,-4.594 177.475,-3.601 192.029,21.572 C200.315,39.551 206.571,55.875 205.024,57.574 Z"></path>
                <path stroke-linejoin="round" stroke-linecap="round" fill-rule="nonzero" fill="#FFFFFF" stroke-width="3" stroke="#6E6E96" id="Shape" d="M160.386,114.57 C151.137,123.687 137.713,129.712 123.424,131.025 C145.375,112.385 112.628,144.383 81.269,119.231 C73.455,113.741 74.515,106.392 73.989,93.054 C69.203,119.769 64.152,94.796 61.672,81.147 C61.28,63.488 67.128,50.661 77.018,40.903 C95.511,22.664 125.673,13.279 153.512,38.67 C175.173,58.426 178.876,96.332 160.386,114.57 Z"></path>
                <g stroke="#6E6E96" id="Shape" transform="translate(93.000000, 32.000000)">
                    <path fill-rule="nonzero" fill="#FFBCAC" d="M6.688,25.477 C18.038,28.707 34.372,38.078 40.701,60.253 C40.936,61.106 41.196,61.895 41.464,62.649 C50.532,61.173 58.546,55.966 62.918,47.66 C70.797,32.691 63.88,13.356 47.468,4.466 C31.051,-4.424 11.358,0.505 3.476,15.471 C2.005,18.264 1.052,21.211 0.578,24.212 C2.74,24.2 4.778,24.665 6.688,25.477 Z"></path>
                    <path stroke-linejoin="round" stroke-linecap="round" stroke-width="3" d="M6.688,25.477 C18.038,28.707 34.372,38.078 40.701,60.253 C40.936,61.106 41.196,61.895 41.464,62.649 C50.532,61.173 58.546,55.966 62.918,47.66 C70.797,32.691 63.88,13.356 47.468,4.466 C31.051,-4.424 11.358,0.505 3.476,15.471 C2.005,18.264 1.052,21.211 0.578,24.212 C2.74,24.2 4.778,24.665 6.688,25.477 Z"></path>
                </g>
                <path fill-rule="nonzero" fill="#8383B3" stroke-width="3" stroke="#6E6E96" id="Shape" d="M123.431,51.019 C122.068,52.624 119.579,52.774 117.87,51.355 C116.166,49.936 115.887,47.482 117.252,45.876 C118.615,44.27 121.104,44.122 122.813,45.541 C124.518,46.959 124.797,49.414 123.431,51.019 Z"></path>
                <path fill-rule="nonzero" fill="#8383B3" stroke-width="3" stroke="#6E6E96" id="Shape" d="M144.453,68.382 C143.015,70.074 140.393,70.232 138.599,68.74 C136.802,67.243 136.508,64.66 137.945,62.968 C139.38,61.276 142.007,61.118 143.802,62.611 C145.6,64.107 145.89,66.692 144.453,68.382 Z"></path>
                <path stroke-linejoin="round" stroke-linecap="round" fill-rule="nonzero" fill="#FF7073" stroke-width="3" stroke="#6E6E96" id="Shape" d="M122.931,95.791 C122.931,95.791 106.873,108.345 93.606,96.74 C88.644,93.249 89.181,83.951 90.842,71.767 L122.931,95.791 Z"></path>
                <path stroke-linejoin="round" stroke-linecap="round" fill-rule="nonzero" fill="#FFBCAC" stroke-width="3" stroke="#6E6E96" id="Shape" d="M127.878,76.148 C125.191,79.781 116.916,78.257 112.643,75.124 C108.374,71.992 107.088,66.507 109.775,62.873 C112.46,59.239 118.1,58.829 122.369,61.963 C126.642,65.091 130.565,72.513 127.878,76.148 Z"></path>
                <path stroke-linejoin="round" stroke-linecap="round" fill-rule="nonzero" fill="#FFFFFF" stroke-width="3" stroke="#6E6E96" id="Shape" d="M157.683,25.311 C177.9,41.923 187.054,64.032 178.123,74.694 C169.191,85.353 161.727,61.224 141.506,44.615 C121.287,28.006 95.963,25.199 104.892,14.54 C111.252,6.952 125.053,7.208 139.77,13.973 C139.775,13.972 151.332,19.554 157.683,25.311 Z"></path>
                <path stroke-linejoin="round" stroke-linecap="round" fill-rule="nonzero" fill="#FFFFFF" stroke-width="3" stroke="#6E6E96" id="Shape" d="M213.524,62.264 C210.928,67.202 204.628,68.934 199.471,66.137 C194.3,63.338 192.224,57.073 194.821,52.14 C197.416,47.202 203.713,45.472 208.879,48.267 C214.045,51.066 216.123,57.336 213.524,62.264 Z"></path>
                <path stroke-linejoin="round" stroke-linecap="round" fill-rule="nonzero" fill="#5E5E5E" stroke-width="3" stroke="#6E6E96" id="Shape" d="M188.588,38.98 L179.995,29.015"></path>
                <path opacity="0.15" fill-rule="nonzero" fill="#6E6E96" id="Shape" d="M109.897,10.756 C109.897,10.756 102.398,20.194 120.566,25.304 C138.735,30.412 163.589,49.59 167.628,59.306 C171.667,69.021 179.75,35.022 143.629,15.967 C107.508,-3.085 173.641,23.6 179.75,40.632 C185.861,57.667 167.959,12.507 179.995,20.76 C192.032,29.014 198.737,46.92 195.384,29.014 L202.688,46.979 L196.799,49.567 L193.243,42.904 C193.243,42.904 188.464,37.704 188.464,47.684 C188.464,57.667 180.585,57.401 180.585,57.401 C180.585,57.401 180.19,79.855 171.987,77.026 C171.987,77.026 146.362,39.021 114.444,28.47 C114.442,28.473 94.116,21.759 109.897,10.756 Z"></path>
                <path opacity="0.1" fill-rule="nonzero" fill="#6E6E96" id="Shape" d="M121.768,31.404 C121.768,31.404 143.279,45.177 154.066,65.05 C154.066,65.05 149.531,84.322 130.791,84.322 L134.463,94.65 C134.463,94.65 159.721,87.54 159.721,64.371 C159.721,64.37 138.3,34.333 121.768,31.404 Z"></path>
                <path opacity="0.1" fill-rule="nonzero" fill="#6E6E96" id="Shape" d="M109.775,62.871 C109.775,62.871 126.121,80.409 124.245,63.634 C124.245,63.634 138.443,80.313 115.639,76.787 C115.639,76.786 103.912,68.735 109.775,62.871 Z"></path>
                <path opacity="0.15" fill-rule="nonzero" fill="#6E6E96" id="Shape" d="M90.146,90.67 C90.146,90.67 92.563,77.357 102.964,87.761 C113.368,98.164 115.436,101.563 104.521,101.563 L122.931,95.792 L90.842,71.767 L90.146,90.67 Z"></path>
                <path opacity="0.15" fill-rule="nonzero" fill="#6E6E96" id="Shape" d="M158.303,73.393 L166.209,81.299 C166.209,81.299 167.693,105.931 143.849,109.905 C119.999,113.879 83.265,133.944 77.761,85.044 C77.761,85.044 71.791,75.562 70.035,85.044 C70.035,85.044 64.618,75.907 66.754,57.053 C66.848,56.222 66.957,55.371 67.082,54.502 C70.036,33.921 51.907,86.12 69.732,104.83 L73.991,93.055 C73.991,93.055 62.784,142.399 129.151,125.302 L123.425,131.027 C123.425,131.027 175.298,125.517 171.989,77.03 L159.723,64.37 L158.303,73.393 Z"></path>
                <path fill-rule="nonzero" fill="#FFFFFF" stroke-width="3" stroke="#6E6E96" id="Shape" d="M31.848,60.096 L31.845,60.055 C32.024,61.25 29.961,68.605 19.382,75.701 C17.076,76.342 15.664,78.802 16.231,81.193 C16.8,83.583 19.125,85.001 21.43,84.358 C39.045,79.453 41.489,65.191 40.318,58.337 C39.899,55.913 37.673,54.339 35.332,54.82 C32.993,55.31 31.432,57.668 31.848,60.096 Z"></path>
                <path opacity="0.15" fill-rule="nonzero" fill="#6E6E96" id="Shape" d="M30.302,80.396 C30.302,80.396 35.06,101.159 68.898,115.015 C68.898,115.015 76.564,122.112 64.356,126.938 C52.149,131.764 42.782,116.972 42.782,116.972 L46.753,109.905 C46.753,109.905 24.268,92.175 24.268,83.437 L30.302,80.396 Z"></path>
                <path opacity="0.15" fill-rule="nonzero" fill="#6E6E96" id="Shape" d="M18.93,69.027 C18.93,69.027 9.847,69.041 9.847,59.941 C9.847,50.843 16.471,57.468 16.471,57.468 C16.471,57.468 15.435,46.501 9.847,50.843 C4.259,55.188 -10.295,68.045 16.528,78.187 L23.526,71.188 L18.93,69.027 Z"></path>
                <path opacity="0.15" fill-rule="nonzero" fill="#6E6E96" id="Shape" d="M196.081,113.877 C196.081,113.877 207.154,118.703 211.979,113.877 C216.805,109.051 218.625,103.257 220.609,105.246 C222.595,107.234 230.661,129.036 203.835,125.298 L196.081,113.877 Z"></path>
            </g>
            <path opacity="0.15" fill-rule="nonzero" fill="#6E6E96" id="Shape" d="M28.077,177.608 C28.077,177.608 55.246,215.989 133.054,213.146 C211.871,210.266 167.043,221.671 145.5,221.671 C118.887,221.671 24.807,217.778 11.626,193.358 C11.626,193.358 26.412,217.536 76.244,224.599 C76.244,224.599 160.057,244.397 203.043,219.452 C203.043,219.452 221.703,206.749 210.346,195.42 C210.347,195.42 128.068,225.152 28.077,177.608 Z"></path>
            <path opacity="0.15" fill-rule="nonzero" fill="#6E6E96" id="Shape" d="M39.951,135.504 C39.951,135.504 20.089,166.681 121.006,179.655 C192.184,188.805 195.201,163.753 180.419,167.946 C180.419,167.946 184.439,161.875 189.244,161.875 C194.049,161.875 200.937,170.595 192.48,176.289 C184.023,181.982 152.518,206.559 75.73,178.21 C75.731,178.21 25.148,161.106 39.951,135.504 Z"></path>
            <path opacity="0.2" fill-rule="nonzero" fill="#FFFFFF" id="Shape" d="M24.781,186.591 C24.781,186.591 4.781,199.591 56.281,208.091 C96.146,214.671 53.313,206.62 42.281,197.091 C33.599,189.591 30.281,184.548 24.781,186.591 Z"></path>
        </g>
    </g>
</svg>